<?xml version="1.0" encoding="UTF-8" standalone="no"?>
<!-- Created with Inkscape (http://www.inkscape.org/) -->

<svg
   width="144.0px"
   height="144.0px"
   viewBox="0 0 144.0 144.0"
   version="1.1"
   id="SVGRoot"
   sodipodi:docname="silk-curse-honey.svg"
   inkscape:version="1.2.1 (9c6d41e410, 2022-07-14)"
   xmlns:inkscape="http://www.inkscape.org/namespaces/inkscape"
   xmlns:sodipodi="http://sodipodi.sourceforge.net/DTD/sodipodi-0.dtd"
   xmlns="http://www.w3.org/2000/svg"
   xmlns:svg="http://www.w3.org/2000/svg">
  <sodipodi:namedview
     id="namedview1054"
     pagecolor="#ffffff"
     bordercolor="#666666"
     borderopacity="1.0"
     inkscape:showpageshadow="2"
     inkscape:pageopacity="0.0"
     inkscape:pagecheckerboard="0"
     inkscape:deskcolor="#d1d1d1"
     inkscape:document-units="px"
     showgrid="true"
     inkscape:zoom="2.8284271"
     inkscape:cx="2.6516504"
     inkscape:cy="12.904699"
     inkscape:window-width="1920"
     inkscape:window-height="1139"
     inkscape:window-x="0"
     inkscape:window-y="0"
     inkscape:window-maximized="1"
     inkscape:current-layer="layer1"
     showguides="false">
    <inkscape:grid
       type="xygrid"
       id="grid1540"
       enabled="false" />
  </sodipodi:namedview>
  <defs
     id="defs1049" />
  <g
     inkscape:label="Layer 1"
     inkscape:groupmode="layer"
     id="layer1">
    <path
       style="fill:#ff9d00;stroke:#ffd50a;stroke-width:2.13543307;stroke-linecap:butt;stroke-linejoin:miter;stroke-opacity:1;fill-opacity:1;stroke-dasharray:none"
       d="m 32.900943,118.01208 c -9.955373,0.28411 -21.375542,-1.83146 -29.4149119,5.54836 -2.277989,10.62454 15.9249079,7.01213 23.1076829,8.41673 28.440829,0.56109 56.912185,1.38876 85.353026,0.7155 10.04604,-3.13568 27.41048,-2.34478 27.40956,-16.73495 -5.57703,-8.2641 -18.90766,-4.58602 -27.79735,-7.40796 -8.17829,-1.197 -15.74813,1.78872 -23.680601,2.88507"
       id="path3844" />
    <path
       style="fill:#ff9d00;stroke:#ffd50a;stroke-width:2.13543307;stroke-linecap:round;stroke-linejoin:miter;stroke-opacity:1;fill-opacity:1;stroke-dasharray:none"
       d="M 111.47905,118.19152 C 102.89282,115.66147 92.930572,110.97754 85.033021,105.69731 77.718259,98.04546 82.089095,86.570526 85.381573,78.001248 89.765082,68.132286 95.161843,60.821484 93.673588,49.602743 93.78734,39.78625 88.930344,30.572151 80.99016,24.902892 74.266391,17.935801 64.295871,16.477217 55.772387,12.685983 47.330528,10.462428 31.759071,4.8339405 27.109295,13.970402 c -3.385412,3.038249 17.310594,11.348409 21.91059,20.813705 8.209962,13.026221 9.53167,32.316123 -2.119187,43.725288 -7.723086,6.120264 -15.502332,14.441558 -16.203587,24.712925 1.140392,9.36298 8.208789,20.22933 -7.526814,21.44493"
       id="path3840"
       sodipodi:nodetypes="ccccccccccc" />
    <path
       style="fill:#ff9d00;stroke:#ffd50a;stroke-width:2.13543307;stroke-linecap:round;stroke-linejoin:miter;stroke-opacity:1;fill-opacity:1;stroke-dasharray:none"
       d="m 64.709759,24.409829 c 9.232344,9.339575 11.915101,21.855167 10.010343,34.558867"
       id="path3848" />
    <path
       style="fill:#ff9d00;stroke:#ffd50a;stroke-width:2.13543307;stroke-linecap:round;stroke-linejoin:miter;stroke-opacity:1;fill-opacity:1;stroke-dasharray:none"
       d="m 57.627827,91.208967 c -5.304242,8.354515 -5.392734,21.377403 2.080942,28.538633"
       id="path3850" />
    <path
       style="fill:#ff0000;fill-opacity:1;stroke:none;stroke-width:0.691641px;stroke-linecap:butt;stroke-linejoin:miter;stroke-opacity:1"
       d="m 111.26381,34.305246 4.17558,-5.576713 -3.02198,6.384014 z"
       id="path4119" />
    <path
       style="fill:#ff0000;fill-opacity:1;stroke:none;stroke-width:0.691641px;stroke-linecap:butt;stroke-linejoin:miter;stroke-opacity:1"
       d="m 113.02509,37.309333 6.91737,0.827802 -7.03972,0.57489 z"
       id="path4119-3" />
    <path
       style="fill:#ff0000;fill-opacity:1;stroke:none;stroke-width:0.691641px;stroke-linecap:butt;stroke-linejoin:miter;stroke-opacity:1"
       d="m 110.62176,41.160767 4.17558,5.576713 -3.02198,-6.384014 z"
       id="path4119-6" />
    <path
       style="fill:#ff0000;fill-opacity:1;stroke:none;stroke-width:0.6911px;stroke-linecap:butt;stroke-linejoin:miter;stroke-opacity:1"
       d="m 107.22021,39.554976 -4.30598,5.468101 5.38434,-4.564178 z"
       id="path4119-6-5" />
    <path
       style="fill:#ff0000;fill-opacity:1;stroke:none;stroke-width:0.691641px;stroke-linecap:butt;stroke-linejoin:miter;stroke-opacity:1"
       d="m 106.72108,36.35663 -4.30597,-5.476653 5.38434,4.571315 z"
       id="path4119-7" />
    <path
       style="fill:#ff0000;stroke:none;stroke-width:1.07925px;stroke-linecap:butt;stroke-linejoin:miter;stroke-opacity:1"
       d="m 109.61383,35.355008 -0.86534,1.6829 -2.12262,1.020169 2.37217,0.473457 0.48537,2.171427 0.90796,-1.945163 1.846,0.609324 -1.4378,-1.693084 1.36725,-1.575429 -1.85027,0.558381 z"
       id="path4174" />
    <path
       style="fill:#ff0000;fill-opacity:1;stroke:none;stroke-width:1.56764px;stroke-linecap:butt;stroke-linejoin:miter;stroke-opacity:1"
       d="M 44.192722,108.23079 53.656919,95.590841 46.807411,110.06057 Z"
       id="path4119-23" />
    <path
       style="fill:#ff0000;fill-opacity:1;stroke:none;stroke-width:1.56764px;stroke-linecap:butt;stroke-linejoin:miter;stroke-opacity:1"
       d="M 48.184759,115.03972 63.86338,116.91597 47.907458,118.219 Z"
       id="path4119-3-7" />
    <path
       style="fill:#ff0000;fill-opacity:1;stroke:none;stroke-width:1.56764px;stroke-linecap:butt;stroke-linejoin:miter;stroke-opacity:1"
       d="m 42.737478,123.76921 9.464197,12.63995 -6.849508,-14.46973 z"
       id="path4119-6-59" />
    <path
       style="fill:#ff0000;fill-opacity:1;stroke:none;stroke-width:1.56642px;stroke-linecap:butt;stroke-linejoin:miter;stroke-opacity:1"
       d="m 35.027663,120.1296 -9.759739,12.39376 12.2039,-10.34498 z"
       id="path4119-6-5-2" />
    <path
       style="fill:#ff0000;fill-opacity:1;stroke:none;stroke-width:1.56764px;stroke-linecap:butt;stroke-linejoin:miter;stroke-opacity:1"
       d="m 33.896357,112.88036 -9.759738,-12.41314 12.20393,10.36114 z"
       id="path4119-7-2" />
    <path
       style="fill:#ff0000;stroke:none;stroke-width:2.44618px;stroke-linecap:butt;stroke-linejoin:miter;stroke-opacity:1"
       d="m 40.45295,110.61013 -1.961358,3.81439 -4.811037,2.31227 5.376674,1.07312 1.10011,4.92166 2.057941,-4.40882 4.184073,1.38106 -3.258865,-3.83747 3.098966,-3.57079 -4.193746,1.26559 z"
       id="path4174-8" />
    <path
       style="fill:#ff0000;fill-opacity:1;stroke:none;stroke-width:1.11354px;stroke-linecap:butt;stroke-linejoin:miter;stroke-opacity:1"
       d="m 34.19643,56.07951 -8.817436,6.932621 7.359834,-8.668794 z"
       id="path4119-35" />
    <path
       style="fill:#ff0000;fill-opacity:1;stroke:none;stroke-width:1.11354px;stroke-linecap:butt;stroke-linejoin:miter;stroke-opacity:1"
       d="M 32.709194,50.6738 22.296637,46.503987 33.483955,48.543395 Z"
       id="path4119-3-6" />
    <path
       style="fill:#ff0000;fill-opacity:1;stroke:none;stroke-width:1.11354px;stroke-linecap:butt;stroke-linejoin:miter;stroke-opacity:1"
       d="m 38.051603,45.685735 -4.169818,-10.412546 2.03941,11.187312 z"
       id="path4119-6-2" />
    <path
       style="fill:#ff0000;fill-opacity:1;stroke:none;stroke-width:1.11267px;stroke-linecap:butt;stroke-linejoin:miter;stroke-opacity:1"
       d="m 42.672366,49.600395 8.974959,-6.709381 -10.275293,4.854301 z"
       id="path4119-6-5-9" />
    <path
       style="fill:#ff0000;fill-opacity:1;stroke:none;stroke-width:1.11354px;stroke-linecap:butt;stroke-linejoin:miter;stroke-opacity:1"
       d="m 42.109876,54.075916 6.932625,8.817424 -8.668808,-7.359828 z"
       id="path4119-7-1" />
    <path
       style="fill:#ff0000;stroke:none;stroke-width:1.7376px;stroke-linecap:butt;stroke-linejoin:miter;stroke-opacity:1"
       d="m 37.199819,55.134522 1.424874,-3.145084 4.348204,0.186508 -3.491785,-1.724776 0.150018,-3.57913 -2.22255,2.646663 -2.616895,-1.716817 1.53048,3.232119 -2.782756,1.880283 3.110111,-0.09736 z"
       id="path4174-2"
       sodipodi:nodetypes="ccccccccccc" />
    <path
       style="fill:#ff0000;fill-opacity:1;stroke:none;stroke-width:0.612555px;stroke-linecap:butt;stroke-linejoin:miter;stroke-opacity:1"
       d="m 84.99019,90.561337 -6.107398,0.877462 5.890532,-2.105479 z"
       id="path4119-70" />
    <path
       style="fill:#ff0000;fill-opacity:1;stroke:none;stroke-width:0.612555px;stroke-linecap:butt;stroke-linejoin:miter;stroke-opacity:1"
       d="m 85.768504,87.577015 -3.813609,-4.850436 4.768666,4.048614 z"
       id="path4119-3-9" />
    <path
       style="fill:#ff0000;fill-opacity:1;stroke:none;stroke-width:0.612555px;stroke-linecap:butt;stroke-linejoin:miter;stroke-opacity:1"
       d="m 89.685565,86.670134 0.87746,-6.1074 -2.105477,5.890532 z"
       id="path4119-6-3" />
    <path
       style="fill:#ff0000;fill-opacity:1;stroke:none;stroke-width:0.612076px;stroke-linecap:butt;stroke-linejoin:miter;stroke-opacity:1"
       d="m 90.810163,89.805995 6.12104,-0.727784 -6.230279,-0.513623 z"
       id="path4119-6-5-6" />
    <path
       style="fill:#ff0000;fill-opacity:1;stroke:none;stroke-width:0.612555px;stroke-linecap:butt;stroke-linejoin:miter;stroke-opacity:1"
       d="M 89.119773,92.12155 88.386631,98.247945 87.87747,92.013187 Z"
       id="path4119-7-0" />
    <path
       style="fill:#ff0000;stroke:none;stroke-width:0.955843px;stroke-linecap:butt;stroke-linejoin:miter;stroke-opacity:1"
       d="m 86.680911,90.937222 1.595846,-0.511994 1.968179,0.690411 -1.189079,-1.782085 1.055899,-1.663822 -1.786773,0.649551 -0.774474,-1.537654 -0.159871,1.960725 -1.842863,0.130369 1.508424,0.809048 z"
       id="path4174-6" />
    <path
       style="fill:#ff0000;fill-opacity:1;stroke:none;stroke-width:1.20651px;stroke-linecap:butt;stroke-linejoin:miter;stroke-opacity:1"
       d="m 109.31995,132.3071 4.7828,11.17215 -7.00857,-10.13351 z"
       id="path4119-2" />
    <path
       style="fill:#ff0000;fill-opacity:1;stroke:none;stroke-width:1.20651px;stroke-linecap:butt;stroke-linejoin:miter;stroke-opacity:1"
       d="m 103.24543,132.34769 -7.283941,9.72813 5.271621,-11.13639 z"
       id="path4119-3-61" />
    <path
       style="fill:#ff0000;fill-opacity:1;stroke:none;stroke-width:1.20651px;stroke-linecap:butt;stroke-linejoin:miter;stroke-opacity:1"
       d="m 99.523239,125.35772 -12.066762,1.44401 12.28017,1.00287 z"
       id="path4119-6-8" />
    <path
       style="fill:#ff0000;fill-opacity:1;stroke:none;stroke-width:1.20557px;stroke-linecap:butt;stroke-linejoin:miter;stroke-opacity:1"
       d="m 104.91599,121.61953 -4.50499,-11.27441 2.19888,12.11511 z"
       id="path4119-6-5-7" />
    <path
       style="fill:#ff0000;fill-opacity:1;stroke:none;stroke-width:1.20651px;stroke-linecap:butt;stroke-linejoin:miter;stroke-opacity:1"
       d="m 110.18311,123.65509 12.02937,-1.72826 -11.60223,4.14705 z"
       id="path4119-7-9" />
    <path
       style="fill:#ff0000;stroke:none;stroke-width:1.88266px;stroke-linecap:butt;stroke-linejoin:miter;stroke-opacity:1"
       d="m 109.1732,128.89884 -1.78763,-2.77512 0.31019,-4.09646 -2.78429,3.17072 -3.70372,-1.16069 2.14662,3.06826 -2.53061,2.25731 3.81184,-0.69538 1.18748,3.43962 0.7703,-3.28224 z"
       id="path4174-20" />
  </g>
</svg>
