<?xml version="1.0" encoding="UTF-8" standalone="no"?>
<!-- Created with Inkscape (http://www.inkscape.org/) -->

<svg
   width="144"
   height="144"
   viewBox="0 0 38.099999 38.100001"
   version="1.1"
   id="svg5"
   inkscape:version="1.1.1 (3bf5ae0d25, 2021-09-20)"
   sodipodi:docname="notch-candle-shape.svg"
   xmlns:inkscape="http://www.inkscape.org/namespaces/inkscape"
   xmlns:sodipodi="http://sodipodi.sourceforge.net/DTD/sodipodi-0.dtd"
   xmlns:xlink="http://www.w3.org/1999/xlink"
   xmlns="http://www.w3.org/2000/svg"
   xmlns:svg="http://www.w3.org/2000/svg">
  <sodipodi:namedview
     id="namedview7"
     pagecolor="#ffffff"
     bordercolor="#666666"
     borderopacity="1.0"
     inkscape:pageshadow="2"
     inkscape:pageopacity="0.0"
     inkscape:pagecheckerboard="0"
     inkscape:document-units="px"
     showgrid="false"
     units="px"
     width="144px"
     inkscape:snap-global="false"
     inkscape:zoom="2.8284271"
     inkscape:cx="71.241008"
     inkscape:cy="63.993164"
     inkscape:window-width="1920"
     inkscape:window-height="1142"
     inkscape:window-x="0"
     inkscape:window-y="0"
     inkscape:window-maximized="1"
     inkscape:current-layer="layer1" />
  <defs
     id="defs2">
    <linearGradient
       inkscape:collect="always"
       id="linearGradient2692">
      <stop
         style="stop-color:#ff2a7f;stop-opacity:1"
         offset="0"
         id="stop2688" />
      <stop
         style="stop-color:#d42aff;stop-opacity:1"
         offset="1"
         id="stop2690" />
    </linearGradient>
    <linearGradient
       inkscape:collect="always"
       xlink:href="#linearGradient2692"
       id="linearGradient2694"
       x1="12.618107"
       y1="9.5826035"
       x2="36.68182"
       y2="52.844242"
       gradientUnits="userSpaceOnUse"
       gradientTransform="matrix(3.4683055,0,0,3.4683055,5.8285043,19.560758)" />
  </defs>
  <g
     inkscape:label="Layer 1"
     inkscape:groupmode="layer"
     id="layer1">
    <path
       id="rect2686"
       style="opacity:1;fill:url(#linearGradient2694);fill-opacity:1;stroke-width:3;stroke-linecap:round;stop-color:#000000"
       d="M 0 76.789062 L 0 119.16211 C 2.3684758e-15 132.92193 11.078069 144 24.837891 144 L 119.16211 144 C 132.92193 144 144 132.92193 144 119.16211 L 144 76.789062 L 0 76.789062 z "
       transform="scale(0.26458333)" />
    <path
       id="path1107"
       style="opacity:1;stroke-width:0.793749;stroke-linecap:round;stop-color:#000000"
       d="m 30.754045,21.251222 7.912699,0.05169 2.944854,-1.876456 H -4.1560037 l 3.43376755,1.876456 7.91269785,-0.05169 c 2.6417589,0 4.7686743,2.35949 4.7715503,5.120302 0.0028,2.760811 2.129636,5.120278 4.771398,5.120278 h 4.457503 c 2.641761,0 4.768522,-2.359467 4.78149,-5.120278 0.01297,-2.760812 2.139883,-5.120302 4.781642,-5.120302 z"
       sodipodi:nodetypes="cccccccsscc" />
    <path
       style="opacity:0.8;stroke-width:0.79375;stroke-linecap:round;stop-color:#000000"
       d="m 30.008721,26.081244 v 0.121308"
       id="rect870" />
    <g
       id="g7944"
       transform="matrix(0.91765582,0,0,0.91765582,1.0129584,-0.34036641)"
       style="stroke-width:1.08973">
      <path
         style="font-variation-settings:normal;opacity:1;vector-effect:none;fill:#ede9cc;fill-opacity:1;stroke:#575757;stroke-width:0.288325;stroke-linecap:round;stroke-linejoin:miter;stroke-miterlimit:4;stroke-dasharray:none;stroke-dashoffset:0;stroke-opacity:1;-inkscape-stroke:none;stop-color:#000000;stop-opacity:1"
         d="m 23.982292,14.974434 c -0.168732,0.582761 0.520126,-2.293141 0.590809,-2.45917 0.268843,-0.526518 0.398038,-1.225229 0.89096,-1.568763 0.674261,-0.224941 1.077624,0.656193 0.655064,1.144776 -0.182274,0.235145 -0.562973,0.874501 -0.608419,0.911084 0.364602,-0.599819 0.865543,-1.139619 1.471695,-1.495795 0.59629,-0.303682 1.190181,0.352617 0.873692,0.92271 -0.313074,0.814354 -1.207413,1.083887 -1.908207,1.460466 0.837647,-0.06886 1.526372,-0.840674 2.245122,-0.943465 0.782892,0.183222 0.291512,1.182389 -0.204719,1.435031 -0.610864,0.463025 -1.384221,0.704698 -2.150348,0.669857 -0.448223,0.05603 -0.999491,-0.102013 -1.038183,0.494861 -0.257015,0.498769 -0.677942,0.892842 -0.886325,1.422106 -0.347867,0.602806 -0.692251,1.328737 -1.403747,1.56224 -0.407285,0.137544 -0.741292,1.233904 -1.188622,0.636077 -0.06138,-0.217306 0.160264,-0.95294 -0.157853,-0.413416 -0.480093,0.443807 -1.168002,0.518483 -1.767551,0.719426 -0.107075,0.02853 -0.214787,0.05477 -0.323355,0.077"
         id="path6320"
         sodipodi:nodetypes="cssssssccssssssscc" />
      <path
         style="font-variation-settings:normal;opacity:1;vector-effect:none;fill:#ede9cc;fill-opacity:1;stroke:#575757;stroke-width:0.288325;stroke-linecap:round;stroke-linejoin:miter;stroke-miterlimit:4;stroke-dasharray:none;stroke-dashoffset:0;stroke-opacity:1;-inkscape-stroke:none;stop-color:#000000;stop-opacity:1"
         d="m 19.073578,19.602905 c 0.144407,-0.0075 -0.640456,-0.956055 -0.498236,-0.979971 0.495116,-0.08326 0.976375,-0.254713 1.439538,-0.43793 0.321022,-0.23322 0.61417,-0.304191 0.816253,-0.384573 0.76939,-0.437416 1.395252,-1.093293 1.947589,-1.776971 0.279804,-0.410509 0.798482,-1.020177 0.721645,-1.428377 -0.410473,-0.209545 -0.475856,-0.765398 -0.615632,-1.157107 -0.171399,-0.511762 -0.349257,-1.116223 -0.07224,-1.622176 0.516263,-0.394409 0.802787,0.535322 0.80599,0.9379 -0.02644,0.492729 0.410998,0.610378 0.761275,0.352258 0.464934,-0.02108 0.908885,0.48347 0.890338,0.96516 0.0025,0.0803 -0.0017,0.160777 -0.01196,0.24044"
         id="path6283"
         sodipodi:nodetypes="cscccccccccc" />
    </g>
    <path
       style="fill:#ede9cc;fill-opacity:1;stroke:#575757;stroke-width:0.264583;stroke-linecap:round;stroke-linejoin:miter;stroke-miterlimit:4;stroke-dasharray:none;stroke-opacity:1"
       d="m 21.66913,28.579782 c 0.498362,-0.232521 1.040427,0.0229 0.46249,0.479599 0.360999,0.368947 1.702332,-0.154176 1.806168,0.635209 -0.294669,0.835126 -1.555986,0.668814 -2.297346,0.790596 -0.757699,0.160203 -1.577557,0.05057 -2.353676,0.04022 -0.697374,-0.07393 -1.764023,-0.21331 -2.154727,-0.28283 -0.759262,-0.343718 -1.61014,0.154794 -2.38003,-0.121668 -0.357065,-0.286335 -1.378322,-0.354286 -1.286152,-0.828716 0.943198,0.0358 -0.245626,-0.796547 0.447933,-1.008521 -0.02384,-1.09401 0.01089,-2.193726 -0.03579,-3.284496 -0.09604,-0.271996 -0.382917,-1.396627 -0.456742,-1.335459 0.125637,0.898515 -0.877455,0.250166 -0.453416,-0.333122 0.093,-0.925856 0.01555,-1.859399 -0.278787,-2.739276 0.06872,-0.941527 -0.313783,-1.717418 -0.245447,-2.643923 -0.0443,-0.41095 -0.73073,-1.658469 -0.479563,-0.612836 0.371338,0.845205 -1.066504,1.070466 -0.990404,0.09714 -0.204248,-0.784654 -0.353815,-1.585224 -0.281639,-2.402609 0.04807,-0.701407 0.269378,-1.402837 0.153999,-2.113279 -0.401132,-0.720705 0.734927,-0.869223 1.239929,-1.057014 0.848319,-0.378859 1.826697,-0.344423 2.69156,-0.600116 0.568715,-0.02969 1.312894,-0.429604 1.434307,0.395346 0.65374,0.648883 1.152553,1.43739 1.755842,2.130056 0.592965,0.589129 0.57677,1.427951 0.598325,2.195028 -0.02098,0.800984 -0.0074,1.623316 0.314982,2.372701 0.278593,0.764076 0.782075,1.462487 1.28321,2.109238 0.473314,0.406397 0.198586,1.060819 -0.333761,0.766045 0.261923,0.829349 0.487582,1.707316 0.442256,2.607796 0.155825,0.888277 1.064032,1.335088 1.331028,2.175175 0.227951,0.446516 0.411958,1.212834 0.03176,1.33522 0.146783,0.36913 0.172195,0.718087 -0.247465,0.797084 0.13411,0.122353 0.209793,0.271735 0.28115,0.437412 z"
       id="path3479" />
    <path
       style="font-variation-settings:normal;opacity:1;fill:none;fill-opacity:1;stroke:#575757;stroke-width:0.264583;stroke-linecap:round;stroke-linejoin:miter;stroke-miterlimit:4;stroke-dasharray:none;stroke-dashoffset:0;stroke-opacity:1;stop-color:#000000;stop-opacity:1"
       d="m 16.383489,17.117452 c 0.294758,0.09473 0.342332,0.43731 0.462988,0.679243 0.122991,0.357283 0.334473,0.671391 0.519425,0.997371 0.101592,0.176151 0.164033,0.372214 0.216371,0.565619 0.168014,0.289466 0.176509,0.630761 0.229499,0.951317 0.03474,0.246624 0.187209,0.440234 0.356923,0.609199 0.156465,0.166005 0.363829,0.268403 0.550619,0.39451 0.09837,0.285783 0.106788,0.621353 0.05148,0.911527 -0.0975,0.251004 -0.378435,0.415985 -0.644133,0.340705 -0.486431,-0.10802 -0.810211,-0.591304 -0.855041,-1.068818 -0.0512,-0.367873 -0.01353,-0.739769 -0.01511,-1.109312"
       id="path3910" />
    <path
       style="font-variation-settings:normal;opacity:1;fill:none;fill-opacity:1;stroke:#575757;stroke-width:0.264583;stroke-linecap:round;stroke-linejoin:miter;stroke-miterlimit:4;stroke-dasharray:none;stroke-dashoffset:0;stroke-opacity:1;stop-color:#000000;stop-opacity:1"
       d="m 14.762864,21.870175 c 0.02985,0.347173 0.0975,0.684695 0.192826,1.018357 0.03002,0.105048 -0.01005,0.284595 0,0.384558 0.03648,0.362804 0.03226,0.728979 0.03226,1.096901 0,0.11058 -0.04765,0.365106 0,0.465467 0.119398,0.251447 0.310739,0.37011 0.537942,0.142908 0.03999,-0.03999 0.08198,-0.02961 0.113056,-0.09236 0.101118,-0.204168 0.06409,-0.446099 0.06409,-0.666184"
       id="path4011" />
    <path
       style="font-variation-settings:normal;opacity:1;fill:none;fill-opacity:1;stroke:#575757;stroke-width:0.264583;stroke-linecap:round;stroke-linejoin:miter;stroke-miterlimit:4;stroke-dasharray:none;stroke-dashoffset:0;stroke-opacity:1;stop-color:#000000;stop-opacity:1"
       d="m 19.432305,25.438133 c 0.0926,0.189728 0.01139,0.472524 0.230199,0.590693 0.163925,0.09791 0.38184,0.06673 0.523717,0.207703 0.163365,0.133365 0.302193,0.295683 0.441265,0.452003 0.08766,0.148628 -0.04172,0.294016 -0.137245,0.398914 -0.121835,0.15571 -0.280416,0.01522 -0.380821,-0.08555 -0.140701,-0.125905 -0.267158,-0.266468 -0.402093,-0.398307"
       id="path4013" />
    <path
       style="font-variation-settings:normal;opacity:1;fill:none;fill-opacity:1;stroke:#575757;stroke-width:0.264583;stroke-linecap:round;stroke-linejoin:miter;stroke-miterlimit:4;stroke-dasharray:none;stroke-dashoffset:0;stroke-opacity:1;stop-color:#000000;stop-opacity:1"
       d="m 17.225849,27.209805 c -0.0039,0.15635 0.0091,0.313832 -0.0092,0.469394 -0.02936,0.149991 -0.121734,0.281737 -0.232512,0.383684 -0.06761,0.06217 -0.160574,0.02871 -0.235102,0.0012 -0.08135,-0.03761 -0.175742,-0.04564 -0.249314,-0.09895 -0.07102,-0.06833 -0.0564,-0.178877 -0.0571,-0.268743 l 2.21e-4,-0.01505 5.9e-5,-0.01499"
       id="path4114" />
    <path
       style="fill:none;stroke:#000000;stroke-width:0.264583px;stroke-linecap:butt;stroke-linejoin:miter;stroke-opacity:1"
       d="m 12.634016,8.8085665 c -0.007,0.3046258 0.120313,0.5961438 0.1561,0.8979497 0.0257,0.2167871 -0.03333,0.4454948 0,0.6609088 0.06849,0.442763 0.207925,0.859468 0.349907,1.283336 0.03923,0.117128 0.09814,0.400392 0.183036,0.485286"
       id="path8059" />
    <path
       style="fill:#ed1e00;fill-opacity:1;stroke:#000000;stroke-width:0.264583px;stroke-linecap:butt;stroke-linejoin:miter;stroke-opacity:1"
       d="m 13.813431,2.2762418 c -0.167461,0.1197205 -0.316836,0.2657208 -0.482026,0.387807 -0.482199,0.3563739 -0.0909,0.036958 -0.532611,0.3452466 -0.17974,0.1254499 -0.362321,0.2887942 -0.529003,0.4345873 -0.122125,0.1068194 -0.124948,0.1563053 -0.277978,0.2779761 -0.03686,0.029308 -0.08996,0.033037 -0.126718,0.062473 C 11.677721,3.9343715 11.508198,4.1231913 11.350521,4.3013261 10.820368,4.900267 10.236634,5.6003734 9.9548663,6.358277 9.7528216,6.9017404 9.5464546,7.7534951 9.6928096,8.3389152 c 0.06077,0.2430793 0.2166551,0.4647935 0.3381184,0.6772505 0.142449,0.2491628 0.262325,0.5595601 0.516242,0.7288375 0.154841,0.1032278 0.459366,0.2892918 0.636616,0.3336048 0.114026,0.02851 0.251275,0.02667 0.364195,0.0607 0.07452,0.02246 0.139488,0.07156 0.214557,0.0921 0.157701,0.04317 0.458171,7.53e-4 0.634095,0.03011 0.399145,0.06659 0.789813,0.06069 1.196495,0.06069 0.178972,0 0.394354,0.02527 0.570607,0 0.263134,-0.03773 0.04649,-0.0088 0.275261,-0.09211 0.158724,-0.05783 0.269392,-0.06301 0.425574,-0.121535 0.112597,-0.04219 0.310367,-0.2061282 0.436912,-0.2819838 0.264907,-0.1587945 0.619754,-0.281243 0.769807,-0.5818117 0.02869,-0.05747 0.03558,-0.1237861 0.06084,-0.1828438 0.05223,-0.1221194 0.114044,-0.225843 0.152025,-0.3650299 0.04489,-0.1645243 0.06673,-0.8414137 0.03035,-1.0050104 C 16.265688,7.472392 16.131012,7.2823274 16.040002,7.08218 15.969517,6.9271723 15.987739,6.8058835 15.916047,6.6507232 15.835372,6.476121 15.705636,6.3200658 15.609895,6.1605289 15.516928,6.0056138 15.452619,5.8318525 15.366056,5.6729986 15.231516,5.4261017 15.094009,5.1900019 14.968934,4.9397125 14.930078,4.8619598 14.86396,4.7974282 14.816887,4.7268191 14.704319,4.5579671 14.608677,4.3676475 14.482083,4.2093699 14.455234,4.175801 14.413028,4.1550347 14.390897,4.1181841 14.322193,4.0037832 14.290216,3.8809336 14.241387,3.7587047 14.195624,3.6441515 14.077219,3.5449597 14.029048,3.42483 13.982832,3.3095781 13.978409,3.1821237 13.938619,3.0632555 13.824821,2.7232852 13.760971,2.6483859 13.813431,2.2762418 Z"
       id="path8061" />
    <path
       style="fill:#edc600;fill-opacity:1;stroke:#000000;stroke-width:0.264583px;stroke-linecap:butt;stroke-linejoin:miter;stroke-opacity:1"
       d="M 12.134842,6.3596573 C 11.903218,6.6152105 11.692828,6.929641 11.600624,7.2755038 11.470725,7.68237 11.359911,8.1241973 11.460388,8.5497072 c 0.06248,0.1916688 0.182911,0.3723298 0.345536,0.4928011 0.266444,0.1490508 0.583515,0.1389087 0.874785,0.2042887 0.280507,0.033709 0.572872,0.1074123 0.852513,0.035282 0.224574,-0.07942 0.402665,-0.2468484 0.587176,-0.3904727 0.0669,-0.1717362 -3.43e-4,-0.3721937 0.0011,-0.554182 C 14.086747,8.0345337 13.810458,7.8579102 13.660531,7.6158615 13.49579,7.479429 13.382986,7.3157127 13.232012,7.162985 13.088121,6.9243945 13.033963,6.6799439 13.091124,6.4178735 c 0.07312,-0.4592984 0.400091,-0.7856071 0.518977,-1.1629622 0,0 -1.04583,0.6309517 -1.475259,1.104746 z"
       id="path8063"
       sodipodi:nodetypes="scccccccccccs" />
    <path
       style="fill:none;stroke:#000000;stroke-width:0.264583px;stroke-linecap:butt;stroke-linejoin:miter;stroke-opacity:1"
       d="m 12.335298,13.211257 c 0.477981,-0.250236 0.99708,0.04734 1.073926,0.735037 0.01285,0.28383 -0.09992,0.639746 -0.404256,0.719476 -0.214582,0.025 -0.397852,-0.165243 -0.398098,-0.374648 -0.0341,-0.221268 0.169261,-0.39058 0.376132,-0.396297 0.245327,-0.0197 0.331575,0.269967 0.385836,0.457407"
       id="path10302"
       sodipodi:nodetypes="cccccc" />
    <path
       style="fill:none;stroke:#000000;stroke-width:0.264583px;stroke-linecap:butt;stroke-linejoin:miter;stroke-opacity:1"
       d="m 14.766413,12.438859 c 0.449868,-0.199955 0.720149,-0.02873 0.839605,0.137871 0.228312,0.263678 0.20161,0.628081 0.194245,0.952787 -0.02826,0.172224 -0.100808,0.393479 -0.280824,0.457334 -0.25443,0.02779 -0.414166,-0.21941 -0.491769,-0.427528 -0.118841,-0.171897 -0.06328,-0.454479 0.184534,-0.446846 0.18624,-0.02229 0.444201,-0.04205 0.493263,0.193877 0.03527,0.159902 0.0718,0.364726 -0.01685,0.509904"
       id="path10304"
       sodipodi:nodetypes="cccccccc" />
    <path
       style="fill:#000000;stroke:none;stroke-width:0.264583px;stroke-linecap:butt;stroke-linejoin:miter;stroke-opacity:1"
       d="m 12.670439,15.896666 c 1.090561,-0.34287 2.2392,-0.486803 3.305759,-0.906796 0.317213,-0.137814 0.635118,-0.30738 0.984364,-0.336227 -0.08603,0.283789 -0.185693,0.620732 -0.339447,0.900038 -0.152865,0.294021 -0.435445,0.492242 -0.605611,0.777166 -0.122666,0.210002 -0.297301,0.389045 -0.52846,0.476512 -0.470332,0.223908 -1.002479,0.301866 -1.518696,0.289771 -0.306986,-0.108112 -0.501566,-0.390868 -0.755023,-0.580851 -0.05552,-0.04855 -0.110098,-0.09914 -0.149021,-0.162641"
       id="path10308"
       sodipodi:nodetypes="ccsscccsscsssccsc" />
    <path
       style="fill:#ede9cc;stroke:none;stroke-width:0.264583;stroke-linecap:round;stroke-linejoin:miter;stroke-opacity:1;font-variation-settings:normal;opacity:1;vector-effect:none;fill-opacity:1;stroke-miterlimit:4;stroke-dasharray:none;stroke-dashoffset:0;-inkscape-stroke:none;stop-color:#000000;stop-opacity:1"
       d="m 5.5419542,20.478617 1.6148886,-0.69188 3.0023212,-0.639109 1.012686,-0.369072 1.581078,-0.974529 0.652791,1.335268 -7.3673366,1.85518 z"
       id="path13844" />
    <path
       style="font-variation-settings:normal;opacity:1;vector-effect:none;fill:#ede9cc;fill-opacity:1;stroke:#575757;stroke-width:0.264583;stroke-linecap:round;stroke-linejoin:miter;stroke-miterlimit:4;stroke-dasharray:none;stroke-dashoffset:0;stroke-opacity:1;-inkscape-stroke:none;stop-color:#000000;stop-opacity:1"
       d="m 5.780113,20.796496 c 0.300334,0.58309 1.0904048,0.387163 1.5345168,0.269848 0.8072699,-0.213247 1.8609252,-0.470509 2.0706273,-0.547376 0.4036005,-0.0619 0.8088359,-0.120544 1.1923529,-0.268513 0.327595,-0.100393 0.672683,-0.111153 1.009582,-0.155432 0.437825,3.1e-5 0.04659,0.403509 0.130461,0.553535 0.262927,0.104302 0.666119,-0.112531 0.614206,-0.377703 0.06594,-0.167489 0.335543,-0.400963 0.635268,-0.617719 0.334561,-0.241949 0.438193,-0.734271 0.438193,-0.734271"
       id="path11393"
       sodipodi:nodetypes="cscccccsc" />
    <path
       style="font-variation-settings:normal;opacity:1;vector-effect:none;fill:#ede9cc;fill-opacity:1;stroke:#575757;stroke-width:0.264583;stroke-linecap:round;stroke-linejoin:miter;stroke-miterlimit:4;stroke-dasharray:none;stroke-dashoffset:0;stroke-opacity:1;-inkscape-stroke:none;stop-color:#000000;stop-opacity:1"
       d="m 5.657513,20.404774 c -0.3822547,0.223521 -0.8072783,0.444648 -1.0426108,0.834797 -0.099464,0.345923 0.3439408,0.489457 0.610287,0.5174 0.4023677,0.01759 0.8023858,0.109835 1.2095577,0.08936 0.6991663,-0.03504 1.4006312,0.04675 2.0979164,-0.0263 0.2518322,-0.0651 0.6225031,-0.140148 0.5269134,0.268516 -0.046465,0.340811 -0.3191527,0.673076 -0.1815056,1.022884 0.2261931,0.300738 0.6303862,-0.05349 0.725099,-0.311593 0.07955,-0.278598 -0.012507,-0.657483 0.1015256,-0.890033 -0.010766,0.393736 -0.223379,0.817543 -0.032159,1.193696 0.2427037,0.316895 0.5267233,-0.16872 0.5335713,-0.414255 0.04253,-0.299588 -0.01867,-0.600861 -0.0038,-0.901173 0.05313,0.303548 0.11558,0.614977 0.127625,0.920537 -0.07803,0.314288 0.304835,0.675598 0.592257,0.450895 0.217636,-0.285049 0.208381,-0.685358 0.333362,-1.01693 C 11.35828,21.71016 11.421033,21.1768 11.106305,20.816674 10.713651,20.498617 10.191883,20.690192 9.7361116,20.69047 9.3834121,20.70681 9.033911,20.77338 8.6935459,20.856149 c -0.5299375,-0.0061 -1.0556301,-0.114585 -1.5869301,-0.0684 -0.2975013,0.0027 -0.5950101,-5.5e-4 -0.8925148,-3.87e-4"
       id="path13608" />
    <path
       style="font-variation-settings:normal;opacity:1;vector-effect:none;fill:none;fill-opacity:1;stroke:#575757;stroke-width:0.264583;stroke-linecap:round;stroke-linejoin:miter;stroke-miterlimit:4;stroke-dasharray:none;stroke-dashoffset:0;stroke-opacity:1;-inkscape-stroke:none;stop-color:#000000;stop-opacity:1"
       d="m 12.843124,17.830835 c -0.756334,0.141441 -1.390504,0.926082 -1.820418,1.02733 -0.423762,0.126847 -1.6243659,0.515868 -2.0607298,0.579856 -0.6741569,0.221887 -1.6588705,0.243417 -2.3058447,0.544373 -0.4385335,0.187408 -0.5970615,0.15946 -0.9986185,0.42238"
       id="path11391" />
  </g>
</svg>
