<?xml version="1.0" encoding="UTF-8" standalone="no"?>
<!-- Created with Inkscape (http://www.inkscape.org/) -->

<svg
   xmlns:dc="http://purl.org/dc/elements/1.1/"
   xmlns:cc="http://creativecommons.org/ns#"
   xmlns:rdf="http://www.w3.org/1999/02/22-rdf-syntax-ns#"
   xmlns:svg="http://www.w3.org/2000/svg"
   xmlns="http://www.w3.org/2000/svg"
   xmlns:sodipodi="http://sodipodi.sourceforge.net/DTD/sodipodi-0.dtd"
   xmlns:inkscape="http://www.inkscape.org/namespaces/inkscape"
   width="144px"
   height="144px"
   viewBox="0 0 144 144"
   version="1.1"
   id="SVGRoot"
   inkscape:version="0.92.4 (5da689c313, 2019-01-14)"
   sodipodi:docname="quilled-and-wednesday.svg">
  <defs
     id="defs815" />
  <sodipodi:namedview
     id="base"
     pagecolor="#ffffff"
     bordercolor="#666666"
     borderopacity="1.0"
     inkscape:pageopacity="0.0"
     inkscape:pageshadow="2"
     inkscape:zoom="1"
     inkscape:cx="106.01859"
     inkscape:cy="64.192066"
     inkscape:document-units="px"
     inkscape:current-layer="layer1"
     showgrid="false"
     inkscape:window-width="1920"
     inkscape:window-height="1151"
     inkscape:window-x="0"
     inkscape:window-y="0"
     inkscape:window-maximized="1"
     inkscape:grid-bbox="true"
     inkscape:snap-global="false" />
  <metadata
     id="metadata818">
    <rdf:RDF>
      <cc:Work
         rdf:about="">
        <dc:format>image/svg+xml</dc:format>
        <dc:type
           rdf:resource="http://purl.org/dc/dcmitype/StillImage" />
        <dc:title></dc:title>
      </cc:Work>
    </rdf:RDF>
  </metadata>
  <g
     inkscape:label="Layer 1"
     inkscape:groupmode="layer"
     id="layer1">
    <path
       style="opacity:1;vector-effect:none;fill:#e24b00;fill-opacity:0.74418598;fill-rule:nonzero;stroke:none;stroke-width:3.00000024;stroke-linecap:butt;stroke-linejoin:miter;stroke-miterlimit:4;stroke-dasharray:none;stroke-dashoffset:0;stroke-opacity:1"
       id="path1405"
       d="m 14.568255,89.799006 c -0.461369,-0.532718 -0.888091,-1.081993 -1.196933,-1.713825 -0.231284,-0.563345 -0.287558,-1.16832 -0.31783,-1.768806 -0.03167,-0.478328 0.03389,-1.002317 0.343824,-1.395732 1.667829,-2.117023 3.358617,-4.216523 5.037924,-6.324785 0.59323,-0.485009 1.292986,-0.81267 2.018354,-1.057454 0.623731,-0.196782 1.276126,-0.209132 1.924413,-0.209427 0.695797,-0.02358 1.372248,-0.01446 2.049639,0.149231 0.80203,0.143546 1.521595,0.495951 2.192722,0.936625 0.557827,0.453635 0.961112,1.043178 1.289154,1.669911 0.30121,0.615317 0.446467,1.266191 0.518809,1.940272 0.06678,0.763192 0.06135,1.530204 0.06826,2.295552 -0.0028,0.727366 -0.002,1.454727 8.63e-4,2.18209 0.01832,0.706324 -0.177161,1.399112 -0.374179,2.072795 -0.298077,0.84163 -0.831467,1.581879 -1.318761,2.327525 -1.76607,2.541353 -0.406092,0.599663 -5.311036,6.71033 -0.335378,0.417819 -0.749492,0.758632 -1.163082,1.09697 -0.576026,0.331002 -1.189528,0.580082 -1.818395,0.794582 -0.617189,0.10576 -1.207169,0.27732 -1.833019,0.33314 -0.663959,0.0621 -1.331475,0.0666 -1.997841,0.0767 -0.538442,-0.0106 -1.08231,0.0551 -1.612812,-0.0465 C 12.453458,99.65033 11.877005,99.32583 11.330386,98.975891 10.802821,98.62389 10.286434,98.262167 9.799328,97.857236 9.296086,97.425427 8.822267,96.962151 8.3482038,96.500049 7.811633,96.02181 7.4182213,95.424084 7.0443195,94.821194 6.6628466,94.185821 6.4237207,93.485923 6.196066,92.787016 6.0084605,92.214427 5.8892746,91.624424 5.7331868,91.043972 5.5834822,90.556813 5.507207,90.055287 5.4656558,89.549497 5.4441867,89.05081 5.4480136,88.558533 5.3765784,88.063812 5.2694398,87.467892 5.2493095,86.863108 5.2272943,86.259845 c -0.019975,-0.66882 -0.00927,-1.338113 -0.011219,-2.007142 0.020719,-0.837278 -0.00865,-1.674848 0.048607,-2.51081 0.047012,-0.721157 0.2667414,-1.412984 0.499978,-2.093394 0.2869721,-0.68862 0.6131867,-1.360318 0.9853699,-2.008393 1.5959721,-2.463038 3.7505498,-4.78746 5.4971028,-6.943486 0.250735,-0.309519 0.573046,-0.580054 0.880591,-0.831892 0.902089,-0.565053 1.924619,-0.92046 2.9667,-1.137042 1.180486,-0.220664 2.386039,-0.207324 3.582542,-0.215344 1.015187,-0.01457 2.030388,-0.02193 3.045532,-0.03971 0.699305,-0.04963 1.383816,0.03899 2.074779,0.125792 0.613605,0.242474 1.255247,0.394693 1.859872,0.657422 0.632781,0.292585 1.238988,0.628636 1.819575,1.011308 0.559435,0.390167 1.129808,0.770236 1.714832,1.122775 0.687094,0.41635 1.326399,0.897674 1.963731,1.382263 0.776868,0.563739 1.468413,1.227781 2.205722,1.838304 1.042985,0.840799 2.080525,1.687886 3.124126,2.527953 1.273153,1.029801 2.467417,2.147446 3.63302,3.291921 1.605185,1.585296 3.104178,3.277085 4.490164,5.050416 1.476371,1.78194 2.864643,3.632023 4.232045,5.495145 1.492645,2.039984 3.033757,4.044925 4.569002,6.054233 1.680682,2.283906 3.357667,4.571116 5.093706,6.814926 1.827262,2.30458 3.943029,4.35389 6.161793,6.29002 1.635401,1.38928 3.430563,2.56922 5.280374,3.66107 1.136211,0.58088 2.212146,1.27947 3.36302,1.83126 0.904802,0.4167 1.836525,0.77421 2.808994,1.00335 0.95009,0.29955 1.931666,0.44441 2.908515,0.62416 1.205437,0.17759 2.410598,0.35948 3.618931,0.51823 1.343113,0.19797 2.699778,0.28192 4.046564,0.44435 1.133614,0.0868 2.229538,0.38168 3.352361,0.54551 0.937385,0.13044 1.884005,0.14222 2.82869,0.15005 0.705303,-0.0323 1.421929,0.058 2.120034,-0.058 0.578346,-0.11482 1.153895,-0.29651 1.685728,-0.55205 0.560943,-0.18271 0.993682,-0.57577 1.418654,-0.96167 1.97174,-1.91362 4.29764,-5.17221 -4.034581,5.15747 -0.06473,0.0803 0.118651,-0.16849 0.173901,-0.25532 0.06134,-0.0964 0.117175,-0.19617 0.175753,-0.29425 0.435691,-0.73213 0.639023,-1.55904 0.784079,-2.38647 0.131707,-0.9049 0.132358,-1.82087 0.147724,-2.73287 0.0073,-1.00504 0.0037,-2.01006 -0.0037,-3.01508 0.01091,-0.94984 -0.07858,-1.89804 -0.200471,-2.8394 -0.145753,-0.97834 -0.352368,-1.94783 -0.612774,-2.90273 -0.308715,-1.02386 -0.501778,-2.07622 -0.719826,-3.12093 -0.209869,-1.03135 -0.444511,-2.05428 -0.699132,-3.07547 -0.222705,-0.9722 -0.386896,-1.95538 -0.566316,-2.935699 -0.134962,-1.027731 -0.322588,-2.046933 -0.432583,-3.077752 -0.0949,-0.829871 -0.21592,-1.655852 -0.372309,-2.476601 -0.121218,-0.859286 -0.219147,-1.721765 -0.32024,-2.58364 C 92.301528,90.030808 92.178797,89.261481 92.104,88.484599 92.04551,87.712333 92.04285,86.9376 92.0433,86.16366 c -0.0083,-0.741622 -0.02796,-1.480389 0.06858,-2.217033 0.145973,-0.707937 0.338935,-1.41015 0.613699,-2.080658 0.240117,-0.652251 0.555599,-1.276352 0.887263,-1.887919 0.273783,-0.563112 0.613012,-1.091732 0.945318,-1.622667 0,0 5.72619,-5.422178 5.72619,-5.422178 v 0 c -0.2709,0.566284 -0.63743,1.077247 -0.96322,1.613004 -0.30497,0.619441 -0.662402,1.213719 -0.957594,1.837957 -0.238539,0.659794 -0.551252,1.286761 -0.693466,1.98431 -0.209933,0.69679 -0.233735,1.4037 -0.207054,2.127394 0.0046,0.757391 0.0018,1.515117 0.03218,2.272053 0.03851,0.781173 0.120594,1.55834 0.275736,2.326349 0.0706,0.847768 0.21559,1.683798 0.296448,2.530012 0.13001,0.849645 0.295192,1.692465 0.392094,2.547137 0.07216,1.01911 0.223659,2.025921 0.381808,3.034939 0.166208,0.973668 0.338988,1.945431 0.524878,2.915623 0.11562,0.516875 0.28094,1.022845 0.39466,1.539122 0.11434,0.519114 0.1538,1.056419 0.31357,1.567085 0.19458,1.02587 0.42056,2.04781 0.68497,3.0582 0.30578,0.97747 0.50692,1.97957 0.69538,2.98443 0.13487,0.96118 0.29301,1.92673 0.28347,2.89948 -0.003,1.00685 -5.4e-4,2.01364 0.005,3.02048 0.007,0.92921 0.008,1.85993 -0.0597,2.78728 -0.0874,0.86946 -0.25126,1.72757 -0.55613,2.55144 -1.4025,2.90164 -3.516323,5.52137 -6.040225,7.56184 -0.500513,0.36325 -1.035885,0.64897 -1.629386,0.84083 -0.611095,0.19774 -1.228059,0.39614 -1.877286,0.41785 -0.725508,0.0141 -1.451697,0.007 -2.176982,-0.0147 -0.964447,-0.036 -1.92928,-0.11024 -2.88262,-0.26133 -1.105501,-0.19155 -2.202891,-0.42669 -3.321331,-0.53971 -1.341992,-0.16846 -2.685136,-0.32959 -4.02893,-0.48362 -1.23031,-0.16757 -2.469197,-0.27248 -3.694233,-0.47357 -0.999707,-0.17439 -1.988016,-0.3876 -2.968054,-0.64986 -1.005944,-0.28928 -1.97693,-0.6755 -2.917439,-1.13011 -1.152619,-0.59302 -2.238895,-1.31305 -3.356841,-1.96536 -1.818068,-1.21004 -3.607891,-2.4649 -5.252606,-3.89886 -2.220266,-2.00266 -4.314486,-4.1309 -6.210769,-6.43573 -1.782772,-2.20204 -3.456264,-4.48688 -5.185103,-6.72969 -1.522457,-2.02086 -3.056563,-4.031937 -4.580246,-6.051805 -1.3868,-1.838579 -2.785591,-3.669972 -4.225797,-5.468533 -1.382965,-1.729871 -2.839619,-3.400136 -4.447937,-4.93457 -1.183866,-1.094563 -2.442387,-2.102846 -3.669429,-3.149775 -1.034743,-0.848513 -2.091402,-1.670928 -3.140189,-2.502564 -0.746475,-0.584929 -1.493583,-1.168845 -2.240717,-1.752792 -0.623868,-0.464514 -1.227083,-0.96054 -1.924395,-1.320121 -0.579169,-0.372604 -1.166183,-0.734582 -1.722762,-1.139282 -0.540536,-0.348903 -1.112738,-0.646411 -1.703018,-0.906414 -0.555536,-0.203844 -1.119012,-0.408159 -1.696972,-0.536703 -0.655564,-0.08927 -1.311235,-0.100413 -1.972836,-0.09427 -0.990963,-0.02575 -1.982077,-0.04318 -2.973461,-0.03705 -1.155256,0.02857 -2.32132,0.06155 -3.446825,0.346127 -0.967501,0.296346 -1.932696,0.663926 -2.659118,1.385915 -0.2146278,0.223083 -0.341136,0.350519 -0.5468887,0.580323 -0.088602,0.09897 -0.343697,0.40472 -0.261328,0.300698 7.8839987,-9.956554 5.8454577,-7.263711 4.1269357,-5.215095 -0.431809,0.597169 -0.767956,1.242579 -1.078461,1.907003 -0.310602,0.61719 -0.498985,1.282747 -0.678385,1.946441 -0.106196,0.813341 -0.125538,1.623629 -0.08945,2.443803 -0.0025,0.661758 0.0042,1.323443 0.0068,1.985186 0.0056,0.577046 0.01635,1.155631 0.09076,1.728841 0.07478,0.50913 0.203653,1.003186 0.154498,1.522402 0.0083,0.468376 0.02328,0.939587 0.136797,1.397126 0.152501,0.582914 0.254877,1.174613 0.440539,1.749409 0.155847,0.658928 0.363224,1.318038 0.686849,1.916605 0.307214,0.55904 0.681136,1.095067 1.146995,1.538483 0.458981,0.446872 0.917534,0.895172 1.405757,1.311594 0.46201,0.380787 0.952332,0.722008 1.449328,1.057278 0.451051,0.280036 0.928416,0.578684 1.463732,0.660058 0.504326,0.0072 1.008762,0.0074 1.51313,0.007 0.636239,-0.0065 1.274196,-0.02396 1.903642,-0.123931 0.570893,-0.115627 1.149773,-0.239975 1.693924,-0.444839 0.558984,-0.236351 1.123437,-0.477351 1.556603,-0.913557 0.272886,-0.257768 0.525957,-0.526026 0.769566,-0.811071 0.09109,-0.106587 0.355132,-0.433783 0.268182,-0.323906 -3.910552,4.941693 -6.11154,7.674664 -4.28938,5.410834 0.516265,-0.698301 0.963407,-1.442978 1.450648,-2.15965 0.249017,-0.61004 0.401056,-1.251212 0.554337,-1.888951 0.0048,-0.729999 0.0096,-1.459992 0.0086,-2.190013 0.0061,-0.749876 0.0075,-1.50009 -0.02209,-2.249562 -0.03601,-0.595595 -0.08385,-1.192214 -0.34492,-1.741644 -0.193805,-0.532504 -0.502533,-1.022552 -0.921073,-1.414091 -0.590523,-0.387509 -1.224004,-0.655805 -1.933496,-0.754023 -0.636139,-0.0772 -1.277453,-0.04768 -1.917153,-0.03423 -0.576454,0.03847 -1.14993,0.105143 -1.681097,0.346576 -0.649187,0.305732 -1.265901,0.682273 -1.687427,1.27127 1.548556,-1.951915 3.103642,-3.898857 4.64567,-5.855746 0.059,-0.07488 -0.131867,0.138196 -0.19597,0.208919 -0.219775,0.242475 -0.44012,0.491303 -0.504323,0.819532 -0.004,0.531039 -0.01076,1.066903 0.0957,1.590184 0.182805,0.581918 0.514211,1.069632 0.974293,1.481268 0,0 -5.005525,6.132774 -5.005525,6.132774 z"
       inkscape:connector-curvature="0" />
    <path
       style="opacity:1;vector-effect:none;fill:#e24b00;fill-opacity:0.74418598;fill-rule:nonzero;stroke:none;stroke-width:3.00000024;stroke-linecap:butt;stroke-linejoin:miter;stroke-miterlimit:4;stroke-dasharray:none;stroke-dashoffset:0;stroke-opacity:1"
       id="path1407"
       d="m 98.796571,73.41878 c 0.680319,-0.302869 1.316889,-0.689391 2.010889,-0.963424 0.49657,-0.285289 1.0764,-0.329037 1.58095,-0.587993 0.46594,-0.357862 0.96694,-0.468569 1.54191,-0.369125 0.55633,0.07885 1.06784,0.236142 1.56976,0.482189 0.62902,0.275865 1.21028,0.640267 1.76423,1.039463 0.48027,0.365304 0.85525,0.822688 1.14698,1.341344 0.46293,0.801402 0.99345,1.558993 1.55787,2.294219 0.71557,0.884302 1.47001,1.737537 2.20217,2.608537 0.50479,0.61777 1.02151,1.225374 1.52937,1.840617 0.49346,0.578761 1.0168,1.129917 1.46991,1.740566 0.38991,0.56234 0.83269,1.084514 1.29691,1.588405 0.45608,0.484302 0.93198,0.950094 1.40671,1.416637 0.50922,0.530883 1.13009,0.937566 1.71311,1.383959 0.52667,0.38188 1.08682,0.715207 1.65018,1.041768 0.58574,0.320281 1.24966,0.445082 1.87585,0.665268 0.63577,0.20869 1.28022,0.385917 1.92187,0.575656 0.50329,0.129274 1.01697,0.180423 1.52384,0.292727 0.47271,0.114359 0.96212,0.09376 1.43686,0.185778 0.57903,0.11659 1.16917,0.156707 1.75846,0.180726 0.5035,0.01562 1.36413,-0.10337 1.8678,-0.104227 0.91071,-0.857767 1.4373,-1.922274 1.70207,-5.016365 0.30463,-1.322455 0.38128,-2.67732 0.43324,-4.027611 0.0141,-1.116242 0.10322,-2.240092 2.4e-4,-3.355032 -0.0519,-0.561519 -0.17036,-1.191838 -0.26459,-1.745912 -0.30615,-1.798367 -0.89591,-3.532878 -1.42145,-5.277145 -0.48668,-1.449592 -1.11118,-2.849464 -1.68922,-4.265275 -0.51008,-1.345127 -1.04628,-2.677989 -1.6181,-3.998997 -0.53156,-1.156558 -1.01183,-2.333256 -1.62129,-3.453137 -0.65604,-1.028141 -1.28344,-2.072833 -1.88805,-3.1309 -0.57545,-1.169363 -1.29744,-2.252381 -1.99291,-3.353562 -0.82932,-1.304064 -1.62167,-2.628928 -2.38794,-3.969508 -0.66862,-1.13939 -1.1627,-2.362109 -1.72642,-3.551901 -0.497,-1.0719 -0.94431,-2.16513 -1.37332,-3.264694 -0.42925,-1.023399 -0.82093,-2.059427 -1.14729,-3.118881 -0.29931,-0.994509 -0.55881,-2.000179 -0.81256,-3.006676 -0.26401,-1.00227 -0.39481,-2.029858 -0.63641,-3.036558 -0.23107,-0.875854 -0.34723,-1.771098 -0.4153,-2.671333 -0.0469,-0.654812 -0.049,-1.311494 -0.0534,-1.967581 -0.003,-0.549475 0.003,-1.098914 0.003,-1.648398 0.0338,-0.691383 0.33876,-1.340452 0.57194,-1.986543 0.22736,-0.612078 0.45297,-1.226522 0.7134,-1.825956 l 4.02859,-3.841474 v 0 c -0.32684,0.56445 -0.50616,1.187163 -0.771,1.780307 -0.20737,0.623486 -0.44143,1.237216 -0.68871,1.846116 -0.003,0.550706 4.6e-4,1.101407 -0.006,1.652086 -0.006,0.656544 -0.0107,1.313251 0.007,1.969683 0.0354,0.882352 0.11159,1.764604 0.32422,2.625335 0.0813,0.33069 0.1824,0.657154 0.24632,0.991499 0.13008,0.680241 0.16496,1.381886 0.39075,2.044412 0.23504,1.006845 0.49967,2.007766 0.78024,3.003145 0.29713,1.055985 0.69,2.077647 1.11644,3.089422 0.41093,1.095874 0.83783,2.18539 1.33828,3.245826 0.54853,1.192298 1.02711,2.415984 1.66021,3.569572 0.72856,1.347122 1.55572,2.637078 2.37704,3.930821 0.71274,1.097659 1.45277,2.179646 2.03273,3.353781 0.59346,1.065681 1.22942,2.105308 1.88751,3.13369 0.65013,1.126952 1.10693,2.332727 1.64774,3.511678 0.55831,1.329502 1.13626,2.648662 1.62765,4.004219 0.57444,1.442162 1.19174,2.869358 1.6869,4.340516 0.53089,1.760351 1.12351,3.510519 1.46805,5.317883 0.0251,0.135141 0.30409,1.623015 0.32326,1.768679 0.14729,1.119602 0.0197,2.250759 0.0531,3.374816 -0.0338,1.356457 -0.0616,2.721431 -0.3275,4.057606 l -0.11122,0.562383 c -0.0417,0.161252 -0.092,0.320616 -0.12534,0.483757 -0.12639,0.619099 -0.17949,1.255799 -0.39828,1.855816 -0.19191,0.84386 -0.36587,1.696965 -0.71072,2.497011 -0.21783,0.488986 -0.39856,1.015501 -0.65663,1.485429 -1.97448,3.416019 -2.76608,4.264691 -5.53116,6.23361 -0.48351,0.274478 -1.00252,0.489445 -1.57185,0.479041 -0.51017,-0.0026 -1.02064,-0.007 -1.52993,-0.03967 -0.60359,-0.04296 -1.20509,-0.108536 -1.80236,-0.205494 -0.49408,-0.04461 -0.98977,-0.08394 -1.47272,-0.203284 -0.51812,-0.109369 -1.04999,-0.158461 -1.55245,-0.334134 -0.64332,-0.203237 -1.29424,-0.381846 -1.93624,-0.58939 -0.65957,-0.221828 -1.34571,-0.384348 -1.95155,-0.735443 -0.59493,-0.326831 -1.17401,-0.67989 -1.70996,-1.095373 -0.59761,-0.463715 -1.2433,-0.874814 -1.77454,-1.414411 -0.4812,-0.472759 -0.96342,-0.944842 -1.42664,-1.434733 -0.47939,-0.517441 -0.94005,-1.05166 -1.34299,-1.629657 -0.44236,-0.60646 -0.9351,-1.169971 -1.43078,-1.734756 -0.51726,-0.613138 -1.05151,-1.213209 -1.52442,-1.861018 -0.69819,-0.904021 -1.46728,-1.753768 -2.18629,-2.641842 -0.58208,-0.736497 -1.16408,-1.47104 -1.67392,-2.258692 -0.2826,-0.439104 -0.50338,-0.908611 -0.95437,-1.220957 -0.52708,-0.378535 -1.087,-0.705848 -1.68587,-0.964309 -0.45081,-0.19257 -0.92529,-0.304691 -1.41552,-0.349903 -0.49223,0.0349 -0.87116,0.316612 -1.31318,0.507714 -0.528106,0.175769 -1.066357,0.320103 -1.564963,0.573489 -0.672901,0.311025 -1.330894,0.655607 -1.974785,1.020686 l 2.925393,-4.736618 z"
       inkscape:connector-curvature="0"
       sodipodi:nodetypes="cccccccccccccccccccccccccccccccccccccccccccccccccccccccccccccccccccccccccccccccccccccccccccccc" />
    <path
       style="opacity:1;vector-effect:none;fill:#e24b00;fill-opacity:0.74418598;fill-rule:nonzero;stroke:none;stroke-width:3.00000024;stroke-linecap:butt;stroke-linejoin:miter;stroke-miterlimit:4;stroke-dasharray:none;stroke-dashoffset:0;stroke-opacity:1"
       id="path1409"
       d="m 119.46161,19.071164 c 0.64308,-0.418645 1.29729,-0.795991 2.03284,-1.032417 0.53197,-0.149857 1.05841,-0.292894 1.6091,-0.358527 0.52668,-0.0068 1.04052,-0.09804 1.56161,-0.160097 0.58966,-0.06958 1.18291,-0.100224 1.77643,-0.108172 0.55105,-0.0067 1.10213,-0.0077 1.65322,-0.0083 0.48466,-2.66e-4 0.96934,-7e-5 1.454,2e-5 0.50849,-0.0097 1.00921,0.134247 1.46409,0.349167 0.46228,0.264257 0.88025,0.586065 1.28186,0.931004 0.4657,0.393581 0.74088,0.906991 1.00827,1.436687 0.2898,0.520393 0.43498,1.082078 0.50859,1.66566 0.0531,0.525316 0.055,1.053719 0.0565,1.581072 8.8e-4,0.494942 -0.004,0.989859 -0.006,1.484785 -9.2e-4,0.516322 1e-4,1.032645 6.9e-4,1.548967 0.0299,0.49769 -0.0259,0.979627 -0.16989,1.456378 -0.16619,0.508965 -0.46191,0.963842 -0.72285,1.429454 -0.97411,1.830463 -1.90456,3.150729 -3.66085,3.901874 -0.6251,0.288388 -1.2854,0.51122 -1.94474,0.714592 -0.63463,0.150579 -1.26917,0.303377 -1.90811,0.43647 -0.49605,0.09666 -1.00205,0.114806 -1.50613,0.125189 -0.61429,-0.06543 -1.17888,-0.345424 -1.70074,-0.655914 -0.60918,-0.3568 -1.15912,-0.796047 -1.68971,-1.255433 -0.50399,-0.464302 -0.87224,-1.03095 -1.18198,-1.631198 -0.25158,-0.464732 -0.36592,-0.971087 -0.42582,-1.489093 -0.0372,-0.47459 -0.0486,-0.951935 -0.0244,-1.42735 0.0367,-0.583352 0.33552,-1.073473 0.6302,-1.563684 0.98857,-1.5605 2.05589,-3.137975 3.45814,-4.36108 0.44662,-0.396074 0.97692,-0.674011 1.53094,-0.895112 0.60018,-0.2332 1.22044,-0.422724 1.84255,-0.592133 0.51884,-0.130487 1.02521,-0.185439 1.54056,-0.03153 0.6308,0.2278 1.14167,0.612151 1.53746,1.138917 0.36634,0.523485 0.48712,1.126793 0.55518,1.745229 0.0451,0.519497 0.0428,1.041317 0.0417,1.56223 0.0141,0.48782 -9.2e-4,0.967253 -0.10453,1.445118 -0.68571,1.588672 -1.69692,3.327858 -3.31577,4.085906 -0.48577,0.170865 -0.98589,0.246231 -1.47665,0.07315 -0.51767,-0.260032 -0.92188,-0.675275 -1.29208,-1.106138 -0.35083,-0.35854 -0.53271,-0.78756 -0.62474,-1.268093 -0.0577,-0.417841 -0.0872,-0.837985 -0.004,-1.25304 0.0668,-0.224368 0.16598,-0.435973 0.26924,-0.645718 0,0 2.70656,-2.566103 2.70656,-2.566103 v 0 c -0.11494,0.194592 -0.24089,0.385252 -0.31285,0.60062 -0.1847,0.36274 -0.1524,0.737153 -0.12252,1.134798 0.0435,0.431712 0.14611,0.818618 0.45851,1.145239 0.3195,0.377283 0.66164,0.759746 1.12815,0.962806 0.41703,0.08748 0.84635,-0.03207 1.21243,-0.234568 1.00899,-0.73567 2.13682,-2.561473 -1.72213,2.34146 -0.30159,0.383196 0.82258,-0.981385 0.44636,-0.653304 0.17197,-0.44544 0.2008,-0.900079 0.17945,-1.373822 0.004,-0.515402 0.0125,-1.03118 -0.01,-1.5463 -0.0369,-0.562574 -0.0954,-1.124862 -0.40259,-1.617331 -0.33249,-0.471377 -0.76518,-0.812324 -1.33695,-0.971454 -0.46192,-0.08574 -0.92365,0.01543 -1.37219,0.134296 -0.60803,0.17691 -1.22013,0.351868 -1.79587,0.616542 -0.51943,0.249638 -1.01059,0.550449 -1.41615,0.96081 -0.87809,0.932269 -2.06686,2.550562 1.65628,-2.14614 0.39593,-0.499475 -0.9927,1.196976 -0.55175,0.770915 -0.26935,0.466598 -0.63558,0.906611 -0.7258,1.44807 -0.0944,0.450107 -0.0323,0.917094 -0.0334,1.374253 0.0306,0.48328 0.0935,0.963634 0.31382,1.404347 0.2839,0.563821 0.58206,1.119336 1.06442,1.550158 0.51199,0.445982 1.04238,0.874429 1.64031,1.206716 0.46994,0.271515 0.97624,0.528889 1.5348,0.524194 0.48449,-0.0175 0.96959,-0.04981 1.44352,-0.157159 0.62322,-0.138362 1.25353,-0.252738 1.86344,-0.441554 0.64539,-0.226296 1.3002,-0.435325 1.91021,-0.745836 0.27311,-0.141191 0.54634,-0.279176 0.77204,-0.490756 0.059,-0.05524 0.21187,-0.242881 0.16241,-0.179323 -2.3679,3.042605 -2.73488,3.576358 -1.94459,2.446421 0.27198,-0.448789 0.52675,-0.909036 0.77604,-1.369662 0.15351,-0.452517 0.30594,-0.89117 0.25209,-1.378174 7.1e-4,-0.517735 0.003,-1.035469 0.003,-1.553204 -5.2e-4,-0.493629 -0.003,-0.987252 0.003,-1.480874 0.003,-0.520272 0.008,-1.041112 -0.0226,-1.56076 -0.0449,-0.548759 -0.13666,-1.085896 -0.40367,-1.578882 -0.25382,-0.48303 -0.46719,-0.978716 -0.89786,-1.343886 -0.37777,-0.319174 -0.77112,-0.617586 -1.20613,-0.859221 -0.41966,-0.184536 -0.86834,-0.277788 -1.32975,-0.256965 -0.48411,-4.02e-4 -0.96821,-0.0011 -1.45232,-0.0026 -0.5472,-0.0014 -1.0945,-0.0045 -1.64159,0.008 -0.58151,0.0201 -1.16359,0.04601 -1.74017,0.12786 -0.52081,0.0764 -1.04149,0.127391 -1.56583,0.171467 -0.523,0.08533 -1.0313,0.230344 -1.53682,0.385774 -0.7038,0.271063 -1.34246,0.66267 -1.95282,1.098796 0,0 1.91614,-3.174463 1.91614,-3.174463 z"
       inkscape:connector-curvature="0" />
  </g>
</svg>
