<?xml version="1.0" encoding="UTF-8" standalone="no"?>
<!-- Created with Inkscape (http://www.inkscape.org/) -->

<svg
   xmlns:dc="http://purl.org/dc/elements/1.1/"
   xmlns:cc="http://creativecommons.org/ns#"
   xmlns:rdf="http://www.w3.org/1999/02/22-rdf-syntax-ns#"
   xmlns:svg="http://www.w3.org/2000/svg"
   xmlns="http://www.w3.org/2000/svg"
   xmlns:sodipodi="http://sodipodi.sourceforge.net/DTD/sodipodi-0.dtd"
   xmlns:inkscape="http://www.inkscape.org/namespaces/inkscape"
   width="144px"
   height="144px"
   viewBox="0 0 144 144"
   version="1.1"
   id="SVGRoot"
   inkscape:version="0.92.4 (5da689c313, 2019-01-14)"
   sodipodi:docname="veil-superb-gondola.svg">
  <defs
     id="defs815" />
  <sodipodi:namedview
     id="base"
     pagecolor="#ffffff"
     bordercolor="#666666"
     borderopacity="1.0"
     inkscape:pageopacity="0.0"
     inkscape:pageshadow="2"
     inkscape:zoom="1"
     inkscape:cx="64.734578"
     inkscape:cy="70.382995"
     inkscape:document-units="px"
     inkscape:current-layer="layer1"
     showgrid="false"
     inkscape:window-width="1920"
     inkscape:window-height="1151"
     inkscape:window-x="0"
     inkscape:window-y="0"
     inkscape:window-maximized="1"
     inkscape:grid-bbox="true"
     inkscape:snap-global="false" />
  <metadata
     id="metadata818">
    <rdf:RDF>
      <cc:Work
         rdf:about="">
        <dc:format>image/svg+xml</dc:format>
        <dc:type
           rdf:resource="http://purl.org/dc/dcmitype/StillImage" />
        <dc:title></dc:title>
      </cc:Work>
    </rdf:RDF>
  </metadata>
  <g
     inkscape:label="Layer 1"
     inkscape:groupmode="layer"
     id="layer1">
    <path
       style="fill:#502d16;stroke:#000000;stroke-width:1px;stroke-linecap:butt;stroke-linejoin:miter;stroke-opacity:1"
       d="m 13.243598,97.2613 c 7.429028,4.14121 16.447542,3.75209 24.486989,6.18814 7.268867,0.38669 14.568918,0.0757 21.850602,0.17582 11.564391,-2.86148 23.61236,-0.52013 35.264712,-2.83155 8.981379,-0.0979 16.138399,-6.49698 19.304319,-14.55163 4.4458,-13.045251 7.17585,-26.791189 6.49408,-40.631478 -0.0542,-6.034792 5.0818,-16.409556 12.14692,-12.910851 6.95226,4.473404 8.67837,15.44952 1.76538,20.809318 -8.48268,3.51155 -7.14248,-6.447693 -3.17167,-9.955416 -9.38284,-3.305685 -6.6687,10.855483 -7.52228,16.588919 -2.04605,12.810921 -3.86485,25.673586 -7.74836,38.083148 -2.8935,8.61604 -3.59098,19.12945 -11.81825,24.68891 -9.946533,5.65098 -20.997065,10.32439 -32.691938,9.54733 -9.914003,0.75338 -19.626652,-1.34288 -29.007856,-4.37744 -9.890149,-2.63985 -20.383894,-6.39016 -25.003942,-16.45605 0.30393,-3.51063 -9.792151,-14.60667 -4.348706,-14.36717 z"
       id="path1371"
       inkscape:connector-curvature="0" />
    <path
       style="fill:#ffff00;stroke:none;stroke-width:1px;stroke-linecap:butt;stroke-linejoin:miter;stroke-opacity:1"
       d="m 74.496723,108.39824 c -1.005095,-0.38326 -1.869291,-0.97818 -2.885019,-1.19003 -0.665193,-0.22881 -1.322322,-0.66678 -2.135057,-0.59984 -0.61497,0.0843 -1.156079,-0.12101 -1.733372,-0.21818 -0.892279,0.0559 -1.709101,-0.32188 -2.628306,-0.17956 -2.37467,4.2e-4 -4.75171,-5.8e-4 -7.12477,0 -0.583361,0.46043 -1.833147,0.58255 -1.579871,1.69305 -0.245824,0.87573 -0.770297,1.63875 -0.607741,2.68217 0.0048,0.66289 -0.0073,1.32733 0,1.98874 0.521236,0.67365 1.049041,1.45506 1.8893,1.69041 0.712702,0.42369 1.663629,0.40488 2.485923,0.69607 1.000422,0.45422 2.16764,0.21763 3.181981,0.59662 0.856272,-0.0928 1.621641,0.23978 2.424408,0.4974 0.849607,0.43954 1.770636,0.27705 2.54065,1.01054 0.962579,0.10134 1.073369,1.13282 1.597777,1.67404 0.09099,0.78687 0.2955,1.55132 0.198874,2.42117 -0.0063,0.58506 0.01,1.17159 0,1.75518 -0.589073,0.92329 -1.615565,1.08568 -2.485922,1.29267 -0.443248,0.23423 -1.048267,0.0381 -1.560928,0.0995 -0.772326,-0.003 -1.546296,0.005 -2.317111,0 -0.753555,-0.28658 -1.479789,-0.68172 -2.038457,-1.44184 -0.727371,-0.7031 -1.37403,-1.49035 -2.336767,-1.74014 -0.823551,-0.28493 -1.578668,-0.48034 -2.496493,-0.39775 -0.493682,0.008 -0.988742,-0.0139 -1.480982,0 -0.639878,0.34642 -0.334097,1.08771 -0.397748,1.67391 0.0026,0.90035 -0.0038,1.80248 0,2.70131 0.615512,0.70642 1.491978,1.07829 2.416226,1.19186 0.767453,0.0106 0.970447,1.39809 2.012478,0.97471 0.81229,0.35604 1.736154,0.13538 2.518334,0.41879 0.402069,0.002 0.806682,-0.003 1.206787,0 0.481475,0.43816 1.252737,0.11316 1.872783,0.19888 1.76216,-0.003 3.525848,0.005 5.286673,0 0.844791,-0.5787 1.62895,-1.23702 2.361626,-1.96388 0.686303,-0.70183 1.509724,-1.353 1.814724,-2.21247 0.344838,-0.62521 0.427212,-1.44799 0.397747,-2.2223 -0.01472,-0.6514 0.02916,-1.30394 0,-1.95405 -0.523838,-0.7427 -0.408374,-1.67259 -0.804847,-2.48502 -0.0581,-0.73134 -0.638682,-1.26151 -0.970651,-1.89918 -0.641788,-0.91409 -1.570098,-1.26783 -2.599725,-1.38314 -0.841858,-0.28476 -1.844978,-0.49709 -2.784233,-0.59662 -0.864812,-0.37383 -1.868331,-0.44345 -2.680859,-0.81218 -0.699798,-0.0449 -1.399652,-0.53119 -2.092112,-0.57994 -0.244527,-0.12653 -1.357766,-0.83218 -0.795495,-0.39775 -0.594383,-0.549 0.834967,-1.15708 0.994369,-1.78986 0.259623,0.12428 0.967914,-0.24255 0.421417,-0.19703 0.822998,-0.191 1.483417,-0.45631 2.335727,-0.39959 0.738114,0.002 1.47853,-0.003 2.214701,0 0.834319,0.50778 1.168549,0.17119 1.774338,1.02625 0.696673,0.004 1.302056,0.35114 1.943359,0.5871 0.591157,-0.21025 1.614884,1.0408 1.770924,-0.0528 0.107619,-0.0365 0.313364,0.22052 0.346862,-0.30256 0.09285,-0.41137 0.334224,0.31207 0.329604,-0.26363 0.434841,-0.0679 -0.261775,0.41937 0.310366,-0.0896 0.265325,-0.43836 -0.01963,-1.03664 -0.111492,-1.50143 z"
       id="path1373"
       inkscape:connector-curvature="0" />
    <path
       style="fill:#000080;fill-opacity:0.50387597;stroke:none;stroke-width:1px;stroke-linecap:butt;stroke-linejoin:miter;stroke-opacity:1"
       d="m -0.59662135,108.20272 c 6.04792205,4.01177 12.99593635,-6.49513 16.33039435,-0.16987 5.412544,7.14204 14.750262,-1.11297 20.525049,-0.28632 1.989967,13.63682 13.780877,0.35408 20.952762,0.60391 6.181303,8.77428 14.809558,-9.535344 21.019675,0.34598 6.653157,7.60063 14.448707,-8.48353 19.614642,1.09729 7.153479,2.53488 15.112179,-6.76595 20.005689,0.0358 7.20099,0.83743 12.78024,-5.50906 19.40385,-1.62677 3.80086,0.40044 9.45619,-6.73785 7.14082,1.12461 -0.93867,8.09247 2.08437,26.65005 0.38385,34.67267 -46.741294,4.13179 -100.20628,1.16058 -144.58123647,0.99419 -5.42452003,-1.95987 0.24377601,-29.45156 -0.79549488,-36.7915 z"
       id="path1378"
       inkscape:connector-curvature="0"
       sodipodi:nodetypes="ccccccccccccc" />
    <path
       style="fill:#000000;fill-opacity:0.74418604;stroke:none;stroke-width:1px;stroke-linecap:butt;stroke-linejoin:miter;stroke-opacity:1"
       d="m 130.4441,32.443829 c 4.77154,7.772894 9.91994,17.657176 5.11436,26.643465 -4.26899,9.302702 -3.12727,20.70902 3.15537,28.843869 -2.8761,2.175445 1.59286,7.679017 2.29167,11.250967 -8.19305,1.02904 -19.28873,-8.496379 -26.48109,-9.010018 C 105.41259,89.890548 96.879815,94.64648 87.651951,94.12002 77.77223,96.00564 70.17996,89.284402 61.960889,85.35541 58.083437,83.113149 47.184027,85.215579 47.310145,82.329022 62.764972,75.054065 76.964433,65.009747 88.096344,51.962624 c 5.324232,-7.653884 15.375126,-7.512872 23.470376,-9.569622 6.73244,-2.604586 11.28397,-13.67446 19.2245,-10.687621 z"
       id="path1382"
       inkscape:connector-curvature="0"
       sodipodi:nodetypes="cccccccccccc" />
  </g>
</svg>
