<?xml version="1.0" encoding="UTF-8" standalone="no"?>
<!-- Created with Inkscape (http://www.inkscape.org/) -->

<svg
   xmlns:dc="http://purl.org/dc/elements/1.1/"
   xmlns:cc="http://creativecommons.org/ns#"
   xmlns:rdf="http://www.w3.org/1999/02/22-rdf-syntax-ns#"
   xmlns:svg="http://www.w3.org/2000/svg"
   xmlns="http://www.w3.org/2000/svg"
   xmlns:sodipodi="http://sodipodi.sourceforge.net/DTD/sodipodi-0.dtd"
   xmlns:inkscape="http://www.inkscape.org/namespaces/inkscape"
   width="144px"
   height="144px"
   viewBox="0 0 144 144"
   version="1.1"
   id="SVGRoot"
   inkscape:version="0.92.4 (5da689c313, 2019-01-14)"
   sodipodi:docname="cedar-encouraging-eagle.svg">
  <defs
     id="defs815" />
  <sodipodi:namedview
     id="base"
     pagecolor="#ffffff"
     bordercolor="#666666"
     borderopacity="1.0"
     inkscape:pageopacity="0.0"
     inkscape:pageshadow="2"
     inkscape:zoom="1"
     inkscape:cx="58.635608"
     inkscape:cy="90.025949"
     inkscape:document-units="px"
     inkscape:current-layer="layer1"
     showgrid="false"
     inkscape:window-width="1920"
     inkscape:window-height="1151"
     inkscape:window-x="0"
     inkscape:window-y="0"
     inkscape:window-maximized="1"
     inkscape:grid-bbox="true"
     inkscape:snap-global="false" />
  <metadata
     id="metadata818">
    <rdf:RDF>
      <cc:Work
         rdf:about="">
        <dc:format>image/svg+xml</dc:format>
        <dc:type
           rdf:resource="http://purl.org/dc/dcmitype/StillImage" />
        <dc:title></dc:title>
      </cc:Work>
    </rdf:RDF>
  </metadata>
  <g
     inkscape:label="Layer 1"
     inkscape:groupmode="layer"
     id="layer1">
    <g
       id="g1442"
       transform="matrix(1.1825963,0,0,1.1825963,-28.463876,-37.04104)"
       style="stroke-width:0.84559709">
      <path
         inkscape:connector-curvature="0"
         id="path1391"
         d="m 121.217,137.41014 c 1.09295,1.09746 6.04284,4.96553 1.79934,4.37362 -2.22712,-2.21904 -6.10509,3.3405 -6.71249,-0.66239 -2.89031,-1.24773 -6.65616,1.30716 -9.39567,0.13505 1.31823,-1.02589 2.64047,-2.33464 0.0407,-1.37905 -1.48536,0.83767 -7.534744,0.95555 -4.0039,-1.20856 3.76471,-0.97794 8.12858,-3.70531 7.59637,-8.15165 0.36771,-4.42667 1.69359,-8.69558 2.44767,-13.04152 0.71089,-4.70327 1.50201,-9.6649 -0.41403,-14.2084 -1.54366,-5.562866 -2.2429,-11.313644 -2.01244,-17.08179 0.0942,-5.382357 -0.17867,-10.819879 0.17037,-16.167532 1.34938,-5.060771 1.84318,-10.279741 2.62468,-15.437018 -0.28884,-3.075897 3.99696,-6.588698 5.2177,-2.337744 0.47693,3.389927 0.33604,6.898977 -0.12357,10.281328 -1.11674,3.814659 -1.14804,7.75257 -1.41495,11.676534 -0.0445,8.86578 0.004,17.734318 -0.0142,26.601802 1.87846,7.97271 0.0848,16.2954 1.95175,24.26149 0.40399,3.1896 0.45427,6.5516 2.00286,9.45587 0.30051,0.94339 -0.0139,1.9399 0.23979,2.88996 z"
         style="fill:#43271c;fill-opacity:1;stroke:none;stroke-width:0.84559709px;stroke-linecap:butt;stroke-linejoin:miter;stroke-opacity:1" />
      <path
         sodipodi:nodetypes="cccccccc"
         inkscape:connector-curvature="0"
         id="path1371"
         d="m 114.76412,44.037262 c -3.24011,3.016576 -10.74788,6.008079 -11.11664,9.093089 -0.80397,4.465426 -9.433792,9.231239 -10.004999,11.086491 14.226229,-3.87517 20.710869,-3.493899 20.738569,-3.515178 3.20769,-1.847427 4.27825,-7.896125 7.74683,-2.971457 3.06919,1.098029 13.14855,5.233721 12.40893,4.711543 -2.52228,-2.399774 -6.58529,-5.198718 -4.19163,-7.916344 -5.40317,-2.745085 -10.28823,-9.5232 -15.58106,-10.488144 z"
         style="fill:#527648;fill-opacity:1;stroke:none;stroke-width:0.84559709px;stroke-linecap:butt;stroke-linejoin:miter;stroke-opacity:1" />
      <path
         sodipodi:nodetypes="ccccccccccccc"
         inkscape:connector-curvature="0"
         id="path1373"
         d="m 107.02066,69.839786 c -3.5625,4.545419 -8.688688,7.732297 -13.972794,9.853671 -2.903538,-0.42089 4.102632,-1.600755 0.0991,0.951136 -3.159423,4.037867 -12.010514,5.093797 -13.495528,7.766556 3.610798,0.68192 13.087404,-2.423099 10.812881,3.900892 -1.09634,2.100978 -5.636603,5.316572 -1.651249,1.92748 6.362987,-4.057636 12.38973,-8.641836 18.669,-12.782382 4.91657,-1.103343 9.78981,0.09035 12.16875,5.177306 4.22575,2.814814 12.27265,7.142549 16.20586,3.948513 -2.46724,-2.271335 -2.87963,-5.378024 1.56665,-4.035812 5.40897,-1.914774 -4.69655,-4.163649 -6.78079,-4.405448 -6.27792,-1.884928 -10.18219,-5.31984 -12.40624,-12.1858 -1.9502,1.807156 -8.32833,6.286906 -11.21564,-0.116112 z"
         style="fill:#527648;fill-opacity:1;stroke:none;stroke-width:0.84559709px;stroke-linecap:butt;stroke-linejoin:miter;stroke-opacity:1" />
      <path
         sodipodi:nodetypes="cccccscc"
         inkscape:connector-curvature="0"
         id="path1375"
         d="m 117.02262,65.324345 c 7.04469,2.850255 14.44161,4.920668 21.62538,7.313201 5.58061,-0.442679 3.57516,2.843068 -0.4848,2.875992 -3.6361,0.700772 -9.73273,-3.867016 -9.11215,0.176253 -4.75227,-2.952436 -10.17771,-4.803106 -15.84347,-5.240229 -2.13155,-0.703769 -4.18774,-4.820797 -2.58491,-4.953595 1.7968,-0.148869 0.0891,-9.0914 2.68955,-7.267317 0.89614,0.274791 8.19258,8.21961 3.7104,7.095695 z"
         style="fill:#527648;fill-opacity:1;stroke:none;stroke-width:0.84559709px;stroke-linecap:butt;stroke-linejoin:miter;stroke-opacity:1" />
      <path
         inkscape:connector-curvature="0"
         id="path1377"
         d="m 105.73009,97.093702 c -1.61409,4.924058 -10.540561,13.314058 -12.422345,12.140388 4.027997,-1.09301 -3.938393,4.62254 -5.515762,5.50238 -1.99241,2.14043 -11.258605,3.32963 -9.089781,5.19135 3.180882,0.0748 10.77263,-0.79808 4.912885,3.2758 -2.520656,3.13492 6.624793,-1.8553 6.616711,2.45069 5.446354,-2.72054 9.469797,-6.94061 13.193832,-11.36829 6.0957,-0.17298 9.90932,-6.64121 8.58288,-12.39321 1.29588,-4.112871 0.25431,-10.680823 -4.75371,-6.086103 -2.0196,-0.908369 -1.01071,1.70005 -2.49265,1.448261"
         style="fill:#527648;fill-opacity:1;stroke:none;stroke-width:0.84559709px;stroke-linecap:butt;stroke-linejoin:miter;stroke-opacity:1" />
      <path
         inkscape:connector-curvature="0"
         id="path1379"
         d="m 120.89435,88.062819 c 1.95239,7.880207 10.40863,9.781198 15.81286,14.631561 4.74583,3.10447 -0.33932,2.39228 -2.92363,1.65629 -3.11251,2.42842 3.02091,10.05522 -2.45849,4.66488 -4.57622,-2.33438 2.12742,5.56669 3.02535,7.23922 2.24678,2.72478 6.55359,8.68697 4.64754,10.0151 2.5861,2.2505 10.65423,10.11662 2.10187,8.3408 -4.17831,-1.07781 -6.8517,-5.79613 -11.27542,-3.69166 -1.46616,-3.15553 -2.13759,-9.20906 -6.47999,-5.17588 -3.88369,-0.18714 -5.45094,-8.07578 -9.55024,-3.19935 -6.45695,2.48554 -11.86849,-7.13341 -7.43537,-12.06679 5.78643,-5.03102 2.45244,-12.983756 6.36651,-18.841568 1.72051,-3.401675 2.64199,-7.080365 3.16804,-10.829563 3.21812,2.008137 3.89688,3.817431 5.00097,7.25696 z"
         style="fill:#527648;fill-opacity:1;stroke:none;stroke-width:0.84559709px;stroke-linecap:butt;stroke-linejoin:miter;stroke-opacity:1" />
    </g>
    <path
       style="fill:none;stroke:#000000;stroke-width:0.99999994px;stroke-linecap:butt;stroke-linejoin:miter;stroke-opacity:1"
       d="m 43.152783,111.50464 c -0.03269,2.2652 0.06557,4.54438 -0.04947,6.80079 -0.421868,2.44616 -0.302313,5.01771 -1.296018,7.33838 -0.370867,2.16601 -0.08662,4.38522 -0.17637,6.57423 -0.34531,1.57086 2.011323,0.73278 3.007923,1.3069 0.600244,-0.23532 2.164996,0.57394 0.747228,-0.0902 -1.558282,-0.72453 -3.35231,-0.89797 -4.782305,-1.67322 1.634894,1.35873 2.766813,3.21717 4.345457,4.64293 -1.184229,-0.3584 -2.355042,-1.61729 -2.716175,-2.91865 -0.187621,-0.54818 -1.209329,-2.70081 -0.978566,-0.91103 -0.272781,1.39506 -0.580801,2.79193 -0.976013,4.15864"
       id="path1430"
       inkscape:connector-curvature="0" />
    <path
       style="fill:none;stroke:#000000;stroke-width:0.99999994px;stroke-linecap:butt;stroke-linejoin:miter;stroke-opacity:1"
       d="m 54.142795,114.77484 c -0.09931,2.12925 0.240739,4.30192 -0.253167,6.38632 0.01417,1.6737 -0.552944,3.16906 -0.592938,4.83893 -0.04888,1.69199 0.145214,3.41533 -0.182999,5.06383 -0.242261,1.72901 2.496069,1.28439 3.4376,2.41098 0.526527,0.14699 3.121428,1.80752 1.35736,0.90825 -1.570663,-0.63879 -3.342461,-1.30733 -4.859326,-1.76531 1.13389,0.93955 1.41493,4.40194 1.752966,4.44688 -0.686624,-1.54046 -0.749649,-3.98158 -2.202556,-4.7698 -0.896673,0.9633 -1.447882,2.99552 -1.269007,4.20515 l 0.129928,0.0622 0.145993,0.0168"
       id="path1428"
       inkscape:connector-curvature="0" />
    <path
       style="fill:#783b06;fill-opacity:1;stroke:#000000;stroke-width:0.99999994px;stroke-linecap:butt;stroke-linejoin:miter;stroke-opacity:1"
       d="m 66.147268,75.561089 c 2.076663,7.531755 -0.139286,15.266895 -0.845385,22.818342 -0.87843,5.021019 -2.9141,9.844149 -7.491988,11.841529 -0.101369,3.7399 -2.726991,6.67204 -6.200764,4.35108 -0.919275,-5.31907 -6.384483,-5.53653 -6.043512,0.23654 -6.57234,4.74332 -3.660567,-7.9525 -10.101253,-7.19493 -5.115367,-1.249 -7.805523,5.60297 -13.024599,5.61739 -1.954569,0.58893 -10.437651,3.07203 -5.05902,-0.63055 1.533324,-1.80526 9.246663,-6.29888 2.977145,-3.28419 -3.434806,0.50842 -7.355794,2.725 -10.469215,2.43196 3.660113,-2.82118 8.114908,-4.41374 12.129469,-6.43881 -5.934757,1.06332 -11.903846,2.1728 -17.9634232,1.84415 -7.3267273,-1.26957 1.5428359,-5.00641 4.7395055,-5.14277 2.1487587,-0.7916 9.5798337,-1.30348 3.8404447,-1.25131 -3.7438974,0.20027 -7.9259003,-6.166473 -1.483349,-5.42582 5.927089,-0.113471 11.89793,-0.822417 17.491911,-2.880273 6.335328,-2.66128 12.758809,-6.428234 16.159951,-12.627461 1.305404,-1.730089 2.17149,-3.739523 3.929141,-5.11 4.521099,-2.985343 8.154935,-8.228475 17.414941,0.845123 z"
       id="path1406"
       inkscape:connector-curvature="0"
       sodipodi:nodetypes="ccccccccccccccccccc" />
    <path
       style="fill:#ffffff;fill-opacity:1;stroke:#000000;stroke-width:0.99999994px;stroke-linecap:butt;stroke-linejoin:miter;stroke-opacity:1"
       d="m 49.408635,70.490345 c -0.437581,1.611976 -1.954221,4.058065 -1.293761,5.256538 1.194425,-0.626745 3.668692,-3.451387 3.611208,-0.782023 0.856743,-0.313386 1.597558,-3.610933 2.516274,-1.137785 0.403348,1.545695 3.19641,5.122977 3.616995,1.779234 -0.181678,-1.39462 0.54577,-2.431749 1.352559,-0.645001 1.133005,1.276757 2.416249,0.297681 1.776283,-1.077018 1.591461,-0.12461 4.40903,2.710827 5.407879,1.136379 -1.186936,-1.75301 -0.399182,-3.803451 -0.408237,-5.727317 -0.14148,-3.671261 0.286874,-7.314078 0.159445,-10.985061 0.285904,-2.219665 -0.447722,-4.32074 -1.618068,-6.176221 -2.179383,-1.579552 -7.485269,-3.014611 -9.829818,-1.48971 -2.748364,1.092343 -2.694135,4.701083 -4.131449,6.889943 -1.627439,2.754407 -0.358979,6.467426 -1.674348,9.369526 0.09614,0.968209 -0.939802,3.420221 0.515038,3.588516 z"
       id="path1398"
       inkscape:connector-curvature="0"
       sodipodi:nodetypes="ccccccccccccccc" />
    <path
       style="fill:#783b06;fill-opacity:1;stroke:#000000;stroke-width:0.99999994px;stroke-linecap:butt;stroke-linejoin:miter;stroke-opacity:1"
       d="m 52.872111,80.457073 c 2.001637,3.775682 5.764192,6.044823 9.358638,7.791319 3.683819,1.270513 10.344668,-0.755689 11.851993,-4.125283 2.455272,-5.197795 3.326465,-4.72048 5.093375,-10.028171 1.290193,-5.244525 -0.539144,-9.432949 1.357845,-14.465094 1.073488,-2.847668 4.02888,-0.624657 3.736542,1.687645 -0.155971,2.84946 0.922241,5.02536 0.853236,7.90381 1.042047,0.242018 3.494845,-0.826746 5.05578,0.202876 1.634922,0.75983 3.733884,1.66041 3.922934,3.824295 1.124662,4.696592 1.251732,12.52321 -3.398994,12.08689 -6.675821,-0.626309 -4.341677,-3.22969 -7.426087,0.974923 -2.01718,2.749786 -2.431277,7.098635 -3.15823,10.235826 0.295824,2.998227 -2.348533,0.289406 -1.571419,-1.301826 -1.350318,-2.3037 -2.218769,2.730221 -2.984649,3.79003 -0.521934,2.767177 -4.814768,3.599407 -5.246706,0.177697 -0.42424,-1.47941 1.043859,-3.718011 -0.507266,-1.475266 -2.320318,2.683286 -5.606089,4.053906 -8.610941,5.705616 -3.421768,0.29687 -1.228534,-4.152496 -0.249387,-5.6498 -0.05418,-0.527741 -2.537023,1.489957 -3.664671,1.734419 -2.187079,0.954471 -4.839145,1.409501 -7.08301,0.132093 -1.386009,-2.200419 0.199658,-4.710227 1.224902,-6.598227 0.959099,-1.423347 0.894427,-1.736507 -0.50481,-0.778675 -1.819155,0.845854 -5.185882,0.451997 -5.214657,-2.288084 0.529668,-3.56762 3.616644,-5.692547 5.843998,-8.077065 0.458265,-0.468269 0.904617,-0.950196 1.321586,-1.459949 z"
       id="path1396"
       inkscape:connector-curvature="0"
       sodipodi:nodetypes="ccccsccccssccccccccccccccc" />
    <path
       style="fill:#ffcb02;fill-opacity:1;stroke:#000000;stroke-width:0.99999994px;stroke-linecap:butt;stroke-linejoin:miter;stroke-opacity:1"
       d="m 64.118343,68.800097 c -5.431423,0.507705 -3.693186,-10.918539 1.497319,-9.803438 4.538821,0.499335 9.639292,2.879654 10.961764,7.683772 1.139593,2.79906 0.807469,6.182823 -2.256992,2.833324 -3.29871,-0.670718 -7.152934,0.399571 -10.202091,-0.713658 z"
       id="path1408"
       inkscape:connector-curvature="0" />
    <path
       style="fill:none;stroke:#000000;stroke-width:0.99999994px;stroke-linecap:butt;stroke-linejoin:miter;stroke-opacity:1"
       d="m 57.678014,54.674899 2.681953,0.6061 c 0.689882,-0.06154 1.408678,0.288365 2.027294,0.27443 0.245014,-0.241531 -0.230757,-1.223062 -0.263367,-1.418583"
       id="path1412"
       inkscape:connector-curvature="0"
       sodipodi:nodetypes="cccc" />
    <path
       style="fill:none;stroke:#000000;stroke-width:0.99999994px;stroke-linecap:butt;stroke-linejoin:miter;stroke-opacity:1"
       d="m 61.074955,56.630312 c 0.329577,0.593547 0.02359,1.200691 0.0053,1.787899 0.02611,0.201932 0.03159,0.462476 -0.17447,0.578447"
       id="path1414"
       inkscape:connector-curvature="0" />
    <path
       style="fill:none;stroke:#000000;stroke-width:1px;stroke-linecap:butt;stroke-linejoin:miter;stroke-opacity:1"
       d="m 63.286057,64.008546 c 1.131592,2.126782 1.762372,3.475633 6.013826,3.222569"
       id="path1444"
       inkscape:connector-curvature="0"
       sodipodi:nodetypes="cc" />
  </g>
</svg>
