<?xml version="1.0" standalone="no"?>
<!DOCTYPE svg PUBLIC "-//W3C//DTD SVG 20010904//EN"
 "http://www.w3.org/TR/2001/REC-SVG-20010904/DTD/svg10.dtd">
<svg version="1.0" xmlns="http://www.w3.org/2000/svg"
 width="144.000000pt" height="144.000000pt" viewBox="0 0 144.000000 144.000000"
 preserveAspectRatio="xMidYMid meet">

<g transform="translate(0.000000,144.000000) scale(0.100000,-0.100000)"
fill="#000000" stroke="none">
<path d="M1319 1420 c13 -11 21 -20 17 -20 -15 0 56 -60 78 -66 26 -6 26 -5
26 50 l0 56 -72 0 -73 -1 24 -19z m81 -20 c0 -5 -9 -10 -20 -10 -11 0 -20 5
-20 10 0 6 9 10 20 10 11 0 20 -4 20 -10z"/>
<path d="M300 1162 c-34 -16 -87 -96 -89 -132 -1 -8 -18 -24 -38 -35 -61 -33
-51 -47 16 -22 l60 22 54 -27 c52 -25 56 -30 105 -131 41 -83 62 -114 108
-156 45 -41 54 -55 43 -62 -8 -5 -17 -9 -20 -9 -4 0 1 -25 9 -55 8 -30 18 -52
22 -50 3 2 12 -16 19 -41 16 -53 21 -57 55 -44 17 6 34 6 48 -1 l23 -10 -24 5
c-31 6 -100 -21 -128 -50 -11 -13 -27 -40 -33 -61 -7 -21 -21 -56 -31 -79 -10
-22 -20 -53 -23 -67 -4 -24 -2 -26 25 -23 20 2 29 -1 29 -11 0 -8 5 -11 10 -8
6 3 10 1 10 -5 0 -7 7 -9 16 -6 8 3 13 2 10 -2 -2 -4 -1 -14 4 -22 10 -17 88
-17 365 -2 116 6 274 12 353 12 l142 0 0 51 0 52 -130 -5 c-115 -4 -130 -3
-128 11 2 8 22 28 46 44 26 18 42 36 42 49 0 11 8 22 20 25 23 6 27 23 5 23
-8 0 -15 7 -15 15 0 22 -159 177 -176 171 -8 -3 -14 1 -14 9 0 18 0 18 75 1
33 -8 62 -13 64 -10 2 2 -6 16 -20 30 l-24 26 30 -7 c17 -4 68 -25 115 -48 82
-39 84 -41 55 -47 -16 -4 -59 -9 -95 -10 -52 -2 -58 -4 -30 -9 19 -3 67 -5
107 -3 l73 4 0 41 c0 41 -1 43 -69 81 -87 48 -179 131 -233 208 -37 52 -148
151 -243 215 -67 44 -460 173 -530 173 -16 0 -46 -8 -65 -18z m373 -149 c-7
-2 -19 -2 -25 0 -7 3 -2 5 12 5 14 0 19 -2 13 -5z m52 -13 c3 -6 -1 -7 -9 -4
-18 7 -21 14 -7 14 6 0 13 -4 16 -10z m59 -336 c6 -15 4 -15 -11 -3 -10 7 -20
15 -22 16 -2 2 3 3 11 3 9 0 19 -7 22 -16z m75 5 c17 9 20 9 15 -3 -3 -8 -1
-17 5 -21 13 -8 14 -25 2 -25 -5 0 -11 10 -15 22 -4 17 -8 20 -17 11 -15 -15
-39 -5 -32 14 4 11 8 11 13 3 6 -9 13 -9 29 -1z m-99 -19 c8 -5 11 -10 5 -10
-5 0 -17 5 -25 10 -8 5 -10 10 -5 10 6 0 17 -5 25 -10z m184 -32 c-4 -6 0 -14
7 -19 10 -6 8 -9 -8 -9 -18 0 -23 6 -23 25 0 17 4 23 15 19 8 -4 12 -11 9 -16z
m-303 -15 c-4 -16 -6 -34 -3 -42 3 -8 0 -11 -7 -7 -12 8 -15 58 -4 69 15 15
21 5 14 -20z m157 13 c9 -10 -4 -17 -41 -23 -29 -4 -37 -2 -46 15 -10 20 -9
20 35 17 26 -2 49 -6 52 -9z m252 -49 c0 -18 -2 -19 -10 -7 -13 20 -13 43 0
35 6 -3 10 -16 10 -28z m-207 3 c4 0 5 6 1 13 -6 10 -4 10 7 0 15 -15 43 -18
35 -4 -4 5 4 7 15 4 21 -6 21 -7 4 -20 -11 -7 -28 -13 -39 -13 -12 0 -32 -3
-45 -7 -23 -6 -23 -7 -5 -14 18 -7 18 -8 -3 -8 -12 -1 -23 5 -26 12 -3 9 -7 9
-19 -1 -13 -10 -17 -10 -21 0 -2 8 -17 14 -33 16 -71 6 -18 15 87 16 11 0 15
5 12 15 -5 13 -3 14 8 4 7 -7 17 -13 22 -13z m151 -2 c-3 -5 -13 -7 -21 -4 -8
3 -25 -6 -40 -20 -14 -14 -27 -23 -30 -20 -12 12 66 66 84 59 7 -3 10 -9 7
-15z m36 -18 c0 -5 -5 -10 -11 -10 -5 0 -7 5 -4 10 3 6 8 10 11 10 2 0 4 -4 4
-10z m-277 -42 c4 1 7 -4 7 -12 0 -26 -15 -24 -39 7 l-25 30 25 -14 c13 -7 27
-12 32 -11z m-63 1 c0 -6 -8 -9 -19 -6 -10 2 -27 0 -37 -5 -18 -9 -18 -8 0 6
23 18 56 21 56 5z m230 -10 c-14 -6 -47 -12 -74 -13 -29 -1 -51 -7 -54 -14 -6
-19 -22 -14 -22 7 0 21 23 25 135 29 36 1 38 0 15 -9z m-220 -49 c0 -13 -11
-13 -30 0 -12 8 -11 10 8 10 12 0 22 -4 22 -10z m200 -3 c0 -4 -5 -5 -11 -1
-8 4 -9 0 -4 -15 5 -15 2 -21 -9 -21 -9 0 -15 6 -13 13 1 7 -10 13 -26 15 -15
2 -25 6 -23 10 6 10 86 10 86 -1z m150 -22 c-7 -8 -18 -15 -24 -15 -6 0 -2 7
8 15 25 19 32 19 16 0z m-205 -5 c-3 -5 -1 -10 4 -10 20 0 11 -25 -12 -35 -20
-10 -22 -8 -22 15 -1 24 10 40 28 40 5 0 5 -4 2 -10z m244 -11 c-8 -5 -10 -9
-6 -9 5 0 2 -6 -5 -13 -7 -7 -23 -13 -36 -13 -22 0 -22 2 10 27 18 15 37 25
41 22 5 -3 3 -9 -4 -14z m-373 -38 c-7 -11 22 -23 35 -15 5 3 9 1 9 -4 0 -5
-11 -14 -25 -20 -32 -15 -56 -16 -35 -2 13 9 12 13 -9 30 l-23 20 26 0 c15 0
25 -4 22 -9z m81 -6 c0 -8 -4 -15 -9 -15 -10 0 -11 14 -1 23 9 10 10 9 10 -8z
m-117 -13 c0 -4 -14 -13 -30 -19 -34 -13 -31 3 4 17 27 11 26 11 26 2z m-70
-22 c0 -5 -4 -10 -10 -10 -5 0 -10 5 -10 10 0 6 5 10 10 10 6 0 10 -4 10 -10z
m430 6 c0 -2 -7 -7 -16 -10 -8 -3 -12 -2 -9 4 6 10 25 14 25 6z m151 -35 c-17
-30 18 -38 42 -9 17 22 18 22 8 1 -12 -25 -90 -93 -105 -93 -6 0 4 13 23 29
20 16 31 33 27 40 -5 8 -19 2 -44 -19 -20 -16 -41 -30 -46 -30 -5 0 7 12 27
28 20 15 44 37 52 50 20 27 30 29 16 3z m-177 -79 l48 -50 -96 -7 c-53 -4 -96
-11 -96 -16 0 -5 30 -10 68 -10 83 -2 59 -7 -79 -17 l-106 -7 54 60 c31 33 67
77 80 97 l25 38 27 -19 c14 -11 48 -42 75 -69z m-338 66 c4 -7 3 -8 -4 -4 -7
4 -23 -5 -37 -20 -33 -36 -56 -41 -42 -9 17 35 69 56 83 33z m-88 -164 c-5 -5
-98 45 -98 52 0 2 23 -7 51 -22 28 -14 49 -27 47 -30z m62 -24 c8 -5 11 -10 5
-10 -5 0 -17 5 -25 10 -8 5 -10 10 -5 10 6 0 17 -5 25 -10z"/>
<path d="M230 425 c-201 -9 -221 -11 -140 -15 52 -3 124 -2 160 2 36 4 117 7
180 8 63 0 122 5 130 10 18 11 2 11 -330 -5z"/>
<path d="M325 119 c-5 -8 -4 -10 4 -5 6 4 17 4 24 -2 31 -23 114 -41 162 -34
l50 8 -35 17 c-20 10 -51 16 -70 15 -19 -1 -56 2 -81 6 -34 6 -49 4 -54 -5z"/>
</g>
</svg>
