<?xml version="1.0" encoding="UTF-8" standalone="no"?>
<!-- Created with Inkscape (http://www.inkscape.org/) -->

<svg
   width="144"
   height="144"
   viewBox="0 0 38.1 38.1"
   version="1.1"
   id="svg5"
   inkscape:version="1.1.1 (3bf5ae0d25, 2021-09-20)"
   sodipodi:docname="glossy-cuboid-attention.svg"
   xmlns:inkscape="http://www.inkscape.org/namespaces/inkscape"
   xmlns:sodipodi="http://sodipodi.sourceforge.net/DTD/sodipodi-0.dtd"
   xmlns="http://www.w3.org/2000/svg"
   xmlns:svg="http://www.w3.org/2000/svg">
  <sodipodi:namedview
     id="namedview7"
     pagecolor="#ffffff"
     bordercolor="#666666"
     borderopacity="1.0"
     inkscape:pageshadow="2"
     inkscape:pageopacity="0.0"
     inkscape:pagecheckerboard="0"
     inkscape:document-units="px"
     showgrid="false"
     units="px"
     inkscape:snap-global="false"
     inkscape:zoom="1"
     inkscape:cx="86.5"
     inkscape:cy="46"
     inkscape:window-width="1920"
     inkscape:window-height="1142"
     inkscape:window-x="0"
     inkscape:window-y="0"
     inkscape:window-maximized="1"
     inkscape:current-layer="layer1"
     width="144px" />
  <defs
     id="defs2" />
  <g
     inkscape:label="Layer 1"
     inkscape:groupmode="layer"
     id="layer1">
    <path
       style="fill:#000000;stroke:none;stroke-width:0.264583px;stroke-linecap:butt;stroke-linejoin:miter;stroke-opacity:1"
       d="m 12.100934,18.771155 c -1.147096,1.357002 -2.6069306,2.422295 -4.1754798,3.242762 -0.5555871,0.385647 -1.2091571,1.388797 -1.4923518,2.012238 -0.3269362,0.02508 -0.5320466,0.04372 -0.8010179,0.2172 -0.3182844,0.205293 -0.7451159,0.678422 -0.4298034,1.058469 0.6707358,0.86392 1.5163039,1.11288 2.3194248,0.322264 C 7.7732652,25.403607 7.950419,24.976744 7.6738607,24.704742 7.5086462,24.446154 7.3119156,24.149179 7.127463,24.073294 c 0.5090647,-0.702916 1.3151783,-1.544164 2.0704564,-2.02505 0.587455,-0.329902 1.2735576,-0.442042 1.8395406,-0.817205 0.720236,-0.399211 1.339193,-1.161435 1.260652,-2.025775 -0.01957,-0.160127 -0.0872,-0.315346 -0.197178,-0.434109 z"
       id="path6389"
       sodipodi:nodetypes="cccscccccccc" />
    <path
       style="fill:#000000;stroke:none;stroke-width:0.264583px;stroke-linecap:butt;stroke-linejoin:miter;stroke-opacity:1"
       d="m 21.763232,26.658317 c -0.0086,0.09776 -0.02253,0.195187 -0.0258,0.293265 -0.01105,0.331377 0,0.663123 0,0.994683 0,0.77684 0,1.553681 0,2.330521 0,0.277998 0.02561,0.578755 0,0.857022 -0.02235,0.24288 -0.03018,0.177565 -0.05743,0.33486 -0.0045,0.02617 0.0083,0.05778 0,0.08262 -0.0039,0.01169 -0.01584,0.02077 -0.01654,0.03307 -2.64e-4,0.0049 0.0098,-5.3e-4 0.01467,0 0.03624,0.0043 0.07325,0.0053 0.108492,0.01474 0.151639,0.04085 0.296276,0.104764 0.447027,0.148778 0.18661,0.05448 0.387484,0.06544 0.489273,0.252243 0.144519,0.265229 0.180189,0.630081 -0.04758,0.856813 -0.09848,0.09803 -0.66464,0.150469 -0.816175,0.168969 -0.124806,0.01524 -0.247796,0.05007 -0.372338,0.06792 -0.137536,0.01971 -0.419588,0.01 -0.551873,-0.01632 -0.02648,-0.0053 -0.05644,0.0091 -0.08227,0 -0.260694,-0.09186 -0.504055,-0.278101 -0.676086,-0.490771 -0.0721,-0.08913 -0.138292,-0.197601 -0.184192,-0.30094 -0.04486,-0.100994 -0.130962,-0.193659 -0.165392,-0.296817 -0.02273,-0.06812 -0.04986,-0.144619 -0.04986,-0.216016 0,-0.08331 -0.01436,-0.173157 0.01665,-0.252323 0.06351,-0.162102 0.517728,-0.08658 0.644413,-0.07574 0.07004,0.006 0.140585,0 0.210877,0 0.0291,0 0.201568,0.02484 0.222489,-0.02889 0.04594,-0.117988 0.01487,-0.973338 0.01487,-1.027244 0,-0.538864 -0.01735,-1.077585 0.03512,-1.614877 0.01894,-0.193945 0.05968,-0.385551 0.07414,-0.579879 0.02316,-0.311214 0,-0.636622 0,-0.949538 0,-0.223454 -0.0227,-0.44204 -0.0227,-0.665661 0,-0.09699 -0.01206,-0.216518 0.01412,-0.215707 0.123745,0.0038 0.232022,0.108295 0.342177,0.155278 0.05969,0.02546 0.122112,0.04409 0.182052,0.06896 0.185979,0.07714 0.128416,0.09729 0.251856,0.07098 z"
       id="path7068" />
    <path
       style="fill:#000000;stroke:none;stroke-width:0.264583px;stroke-linecap:butt;stroke-linejoin:miter;stroke-opacity:1"
       d="m 15.865046,25.379644 c 0,1.289542 0,2.579081 0,3.868624 0,0.383656 0,0.76731 0,1.150966 0,0.202674 0,0.405347 0,0.608021 0,0.136257 -0.03118,0.276129 0,0.40877 0.01142,0.04859 0.09964,0.0062 0.149385,0.01024 0.09583,0.0078 0.26857,0.05915 0.348153,0.116091 0.05465,0.0391 0.290296,0.242716 0.306566,0.306255 0.004,0.01551 -0.0051,0.03288 0,0.04805 0.02213,0.0653 0.06832,0.12656 0.0827,0.198413 0.0043,0.02167 -0.0054,0.04486 0,0.06629 0.01828,0.07313 0.05401,0.14078 0.06678,0.217612 0.05061,0.304419 -0.269957,0.420569 -0.491459,0.52319 -0.141138,0.06539 -0.316056,0.150751 -0.475992,0.177448 -0.09047,0.01511 -0.541348,0.01116 -0.647533,0 -0.1219,-0.01283 -0.01816,-0.02408 -0.161217,-0.05353 -0.02838,-0.0058 -0.05878,0.0069 -0.08691,0 -0.191438,-0.04717 -0.378516,-0.145258 -0.561174,-0.217601 -0.183933,-0.07285 -0.559386,-0.239932 -0.624325,-0.434012 -0.03352,-0.100179 -0.104237,-0.251708 -0.06646,-0.364307 0.0699,-0.208368 0.248912,-0.416521 0.438384,-0.521743 0.112501,-0.06248 0.41538,-0.112149 0.55792,-0.132384 0.04507,-0.0064 0.299036,-0.0167 0.316006,-0.07471 0.07975,-0.272616 0.02592,-0.550736 0.03997,-0.830136 0.01577,-0.313563 0.09181,-0.622017 0.109724,-0.935463 0.01502,-0.262732 0,-0.52632 0,-0.789477 0,-0.369594 0,-0.739191 0,-1.108784 0,-0.130162 -0.0117,-0.260851 0,-0.390486 0.01219,-0.135088 0.05823,-0.265604 0.07139,-0.400603 0.02571,-0.26376 0,-0.569436 0,-0.837716 0,-0.154757 0,-0.309515 0,-0.464273 0,-0.01435 -0.01325,-0.106096 0.01059,-0.109593 0.20708,-0.03038 0.418918,0.03829 0.617509,-0.03516 z"
       id="path7070" />
    <path
       style="fill:#ff55dd;stroke:#000000;stroke-width:0.264583px;stroke-linecap:butt;stroke-linejoin:miter;stroke-opacity:1"
       d="M 24.415709,13.560092 9.0589038,14.440769 c -0.00662,4.410705 -0.090667,8.38946 -0.1314884,12.800061 0.892519,0.490422 2.0098536,0.02046 2.9935646,0.187566 2.422574,0.02534 4.846095,-0.03925 7.264395,0.04255 1.091776,0.02167 2.16061,0.232394 3.256351,0.228688 1.013674,0.04622 2.190401,0.384412 3.115222,-0.149071"
       id="path874"
       sodipodi:nodetypes="ccccccc" />
    <path
       style="fill:#c837ab;stroke:#000000;stroke-width:0.264583px;stroke-linecap:butt;stroke-linejoin:miter;stroke-opacity:1"
       d="m 25.463404,27.550563 c 0.684597,-1.058678 1.387215,-2.13054 2.186097,-3.102066 0.548741,-0.820571 0.8105,-1.951237 1.775731,-2.374602 1.387339,-0.400723 0.551573,-1.608283 0.356989,-2.529668 -0.363728,-1.253355 -0.478827,-2.558086 -0.456841,-3.854914 -0.108548,-1.846269 0.331287,-4.555853 0.228562,-6.4019622 -1.265629,0.089083 -1.495649,0.6723889 -2.23811,0.5253289 l -2.993667,3.7474123"
       id="path50" />
    <path
       style="fill:#ff00cc;stroke:#000000;stroke-width:0.264583px;stroke-linecap:butt;stroke-linejoin:miter;stroke-opacity:1"
       d="m 16.485314,8.9971779 c -1.718461,0.9198889 -3.569809,1.7038941 -4.935143,3.1439191 -0.764397,0.743809 -2.1007986,1.60614 -2.4912672,2.299672 1.2488012,0.224786 2.5378902,0.182165 3.7724192,0.480492 2.921589,0.56311 10.76285,-0.03205 11.614561,0.06114 0.780936,-0.839522 1.672627,-1.489937 2.063403,-2.220092 0.804652,-1.058489 1.063082,-1.601536 2.101024,-2.468878 0.403692,-0.393845 1.869661,-1.3821842 0.454411,-1.1074928 -4.007351,-0.050486 -8.021021,0.045458 -12.026812,-0.050199 -0.187976,-0.028687 -0.373713,-0.073763 -0.552596,-0.1385613 z"
       id="path42"
       sodipodi:nodetypes="cccccccccc" />
    <path
       style="fill:#ffffff;stroke:none;stroke-width:0.264583px;stroke-linecap:butt;stroke-linejoin:miter;stroke-opacity:1"
       d="m 22.344351,9.8267029 c 0,0 -5.773044,-0.3163989 -6.234783,-0.067476 -1.526418,0.7488221 -4.426883,3.0298221 -4.426883,3.0298221 0,0 3.509935,-1.692994 5.299695,-2.192648 1.78976,-0.499656 5.361971,-0.7696977 5.361971,-0.7696981 z"
       id="path1954"
       sodipodi:nodetypes="ccccc" />
    <path
       style="fill:#ffffff;stroke:none;stroke-width:0.264583px;stroke-linecap:butt;stroke-linejoin:miter;stroke-opacity:1"
       d="m 17.373234,15.812234 c 0,0 -6.064199,-0.804338 -7.133969,-0.244966 -1.0697694,0.559371 -0.3544766,3.051202 -0.3544766,3.051202 0,0 0.0936,-1.992358 1.4114656,-2.275083 1.317865,-0.282725 5.025834,-0.730751 6.07698,-0.531153 z"
       id="path3011" />
    <path
       style="fill:#000000;stroke:none;stroke-width:0.264583px;stroke-linecap:butt;stroke-linejoin:miter;stroke-opacity:1"
       d="m 18.60793,18.788949 c -0.127801,0.563175 -0.08414,1.229491 0.416211,1.605715 0.852327,0.79991 2.321989,0.176541 2.682928,-0.838832 0.239468,-2.572664 -2.325651,-2.36902 -3.099139,-0.766883 z"
       id="path4062"
       sodipodi:nodetypes="cccc" />
    <path
       style="fill:#000000;stroke:none;stroke-width:0.264583px;stroke-linecap:butt;stroke-linejoin:miter;stroke-opacity:1"
       d="m 13.263105,17.044033 c 0.744282,0.311977 1.274145,0.964089 1.47687,1.737419 0.344043,0.720479 0.308859,1.867785 -0.583899,2.152098 -0.866953,0.295241 -1.84608,-0.126415 -2.359976,-0.850819 -0.183792,-0.603102 -0.212177,-1.30732 0.04794,-1.88893 0.308273,-0.40839 0.854909,-1.264178 1.419075,-1.149768 z"
       id="path4064" />
    <path
       style="fill:#000000;stroke:none;stroke-width:0.264582px;stroke-linecap:butt;stroke-linejoin:miter;stroke-opacity:1"
       d="m 20.955378,22.925499 c -0.812532,1.059193 -2.110457,1.679706 -3.435967,1.729792 -0.822361,0.168176 -1.667275,0.01796 -2.407249,-0.363478 -0.759858,-0.460444 -1.551736,-0.88222 -2.249157,-1.434323 -0.595487,-0.223838 -0.899029,1.130633 -0.205257,1.254306 0.615157,0.226405 1.154205,0.619808 1.79669,0.784199 0.667152,0.186528 1.365061,0.352238 2.065018,0.291899 0.825714,0.113813 1.656221,0.05048 2.411521,-0.321682 0.622944,-0.30612 1.370064,-0.343268 1.922681,-0.78282 0.288074,-0.232246 0.66238,-1.125828 0.281204,-1.228804 l -0.08024,0.028 -0.09924,0.04292 z"
       id="path4364" />
    <path
       style="fill:#ffffff;stroke:none;stroke-width:0.264583px;stroke-linecap:butt;stroke-linejoin:miter;stroke-opacity:1"
       d="m 13.668778,17.856841 c 0,0 -0.657236,-0.277164 -0.967333,-0.08495 -0.310099,0.192219 -0.640626,0.975943 -0.640626,0.975943 0,0 0.399854,-0.58823 0.823583,-0.753506 0.423729,-0.165275 0.784376,-0.137498 0.784376,-0.137498 z"
       id="path4566" />
    <path
       style="fill:#ffffff;stroke:none;stroke-width:0.264583px;stroke-linecap:butt;stroke-linejoin:miter;stroke-opacity:1"
       d="m 19.038111,19.701623 c 0,0 -0.277162,-0.657233 -0.08495,-0.967335 0.192212,-0.310096 0.975947,-0.640623 0.975947,-0.640623 0,0 -0.588222,0.399858 -0.753507,0.823578 -0.165271,0.423726 -0.137498,0.784378 -0.137498,0.784378 z"
       id="path4566-3" />
    <path
       style="fill:#000000;stroke:none;stroke-width:0.264583px;stroke-linecap:butt;stroke-linejoin:miter;stroke-opacity:1"
       d="m 27.437952,19.538703 c 1.351603,-0.02171 1.529408,0.129876 2.853184,-0.206181 1.436023,-0.199179 1.751285,-0.499709 2.616445,-1.67139 0.599342,-0.673415 0.593344,-1.786892 0.743561,-2.439718 0.643054,-0.02927 1.512152,-0.937799 1.17119,-1.799294 -0.275076,-0.69502 -0.871151,-0.68262 -1.562201,-0.630587 -0.705259,0.0531 -1.338451,0.497593 -1.712294,1.134276 -0.322782,0.796478 0.471593,1.439788 1.169948,1.285366 0.01718,0.624843 -0.23913,1.365647 -0.459149,1.89694 -0.778156,0.87751 -1.464374,1.00158 -1.88521,1.13389 -0.738539,0.181123 -1.7619,0.408471 -3.170058,0.04212 -0.256388,0.509631 -0.133933,0.915726 0.234584,1.254573 z"
       id="path5168"
       sodipodi:nodetypes="ccccsscccccc" />
  </g>
</svg>
