<?xml version="1.0" encoding="UTF-8" standalone="no"?>
<svg
   xmlns:dc="http://purl.org/dc/elements/1.1/"
   xmlns:cc="http://creativecommons.org/ns#"
   xmlns:rdf="http://www.w3.org/1999/02/22-rdf-syntax-ns#"
   xmlns:svg="http://www.w3.org/2000/svg"
   xmlns="http://www.w3.org/2000/svg"
   xmlns:sodipodi="http://sodipodi.sourceforge.net/DTD/sodipodi-0.dtd"
   xmlns:inkscape="http://www.inkscape.org/namespaces/inkscape"
   id="SVGRoot"
   version="1.1"
   viewBox="0 0 144.0 144.0"
   height="144.0px"
   width="144.0px"
   inkscape:version="1.0 (4035a4fb49, 2020-05-01)"
   sodipodi:docname="star-fire-agate.svg">
  <defs
     id="defs833" />
  <sodipodi:namedview
     id="base"
     pagecolor="#ffffff"
     bordercolor="#666666"
     borderopacity="1.0"
     inkscape:pageopacity="0"
     inkscape:pageshadow="2"
     inkscape:zoom="5.6"
     inkscape:cx="65.361202"
     inkscape:cy="72.582391"
     inkscape:document-units="px"
     inkscape:current-layer="layer1"
     inkscape:document-rotation="0"
     showgrid="true"
     inkscape:window-width="1920"
     inkscape:window-height="1152"
     inkscape:window-x="0"
     inkscape:window-y="0"
     inkscape:window-maximized="1"
     inkscape:snap-grids="false"
     inkscape:snap-global="false">
    <inkscape:grid
       id="grid1403"
       type="xygrid"
       enabled="false" />
  </sodipodi:namedview>
  <metadata
     id="metadata836">
    <rdf:RDF>
      <cc:Work
         rdf:about="">
        <dc:format>image/svg+xml</dc:format>
        <dc:type
           rdf:resource="http://purl.org/dc/dcmitype/StillImage" />
        <dc:title></dc:title>
      </cc:Work>
    </rdf:RDF>
  </metadata>
  <g
     inkscape:label="Layer 1"
     inkscape:groupmode="layer"
     id="layer1">
    <rect
       y="0"
       x="0"
       height="144"
       width="144"
       id="rect882"
       style="fill:#000000;fill-opacity:1;stroke:none;stroke-width:3" />
    <path
       id="path1487"
       style="fill:#ff0000;fill-opacity:1;stroke:none;stroke-width:1px;stroke-linecap:butt;stroke-linejoin:miter;stroke-opacity:1"
       d="m 82.08277,39.206429 c -1.740714,-6.518931 -1.771332,-13.474123 -0.385781,-20.24023 1.426442,-7.216105 6.755397,-12.5564126 13.97467,-14.1188577 2.505146,-0.8880614 8.519731,-5.27770054 4.891621,0.2768789 -5.204726,5.5506738 -3.100885,13.4178988 0.95131,18.9336148 4.33567,4.462068 4.2507,11.115156 0.53421,15.843572 -2.764514,2.946414 -4.502036,10.292653 1.59115,5.389067 5.91591,-3.320553 11.51164,-7.248648 17.96853,-9.50235 5.3151,-2.476454 12.0252,-3.561953 17.3906,0.09533 -3.44844,2.38035 -12.73778,5.908094 -16.36331,11.358664 -3.99106,4.977884 -1.28093,10.795751 1.19022,15.618718 3.16122,4.801421 2.25736,11.0209 -4.47087,10.701462 -3.51792,1.891236 -11.00433,1.319054 -12.28761,3.253492 5.0218,5.167477 12.53006,5.391835 19.31762,5.530034 5.20074,0.528631 12.05631,0.200167 16.25998,0.211868 -5.83967,5.329891 -12.55419,9.879134 -20.59455,10.868876 -5.5302,1.72937 -11.03341,-3.641832 -14.87968,-3.525932 -4.79903,8.033037 5.42813,10.391014 10.9485,12.377344 6.52121,3.74416 4.6195,11.98124 1.19288,17.21401 -2.18369,7.01842 0.10644,16.70021 8.65554,17.51371 4.80382,0.89403 -7.25145,1.89637 -8.67772,0.76192 -5.42501,-0.55939 -12.68781,-5.14052 -12.5687,-13.02924 -1.71447,-5.60521 -3.89443,-13.12195 -11.379136,-11.8846 -4.692521,-0.89938 -6.41202,0.70745 -3.349751,4.58219 3.088972,7.21403 -3.992808,14.95665 -9.32673,19.25624 -1.869741,3.19678 -8.927756,3.64031 -9.81844,3.90262 6.820419,-3.20275 10.887915,-10.31476 10.006651,-17.81217 -0.595928,-8.19341 -11.988829,-1.74562 -16.064336,-7.59605 -2.159798,-3.16899 -1.933812,-8.03125 -6.762867,-4.30189 -8.796407,1.67132 -7.535331,11.07967 -9.564602,17.61173 -2.475167,5.51918 -9.505924,6.29095 -14.629083,8.23513 -3.315055,1.71702 -8.174461,4.23024 -3.781258,-0.97876 3.998555,-5.91736 8.272205,-11.75582 8.111985,-19.25829 1.252785,-5.8177 -3.190582,-12.25762 0.639562,-17.454481 6.320319,-5.822901 -4.925659,1.334981 -8.062049,1.864631 -6.884793,2.47038 -14.189861,3.36751 -21.494432,3.22963 C 6.7761104,102.64654 -1.5351117,100.56288 7.6310022,99.419336 12.74421,97.785855 18.149676,96.463587 22.543283,92.85698 30.116275,90.825953 30.170137,78.154004 38.415026,79.960142 46.509432,80.392329 40.927251,67.867659 34.482775,71.229465 28.067268,69.508817 22.830129,73.412185 17.344165,75.921936 12.139398,77.546254 4.3357637,73.788716 5.1784226,67.448281 4.9429619,63.451374 4.3180625,62.406655 7.1470642,66.076856 14.888485,68.35075 22.743635,61.553519 23.957161,54.062578 25.754996,45.926736 35.479576,50.730235 38.840516,55.129871 45.829381,60.231399 54.354927,51.965197 55.26296,44.821009 56.181321,39.880753 58.298054,31.503633 50.949304,30.966704 45.630011,27.29779 40.62687,31.569568 35.151473,32.207959 27.876251,34.389632 19.368148,33.409934 16.86791,24.992736 13.067472,20.789324 15.405232,9.044079 18.585461,9.3366051 c 0.127669,8.0405689 10.915587,8.3951569 16.819123,7.6646339 5.9488,-2.342322 12.254738,-2.677415 18.463175,-3.47786 6.389326,-0.0495 12.747615,4.175928 16.544119,9.055487 3.673293,5.532701 6.022976,6.633804 6.27823,13.24264 0.272954,7.06716 5.850969,5.101273 5.392662,3.384923 z"
       sodipodi:nodetypes="sccccccccccccccccccccccccccccccccccccccccccccccccccccss" />
    <path
       id="path1490"
       style="fill:#ffc800;fill-opacity:1;stroke:none;stroke-width:1px;stroke-linecap:butt;stroke-linejoin:miter;stroke-opacity:1"
       d="M 81.071679,51.147526 C 77.416263,48.219873 73.026208,45.333394 72.504957,40.251107 70.939459,36.006576 71.426438,29.41998 65.648456,28.981428 c -2.435862,-0.994879 -8.339875,-3.601161 -5.142835,1.128473 1.775525,5.280248 5.497171,9.882687 5.545388,15.667789 0.87165,5.809573 -4.30453,10.492363 -9.827271,10.766767 -4.235884,-0.957452 -5.688978,1.92037 -5.813391,5.544466 -4.245674,1.450506 -10.373673,0.608634 -14.132413,-2.607703 -4.158174,-5.302581 -13.12972,3.619732 -10.006151,7.059119 4.880528,-2.004824 9.743992,-3.801497 14.941306,-1.752244 5.237923,0.09809 8.636108,4.529707 8.163449,9.556712 0.145409,5.259849 -3.347033,10.383901 -8.244782,12.395649 -4.442662,2.435555 -6.961984,7.350229 -12.432273,8.162117 5.156993,-0.574145 10.374475,-1.142238 14.989193,-3.633423 3.846553,-1.762212 13.435198,3.722552 6.793768,6.600162 -4.273459,0.493274 -9.235914,2.596808 -6.834067,7.801698 1.049466,4.26034 1.469476,11.82891 2.74695,14.14144 2.522674,-8.00417 5.573789,-7.46589 6.589049,-11.9218 1.477018,-5.49167 7.81892,-5.64302 12.439111,-5.52846 6.392444,-0.75136 4.949976,7.21744 9.463925,9.5026 2.814079,1.82114 8.798677,4.23967 10.647767,4.28584 -2.504578,-4.17073 -1.747229,-10.43074 4.377429,-10.07112 4.984759,-0.80767 11.235552,-2.44795 14.613032,2.67813 1.29824,4.92964 7.79205,8.76368 5.53603,14.25186 1.28602,-1.72502 3.13283,-8.49314 4.67866,-12.1097 -0.1169,-6.25083 -9.57656,-6.03288 -10.34091,-12.621516 -1.71828,-3.591121 -3.81067,-8.931644 -0.0871,-11.980018 2.91769,-3.021264 11.04349,2.442849 11.27396,0.469984 -4.27716,-2.008577 -10.45159,-4.044805 -10.95211,-9.482877 -2.00067,-5.250126 2.05026,-8.514699 6.29642,-10.133515 1.96067,-1.558515 3.06198,-9.110153 1.36784,-8.419036 -2.03029,6.028204 -10.35515,0.98608 -6.89822,-4.130965 -0.2256,-3.569809 6.62522,-6.196611 5.92843,-7.871384 -6.0717,0.380513 -9.63084,7.906528 -16.101065,6.242617 -7.140213,-3.094301 -1.75982,-11.622949 0.885755,-16.102564 2.400125,-5.599048 -2.136378,-10.996461 -7.532654,-12.089403 -4.652829,0.01639 2.669042,5.847135 0.839307,8.646646 0.384206,5.106171 -4.50682,7.582658 -6.307065,11.632153 -0.928991,1.931017 -1.742014,3.952754 -2.041259,6.087604 z"
       sodipodi:nodetypes="cccccccccccccccccccccccccccccccccccccccc" />
    <g
       id="g1485"
       transform="matrix(0.75125437,-0.24267968,0.24267968,0.75125437,4.7810114,38.760563)"
       style="stroke-width:1.26666">
      <path
         sodipodi:nodetypes="ccccccccccccccccccc"
         d="m 66.234829,47.337009 c 2.997681,-1.892829 7.050136,-5.724352 10.512839,-2.670067 3.114412,0.762007 5.400283,2.807933 8.067858,4.393369 3.435827,1.733877 7.313035,3.929434 11.047687,1.464528 1.928783,-0.729275 1.194617,-0.218387 1.139886,3.084621 0.154728,3.476877 1.301692,2.312404 2.769713,5.383261 2.849828,4.065352 5.180858,8.901635 4.652658,13.997949 -1.05672,3.902719 -3.23316,7.984755 -7.180577,9.561937 -2.881252,3.173227 1.655761,6.973831 0.586656,10.651979 0.290195,4.359337 -1.748181,8.892294 -5.831631,10.813334 -3.724922,2.142 -7.790539,3.67097 -12.123936,3.83109 -4.828696,0.33359 -10.122491,-0.14427 -14.174381,-2.98431 -3.482062,-3.51994 -7.675582,-6.513334 -12.630692,-7.432239 -2.974153,-0.701694 -6.017951,-1.063114 -8.983668,-1.803897 -1.684593,-3.135538 -5.915,-5.445436 -5.101087,-9.501561 0.860943,-4.773161 4.875049,-8.01986 6.914632,-12.261482 2.688426,-4.831426 7.794484,-8.281011 8.777072,-14.030994 1.140191,-3.582631 3.548979,-6.959555 5.258127,-10.442009 1.288941,-2.828706 4.900102,0.568716 6.298844,-2.055509 z"
         style="fill:#c51500;fill-opacity:1;stroke:none;stroke-width:1.26666px;stroke-linecap:butt;stroke-linejoin:miter;stroke-opacity:1"
         id="path1410" />
      <path
         d="m 73.582031,45.542969 c -2.259278,0.402024 -4.002527,2.049315 -5.890625,3.230469 -0.999805,1.505808 -2.979369,1.859286 -4.649364,1.531764 -0.412084,0.02191 -1.038088,-0.307127 -1.329151,0.0034 -1.648742,3.407737 -3.946609,6.517694 -5.118567,10.143108 -0.738725,4.080269 -3.51341,7.327163 -6.08803,10.415109 -1.395162,1.624802 -2.620044,3.391626 -3.580981,5.306378 -1.866021,3.270531 -4.798827,5.977656 -5.83225,9.685576 -0.448324,1.237915 -0.116509,2.603883 0.695155,3.612514 1.107238,1.535243 2.531973,2.816444 3.575063,4.401768 3.823213,0.880286 7.785777,1.226704 11.495209,2.555619 3.902321,1.447035 7.259336,4.042416 10.197138,6.937696 3.902618,2.56594 8.785188,2.78383 13.305091,2.45254 4.309201,-0.28219 8.360048,-2.08191 11.989242,-4.32363 2.625065,-1.909999 3.745171,-5.346069 3.474258,-8.497225 0.397193,-1.099734 0.0063,-2.252453 -0.363281,-3.298828 -0.148418,-0.430543 -0.439973,-1.18292 -0.625527,-1.752189 -0.776136,-2.034055 -0.857951,-4.521218 0.563027,-6.300546 0.349479,-0.548839 0.829606,-0.917928 1.451712,-1.103332 3.080703,-1.47215 4.7085,-4.780987 5.60102,-7.918152 0.38426,-4.564379 -1.7868,-8.864546 -4.328123,-12.503906 -0.447621,-1.022231 -1.20391,-1.835098 -1.970703,-2.625 -0.972226,-1.208901 -1.165489,-2.832537 -1.138672,-4.333985 -3.046716,1.104939 -6.330805,0.05981 -9.103516,-1.316406 C 83.58112,50.841198 81.571854,49.283178 79.421875,47.966797 78.285958,47.24741 76.99708,46.807753 75.733007,46.419275 75.14243,45.878863 74.426025,45.402188 73.582031,45.542969 Z"
         style="fill:#9d1500;fill-opacity:1;stroke:none;stroke-width:1.26666px;stroke-linecap:butt;stroke-linejoin:miter;stroke-opacity:1"
         id="path1424" />
      <path
         d="m 73.644531,47.574219 c -1.737237,0.505198 -3.133557,1.747634 -4.601562,2.736328 -1.446561,1.768235 -3.917877,2.377669 -6.107422,2.003906 -1.533032,2.999377 -3.585473,5.79136 -4.496332,9.068767 -0.996652,4.540426 -4.188103,8.097808 -7.064728,11.576722 -1.354961,1.585468 -2.264452,3.467369 -3.342187,5.234308 -1.782214,2.853388 -4.376354,5.340078 -5.135816,8.719812 0.02773,1.283635 1.196897,2.122987 1.905366,3.075324 0.598282,0.68395 1.201735,1.364745 1.746978,2.092645 4.801606,1.003336 9.866291,1.447098 14.202459,3.939532 2.819789,1.527172 5.299694,3.601188 7.611525,5.799887 3.674976,2.2708 8.193807,2.29682 12.363856,1.95787 3.854071,-0.3929 7.497247,-2.01879 10.713508,-4.116068 1.985196,-1.659078 2.641812,-4.433457 2.364512,-6.921064 0.516716,-1.177754 -0.329687,-2.364171 -0.628859,-3.486123 -1.101,-2.622761 -1.352353,-5.839075 0.26753,-8.308799 0.64564,-1.10984 1.662119,-1.959317 2.872452,-2.384709 2.285956,-1.335371 3.480466,-3.916897 4.153939,-6.371421 0.22957,-4.109043 -1.87376,-7.875422 -4.124738,-11.152195 -0.642003,-1.490735 -2.21298,-2.348835 -2.707287,-3.932459 -0.198618,-0.490633 -0.340507,-1.004431 -0.436553,-1.524451 -3.694371,0.309779 -7.183577,-1.324571 -10.337639,-3.05712 -2.453917,-1.360997 -4.570584,-3.339782 -7.341809,-4.073436 -0.620967,-0.09258 -1.069037,-0.471797 -1.529536,-0.861631 -0.104188,-0.113965 -0.224041,-0.03195 -0.347657,-0.01563 z"
         style="fill:#851500;fill-opacity:1;stroke:none;stroke-width:1.26666px;stroke-linecap:butt;stroke-linejoin:miter;stroke-opacity:1"
         id="path1427" />
      <path
         id="path1430"
         style="fill:#a63400;fill-opacity:1;stroke:none;stroke-width:1.26666px;stroke-linecap:butt;stroke-linejoin:miter;stroke-opacity:1"
         d="m 73.644531,47.574219 c -1.737237,0.505198 -3.133557,1.747634 -4.601562,2.736328 -1.446561,1.768235 -3.917877,2.377669 -6.107422,2.003906 -1.533032,2.999377 -3.585473,5.79136 -4.496332,9.068767 -0.996652,4.540426 -4.188103,8.097808 -7.064728,11.576722 -1.354961,1.585468 -2.264452,3.467369 -3.342187,5.234308 -1.782214,2.853388 -4.376354,5.340078 -5.135816,8.719812 0.02773,1.283635 1.196897,2.122987 1.905366,3.075324 0.598282,0.68395 1.201735,1.364745 1.746978,2.092645 4.801606,1.003336 9.866291,1.447098 14.202459,3.939532 2.819789,1.527172 5.299694,3.601188 7.611525,5.799887 3.674976,2.2708 8.193807,2.29682 12.363856,1.95787 3.854071,-0.3929 7.497247,-2.01879 10.713508,-4.116068 1.985196,-1.659078 2.641812,-4.433457 2.364512,-6.921064 0.516716,-1.177754 -0.329687,-2.364171 -0.628859,-3.486123 -1.101,-2.622761 -1.352353,-5.839075 0.26753,-8.308799 0.64564,-1.10984 1.662119,-1.959317 2.872452,-2.384709 2.285956,-1.335371 3.480466,-3.916897 4.153939,-6.371421 0.22957,-4.109043 -1.87376,-7.875422 -4.124738,-11.152195 -0.642003,-1.490735 -2.21298,-2.348835 -2.707287,-3.932459 -0.198618,-0.490633 -0.340507,-1.004431 -0.436553,-1.524451 -3.694371,0.309779 -7.183577,-1.324571 -10.337639,-3.05712 -2.453917,-1.360997 -4.570584,-3.339782 -7.341809,-4.073436 -0.620967,-0.09258 -1.069037,-0.471797 -1.529536,-0.861631 -0.104188,-0.113965 -0.224041,-0.03195 -0.347657,-0.01563 z" />
      <path
         d="m 73.296875,49.865234 c -1.344502,0.767451 -2.624885,1.665376 -3.73952,2.735108 -1.523517,1.25171 -3.521476,1.839464 -5.477277,1.817627 -1.541345,2.760695 -3.346986,5.457885 -4.007775,8.600783 -1.367831,4.595108 -4.690249,8.189237 -7.642705,11.829797 -1.585116,2.214322 -2.692502,4.739345 -4.414134,6.863718 -1.188721,1.653249 -2.555446,3.316237 -3.060386,5.31703 0.841707,1.125014 1.831986,2.135447 2.710938,3.234375 4.946388,0.954857 10.129343,1.599452 14.515651,4.272382 2.74722,1.536707 5.152076,3.601908 7.461775,5.714776 3.448788,1.96222 7.592468,1.83343 11.417384,1.47421 3.353144,-0.48285 6.543894,-1.889925 9.320033,-3.799259 1.40977,-1.413312 1.647771,-3.567264 1.392579,-5.458984 0.489997,-0.758336 -0.244887,-1.529467 -0.399399,-2.276953 -1.309427,-3.140968 -1.62328,-6.948554 0.173858,-9.968953 0.86125,-1.646272 2.360663,-2.867366 4.055619,-3.574407 1.583895,-1.169599 2.469097,-3.096027 2.87665,-4.967545 0.02483,-3.62712 -1.979586,-6.828198 -3.921651,-9.739902 -0.776526,-1.443403 -2.284055,-2.426901 -2.765756,-4.05465 -0.115162,-0.589624 -0.964387,-0.187188 -1.388551,-0.399176 -3.690681,-0.534379 -7.074953,-2.294736 -10.202054,-4.248045 -1.812837,-1.188257 -3.604099,-2.543779 -5.764654,-3.012557 -0.402476,-0.04682 -0.76937,-0.614881 -1.140625,-0.359375 z"
         style="fill:#c74d00;fill-opacity:1;stroke:none;stroke-width:1.26666px;stroke-linecap:butt;stroke-linejoin:miter;stroke-opacity:1"
         id="path1432" />
      <path
         d="m 73.398438,52.140625 c -1.715203,0.997913 -2.956543,2.677621 -4.849987,3.388205 -1.036916,0.451601 -2.148584,0.731691 -3.275013,0.830545 -1.354984,2.343603 -2.796954,4.764057 -3.363241,7.475153 -1.470272,4.785032 -4.916278,8.549445 -7.983699,12.36985 -1.607807,2.392128 -2.874463,5.010131 -4.705996,7.251933 -0.738778,1.015923 -1.506797,2.02794 -2.01933,3.182361 0.554047,0.584994 1.03201,1.319509 1.639333,1.809283 5.047218,0.92539 10.2897,1.777595 14.704826,4.570347 2.686449,1.537494 5.026893,3.59322 7.338072,5.623995 3.135943,1.620523 6.811159,1.397873 10.213488,1.049781 2.876047,-0.476013 5.616815,-1.679257 8.004671,-3.332703 0.972701,-1.211749 0.786165,-2.873005 0.621094,-4.3125 0.30613,-0.384243 -0.238679,-0.790832 -0.24414,-1.214844 -1.567009,-3.766228 -1.728224,-8.336563 0.490234,-11.884765 1.048663,-1.862152 2.818587,-3.196343 4.701604,-4.119272 1.000645,-0.944093 1.670762,-2.299977 1.793635,-3.661072 C 96.221816,67.794525 94.148674,64.964388 92.351027,62.237219 91.64144,61.358608 90.8309,60.541688 90.314453,59.525391 86.526761,58.941019 82.983612,57.311289 79.746307,55.30124 77.753181,54.096308 75.896104,52.505692 73.548828,52.050781 l -0.08585,0.05129 z"
         style="fill:#d87416;fill-opacity:1;stroke:none;stroke-width:1.26666px;stroke-linecap:butt;stroke-linejoin:miter;stroke-opacity:1"
         id="path1435" />
      <path
         d="m 73.455078,54.535156 c -1.513212,1.305668 -3.096921,2.614477 -5.048828,3.19336 -0.617019,0.208314 -1.249729,0.369141 -1.890625,0.484375 -1.220334,2.045131 -2.283995,4.209417 -2.806745,6.544056 -1.576421,4.930665 -5.133815,8.823434 -8.278785,12.803339 -1.643025,2.562463 -3.077735,5.265993 -5.001971,7.638642 -0.236119,0.411908 -0.741773,0.846594 -0.750845,1.259054 0.630856,0.370068 1.501982,0.310562 2.225617,0.522637 4.629305,0.846009 9.30629,2.061763 13.27628,4.688075 2.504223,1.497474 4.683757,3.464632 6.903436,5.331038 2.364887,1.096987 5.051505,1.020275 7.591216,0.816674 0.313154,-0.03868 1.067216,-0.07023 1.544922,-0.179687 2.311812,-0.470851 4.574897,-1.411686 6.474609,-2.789063 0.312397,-1.01717 0.11036,-2.131869 -0.0625,-3.154297 -1.357913,-3.464828 -1.835656,-7.40472 -0.655767,-10.994886 0.935279,-2.967234 2.98488,-5.566616 5.720038,-7.073594 1.037691,-0.384004 1.600086,-1.449386 1.754089,-2.497926 -0.338464,-2.970085 -2.217388,-5.432232 -3.827714,-7.840762 -0.531584,-0.639995 -1.088517,-1.261637 -1.555099,-1.952207 -4.763962,-0.916546 -9.046579,-3.358004 -13.02309,-6.041217 -0.683083,-0.424469 -1.389117,-0.827218 -2.154644,-1.083783 -0.144531,0.108724 -0.289063,0.217448 -0.433594,0.326172 z"
         style="fill:#d88f16;fill-opacity:1;stroke:none;stroke-width:1.26666px;stroke-linecap:butt;stroke-linejoin:miter;stroke-opacity:1"
         id="path1438" />
      <path
         id="path1441"
         style="fill:#d8a916;fill-opacity:1;stroke:none;stroke-width:1.26666px;stroke-linecap:butt;stroke-linejoin:miter;stroke-opacity:1"
         d="m 73.455078,54.535156 c -1.513212,1.305668 -3.096921,2.614477 -5.048828,3.19336 -0.617019,0.208314 -1.249729,0.369141 -1.890625,0.484375 -1.220334,2.045131 -2.283995,4.209417 -2.806745,6.544056 -1.576421,4.930665 -5.133815,8.823434 -8.278785,12.803339 -1.643025,2.562463 -3.077735,5.265993 -5.001971,7.638642 -0.236119,0.411908 -0.741773,0.846594 -0.750845,1.259054 0.630856,0.370068 1.501982,0.310562 2.225617,0.522637 4.629305,0.846009 9.30629,2.061763 13.27628,4.688075 2.504223,1.497474 4.683757,3.464632 6.903436,5.331038 2.364887,1.096987 5.051505,1.020275 7.591216,0.816674 0.313154,-0.03868 1.067216,-0.07023 1.544922,-0.179687 2.311812,-0.470851 4.574897,-1.411686 6.474609,-2.789063 0.312397,-1.01717 0.11036,-2.131869 -0.0625,-3.154297 -1.357913,-3.464828 -1.835656,-7.40472 -0.655767,-10.994886 0.935279,-2.967234 2.98488,-5.566616 5.720038,-7.073594 1.037691,-0.384004 1.600086,-1.449386 1.754089,-2.497926 -0.338464,-2.970085 -2.217388,-5.432232 -3.827714,-7.840762 -0.531584,-0.639995 -1.088517,-1.261637 -1.555099,-1.952207 -4.763962,-0.916546 -9.046579,-3.358004 -13.02309,-6.041217 -0.683083,-0.424469 -1.389117,-0.827218 -2.154644,-1.083783 -0.144531,0.108724 -0.289063,0.217448 -0.433594,0.326172 z" />
      <path
         d="m 73.455078,54.535156 c -1.513212,1.305668 -3.096921,2.614477 -5.048828,3.19336 -0.617019,0.208314 -1.249729,0.369141 -1.890625,0.484375 -1.220334,2.045131 -2.283995,4.209417 -2.806745,6.544056 -1.576421,4.930665 -5.133815,8.823434 -8.278785,12.803339 -1.643025,2.562463 -3.077735,5.265993 -5.001971,7.638642 -0.236119,0.411908 -0.741773,0.846594 -0.750845,1.259054 0.630856,0.370068 1.501982,0.310562 2.225617,0.522637 4.629305,0.846009 9.30629,2.061763 13.27628,4.688075 2.504223,1.497474 4.683757,3.464632 6.903436,5.331038 2.364887,1.096987 5.051505,1.020275 7.591216,0.816674 0.313154,-0.03868 1.067216,-0.07023 1.544922,-0.179687 2.311812,-0.470851 4.574897,-1.411686 6.474609,-2.789063 0.312397,-1.01717 0.11036,-2.131869 -0.0625,-3.154297 -1.357913,-3.464828 -1.835656,-7.40472 -0.655767,-10.994886 0.935279,-2.967234 2.98488,-5.566616 5.720038,-7.073594 1.037691,-0.384004 1.600086,-1.449386 1.754089,-2.497926 -0.338464,-2.970085 -2.217388,-5.432232 -3.827714,-7.840762 -0.531584,-0.639995 -1.088517,-1.261637 -1.555099,-1.952207 -4.763962,-0.916546 -9.046579,-3.358004 -13.02309,-6.041217 -0.683083,-0.424469 -1.389117,-0.827218 -2.154644,-1.083783 -0.144531,0.108724 -0.289063,0.217448 -0.433594,0.326172 z"
         style="fill:#ffa916;fill-opacity:1;stroke:none;stroke-width:1.26666px;stroke-linecap:butt;stroke-linejoin:miter;stroke-opacity:1"
         id="path1443" />
      <path
         id="path1445"
         style="fill:#ffc316;fill-opacity:1;stroke:none;stroke-width:1.26666px;stroke-linecap:butt;stroke-linejoin:miter;stroke-opacity:1"
         d="m 73.455078,54.535156 c -1.513212,1.305668 -3.096921,2.614477 -5.048828,3.19336 -0.617019,0.208314 -1.249729,0.369141 -1.890625,0.484375 -1.220334,2.045131 -2.283995,4.209417 -2.806745,6.544056 -1.576421,4.930665 -5.133815,8.823434 -8.278785,12.803339 -1.643025,2.562463 -3.077735,5.265993 -5.001971,7.638642 -0.236119,0.411908 -0.741773,0.846594 -0.750845,1.259054 0.630856,0.370068 1.501982,0.310562 2.225617,0.522637 4.629305,0.846009 9.30629,2.061763 13.27628,4.688075 2.504223,1.497474 4.683757,3.464632 6.903436,5.331038 2.364887,1.096987 5.051505,1.020275 7.591216,0.816674 0.313154,-0.03868 1.067216,-0.07023 1.544922,-0.179687 2.311812,-0.470851 4.574897,-1.411686 6.474609,-2.789063 0.312397,-1.01717 0.11036,-2.131869 -0.0625,-3.154297 -1.357913,-3.464828 -1.835656,-7.40472 -0.655767,-10.994886 0.935279,-2.967234 2.98488,-5.566616 5.720038,-7.073594 1.037691,-0.384004 1.600086,-1.449386 1.754089,-2.497926 -0.338464,-2.970085 -2.217388,-5.432232 -3.827714,-7.840762 -0.531584,-0.639995 -1.088517,-1.261637 -1.555099,-1.952207 -4.763962,-0.916546 -9.046579,-3.358004 -13.02309,-6.041217 -0.683083,-0.424469 -1.389117,-0.827218 -2.154644,-1.083783 -0.144531,0.108724 -0.289063,0.217448 -0.433594,0.326172 z" />
      <path
         d="m 74.181641,56.544922 c -1.831968,1.608611 -3.971487,2.92368 -6.378907,3.4375 -1.049677,1.780577 -1.796438,3.718778 -2.30394,5.716836 -1.676221,5.023154 -5.277133,9.026004 -8.493341,13.112016 -1.342861,2.11334 -2.560219,4.309302 -4.030844,6.339117 4.906538,0.904338 9.805897,2.397654 13.949659,5.253635 2.267478,1.42806 4.246559,3.263857 6.329638,4.922146 2.410241,0.904694 5.05534,0.624979 7.556641,0.351562 1.774941,-0.376264 3.548399,-1.022584 5.044922,-2.02539 -0.0021,-1.639609 -0.890149,-3.090695 -1.12667,-4.695418 -1.065859,-4.73608 -0.150367,-10.028675 3.033172,-13.787363 1.193763,-1.453909 2.708699,-2.651289 4.366935,-3.513313 0.610127,-0.712246 -0.0226,-1.646967 -0.236328,-2.402344 -0.860821,-1.906432 -2.055359,-3.656272 -3.326144,-5.308352 -0.367966,-0.418357 -0.633025,-0.967455 -1.266633,-0.960005 -4.637948,-1.147977 -8.786213,-3.632998 -12.731519,-6.246302 -0.122223,-0.05799 -0.267893,-0.186916 -0.386641,-0.194325 z"
         style="fill:#ff7116;fill-opacity:1;stroke:none;stroke-width:1.26666px;stroke-linecap:butt;stroke-linejoin:miter;stroke-opacity:1"
         id="path1447" />
      <path
         d="m 73.958984,59.28125 c -1.467463,1.055497 -3.083751,1.925443 -4.826172,2.427734 -1.311614,2.294312 -1.615206,4.982664 -2.837523,7.314824 -1.957595,4.150928 -5.067878,7.579529 -7.814616,11.201917 -0.746115,1.185318 -1.456702,2.392556 -2.207235,3.575056 4.450198,1.036339 8.773895,2.762899 12.505441,5.430718 1.950005,1.311912 3.677496,2.933388 5.541433,4.344673 2.128633,0.60988 4.394875,0.355261 6.547807,0.03635 0.969973,-0.237345 1.920794,-0.563147 2.815475,-1.009004 -0.885575,-2.566948 -1.46438,-5.269703 -1.36846,-7.998751 0.08547,-5.126872 2.468885,-10.252431 6.643414,-13.307802 0.397523,-0.300624 0.810908,-0.580992 1.236764,-0.839932 -0.776866,-2.038772 -2.093416,-3.819796 -3.412109,-5.539062 -4.496919,-1.118273 -8.58197,-3.419367 -12.433594,-5.933594 -0.130208,0.09896 -0.260416,0.197917 -0.390625,0.296875 z"
         style="fill:#ff4300;fill-opacity:1;stroke:none;stroke-width:1.26666px;stroke-linecap:butt;stroke-linejoin:miter;stroke-opacity:1"
         id="path1450" />
      <path
         d="m 73.910156,61.71875 c -1.063829,0.693746 -2.27689,1.191281 -3.40625,1.697266 -1.012046,2.389348 -1.49168,4.98916 -2.792968,7.259765 -2.038959,4.004476 -5.095235,7.344832 -7.73747,10.938992 -0.330932,0.519267 -0.921785,1.136528 0.08642,1.150925 4.693579,1.443827 9.048601,3.88823 12.793628,7.056568 0.824361,0.634227 1.584106,1.398642 2.461184,1.938338 1.914779,0.352456 3.916174,0.160899 5.796054,-0.28948 0.202927,-0.290098 -0.203884,-0.936794 -0.225988,-1.365655 -1.334915,-5.590454 -0.379885,-11.781425 3.015043,-16.477825 1.054363,-1.466195 2.316913,-2.788022 3.770113,-3.863972 -0.630591,-1.088203 -1.30897,-2.227452 -2.166917,-3.11568 -3.96378,-1.108302 -7.628496,-3.062045 -11.092849,-5.249554 -0.166666,0.10677 -0.333333,0.213541 -0.5,0.320312 z"
         style="fill:#d02700;fill-opacity:1;stroke:none;stroke-width:1.26666px;stroke-linecap:butt;stroke-linejoin:miter;stroke-opacity:1"
         id="path1453" />
      <path
         d="m 74.070312,63.947266 c -0.643916,0.392964 -1.437157,0.62724 -2.037109,1.035156 -0.879906,2.553122 -1.607933,5.188313 -3.027928,7.51272 -1.796854,3.238768 -4.195307,6.080429 -6.442775,9.006811 4.731539,1.722006 9.023377,4.486037 12.794922,7.798828 0.44074,0.498706 1.034956,0.684272 1.688223,0.631757 0.581286,0.02501 1.163829,-0.01102 1.741464,-0.07512 -1.433937,-6.810967 0.336584,-14.379731 5.194144,-19.466863 0.342367,-0.371857 0.705556,-0.724445 1.081247,-1.062434 -0.324031,-0.499204 -0.636435,-1.063865 -1.292783,-1.116971 -3.300455,-1.060334 -6.398643,-2.663058 -9.353701,-4.459201 -0.115235,0.0651 -0.230469,0.130208 -0.345704,0.195313 z"
         style="fill:#820000;fill-opacity:1;stroke:none;stroke-width:1.26666px;stroke-linecap:butt;stroke-linejoin:miter;stroke-opacity:1"
         id="path1456" />
      <path
         d="m 73.882812,66.269531 c -0.456637,0.238901 -0.395021,0.940243 -0.631692,1.374011 -0.871696,2.826866 -2.145885,5.518091 -3.802812,7.969624 -1.136121,1.74356 -2.408034,3.39431 -3.684636,5.035272 3.879031,1.747865 7.446302,4.144146 10.65625,6.927734 -0.617445,-6.36503 1.252928,-13.043995 5.498047,-17.886719 -2.629742,-0.961884 -5.139285,-2.22632 -7.552735,-3.640625 -0.160807,0.07357 -0.321614,0.147136 -0.482422,0.220703 z"
         style="fill:#470000;fill-opacity:1;stroke:none;stroke-width:1.26666px;stroke-linecap:butt;stroke-linejoin:miter;stroke-opacity:1"
         id="path1459" />
      <path
         d="m 74.806641,69.320312 c -1.298613,3.877269 -3.511748,7.380808 -5.962891,10.609376 1.92552,1.015132 3.770303,2.182725 5.527344,3.466796 0.299055,-4.560575 1.763151,-9.067388 4.353515,-12.845703 -1.266231,-0.556875 -2.502178,-1.180728 -3.716797,-1.841797 -0.06706,0.203776 -0.134114,0.407552 -0.201171,0.611328 z"
         style="fill:#230000;fill-opacity:1;stroke:none;stroke-width:1.26666px;stroke-linecap:butt;stroke-linejoin:miter;stroke-opacity:1"
         id="path1462" />
      <path
         d="m 73.173828,77.212891 c -0.452049,0.699034 -0.901738,1.400047 -1.390625,2.074218 0.327611,0.08155 0.958472,0.857455 1.048679,0.426135 0.223078,-1.134235 0.503036,-2.258357 0.861477,-3.357775 -0.173177,0.285807 -0.346354,0.571614 -0.519531,0.857422 z"
         style="fill:#000000;fill-opacity:1;stroke:none;stroke-width:1.26666px;stroke-linecap:butt;stroke-linejoin:miter;stroke-opacity:1"
         id="path1465" />
    </g>
    <g
       id="g1578">
      <path
         id="path1494"
         d="M 75.521188,8.6276199 C 72.232033,7.0569756 69.405157,4.7944728 66.263865,3.7434853"
         style="fill:none;fill-opacity:1;stroke:#ffffff;stroke-width:1px;stroke-linecap:butt;stroke-linejoin:miter;stroke-opacity:1"
         sodipodi:nodetypes="cc" />
      <path
         id="path1496"
         d="M 69.422954,8.2483266 C 70.590386,7.0852425 70.805593,5.0310563 71.912129,3.9209888"
         style="fill:none;fill-opacity:1;stroke:#ffffff;stroke-width:1px;stroke-linecap:butt;stroke-linejoin:miter;stroke-opacity:1"
         sodipodi:nodetypes="cc" />
      <path
         id="path1498"
         d="m 36.414621,5.2307647 c 1.445785,-0.1974953 2.876715,-0.4330916 4.305005,-0.7198143 0.340973,-0.068449 0.735463,0.084193 1.072235,0 0.351319,-0.08783 0.350399,-0.1785715 0.680117,-0.1785715"
         style="fill:none;stroke:#ffffff;stroke-width:1px;stroke-linecap:butt;stroke-linejoin:miter;stroke-opacity:1;fill-opacity:1" />
      <path
         id="path1500"
         d="m 39.633593,3.95398 c 0.411501,0.7793205 0.726351,1.8168387 0.726351,2.6957921"
         style="fill:none;stroke:#ffffff;stroke-width:1px;stroke-linecap:butt;stroke-linejoin:miter;stroke-opacity:1;fill-opacity:1" />
      <path
         id="path1502"
         d="m 118.31077,22.18332 c 0.88198,-0.591542 4.15873,-2.917922 4.94814,-2.917922"
         style="fill:none;stroke:#ffffff;stroke-width:1px;stroke-linecap:butt;stroke-linejoin:miter;stroke-opacity:1;fill-opacity:1" />
      <path
         id="path1504"
         d="m 119.69613,18.595172 c 1.6142,1.702117 2.69016,3.748893 3.97618,5.677965"
         style="fill:none;stroke:#ffffff;stroke-width:1px;stroke-linecap:butt;stroke-linejoin:miter;stroke-opacity:1;fill-opacity:1" />
      <path
         id="path1506"
         d="m 134.75346,58.035529 c 1.17258,-1.022907 2.36547,-2.078532 3.76873,-2.78014"
         style="fill:none;stroke:#ffffff;stroke-width:1px;stroke-linecap:butt;stroke-linejoin:miter;stroke-opacity:1;fill-opacity:1" />
      <path
         id="path1508"
         d="m 135.64532,54.906676 c 0.77939,0.66582 0.85192,2.445794 1.60237,3.196242"
         style="fill:none;stroke:#ffffff;stroke-width:1px;stroke-linecap:butt;stroke-linejoin:miter;stroke-opacity:1;fill-opacity:1" />
      <path
         id="path1510"
         d="m 128.73609,118.41809 c 0.70704,-0.27876 1.42204,-0.53813 2.12113,-0.83627 2.19668,-0.93683 2.03047,-1.03029 3.98298,-1.68501 0.59658,-0.20004 1.28713,-0.41832 1.90257,-0.57266 0.14639,-0.0367 0.39537,0.0668 0.52902,0 0.29329,-0.14664 0.288,-0.17634 0.64464,-0.17634"
         style="fill:none;stroke:#ffffff;stroke-width:1px;stroke-linecap:butt;stroke-linejoin:miter;stroke-opacity:1;fill-opacity:1" />
      <path
         id="path1512"
         d="m 132.41983,112.88822 c 0.65707,0.87148 0.28591,7.22535 1.30351,7.81251 0.0852,0.0492 0.37928,0 0.47893,0"
         style="fill:none;stroke:#ffffff;stroke-width:1px;stroke-linecap:butt;stroke-linejoin:miter;stroke-opacity:1;fill-opacity:1" />
      <path
         id="path1514"
         d="m 94.141595,136.95172 c 1.444778,-0.83461 3.222121,-1.35589 4.662639,-2.07614 0.273885,-0.13695 0.433138,-0.52076 0.69009,-0.69009 1.179316,-0.77717 2.644146,-1.23005 4.050596,-1.52178"
         style="fill:none;stroke:#ffffff;stroke-width:1px;stroke-linecap:butt;stroke-linejoin:miter;stroke-opacity:1;fill-opacity:1" />
      <path
         id="path1516"
         d="m 97.114411,131.50097 c 0.839553,1.21119 1.28727,2.6177 1.874051,3.95183 0.252664,0.57447 0.670163,1.04656 0.900934,1.6225 0.191454,0.47782 0.319144,1.13174 0.664324,1.47689"
         style="fill:none;stroke:#ffffff;stroke-width:1px;stroke-linecap:butt;stroke-linejoin:miter;stroke-opacity:1;fill-opacity:1" />
      <path
         id="path1518"
         d="m 71.737693,129.641 c -0.0053,-0.31901 -1.234567,-0.25103 -1.383994,-0.68891 -0.218899,-0.64145 0.243126,-0.0952 -0.178572,-0.51694"
         style="fill:none;stroke:#ffffff;stroke-width:1px;stroke-linecap:butt;stroke-linejoin:miter;stroke-opacity:1;fill-opacity:1" />
      <path
         id="path1520"
         d="m 69.902693,131.35504 c 0.538873,-0.3747 3.206764,-3.28392 2.625558,-3.86512"
         style="fill:none;stroke:#ffffff;stroke-width:1px;stroke-linecap:butt;stroke-linejoin:miter;stroke-opacity:1;fill-opacity:1" />
      <path
         id="path1522"
         d="m 55.590613,134.69627 c 0.625481,1.06831 1.682162,1.74577 2.458627,2.67527 0.401128,0.48019 0.452814,0.8108 0.838514,1.19647"
         style="fill:none;stroke:#ffffff;stroke-width:1px;stroke-linecap:butt;stroke-linejoin:miter;stroke-opacity:1;fill-opacity:1" />
      <path
         id="path1524"
         d="m 59.284799,134.4117 c -2.023423,1.09961 -3.185742,3.01996 -4.761843,4.59593"
         style="fill:none;stroke:#ffffff;stroke-width:1px;stroke-linecap:butt;stroke-linejoin:miter;stroke-opacity:1;fill-opacity:1" />
      <path
         id="path1526"
         d="m 10.719746,130.69792 c 1.563542,-0.75555 3.292727,-2.03344 4.501463,-3.24205"
         style="fill:none;stroke:#ffffff;stroke-width:1px;stroke-linecap:butt;stroke-linejoin:miter;stroke-opacity:1;fill-opacity:1" />
      <path
         id="path1528"
         d="m 12.053599,126.84079 c 1.21545,1.28082 1.99495,3.23973 3.266334,4.51103"
         style="fill:none;stroke:#ffffff;stroke-width:1px;stroke-linecap:butt;stroke-linejoin:miter;stroke-opacity:1;fill-opacity:1" />
      <path
         id="path1530"
         d="m 21.268267,110.12969 c 0.718279,0.71826 1.436533,1.43654 2.154803,2.15481"
         style="fill:none;stroke:#ffffff;stroke-width:1px;stroke-linecap:butt;stroke-linejoin:miter;stroke-opacity:1;fill-opacity:1" />
      <path
         id="path1532"
         d="m 20.634335,112.95193 c 1.278602,-0.64602 3.05688,-1.11391 4.108636,-2.16567"
         style="fill:none;stroke:#ffffff;stroke-width:1px;stroke-linecap:butt;stroke-linejoin:miter;stroke-opacity:1;fill-opacity:1" />
      <path
         id="path1534"
         d="m 3.4098326,84.418608 c 0.7250272,0.591589 3.5986511,3.745934 4.3245152,3.745934"
         style="fill:none;stroke:#ffffff;stroke-width:1px;stroke-linecap:butt;stroke-linejoin:miter;stroke-opacity:1;fill-opacity:1" />
      <path
         id="path1536"
         d="M 4.1138785,89.213464 C 5.1242479,87.622761 6.9076211,86.914477 8.1726292,85.649469"
         style="fill:none;stroke:#ffffff;stroke-width:1px;stroke-linecap:butt;stroke-linejoin:miter;stroke-opacity:1;fill-opacity:1" />
      <path
         id="path1538"
         d="m 43.660769,40.457878 c 0.20765,0.571692 0.23938,1.484198 0.663746,1.908564"
         style="fill:none;stroke:#ffffff;stroke-width:1px;stroke-linecap:butt;stroke-linejoin:miter;stroke-opacity:1;fill-opacity:1" />
      <path
         id="path1540"
         d="m 42.088667,41.888935 c 0.416666,0 0.839063,0.06886 1.25,0 0.324087,-0.05431 0.600511,-0.27298 0.91653,-0.363061 0.520347,-0.148326 1.169803,0.238688 1.584821,-0.176343"
         style="fill:none;stroke:#ffffff;stroke-width:1px;stroke-linecap:butt;stroke-linejoin:miter;stroke-opacity:1;fill-opacity:1" />
      <path
         id="path1542"
         d="M 12.73183,56.674979 C 12.044425,55.479197 9.020765,54.850538 8.1006078,53.930381"
         style="fill:none;stroke:#ffffff;stroke-width:1px;stroke-linecap:butt;stroke-linejoin:miter;stroke-opacity:1;fill-opacity:1" />
      <path
         id="path1544"
         d="m 7.3140117,59.577103 c 0.347746,-0.135117 0.7908188,-0.130635 1.043238,-0.40535 0.6812413,-0.741414 0.8753759,-1.820379 1.4304352,-2.660435 1.2102011,-1.831583 2.4635081,-3.573475 3.4230261,-5.49251"
         style="fill:none;stroke:#ffffff;stroke-width:1px;stroke-linecap:butt;stroke-linejoin:miter;stroke-opacity:1;fill-opacity:1" />
      <path
         id="path1546"
         d="m 3.4004429,32.654359 c 4.5975973,4.597605 2.8891031,3.432 9.7732601,7.249353 0.766639,0.425111 1.581979,0.933489 2.458594,0.933489"
         style="fill:none;stroke:#ffffff;stroke-width:1px;stroke-linecap:butt;stroke-linejoin:miter;stroke-opacity:1;fill-opacity:1" />
      <path
         id="path1548"
         d="m 5.7993807,42.807623 c 0.3152539,-0.544407 0.6158724,-1.097555 0.9457616,-1.633219 1.5350192,-2.49252 4.0732187,-7.44702 6.6814747,-9.184456"
         style="fill:none;stroke:#ffffff;stroke-width:1px;stroke-linecap:butt;stroke-linejoin:miter;stroke-opacity:1;fill-opacity:1" />
    </g>
  </g>
</svg>
