<?xml version="1.0" encoding="UTF-8" standalone="no"?>
<svg
   xmlns:dc="http://purl.org/dc/elements/1.1/"
   xmlns:cc="http://creativecommons.org/ns#"
   xmlns:rdf="http://www.w3.org/1999/02/22-rdf-syntax-ns#"
   xmlns:svg="http://www.w3.org/2000/svg"
   xmlns="http://www.w3.org/2000/svg"
   xmlns:sodipodi="http://sodipodi.sourceforge.net/DTD/sodipodi-0.dtd"
   xmlns:inkscape="http://www.inkscape.org/namespaces/inkscape"
   width="144.0px"
   height="144.0px"
   viewBox="0 0 144.0 144.0"
   version="1.1"
   id="SVGRoot"
   sodipodi:docname="noon-stream-music.svg"
   inkscape:version="1.0.2 (e86c870879, 2021-01-15)">
  <defs
     id="defs10" />
  <sodipodi:namedview
     id="base"
     pagecolor="#ffffff"
     bordercolor="#666666"
     borderopacity="1.0"
     inkscape:pageopacity="0.0"
     inkscape:pageshadow="2"
     inkscape:zoom="1"
     inkscape:cx="60.974942"
     inkscape:cy="98.478118"
     inkscape:document-units="px"
     inkscape:current-layer="layer1"
     inkscape:document-rotation="0"
     showgrid="true"
     inkscape:window-width="1658"
     inkscape:window-height="1025"
     inkscape:window-x="0"
     inkscape:window-y="0"
     inkscape:window-maximized="1"
     inkscape:snap-grids="false"
     inkscape:snap-global="false"
     showguides="true">
    <inkscape:grid
       type="xygrid"
       id="grid19"
       enabled="false" />
    <sodipodi:guide
       position="0,144"
       orientation="0,144"
       id="guide34" />
    <sodipodi:guide
       position="144,144"
       orientation="144,0"
       id="guide36" />
    <sodipodi:guide
       position="144,0"
       orientation="0,-144"
       id="guide38" />
    <sodipodi:guide
       position="0,0"
       orientation="-144,0"
       id="guide40" />
  </sodipodi:namedview>
  <metadata
     id="metadata13">
    <rdf:RDF>
      <cc:Work
         rdf:about="">
        <dc:format>image/svg+xml</dc:format>
        <dc:type
           rdf:resource="http://purl.org/dc/dcmitype/StillImage" />
        <dc:title></dc:title>
      </cc:Work>
    </rdf:RDF>
  </metadata>
  <g
     inkscape:label="Layer 1"
     inkscape:groupmode="layer"
     id="layer1">
    <path
       style="fill:#aaeeff;stroke:none;stroke-width:1px;stroke-linecap:butt;stroke-linejoin:miter;stroke-opacity:1"
       d="M -15.782645,-5.2957589 -13.010603,99.821429 173.46819,104.16016 158.68443,-11.015625 Z"
       id="path26" />
    <path
       style="fill:#44aa00;stroke:none;stroke-width:1px;stroke-linecap:butt;stroke-linejoin:miter;stroke-opacity:1"
       d="m 34.140625,109.11551 c 0,0 24.220145,-38.745811 66.576455,-38.362162 42.3563,0.38365 60.96958,47.530692 60.96958,47.530692 z"
       id="path30" />
    <path
       style="fill:#55d400;stroke:none;stroke-width:1px;stroke-linecap:butt;stroke-linejoin:miter;stroke-opacity:1"
       d="m -20.520368,95.809152 c 0,0 9.631696,-34.140625 45.265067,-34.581473 35.63337,-0.440849 88.656531,57.174941 137.126111,52.508371 48.46959,-4.66657 -7.08565,48.53237 -7.08565,48.53237 l -177.847381,-7.11217 z"
       id="path28" />
    <path
       style="fill:#0066ff;stroke:none;stroke-width:1px;stroke-linecap:butt;stroke-linejoin:miter;stroke-opacity:1"
       d="m 84.155257,86.511639 c 6.856864,4.452428 -9.3987,5.02854 -9.822807,10.098992 -0.424107,5.070449 21.508794,8.808599 22.195874,20.488279 0.68708,11.67969 -91.6769012,15.92774 -108.905556,28.98159 l 120.071152,3.06501 c 7.51186,-18.36775 4.34291,-24.93164 1.04841,-34.15597 -3.41121,-9.55109 -29.36454,-14.41267 -29.738424,-18.247771 -0.373884,-3.8351 11.60909,-7.389918 7.325614,-9.273856 z"
       id="path32"
       sodipodi:nodetypes="cssccsssc" />
    <path
       style="fill:#000000;stroke:none;stroke-width:1px;stroke-linecap:butt;stroke-linejoin:miter;stroke-opacity:1"
       d="m -28.071987,82.69043 c -4.755859,-4.033203 -8.992745,1.109793 -8.511439,3.4375 0.481305,2.327706 9.96024,3.787667 10.059988,-3.058733 0.09975,-6.846401 -0.228445,-17.617885 -0.228445,-17.617885 5.503041,1.334569 13.673383,2.495838 7.371651,6.864188 12.4339874,-4.291709 -9.867825,-16.011701 -10.138462,-11.148508 z"
       id="path50"
       sodipodi:nodetypes="csscccc" />
    <path
       style="fill:#000000;stroke:none;stroke-width:0.798888px;stroke-linecap:butt;stroke-linejoin:miter;stroke-opacity:1"
       d="m 57.74791,135.81397 c -2.721432,-4.24146 -6.952955,-1.09286 -7.074596,0.85848 -0.121642,1.95134 6.663257,5.18853 8.154014,-0.21841 1.490758,-5.40694 3.473472,-14.02014 3.473472,-14.02014 3.838272,2.26552 9.706592,4.97878 4.091528,7.06015 10.183971,-0.67529 -4.065618,-14.86124 -5.273911,-11.06437 z"
       id="path50-6"
       sodipodi:nodetypes="csscccc" />
    <path
       style="fill:#000000;stroke:none;stroke-width:1px;stroke-linecap:butt;stroke-linejoin:miter;stroke-opacity:1"
       d="m 32.674714,134.12219 c -5.389255,-3.137 -8.658929,2.6691 -7.777013,4.87638 0.881914,2.20729 10.469998,1.98292 9.367982,-4.77494 -1.102013,-6.75786 -3.313439,-17.30501 -3.313439,-17.30501 5.651779,0.34918 13.899173,0.0601 8.46083,5.46559 11.489068,-6.40501 -12.521967,-14.03385 -11.935863,-9.19852 z"
       id="path50-8"
       sodipodi:nodetypes="csscccc" />
    <path
       style="fill:#000000;stroke:none;stroke-width:0.746989px;stroke-linecap:butt;stroke-linejoin:miter;stroke-opacity:1"
       d="m 50.445823,111.99417 c -3.37285,-3.17329 -6.377645,0.87318 -6.036303,2.70461 0.34134,1.8314 7.063792,2.98009 7.134533,-2.4066 0.07074,-5.3867 -0.162013,-13.861617 -0.162013,-13.861617 3.90275,1.050027 9.697149,1.963707 5.227966,5.400687 8.818171,-3.37668 -6.998251,-12.597881 -7.190185,-8.771557 z"
       id="path50-0"
       sodipodi:nodetypes="csscccc" />
    <path
       style="fill:#000000;stroke:none;stroke-width:0.414479px;stroke-linecap:butt;stroke-linejoin:miter;stroke-opacity:1"
       d="m 98.452127,101.48024 c -2.37264,-0.99906 -3.264165,1.63383 -2.755495,2.50902 0.508666,0.87518 4.317218,0.21348 3.39731,-2.56056 -0.919902,-2.774054 -2.551661,-7.07449 -2.551661,-7.07449 2.279206,-0.187766 5.548379,-0.797276 3.763339,1.795618 4.12751,-3.370941 -5.99226,-5.155173 -5.414791,-3.158331 z"
       id="path50-4"
       sodipodi:nodetypes="csscccc" />
    <path
       style="fill:#000000;stroke:none;stroke-width:0.373297px;stroke-linecap:butt;stroke-linejoin:miter;stroke-opacity:1"
       d="m 89.655086,102.82248 c -1.77535,-1.50558 -3.356968,0.41429 -3.177298,1.28321 0.17967,0.86893 3.718131,1.41393 3.755367,-1.14181 0.03724,-2.55575 -0.08528,-6.576712 -0.08528,-6.576712 2.05427,0.498191 5.104237,0.931689 2.751818,2.562383 4.641575,-1.602084 -3.683633,-5.977125 -3.784661,-4.161708 z"
       id="path50-3"
       sodipodi:nodetypes="csscccc" />
    <path
       style="fill:#000000;stroke:none;stroke-width:0.149244px;stroke-linecap:butt;stroke-linejoin:miter;stroke-opacity:1"
       d="m 80.421746,88.657008 c -0.709782,-0.601931 -1.342112,0.165629 -1.27028,0.513025 0.07183,0.347396 1.486505,0.565286 1.501392,-0.456497 0.01489,-1.021783 -0.03409,-2.629361 -0.03409,-2.629361 0.821295,0.199176 2.040668,0.372488 1.100173,1.024438 1.855697,-0.640511 -1.472712,-2.389648 -1.513103,-1.663847 z"
       id="path50-48"
       sodipodi:nodetypes="csscccc" />
    <path
       style="fill:#000000;stroke:none;stroke-width:0.149244px;stroke-linecap:butt;stroke-linejoin:miter;stroke-opacity:1"
       d="m 75.763599,89.81316 c -0.709782,-0.601931 -1.342112,0.165629 -1.27028,0.513025 0.07183,0.347396 1.486505,0.565286 1.501392,-0.456497 0.01489,-1.021783 -0.03409,-2.629361 -0.03409,-2.629361 0.821295,0.199176 2.040668,0.372488 1.100173,1.024438 1.855697,-0.640511 -1.472712,-2.389648 -1.513103,-1.663847 z"
       id="path50-48-0"
       sodipodi:nodetypes="csscccc" />
    <circle
       style="fill:#ffdd55;stroke:none"
       id="path155"
       cx="113.57812"
       cy="26.972656"
       r="18.070312" />
  </g>
</svg>
