<?xml version="1.0" encoding="UTF-8" standalone="no"?>
<!-- Created with Inkscape (http://www.inkscape.org/) -->

<svg
   width="144.0px"
   height="144.0px"
   viewBox="0 0 144.0 144.0"
   version="1.1"
   id="SVGRoot"
   sodipodi:docname="halved-cubic-postage.svg"
   inkscape:version="1.2.1 (9c6d41e410, 2022-07-14)"
   xmlns:inkscape="http://www.inkscape.org/namespaces/inkscape"
   xmlns:sodipodi="http://sodipodi.sourceforge.net/DTD/sodipodi-0.dtd"
   xmlns="http://www.w3.org/2000/svg"
   xmlns:svg="http://www.w3.org/2000/svg">
  <sodipodi:namedview
     id="namedview36"
     pagecolor="#ffffff"
     bordercolor="#666666"
     borderopacity="1.0"
     inkscape:showpageshadow="2"
     inkscape:pageopacity="0.0"
     inkscape:pagecheckerboard="0"
     inkscape:deskcolor="#d1d1d1"
     inkscape:document-units="px"
     showgrid="true"
     inkscape:zoom="1"
     inkscape:cx="29.5"
     inkscape:cy="46.5"
     inkscape:window-width="1920"
     inkscape:window-height="1139"
     inkscape:window-x="0"
     inkscape:window-y="0"
     inkscape:window-maximized="1"
     inkscape:current-layer="layer1">
    <inkscape:grid
       type="xygrid"
       id="grid42" />
  </sodipodi:namedview>
  <defs
     id="defs31" />
  <g
     inkscape:label="Layer 1"
     inkscape:groupmode="layer"
     id="layer1">
    <path
       style="fill:#ffffff;stroke:#000000;stroke-width:0.949065px;stroke-linecap:butt;stroke-linejoin:miter;stroke-opacity:1"
       d="M 9.718534,40.687003 C 7.8931775,43.395866 5.4872176,60.681015 6.5147532,70.882144 6.8187188,79.170209 6.205341,87.438015 5.9063557,95.711721 c 0.1767593,5.315749 0.1911737,10.660969 0.5214007,15.943149 4.2369166,-0.61687 9.5992426,-0.54219 14.3449886,-0.49851 17.861094,0.13209 35.748474,-0.27347 53.592881,0.22131 7.810848,0.79267 15.481222,2.35683 23.298333,3.11254 -2.220749,-0.90723 5.913531,0.42199 7.485341,0.6434 6.74625,0.92759 13.64712,2.36849 20.49038,1.55111 2.28011,-4.22277 0.57332,-10.11021 3.16421,-14.69191 1.30793,-4.860309 1.19196,-9.776449 1.76647,-14.696553 0.41829,-5.683608 -0.059,-11.430394 1.30868,-17.052695 1.15604,-5.292866 1.7298,-10.651666 3.39438,-15.825526 -0.59045,-4.029779 3.81694,-9.777181 -0.0262,-12.646065 C 125.521,42.954373 115.84507,40.155453 106.0787,40.189965 95.055841,39.887909 84.036616,39.702864 73.005023,39.806616 56.081068,39.863676 39.140764,39.692463 22.227043,39.892156 20.861109,39.407629 11.515877,38.872566 9.718534,40.687003 Z"
       id="path225"
       sodipodi:nodetypes="cccccccccccccccccc" />
    <path
       style="fill:#ffffff;stroke:#00006e;stroke-width:1.12789px;stroke-linecap:butt;stroke-linejoin:miter;stroke-opacity:1"
       d="m 123.79222,40.867196 c -0.0398,1.293559 -1.10795,2.269742 -0.71328,3.483883 -0.48611,0.757221 -0.13942,1.653045 -0.0809,2.515263 0.24064,1.039916 0.15323,2.037641 -0.27421,3.051537 0.03,1.576055 0.35887,3.142943 0.48637,4.715319 -0.33755,1.31843 -0.26724,2.757738 -0.21702,4.101103 1.274,0.51975 2.73136,-0.396172 4.02094,0.207438 1.52229,0.233999 3.02083,0.144342 4.54079,0.212471 1.1043,-0.220595 2.23099,-0.303081 3.33459,-0.502761 0.57649,-0.754723 -0.0399,-1.766464 -0.014,-2.644482 -0.0835,-1.080645 -0.34429,-2.153429 -0.30744,-3.235501 0.25523,-1.424133 0.22521,-2.782353 0.30714,-4.210228 0.32726,-1.438021 -0.0291,-2.90183 0.38486,-4.300968 -0.19636,-1.638379 -0.40631,-3.279148 -0.59251,-4.916139 -1.03208,-0.272249 -2.238,-0.08905 -3.41498,-0.270799 -1.4784,0.243375 -2.97491,0.462235 -4.44874,0.673681 -1.30982,1.2678 -3.20825,1.248794 -4.71803,2.06739 -1.06068,0.213922 -1.72726,0.850221 -2.72577,1.230118 -0.58676,-0.175058 -1.6721,1.530385 -2.66519,1.73577 -0.95428,0.235055 -0.72928,0.952094 -0.62525,1.621787 0.37846,3.352873 0.81401,6.706961 1.15532,10.059018 -0.10795,1.403907 -0.467,2.738841 -0.19512,4.122553 0.24602,0.380614 -0.70472,1.428844 0.22018,0.787712 0.99166,-0.365135 1.82681,-1.166882 2.67937,-1.779986 0.97376,0.171182 1.44681,-0.820084 2.32452,-0.965007"
       id="path227" />
    <path
       style="fill:none;stroke:#00006e;stroke-width:1.12789px;stroke-linecap:butt;stroke-linejoin:miter;stroke-opacity:1"
       d="m 134.14157,58.843622 c -1.72108,0.150033 -2.7191,1.852336 -4.39796,2.170839 -0.99742,0.745146 -2.25164,1.326264 -3.08822,2.182301 -0.87462,0.88519 -2.23445,0.0636 -3.32193,0.152992 -1.05895,-0.125518 -2.08656,-0.554934 -3.20369,-0.632975 -0.86503,-0.136403 -0.35067,-0.157786 0.19776,-0.141779 -1.26613,-0.258039 -2.38538,-0.0237 -3.47016,-0.580161 -0.11785,0.103309 0.37739,0.244122 -0.19102,-0.0518"
       id="path229" />
    <path
       style="fill:none;stroke:#00006e;stroke-width:0.945846px;stroke-linecap:butt;stroke-linejoin:miter;stroke-opacity:1"
       d="m 113.44447,44.936633 c -0.6529,-0.08596 -1.29032,-0.23427 -1.89497,0.107971"
       id="path233" />
    <path
       style="fill:none;stroke:#00006e;stroke-width:0.945846px;stroke-linecap:butt;stroke-linejoin:miter;stroke-opacity:1"
       d="m 109.19045,44.238328 c -0.61508,-0.288745 -1.25021,-0.301572 -1.88343,-0.376217"
       id="path235" />
    <path
       style="fill:none;stroke:#00006e;stroke-width:0.945846px;stroke-linecap:butt;stroke-linejoin:miter;stroke-opacity:1"
       d="m 105.85751,45.738085 c 0.16723,0.863499 0.27138,1.736486 0.36818,2.625427"
       id="path237" />
    <path
       style="fill:none;stroke:#00006e;stroke-width:0.945846px;stroke-linecap:butt;stroke-linejoin:miter;stroke-opacity:1"
       d="m 106.15241,51.883139 c 0.19733,0.641271 0.15088,1.385803 0.32809,2.004402"
       id="path239" />
    <path
       style="fill:none;stroke:#00006e;stroke-width:0.945846px;stroke-linecap:butt;stroke-linejoin:miter;stroke-opacity:1"
       d="m 106.7201,56.453112 c 0.0154,0.638471 -0.0199,0.644882 0.0284,0.49405 0.0495,0.461501 -0.0197,0.920484 0.0758,1.37789"
       id="path241" />
    <path
       style="fill:none;stroke:#00006e;stroke-width:0.945846px;stroke-linecap:butt;stroke-linejoin:miter;stroke-opacity:1"
       d="m 107.49216,60.339526 c 0.67968,0.04464 1.31243,-0.271766 1.99643,-0.08856"
       id="path243" />
    <path
       style="fill:none;stroke:#00006e;stroke-width:0.945846px;stroke-linecap:butt;stroke-linejoin:miter;stroke-opacity:1"
       d="m 111.11671,60.902695 c 0.82691,0.401998 1.84289,0.429659 2.5881,0.771633 l 0.12897,0.02503"
       id="path245" />
    <path
       style="fill:none;stroke:#000000;stroke-width:0.949065px;stroke-linecap:butt;stroke-linejoin:miter;stroke-opacity:1"
       d="m 20.709182,45.722393 c 0.427819,0.142249 0.294128,0.04658 0.471277,0.196443 0.102245,0.0865 0.174685,0.209669 0.306744,0.259502 0.169915,0.06412 0.367404,0.05232 0.552863,0.06488 1.861501,0.125995 1.300407,0.145138 3.189819,-0.223211 0.435335,-0.08487 0.864728,-0.19069 1.300217,-0.27499 0.181315,-0.0351 0.370158,-0.0407 0.549303,-0.08303 0.03482,-0.0082 0.04058,-0.0634 0.07669,-0.06488 0.135147,-0.0055 0.0491,0.26303 0.06962,0.306448 0.03423,0.07239 0.06851,0.164188 0.153373,0.194627 0.119436,0.04284 0.259461,0 0.389191,0 0.309806,0 0.619613,0 0.929419,0 0.329397,0 0.66224,0.04021 0.988189,0 0.32795,-0.04045 0.634048,-0.163617 0.953113,-0.239448 0.249914,-0.05939 0.501177,-0.114886 0.753586,-0.166178 0.02911,-0.0059 0.411727,-0.09133 0.536802,-0.06488 0.334186,0.07068 0.167357,0.373936 0.308368,0.589363 0.102235,0.156188 0.399129,0.439673 0.615108,0.520374 0.222611,0.08318 0.465062,0.06621 0.698088,0.06621 0.294255,0 0.58851,0 0.882764,0 0.358417,0 0.716834,0 1.075251,0 0.409032,0 0.73998,0.0088 1.144037,-0.06839 1.953204,-0.373362 0.216487,-0.127595 2.538477,-0.622272 0.536464,-0.114289 1.250312,-0.194088 1.825734,-0.247795 0.08703,-0.0081 0.229177,0.0074 0.228148,0.128135 -8.31e-4,0.0976 -0.09872,0.176592 -0.154785,0.261894 -0.07455,0.113417 -0.195816,0.208769 -0.236765,0.33383 -0.04094,0.125043 0,0.259502 0,0.389252 0,0.02162 -0.01808,0.04958 0,0.06488 0.04042,0.03419 0.0966,0.07047 0.153372,0.06488 0.263581,-0.02599 0.51672,-0.102521 0.774349,-0.156333 0.423874,-0.08854 0.84758,-0.177713 1.270121,-0.2707 0.60148,-0.132367 1.187459,-0.326209 1.801877,-0.405346 0.443298,-0.0571 0.896813,0 1.345221,0 0.253716,0 0.508188,-0.01656 0.761149,0 0.549462,0.03596 0.193692,0.407553 0.153372,0.646329 -0.01446,0.08563 -0.07586,0.201503 0,0.259501 0.15826,0.121 0.384393,0.175983 0.596334,0.196433 0.83275,0.08035 1.673553,0.08687 2.511475,0.103442 0.906707,0.01792 1.813909,0 2.720864,0 0.766921,0 1.533842,0 2.300762,0 0.361166,0 0.722332,0 1.083499,0 0.105831,0 0.212953,-0.01394 0.317494,0 0.558665,0.07449 -0.125158,0.02915 0.216397,0.121249 0.119781,0.0323 0.246925,0.04013 0.370557,0.05943 0.38769,0.06052 1.196114,0.199427 1.662061,0.231608 0.17834,0.01232 0.357868,0 0.536802,0 0.183614,0 0.367563,0.0094 0.550844,0 0.862133,-0.04408 1.271761,-0.06351 2.059222,-0.249679 0.07717,-0.01824 0.707197,-0.24286 0.796932,-0.26798 0.434627,-0.121669 0.883433,-0.207577 1.311563,-0.344743 0.275975,-0.08842 0.538721,-0.205853 0.7947,-0.330074 0.063,-0.03058 0.08303,-0.117568 0.154083,-0.130353 0.07635,-0.01374 0.145148,0.05185 0.222157,0.06265 0.07392,0.01036 0.149865,0 0.224797,0 0.02556,0 0.05372,-0.0095 0.07669,0 0.03108,0.01286 0.04892,0.0414 0.07339,0.06208"
       id="path512" />
    <path
       style="fill:none;stroke:#000000;stroke-width:0.949065px;stroke-linecap:butt;stroke-linejoin:miter;stroke-opacity:1"
       d="m 20.36278,52.274575 c 0.359,0.14805 0.548926,0.294605 0.982962,0.183995 0.201004,-0.05122 0.879675,-0.447388 1.078926,-0.55982 0.07694,-0.04342 0.145777,-0.09948 0.230769,-0.130353 0.154574,-0.05615 0.445211,-0.0937 0.613488,-0.06488 0.607557,0.104073 0.777339,0.322828 1.006701,0.787319 0.06313,0.127856 0.07133,0.275431 0.155385,0.394357 0.07421,0.104994 0.204495,0.173001 0.306743,0.259502 0.168545,0.142586 0.276154,0.373238 0.505634,0.42776 0.658529,0.15646 1.358753,0.139346 2.041283,0.17736 0.844143,0.04702 1.218448,0.03314 1.992131,-0.15711 0.958236,-0.235642 0.711526,-0.369545 1.938466,-0.476387 0.542997,-0.04729 1.091733,0 1.637599,0 1.032212,0 1.050642,-0.07651 1.916705,0.149426 0.280833,0.07326 -0.02256,0.03503 0.07599,0.111002 0.09363,0.07217 0.182639,0.168313 0.306745,0.189758 0.258483,0.04466 0.52764,0 0.79146,0 0.226971,0 0.457502,0.03388 0.680911,0 0.282296,-0.04281 0.54368,-0.154769 0.817386,-0.227233 0.326444,-0.08643 0.647077,-0.19445 0.982909,-0.249393 0.579507,-0.09481 1.166977,-0.156347 1.75511,-0.19855 0.336085,-0.02412 0.674584,0 1.011876,0 0.02663,0 0.05594,-0.0098 0.0799,0 0.13872,0.05693 0.07005,0.156428 0,0.254714 -0.159556,0.223863 -0.598938,0.186205 0.429641,0.253375 0.435386,0.02843 0.873361,0 1.310042,0 0.214104,0 0.432079,0.03428 0.642315,0 0.07099,-0.01158 0.09369,-0.09523 0.153372,-0.129751 0.01952,-0.01129 0.04729,0 0.07093,0 0.02364,0 0.04729,0 0.07093,0 0.05113,0 0.104732,-0.01332 0.153372,0 0.03292,0.009 0.07293,0.03282 0.07339,0.06208 4.4e-4,0.02851 -0.105015,0.05752 -0.0715,0.06048 0.250415,0.02215 0.503561,0 0.755341,0 0.448847,0 0.899286,0.03196 1.34654,0 0.521754,-0.03728 1.025247,-0.223928 1.544401,-0.286671 0.07591,-0.0092 0.153372,0 0.230058,0 0.227595,0 0.455191,0 0.682787,0 1.412166,0 2.824332,0 4.236499,0 0.578065,0 1.156131,0 1.734196,0 0.05209,0 0.116447,-0.02841 0.156255,0 0.04948,0.03532 -0.196078,0.09319 -0.137322,0.116177 0.402942,0.157654 0.506917,0.131115 0.886298,0.131115"
       id="path514" />
    <path
       style="fill:none;stroke:#000000;stroke-width:0.949065px;stroke-linecap:butt;stroke-linejoin:miter;stroke-opacity:1"
       d="m 19.021791,61.022058 c 0.415029,-0.07896 0.6312,-0.40606 0.974688,-0.571631 0.411112,-0.198168 0.650247,-0.249108 1.091127,-0.290837 0.07621,-0.0072 0.153372,0 0.230058,0 0.02556,0 0.05542,-0.01199 0.07669,0 0.170048,0.09591 0.175767,0.163627 0.230057,0.324377 0.03509,0.103897 0.04273,0.343904 0.230058,0.389253 0.211812,0.05128 0.436063,0.06084 0.656282,0.06625 0.6806,0.01671 1.362459,0.02586 2.042659,0 1.317676,-0.05012 5.086124,-0.221881 6.880456,-0.47891 0.415521,-0.05952 0.819978,-0.16741 1.22201,-0.274352 0.11483,-0.03054 0.202718,-0.13256 0.322995,-0.136625 0.05425,-0.0018 0.07284,0.07732 0.07284,0.123247 0,0.04593 -0.05277,0.08057 -0.07284,0.123247 -0.0599,0.127337 -0.1877,0.358374 0.07669,0.454129 0.172565,0.0625 0.375426,0 0.563139,0 0.926656,0 1.866494,0.131759 2.779965,0 0.186905,-0.02696 1.95751,-0.845728 2.324895,-1.030185 0.179876,-0.09031 0.349962,-0.193899 0.524568,-0.29133 0.07693,-0.04293 0.143439,-0.103111 0.230058,-0.12975 0.02184,-0.0067 -0.0077,0.04046 0,0.059 0.01842,0.04393 0.04547,0.08546 0.07669,0.123871 0.02048,0.0252 0.06052,0.03752 0.07669,0.06488 0.184151,0.311578 0.07669,0.781192 0.07669,1.05711 0,0.191879 -0.09085,0.399824 0,0.575637 0.346793,0.671129 0.885882,0.664017 1.665406,0.629315 1.687556,-0.07512 1.655455,-0.02951 2.800803,-0.747088 0.2318,-0.145227 0.442723,-0.313034 0.657841,-0.475597 0.08383,-0.06335 0.158952,-0.134471 0.238427,-0.201706 0.04893,-0.04139 0.07853,-0.114502 0.146777,-0.12417 0.820244,-0.116211 1.673009,-0.07712 2.501505,-0.07712"
       id="path516" />
    <path
       style="fill:none;stroke:#ff9955;stroke-width:0.643586px;stroke-linecap:butt;stroke-linejoin:miter;stroke-opacity:1"
       d="m 119.92327,103.47175 c -0.24716,-0.0694 -0.51155,-0.0349 -0.75933,-0.0964 -0.14502,-0.036 -0.27464,-0.12156 -0.41858,-0.16177 -0.1928,-0.0539 -0.39615,-0.0631 -0.58822,-0.1195 -0.24116,-0.0709 -0.4656,-0.19434 -0.70777,-0.26159 -0.22831,-0.0634 -0.47078,-0.0637 -0.6986,-0.12894 -1.32829,-0.37994 0.0161,-0.1337 -1.04314,-0.35615 -0.0317,-0.007 -0.0647,0 -0.097,0 -0.0136,0 -0.0301,-0.009 -0.0408,0 -0.23431,0.18887 -0.14572,0.24392 -0.18843,0.62168 -0.0195,0.17208 -0.0211,0.34706 -0.0566,0.51644 -0.26185,1.24388 -0.12656,0.11054 -0.23171,0.98115 -0.0178,0.14701 -0.04,0.29379 -0.0475,0.4417 -0.0323,0.63932 0.0542,0.39858 -0.0564,1.08631 -0.0254,0.15758 -0.0839,0.30812 -0.11299,0.46504 -0.0266,0.14335 -0.017,0.29317 -0.0536,0.43422 -0.0332,0.12796 -0.11524,0.23857 -0.15388,0.36496 -0.0299,0.0979 -0.0276,0.20333 -0.0504,0.30316 -0.027,0.11837 -0.0735,0.23168 -0.0988,0.35043 -0.0417,0.19541 -0.0667,0.55098 -0.0975,0.74145 -0.0106,0.0654 -0.0367,0.12747 -0.0475,0.19283 -0.005,0.0317 0.01,0.0659 0,0.0964 -0.007,0.0216 -0.0462,0.0255 -0.0475,0.0482 -0.003,0.0592 0.11153,0.0431 0.16992,0.0431 0.44853,0 0.89706,0 1.34559,0 0.12423,0 0.24882,-0.01 0.37268,0 0.0804,0.007 0.15711,0.0392 0.23729,0.0482 0.0629,0.007 0.12686,-0.007 0.18983,0 0.0969,0.01 0.19124,0.0395 0.28822,0.0482 0.4764,0 0.0306,-0.0201 0.43363,0.0482 0.0312,0.005 0.0633,0 0.0949,0 0.015,0 0.0316,-0.007 0.0452,0 0.0163,0.008 0.022,0.0308 0.0381,0.0387 0.16068,0.0793 0.34879,0.0872 0.51652,0.14404 0.0335,0.0114 0.0606,0.0395 0.0949,0.0482 0.0481,0.0123 0.13218,0 0.18572,0 0.0129,0 0.026,0 0.039,0 0.008,0 0.018,0.004 0.025,0 0.0168,-0.0108 0.0324,-0.0253 0.0422,-0.0429 0.18335,-0.32923 0.14419,-0.25977 0.19489,-0.64364 0.019,-0.14412 0.0285,-0.28967 0.0535,-0.43285 0.13629,-0.78185 0.0541,-0.23251 0.21094,-0.81205 0.0427,-0.15802 0.0633,-0.32137 0.0949,-0.48206 0.12485,-0.63413 -0.0357,0.19437 0.0949,-0.53028 0.0153,-0.0849 0.0374,-0.16862 0.0504,-0.25395 0.0196,-0.12801 0.0368,-0.25655 0.0475,-0.38565 0.005,-0.0641 0,-0.12855 0,-0.19282 0,-0.0964 0,-0.19284 0,-0.28925 0,-0.1965 -0.022,-0.39034 0.0475,-0.57848 0.0248,-0.0673 0.067,-0.12677 0.0949,-0.19282 0.0197,-0.0467 0.0251,-0.0992 0.0475,-0.14463 0.0256,-0.0518 0.0694,-0.0928 0.0949,-0.14462 0.0223,-0.0455 0.0251,-0.0992 0.0475,-0.14461 0.0255,-0.0518 0.0769,-0.0897 0.0949,-0.14463 0.015,-0.0457 -0.0241,-0.10308 0,-0.14462 0.0812,-0.14017 0.23545,-0.23111 0.30324,-0.37847 0.0481,-0.10465 0.007,-0.23193 0.0297,-0.34521 0,-1e-5 0.0935,-0.0949 0.094,-0.0955"
       id="path518" />
    <path
       style="fill:none;stroke:#ff9955;stroke-width:0.643586px;stroke-linecap:butt;stroke-linejoin:miter;stroke-opacity:1"
       d="m 112.34789,101.23463 c 0.0142,0.088 0.0615,0.17687 0.0427,0.26401 -0.0663,0.30899 -0.19126,0.60195 -0.29279,0.9009 -0.082,0.24149 -0.1718,0.48017 -0.25771,0.72026 -0.11515,0.28071 -0.24459,0.5558 -0.34544,0.84214 -0.10755,0.30536 -0.1859,0.62052 -0.27896,0.93075 -0.29962,0.99868 -0.10494,0.2882 -0.3085,1.16769 -0.0347,0.14978 -0.0784,0.29737 -0.11021,0.44779 -0.11451,0.1371 -0.0189,0.29633 -0.0475,0.4415 -0.0333,0.16892 -0.0378,0.038 -0.0949,0.14462 -10e-4,0.002 0.001,0.071 0,0.0759 -0.0267,0.12906 -0.0782,0.25299 -0.0943,0.38385 -0.008,0.0637 0.0104,0.12942 0,0.19282 -0.006,0.0354 -0.0361,0.0624 -0.0475,0.0964 -0.005,0.0142 0.007,0.0317 0,0.0451 -0.009,0.019 -0.0396,0.0244 -0.0444,0.0451 -0.011,0.0469 0,0.0964 0,0.14462 -0.0158,0.0482 -0.0353,0.0953 -0.0475,0.14463 -0.0113,0.0457 0.0273,0.10039 -0.0426,0.12238 -0.0302,0.01 -0.0633,0 -0.0949,0 -0.0633,0 -0.12656,0 -0.18983,0 -0.23413,0 -0.2802,0.0132 -0.52204,-0.0482 -0.0971,-0.0247 -0.18763,-0.072 -0.28475,-0.0964 -0.41725,-0.10492 -0.4612,-0.0867 -0.84236,-0.15081 -0.0819,-0.0138 -0.16226,-0.0365 -0.24445,-0.0482 -0.16332,-0.0234 -0.32895,-0.0293 -0.4916,-0.0572 -0.16739,-0.0286 -0.33275,-0.0691 -0.4972,-0.11189 -0.44133,-0.11475 -0.29899,-0.13026 -0.72754,-0.1658 -0.0794,-0.007 -0.15935,0 -0.23902,0 -0.0791,0 -0.1582,0 -0.23729,0 -0.33221,0 -0.66441,0 -0.99662,0 -0.0633,0 -0.12687,0.007 -0.18983,0 -0.0957,-0.01 -0.18911,-0.0375 -0.28475,-0.0482 -0.40484,-0.0457 0.0693,0.0556 -0.23729,-0.0482 -0.0382,-0.0129 -0.0735,0.0278 -0.09,-0.0432 -0.0105,-0.0452 0,-0.0931 0,-0.13962 0,-0.0643 0,-0.12855 0,-0.19283 0,-0.34207 0,-0.68412 0,-1.02619 0,-0.16612 0,-0.33223 0,-0.49834 0,-0.20042 -0.0196,-0.40184 0,-0.60127 0.0228,-0.23184 0.0928,-0.4566 0.12692,-0.68702 0.0271,-0.18298 0.0274,-0.36946 0.0564,-0.55214 0.31115,-1.96201 -0.10692,0.96493 0.28552,-1.04026 0.0229,-0.11691 -0.0153,-0.23943 0,-0.35761 0.0174,-0.13405 0.0674,-0.26164 0.0975,-0.39335 0.0182,-0.0798 0.0243,-0.16255 0.0475,-0.24103 0.18731,-0.63421 0.0191,0.14408 0.14237,-0.48207 0.0158,-0.0803 0.03,-0.16105 0.0475,-0.24103 0.0142,-0.0647 0.0367,-0.12748 0.0475,-0.19283 0.0235,-0.14297 -0.039,-0.0568 0.0475,-0.14462 0.0143,-0.0145 0.0237,-0.037 0.0429,-0.0435 0.0271,-0.009 0.0571,0 0.0857,0 0.14237,0 0.28474,0 0.42712,0 0.0949,0 0.18983,0 0.28475,0 0.15946,0 0.31987,-0.0176 0.4784,0 0.19738,0.0219 0.38784,0.0883 0.58423,0.11796 0.51896,0.0785 0.62388,0.0604 1.13213,0.0604 0.25528,0 0.51055,0 0.76583,0 0.56535,0 1.1307,0 1.69605,0 0.10039,0 0.20077,0 0.30115,0 0.0633,0 0.12683,-0.006 0.18984,0 0.14401,0.0135 0.28703,0.0369 0.43114,0.0492 0.38038,0.0326 -0.0977,-0.0495 0.28575,0.0482 0.0152,0.004 0.0313,0 0.0468,0 0.075,0 0.0486,-0.004 0.1667,0.0446 0.12935,0.053 0.20072,0.12879 0.32192,0.2211 z"
       id="path520" />
    <path
       style="fill:none;stroke:#ff9955;stroke-width:0.643586px;stroke-linecap:butt;stroke-linejoin:miter;stroke-opacity:1"
       d="m 102.74474,99.353993 c -0.0473,0.118059 -0.0981,0.234757 -0.14196,0.354183 -0.0972,0.26448 -0.17721,0.535194 -0.25992,0.804704 -0.0954,0.31098 -0.30059,1.00948 -0.36984,1.31037 -0.10055,0.4369 -0.18827,0.8768 -0.27521,1.3167 -0.0836,0.42275 -0.17279,0.84475 -0.23621,1.27111 -0.0705,0.47413 -0.10544,0.95306 -0.16544,1.42869 -0.0458,0.36288 -0.10431,0.72401 -0.1519,1.08665 -0.0251,0.19155 -0.0394,0.38451 -0.0663,0.57582 -0.0609,0.43363 -0.0227,0.0934 -0.0975,0.39713 -0.004,0.0155 0.007,0.0337 0,0.0482 -0.0289,0.0627 -0.0697,0.0423 -0.12695,0.0423 -0.0949,0 -0.19096,0.0149 -0.28475,0 -0.11777,-0.0186 -0.22735,-0.0742 -0.34392,-0.0994 -0.11563,-0.025 -0.234495,-0.0313 -0.351095,-0.0512 -0.641957,-0.10949 -0.854252,-0.17442 -1.544282,-0.25921 -0.269986,-0.0331 -0.546759,-0.0137 -0.8129,-0.0706 -0.284634,-0.0608 -0.549474,-0.1945 -0.827968,-0.2797 -0.72549,-0.22196 -0.985507,-0.33787 -1.59521,-0.3977 -0.06298,-0.007 -0.126555,0 -0.189832,0 -0.121021,0 -0.242041,0 -0.363061,0 -0.06328,0 -0.127043,0.008 -0.189832,0 -0.06472,-0.008 -0.125874,-0.0352 -0.189832,-0.0482 -0.03687,-0.007 -0.07456,0.0207 -0.08963,-0.0428 -0.03756,-0.15854 0.05568,-0.21459 0.09492,-0.37618 0.02774,-0.11427 0.03332,-0.23295 0.04849,-0.34964 0.01871,-0.14394 0.03545,-0.28816 0.05317,-0.43223 0.01668,-0.1633 0.02922,-0.3271 0.05004,-0.48992 0.03565,-0.27887 0.08488,-0.55586 0.119319,-0.8349 0.02409,-0.19518 0.02992,-0.39246 0.0562,-0.58735 0.03549,-0.26321 0.08599,-0.5241 0.12899,-0.78614 0.107921,-0.65776 0.142414,-0.89176 0.261942,-1.53231 0.149916,-0.80339 0.0639,-0.39154 0.226645,-0.99774 0.01716,-0.0639 0.03674,-0.12748 0.04746,-0.19283 0.0052,-0.0317 -0.01001,-0.0659 0,-0.0964 0.0071,-0.0215 0.03503,-0.0293 0.04746,-0.0482 0.01941,-0.0295 0.03125,-0.06353 0.04687,-0.09522 0.03164,-0.06427 0.06858,-0.12612 0.09492,-0.192818 0.0058,-0.01471 0,-0.03173 0,-0.04763 0.01562,-0.03173 0.02764,-0.06561 0.04687,-0.09521 0.02451,-0.03782 0.163179,-0.169634 0.182255,-0.185135 0.04454,-0.03619 0.09783,-0.06019 0.142374,-0.09641 0.03494,-0.02839 0.05788,-0.07089 0.09492,-0.09641 0.01248,-0.0085 0.03092,0.0045 0.04521,0 0.03197,-0.01085 0.0577,-0.03775 0.09043,-0.04592 0.03034,-0.0076 0.06249,0 0.09373,0 0.06328,-0.01605 0.127961,-0.02727 0.189832,-0.04823 0.08156,-0.02764 0.155575,-0.07828 0.239491,-0.09731 0.168909,-0.03827 0.152836,0.01917 0.284748,0 0.07985,-0.01159 0.156897,-0.04154 0.23729,-0.04823 0.113248,-0.0094 0.227258,0 0.340888,0 0.191898,0 0.383798,0 0.575697,0 0.247258,0 0.494516,0 0.741774,0 0.0791,0 0.158586,-0.008 0.23729,0 0.806566,0.08193 -0.689708,0.04823 0.745131,0.04823 0.239521,0 0.479046,0 0.718566,0 0.0633,0 0.12655,0 0.18983,0 0.0156,0 0.0317,-0.0037 0.0469,0 0.45507,0.116297 -0.28625,-0.01939 0.37907,0.04823 0.2638,0.02683 0.18931,0.05618 0.42712,0.09641 0.0312,0.0052 0.0633,0 0.0949,0 0.0156,0 0.032,-0.0052 0.0469,0 0.0331,0.01122 0.0595,0.04064 0.0937,0.04763 0.0464,0.0094 0.095,-0.0067 0.14178,0 0.19644,0.02853 0.41413,0.114782 0.5695,0.241036 0.0706,0.05744 0.18519,0.237105 0.28356,0.240427 0.0696,0.003 0.0335,-0.12598 0.0423,-0.153176 0.0204,-0.06294 0.05,-0.122316 0.075,-0.18347 z"
       id="path522" />
    <path
       style="fill:none;stroke:#ff9955;stroke-width:0.643586px;stroke-linecap:butt;stroke-linejoin:miter;stroke-opacity:1"
       d="m 92.722898,99.091713 c -0.01959,0.07327 -0.03853,0.146778 -0.05876,0.219896 -0.03372,0.121952 -0.06736,0.243949 -0.103066,0.365314 -0.05691,0.193405 -0.135752,0.381047 -0.174776,0.578977 -0.03946,0.20014 -0.01219,0.41097 -0.05952,0.60935 -0.05905,0.24746 -0.164376,0.48128 -0.257152,0.71783 -0.07142,0.18209 -0.161531,0.35614 -0.235131,0.53732 -0.06409,0.15776 -0.11886,0.31926 -0.177754,0.47909 -0.136018,0.36915 -0.191779,0.47873 -0.264469,0.86537 -0.04701,0.25007 -0.07884,0.50287 -0.116609,0.75457 -0.01777,0.11838 -0.02367,0.23892 -0.05,0.35564 -0.01906,0.19386 -0.14624,0.35135 -0.191599,0.53565 -0.0115,0.0467 0,0.0964 0,0.14462 0,0.0643 0.007,0.12894 0,0.19282 -0.0063,0.0574 -0.07154,0.36264 -0.09492,0.43387 -0.01119,0.034 -0.03627,0.0623 -0.04746,0.0964 -0.005,0.0152 0.0067,0.0337 0,0.0482 -0.0083,0.0181 -0.02415,0.0334 -0.04175,0.0424 -0.01962,0.01 -0.322127,0 -0.32641,0 -0.06328,0 -0.126555,0 -0.189832,0 -0.09492,0 -0.190949,0.0147 -0.284747,0 -0.168781,-0.0265 -0.928842,-0.2675 -1.013022,-0.29119 -0.361119,-0.10164 -0.722487,-0.2028 -1.086554,-0.29293 -1.64696,-0.40775 -0.763995,-0.21134 -1.801277,-0.35312 -0.450729,-0.0616 -0.13201,-0.0508 -0.482163,-0.0508 -0.01183,0 -0.207436,0.007 -0.224696,0 -0.01146,-0.004 -0.02468,-0.0141 -0.02621,-0.0266 -0.0076,-0.0618 0,-0.12463 0,-0.18693 0,-0.11551 0,-0.23103 0,-0.34654 0,-0.51232 0,-1.02465 0,-1.53697 0,-0.43698 0,-0.87397 0,-1.31095 0,-0.20029 -0.01991,-0.40161 0,-0.60088 0.01409,-0.14094 0.174211,-0.87123 0.23182,-1.05861 0.0459,-0.149296 0.105816,-0.293822 0.1627,-0.439166 0.01322,-0.03381 0.0416,-0.06197 0.04746,-0.09782 0.01035,-0.06346 -0.0104,-0.129427 0,-0.192825 0.01163,-0.07089 0.08104,-0.122361 0.09492,-0.192834 0,-0.261351 -0.02123,-0.04124 0.04746,-0.241028 0.0045,-0.01308 -0.0083,-0.03061 0,-0.04161 0.06498,-0.08646 0.151439,-0.153837 0.227158,-0.230744 0.03164,-0.0321 0.06328,-0.06428 0.09492,-0.09641 0.01582,-0.01612 0.02625,-0.04094 0.04746,-0.04822 0.02962,-0.01011 0.06582,0.01427 0.09373,0 0.03997,-0.02044 0.05997,-0.06799 0.09492,-0.09641 0.04454,-0.03619 0.09674,-0.06167 0.142374,-0.09641 0.0179,-0.0136 0.02768,-0.0376 0.04746,-0.04822 0.01248,-0.0067 0.02822,0 0.04233,0 0.04523,0 0.09047,0 0.135703,0 0.09492,0 0.189832,0 0.284748,0 0.06328,0 0.126555,0 0.189832,0 0.0791,0 0.158677,-0.0088 0.23729,0 0.06483,0.0074 0.126554,0.03217 0.189832,0.04822 0.135917,0.03455 0.269167,0.08266 0.407749,0.103546 0.412018,0.06212 0.570461,0.05387 0.928186,0.05387 0.01698,0 0.283572,-0.0097 0.331611,0 0.145123,0.02935 0.27675,0.08203 0.425935,0.09581 0.09453,0.0088 0.191363,-0.01724 0.284748,0 0.139523,-0.02809 0.215326,0.114945 0.332206,0.144623 0.03069,0.0078 0.06422,-0.0078 0.09492,0 0.03432,0.0087 0.06091,0.03834 0.09492,0.04822 0.140235,0.04065 0.286886,0.05573 0.427122,0.09641 0.0481,0.01397 0.09303,0.03983 0.142374,0.04823 0.04681,0.0079 0.09584,-0.0094 0.142374,0 0.104308,0.02118 0.131983,0.123022 0.236102,0.144013 0.04655,0.0094 0.09735,-0.01523 0.142373,0 0.05411,0.01828 0.09136,0.07052 0.142374,0.09641 0.01415,0.0074 0.03164,0 0.04746,0 0.04746,0.0321 0.09148,0.07022 0.142374,0.09641 0.02503,0.01286 0.05955,-0.01367 0.08417,0 0.01939,0.01078 0.0273,0.03715 0.04687,0.04763 0.01251,0.0067 0.02826,0 0.04239,0 0.0061,0 0.01318,0.003 0.01812,0 0.01649,-0.01174 0.02467,-0.0344 0.04274,-0.0434 0.09784,0 0.0024,0.01048 0.06616,-0.02266 0.02139,-0.01107 0.09126,0.0074 0.116379,0 0.05325,-0.01538 0.104071,-0.03834 0.156107,-0.05744 z"
       id="path524" />
  </g>
</svg>
