<?xml version="1.0" encoding="UTF-8" standalone="no"?>
<svg
   xmlns:dc="http://purl.org/dc/elements/1.1/"
   xmlns:cc="http://creativecommons.org/ns#"
   xmlns:rdf="http://www.w3.org/1999/02/22-rdf-syntax-ns#"
   xmlns:svg="http://www.w3.org/2000/svg"
   xmlns="http://www.w3.org/2000/svg"
   xmlns:sodipodi="http://sodipodi.sourceforge.net/DTD/sodipodi-0.dtd"
   xmlns:inkscape="http://www.inkscape.org/namespaces/inkscape"
   width="144.0px"
   height="144.0px"
   viewBox="0 0 144.0 144.0"
   version="1.1"
   id="SVGRoot"
   sodipodi:docname="continuous-harvest-tomato.svg"
   inkscape:version="1.0.1 (3bc2e813f5, 2020-09-07)">
  <defs
     id="defs833" />
  <sodipodi:namedview
     id="base"
     pagecolor="#ffffff"
     bordercolor="#666666"
     borderopacity="1.0"
     inkscape:pageopacity="0.0"
     inkscape:pageshadow="2"
     inkscape:zoom="2.8284271"
     inkscape:cx="67.108661"
     inkscape:cy="25.636481"
     inkscape:document-units="px"
     inkscape:current-layer="layer1"
     inkscape:document-rotation="0"
     showgrid="true"
     inkscape:window-width="1920"
     inkscape:window-height="1152"
     inkscape:window-x="0"
     inkscape:window-y="0"
     inkscape:window-maximized="1"
     inkscape:snap-grids="false"
     inkscape:snap-global="false"
     showguides="false">
    <inkscape:grid
       type="xygrid"
       id="grid1403"
       enabled="false" />
  </sodipodi:namedview>
  <metadata
     id="metadata836">
    <rdf:RDF>
      <cc:Work
         rdf:about="">
        <dc:format>image/svg+xml</dc:format>
        <dc:type
           rdf:resource="http://purl.org/dc/dcmitype/StillImage" />
        <dc:title></dc:title>
      </cc:Work>
    </rdf:RDF>
  </metadata>
  <g
     inkscape:label="Layer 1"
     inkscape:groupmode="layer"
     id="layer1">
    <path
       style="fill:#ff0000;stroke:#000000;stroke-width:1px;stroke-linecap:butt;stroke-linejoin:miter;stroke-opacity:1"
       d="m 122.3819,83.622694 c 2.08775,-0.685158 4.00889,-1.968907 6.22773,-1.968907 1.6429,0 3.80161,-0.339289 5.35874,0.179367 2.27918,0.759167 3.04291,1.561973 3.04291,3.932583 0,0.428219 0.1034,1.014986 0,1.428571 -0.22079,0.883189 -1.68589,1.864461 -2.32142,2.5 -0.39547,0.395468 -0.90818,1.166721 -1.42528,1.42528 -1.08329,0.541662 -3.7749,0.175698 -4.84254,-0.180185 -1.03073,-0.343573 -2.08055,-0.573497 -3.11121,-0.917042 -0.43177,-0.14392 -0.53176,-0.526144 -0.89447,-0.715092 -0.22604,-0.117757 -0.5138,-0.263191 -0.6882,-0.523987 -0.22142,-0.331102 -0.31477,-0.736717 -0.53572,-1.068137 -0.14008,-0.210125 -0.44186,-0.301264 -0.53571,-0.535714 -0.44336,-1.107543 -0.4199,-2.349935 -0.27483,-3.556737 z"
       id="path1431" />
    <path
       style="fill:#ff0000;stroke:#000000;stroke-width:1px;stroke-linecap:butt;stroke-linejoin:miter;stroke-opacity:1"
       d="m 107.24148,83.3516 c 2.92027,-0.14557 5.62487,-1.909555 8.11768,-3.3107 1.18376,-0.665361 2.59271,-0.933368 3.88145,-1.301334 0.42496,-0.121335 1.03232,-0.297298 1.50048,-0.178572 1.02197,0.259176 1.7904,1.014184 2.51417,1.737954 0.60829,0.608298 2.19072,2.04619 2.36616,2.916783 0.0829,0.41127 -0.0508,0.84216 0,1.258611 0.28279,2.318398 0.41432,4.156716 -1.10793,6.081379 -0.92772,1.172951 -3.12329,3.014413 -4.57621,3.305522 -0.61694,0.123609 -1.19749,0.102905 -1.83137,0.179368 -1.49427,0.180247 -2.91463,0.423263 -4.44766,-2.95e-4 -0.53757,-0.148523 -1.48722,-0.821494 -2.09072,-1.049107 -1.79013,-0.675152 -3.11612,-1.276327 -4.55216,-2.71128 -0.1822,-0.182061 -0.33594,-3.992173 -0.17857,-4.464285 0.38788,-1.163655 -0.0225,0.191748 0.35384,-0.532412 0.14736,-0.283535 0.0259,-1.580278 0.0508,-1.931632 z"
       id="path1429" />
    <path
       style="fill:#ff0000;stroke:#000000;stroke-width:1px;stroke-linecap:butt;stroke-linejoin:miter;stroke-opacity:1"
       d="m 102.57175,78.179721 c 3.79504,0.472639 7.71387,1.545943 10.23677,4.546061 0.69148,0.822276 0.72418,2.060162 0.53732,3.082003 -0.36788,2.011756 -1.38172,3.598097 -3.09978,4.613582 -0.7974,0.471319 -1.93599,0.654572 -2.78394,0.98986 -1.96682,0.777708 -4.41854,1.345722 -6.55135,0.989162 -1.04813,-0.175225 -2.308746,-0.806819 -3.235306,-1.350359 -2.157683,-1.265744 -3.77558,-3.594046 -3.77558,-6.084889 0,-0.357143 -0.11316,-0.732688 0,-1.071429 0.276703,-0.828302 2.498228,-2.812842 3.107332,-3.286689 0.475675,-0.370046 1.060461,-0.58162 1.541825,-0.944235 1.432267,-1.07894 2.192689,-2.3549 4.022709,-1.483067 z"
       id="path1425" />
    <path
       style="fill:#ff0000;stroke:#000000;stroke-width:1px;stroke-linecap:butt;stroke-linejoin:miter;stroke-opacity:1"
       d="m 76.351655,87.157752 c 2.25057,-2.248869 -0.306527,0.215315 2.869514,-2.455684 0.286858,-0.241243 0.479506,-0.592901 0.795102,-0.795103 0.403388,-0.258449 0.886357,-0.364433 1.322861,-0.561872 2.910074,-1.316281 5.866297,-1.552625 9.056375,-1.552625 2.931366,0 4.439555,-0.222488 6.80736,1.665257 1.295641,1.032957 1.192629,2.554076 1.631437,4.030892 0.09774,0.328933 0.294887,0.624454 0.379006,0.95713 0.106558,0.421416 -0.05943,0.873441 0,1.304038 0.443412,3.212509 0.96758,7.007907 -0.548629,10.053209 -0.51457,1.033516 -2.262968,1.733506 -3.206362,2.265906 -3.671418,2.07195 -8.188851,1.72344 -12.094912,0.65097 -0.893792,-0.2454 -1.663811,-0.35211 -2.51139,-0.77306 -0.986268,-0.48982 -3.092633,-2.51063 -3.675025,-3.481303 -0.486789,-0.811332 -0.248225,-1.472406 -0.356521,-2.365385 -0.192125,-1.58421 -0.178572,-3.194853 -0.178572,-4.814693 0,-0.519395 -0.249003,-1.064635 -0.354919,-1.598216 -0.146817,-0.73963 0.01356,-1.800488 0.06467,-2.529461 z"
       id="path1421" />
    <path
       style="fill:#ff0000;stroke:#000000;stroke-width:1px;stroke-linecap:butt;stroke-linejoin:miter;stroke-opacity:1"
       d="m 83.704831,95.394953 c 0.171664,-0.03414 0.34063,-0.08716 0.515002,-0.102537 0.487661,-0.04336 0.980693,0.03803 1.468802,0 0.730394,-0.05682 1.551304,-0.264022 2.265953,-0.428966 1.361189,-0.314135 4.053624,-0.874623 5.551818,-0.618378 1.615887,0.276396 3.084095,1.360069 4.203735,2.475898 0.198667,0.197976 0.730584,0.675202 0.886252,0.985977 0.21656,0.432325 0.306563,0.989039 0.512161,1.441408 0.313802,0.690449 0.647821,1.333625 0.740752,2.095155 0.256314,2.10046 -0.630397,3.03478 -1.498854,4.76721 -0.143576,0.28644 -0.229295,0.60012 -0.381537,0.88208 -1.291692,2.39225 -3.611955,4.26042 -5.983333,5.50229 -1.096773,0.57436 -2.274577,0.91303 -3.458671,1.24831 -0.777443,0.22013 -1.555292,0.56843 -2.364812,0.65424 -0.376849,0.0399 -3.620435,0.0784 -3.816785,0 -1.083564,-0.43267 -2.289625,-0.73366 -3.424935,-1.0328 -1.102795,-0.29058 -2.380285,-0.4304 -3.309483,-1.15872 -1.288736,-1.01014 -2.17403,-3.49327 -2.002858,-5.11461 0.118436,-1.12182 0.36735,-2.46796 0.643633,-3.56632 0.126039,-0.50107 0.330906,-0.98017 0.458279,-1.48092 0.371926,-1.46215 0.548107,-2.976205 1.136729,-4.379839 0.1474,-0.351484 0.376349,-0.623383 0.570229,-0.945475 0.261585,-0.434566 0.375509,-0.945673 0.851812,-1.230127 4.81e-4,-2.98e-4 0.562056,-0.18664 0.563379,-0.187218 1.248105,-0.533951 2.655998,-0.799192 3.96468,-1.060026 0.45201,-0.09005 1.031367,0 1.495447,0 0.292138,0 1.068748,0.864453 0.831002,1.036677 -0.127146,0.09221 -0.278931,0.144395 -0.418397,0.216718 z"
       id="path1410" />
    <path
       style="fill:#ff0000;stroke:#000000;stroke-width:1px;stroke-linecap:butt;stroke-linejoin:miter;stroke-opacity:1"
       d="m 98.240279,89.776858 c 3.038761,-1.206647 9.114861,-3.467984 12.563761,-2.80002 0.32931,0.06378 0.5194,0.428157 0.80583,0.602722 1.84007,1.121432 2.05148,1.383515 3.28967,3.157207 0.57751,0.827265 1.32615,1.540737 1.82945,2.42291 0.72212,1.265742 1.3517,4.099291 1.15214,5.663191 -0.46114,3.613842 -4.95506,5.625762 -7.88317,6.700832 -0.82044,0.30123 -1.55393,0.24289 -2.36895,0.37913 -0.64154,0.10724 -1.11763,0.25628 -1.80347,0.17936 -1.22227,-0.13707 -2.10823,-0.73676 -3.15348,-1.36632 -1.03561,-0.62376 -0.37863,-0.31664 -1.58936,-1.38281 -0.26441,-0.23284 -0.59702,-0.38364 -0.84795,-0.63094 -0.684202,-0.67429 -0.825094,-1.42672 -1.141494,-2.26772 -0.751551,-1.997629 -0.848964,-2.873428 -1.104627,-4.918733 -0.07157,-0.572573 -0.357143,-1.231609 -0.357143,-1.78348 0,-0.301793 -0.297039,-3.834848 -0.178571,-3.897313 0.232788,-0.122744 0.524909,-0.03868 0.787364,-0.05802 z"
       id="path1423" />
    <path
       style="fill:#ff0000;stroke:#000000;stroke-width:1px;stroke-linecap:butt;stroke-linejoin:miter;stroke-opacity:1"
       d="m 116.72717,89.737959 c 1.10418,-0.472712 2.29928,-0.59281 3.44882,-0.900356 0.76507,-0.204684 1.45947,-0.638696 2.23125,-0.81641 0.65679,-0.151237 1.34989,0.05099 2.02194,0 1.83952,-0.139567 3.81976,-0.475669 5.6688,-0.211749 1.65465,0.236173 4.74035,1.439789 5.72578,2.819007 0.9486,1.327675 0.96042,3.637371 0.96042,5.151127 0,2.169146 0.26169,2.712875 -1.21049,4.395132 -1.92222,2.19651 -7.96622,2.85085 -10.70265,2.85085 -0.402,0 -0.82384,0.12475 -1.206,0 -0.59597,-0.19455 -1.07469,-0.64856 -1.63601,-0.92774 -0.53842,-0.26779 -1.1058,-0.47289 -1.65814,-0.71063 -0.86879,-0.37392 -4.50862,-1.463285 -5.05566,-2.558851 -0.26342,-0.527536 -0.48593,-1.074606 -0.71806,-1.616636 -0.29265,-0.683344 -0.6476,-3.05762 -0.36356,-3.766436 0.59863,-1.493881 2.3959,-2.074123 2.49356,-3.707308 z"
       id="path1427" />
    <path
       style="fill:#00b100;fill-opacity:1;stroke:#000000;stroke-width:1px;stroke-linecap:butt;stroke-linejoin:miter;stroke-opacity:1"
       d="m 85.400937,93.389055 c 0.147838,-0.231613 0.275855,-0.477055 0.443534,-0.694857 0.08111,-0.10541 1.210344,-1.238039 1.257746,-1.238039 0.130472,0 0.515225,-0.0728 0.515225,0.09909 0,0.311967 -0.241784,0.56225 -0.365434,0.820572 -0.03617,0.07542 0.03552,0.20186 0,0.277761 -0.0829,0.177228 -0.394575,0.317214 -0.437376,0.505977 -0.0289,0.127495 0.238814,0.109258 0.362904,0.151684 0.06693,0.02285 0.68404,0.189521 0.702042,0.189521 0.272168,0 0.501263,0.153599 0.775301,0.186044 0.09717,0.01156 0.981713,0.01346 1.142025,0.09332 0.577746,0.291319 1.180597,0.360589 1.777825,0.56216 0.152097,0.0513 0.307946,0.179342 0.456483,0.179342 0.147362,0 0.515198,0.06666 0.551944,0.269956 0.01491,0.0822 -0.471711,0.134594 -0.526857,0.153219 -0.479537,0.161286 -1.940297,0.688273 -2.455341,0.688273 -0.385242,0 -0.01871,-0.01156 -0.65346,0.09332 -4.43e-4,8.2e-5 -0.298782,-0.01156 -0.245869,0.05953 0.09278,0.123276 0.498479,0.202275 0.623104,0.264374 0.0072,0.0036 1.09532,1.154064 1.096106,1.185741 0.0027,0.114244 -0.229267,0 -0.343896,0 -0.289935,0 -0.658982,0.04805 -0.947588,0 -0.278945,-0.04634 -0.383073,-0.178185 -0.655791,-0.280109 -0.186621,-0.06964 -0.741167,-0.16012 -0.894702,-0.198138 -0.222228,-0.0551 -0.447887,-0.103495 -0.660544,-0.188167 -0.400996,-0.15975 -0.803091,-0.555791 -1.269205,-0.555791 -0.03965,0 0.08152,-0.01346 0.118931,0 0.157373,0.05492 0.211155,0.13594 0.276636,0.269694 0.03315,0.06774 0.267116,1.708519 -0.09251,1.536222 -0.04166,-0.01996 0.01624,-0.09504 0,-0.138234 -0.01394,-0.03694 -0.05577,-0.05573 -0.08367,-0.08328 -0.03137,-0.0626 -0.07713,-0.119817 -0.09412,-0.187588 -0.159283,-0.636056 0.3436,0.529208 -0.09442,-0.564599 -0.01643,-0.04092 -0.06246,-0.06214 -0.09369,-0.09332 -0.03084,-0.06151 -0.07025,-0.119438 -0.09253,-0.184337 -0.07646,-0.223213 0.03907,-0.628098 -0.379375,-0.523853 -0.424547,0.105799 -0.590284,0.581878 -0.937696,0.841546 -0.391068,0.292312 -0.813634,0.403322 -1.254957,0.579692 -0.0045,0.0018 -0.404591,0.209574 -0.438054,0.149959 -0.07673,-0.136708 0.474802,-0.652332 0.550591,-0.765528 0.143866,-0.214903 0.813819,-1.614896 0.498479,-1.799188 -0.160906,-0.09403 -0.773156,0 -0.947267,0 -0.249044,0 -0.49809,0 -0.747135,0 -0.358506,0 -0.764393,-0.05031 -1.117184,0 -0.03395,0.0063 -0.607238,0.07109 -0.651369,0.09332 -0.281432,0.141892 -0.515592,0.28019 -0.841053,0.28019 -0.03172,0 0.192648,-0.155911 0.507559,-0.363172 0.176477,-0.116168 0.281638,-0.339119 0.457604,-0.456037 0.208606,-0.138631 0.452903,-0.238179 0.66172,-0.376405 0.266213,-0.17627 0.583735,-0.513049 0.841247,-0.65281 0.0483,-0.02629 0.116201,0.02538 0.164996,0 0.156207,-0.08075 0.288715,-0.219573 0.46927,-0.280525 0.32151,-0.108481 2.091457,-0.438368 2.443429,-0.258746 0.229187,0.116926 0.351877,0.171266 0.626369,0.35255 z"
       id="path1412" />
    <path
       style="fill:#c87137;stroke:#000000;stroke-width:1px;stroke-linecap:butt;stroke-linejoin:miter;stroke-opacity:1"
       d="m 0.2517128,131.9217 c 6.6255164,1.89611 13.5421372,2.82567 20.4330062,3.05592 1.380176,0.0461 2.761892,0 4.142838,0 1.296617,0 2.596048,0.0854 3.88985,0 5.066472,-0.33439 10.025862,-1.75515 15.087174,-2.17995 0.817382,-0.0686 1.65168,0.0666 2.469238,0 2.140382,-0.17449 4.30252,-0.12597 6.460388,-0.12597 3.150996,0 6.301992,0 9.452988,0 2.625651,0 5.251302,0 7.876953,0 0.755867,0 1.992523,0.1965 2.778534,0 1.821289,-0.45532 3.805617,-0.39839 5.710892,-0.39839 0.462538,0 0.825432,-0.0188 1.25,0.125 0.518008,0.17543 4.003425,0 4.111953,0 1.531882,0 3.117782,0.0934 4.648568,0 3.22371,-0.19673 6.483383,-0.57431 9.684425,-1.01247 1.88113,-0.25749 3.66896,-0.63278 5.58252,-0.72311 0.92226,-0.0435 1.84658,0 2.76987,0 0.68978,0 1.53004,-0.0918 2.22438,0 0.22298,0.0295 0.44048,0.0913 0.66072,0.13691 0.67068,0.10288 1.33794,0.23133 2.01205,0.30865 0.22484,0.0258 0.4571,-0.0448 0.67894,0 0.24381,0.0492 0.46195,0.18453 0.69292,0.27679 0.54144,0.23233 1.04494,0.59001 1.62433,0.69699 1.55269,0.28669 3.14684,0.27365 4.71312,0.47316 0.79166,0.10084 1.56508,0.31895 2.35576,0.42726 0.75611,0.10358 1.52152,0.12395 2.28007,0.20779 0.66159,-0.0316 1.27007,0.25041 1.91162,0.33234 0.64573,0.0825 1.34919,0 2,0 1.59392,0 3.18784,0 4.78176,0 2.17696,-0.0143 4.35408,-0.007 6.5311,-0.007 0.65705,0 1.44979,0.10892 2.10136,0 0.49257,-0.0823 0.87862,-0.39757 1.36602,-0.49522 0.55139,-0.11048 1.21525,0.0105 1.72212,-0.24289 0.63476,1.03218 1.51,0.16625 2.24554,0.34688 0.57599,0.14145 0.39912,2.46644 0.41912,2.58218 0.12742,0.73711 0.50333,1.41788 0.62003,2.15676 0.3767,2.38503 0,6.41456 0,9.07057 0,0.4767 0.27751,2.41472 -0.24686,2.78606 -0.17673,0.12515 -4.58089,0 -4.83831,0 -5.36877,0 -10.73754,0 -16.10631,0 -10.65395,0 -21.3079,0 -31.961855,0 -5.205058,0 -10.552817,-0.38516 -15.735337,0 -0.311114,0.0231 -3.171521,0.55406 -3.506668,0.59372 -1.030217,0.1219 -2.13141,0.10653 -3.150009,0.27384 -1.925891,0.31636 -3.818568,0.97634 -5.780228,1.1242 -0.716904,0.054 -1.440162,-0.0573 -2.156814,0 -2.277175,0.18204 -4.794257,0.68326 -7.111344,0.91383 -2.888524,0.28743 -6.025999,0 -8.912735,0 -5.251368,0 -10.502736,0 -15.754104,0 -7.525976,0 -15.051951,0 -22.5779268,0 -3.0870766,0 -6.0244909,0.0891 -9.01297766,-0.50856 -0.39514705,-0.079 -0.8567828,0.0993 -1.24687195,0 -0.76676539,-0.19522 -1.44384399,-0.34111 -2.23385619,-0.50018 -0.2930167,-0.059 -0.7339118,0.13046 -0.9948349,0 -0.6440208,-0.32201 -1.241957,-0.93207 -1.392746,-1.6903 -0.1714658,-0.8622 0.1190739,-1.70782 0.2584381,-2.53489 0.2512558,-1.49112 -0.2550454,-3.10962 0,-4.60013 0.083515,-0.48807 0.4440425,-0.89578 0.5525284,-1.37891 0.1534188,-0.68323 0.1363153,-1.39494 0.2519226,-2.08558 0.199068,-1.18924 0.1161367,-2.36772 0.5011292,-3.50451 0.3268436,-0.96509 -0.4509205,-2.4208 0,-3.32267 0.7636569,-1.52736 2.4434188,-1.31225 3.865612,-0.57812 z"
       id="path1467" />
    <path
       style="fill:#552200;stroke:#000000;stroke-width:1px;stroke-linecap:butt;stroke-linejoin:miter;stroke-opacity:1"
       d="m 134.21815,88.159797 c 0.39005,4.601102 -2.89911,5.674458 -6.44048,7.145778 -1.04261,0.43317 -2.02845,0.995383 -3.07119,1.428234 -0.78871,0.3274 -1.6834,0.502772 -2.49581,0.776596 -4.38715,1.478704 -8.95144,2.823105 -13.59498,3.212515 -2.09602,0.17578 -4.29353,0 -6.39718,0 -1.74493,0 -3.691039,0.21963 -5.429799,0 -0.511171,-0.0646 -0.9857,-0.32406 -1.497596,-0.3826 -0.986186,-0.11278 -1.942029,-0.23577 -2.933557,-0.376269 -0.532571,-0.07547 -2.786537,-0.290961 -3.412465,-0.423955 -1.763461,-0.374691 -3.492603,-1.072034 -5.194647,-1.641758 -0.263424,-0.08818 -0.17851,0.176357 -0.529022,0 -0.150396,-0.07567 -0.225795,-0.251823 -0.357143,-0.357143 -1.740282,-1.395429 -0.760011,-0.879207 -1.831109,-2.400949 -0.560955,-0.796965 -1.274093,-1.415247 -1.637595,-2.376894 -0.29805,-0.788491 -0.586148,-1.564016 -0.901304,-2.351183 -0.120566,-0.301139 -0.01526,-0.576151 -0.162005,-0.869599 -0.260695,-0.521319 0.228647,-1.138767 0.358767,-1.527939 0.08358,-0.249978 -0.117319,-0.655984 0,-0.890622 0.03717,-0.07435 0.172436,-0.0933 0.176337,-0.176338 0.0071,-0.150358 -0.407035,-0.433605 -0.469873,-0.559648 -0.287115,-0.575908 -0.630921,-1.745605 -1.235188,-2.12531 -0.936079,-0.588206 -3.072214,2.079599 -3.452454,2.648773 -0.352494,0.527643 -0.549328,1.841536 -0.710623,2.485984 -0.110786,0.442639 0.07494,0.975246 0,1.42492 -9.58e-4,0.0057 -0.357043,1.068513 -0.35795,1.073042 -0.217252,1.085287 0.137742,2.294133 0,3.39447 -0.306164,2.445761 -0.179378,4.950738 -0.179378,7.424978 0,2.91388 0,5.82776 0,8.74163 0,4.01646 -0.302244,8.1779 0.358517,12.12214 0.234851,1.40188 0.957971,2.62908 1.735981,3.79826 0.238324,0.35815 0.556117,0.67441 0.715888,1.07384 0.04421,0.11053 -0.04456,0.24675 0,0.35714 0.0045,0.0111 0.715388,1.06876 0.724193,1.0863 0.606601,1.20808 1.088483,2.4781 1.971959,3.57848 0.310815,0.38712 0.532545,0.44523 0.897642,0.71906 0.648024,0.48602 1.169764,1.13241 1.965888,1.42938 3.37844,1.26019 7.178407,1.33046 10.689828,1.80789 1.093869,0.14873 2.159606,0.48595 3.258405,0.59231 0.949126,0.0919 1.908534,-0.0519 2.860685,0 0.556241,0.0303 1.098218,0.19563 1.653017,0.24582 1.230831,0.11136 2.584821,0 3.814041,0 5.06369,0 10.12739,0 15.19108,0 3.40686,0 6.73101,0.13032 10.01308,-0.9637 0.37575,-0.12525 1.06957,-0.18318 1.38809,-0.35714 2.54294,-1.38887 5.46071,-5.79429 6.3333,-8.46308 0.41493,-1.26904 0.28244,-2.5194 0.73544,-3.78351 0.52672,-1.46982 1.49836,-2.80854 2.1138,-4.24323 0.22926,-0.53444 0.4919,-1.29411 0.55784,-1.86335 0.0359,-0.31016 -0.0666,-0.63166 0,-0.9367 0.16996,-0.77811 0.70244,-1.63335 0.92807,-2.41169 0.0829,-0.28586 -0.049,-0.59931 0,-0.89286 0.24618,-1.47371 -5.4e-4,-2.97875 0.17938,-4.4667 0.31734,-2.62444 0.6489,-5.24368 0.9312,-7.85279 -0.11621,-0.55884 0.28683,-0.99987 0.35854,-1.51328 0.13481,-0.965225 0.1642,-4.371936 0,-5.357143 -0.0619,-0.371339 -0.3039,-0.69875 -0.35714,-1.071428 -0.0589,-0.412479 0.0817,-0.841425 0,-1.25 -0.10399,-0.519911 -0.41602,-1.07583 -0.53734,-1.612004 -0.22022,-0.973236 -0.006,-2.087649 -0.55348,-2.908838 -0.3831,-0.574645 -0.0529,-1.342414 -0.35714,-1.95089 -0.26786,-0.535721 -0.94357,-0.713617 -1.39592,-0.8644 -0.15972,-0.05324 -0.19743,-0.303903 -0.35714,-0.357143 -0.40108,-0.13369 -0.77344,-0.161753 -1.13464,-0.343366 -0.86109,-0.432962 -2.26706,0.862556 -2.48827,1.557726 -0.0486,0.15265 0.0779,0.340624 0,0.480576 -0.42784,0.768231 -0.27839,-0.09476 -0.43855,1.317607 z"
       id="path1419" />
    <path
       style="fill:#00b100;fill-opacity:1;stroke:#000000;stroke-width:1px;stroke-linecap:butt;stroke-linejoin:miter;stroke-opacity:1"
       d="m 84.490776,77.573702 c 0.617749,0.03738 1.168462,-0.364629 1.772561,-0.380349 0.05981,-0.0016 0.33476,3.494555 0.809913,3.693186 0.561175,0.234591 1.558421,-0.06878 2.158951,0 0.790431,0.09053 1.504803,0.24063 2.279456,0.396579 0.243658,0.04905 0.403399,0.114547 0.661063,0.114547 0.02102,0 0.294737,-0.01056 0.297754,0 0.003,0.01067 -0.36622,0.148328 -0.654196,0.321314 -0.776598,0.466498 -1.283537,1.279429 -2.029492,1.776352 -0.251452,0.167507 -1.322083,0.125777 -1.381646,0.484699 -0.0021,0.01256 0.893632,0.224158 1.057411,0.3338 0.92695,0.620542 0.802142,1.161613 1.018122,2.020128 -0.07116,0.225922 0.198499,0.234948 0.250203,0.376479 0.03589,0.09826 -0.212344,0.02537 -0.313831,0 -0.424218,-0.106054 -0.852871,-0.241808 -1.26827,-0.380348 -0.979964,-0.32683 -1.976002,-0.568055 -2.958129,-0.900631 -0.220493,-0.07467 -0.485443,-0.01876 -0.68719,-0.126269 -0.314275,-0.167472 -0.600095,0.74388 -0.767271,0.967588 -0.456666,0.611093 -1.123013,0.684521 -1.685766,0.965915 -0.04271,0.02136 -0.568069,-9.31e-4 -0.530979,-0.06977 0.05205,-0.0966 0.179218,-0.136997 0.23277,-0.23277 0.03102,-0.05547 0.777681,-1.829152 0.754016,-1.887809 -0.05603,-0.138891 -0.309748,-0.08431 -0.422582,-0.08431 -0.90573,0 -3.715024,-0.08766 -4.116192,-1.022091 -0.172297,-0.401328 0.229203,-0.660706 0.376472,-0.944081 0.618338,-1.189804 2.721064,-1.286324 3.807733,-1.829676 0.885661,-0.442846 0.09914,-1.366124 0.423892,-2.015658 0.08541,-0.170836 0.287266,-0.330686 0.37564,-0.500329 0.176351,-0.338527 0.319542,-0.722086 0.539587,-1.076493 z"
       id="path1433" />
    <path
       style="fill:#00b100;fill-opacity:1;stroke:#000000;stroke-width:1px;stroke-linecap:butt;stroke-linejoin:miter;stroke-opacity:1"
       d="m 100.75582,74.758504 c 0.28323,0.100486 2.05687,0.219881 2.22686,0.55232 0.0905,0.177009 -0.82357,2.285102 -0.4524,2.353942 1.0024,0.185918 2.09877,-0.146365 3.1087,0 0.63808,0.09248 1.8413,0.353572 2.39452,0.631916 0.2218,0.111591 0.4583,0.355566 0.68805,0.454465 0.0924,0.03979 0.65709,0.350303 0.67156,0.446242 0.0183,0.121681 -0.74414,0.227255 -0.80739,0.243067 -0.18261,0.04565 -0.3205,0.215623 -0.50507,0.252538 -0.47841,0.09568 -1.05035,0.09886 -1.51551,0.253678 -0.2589,0.08617 -0.40944,0.246581 -0.74252,0.246581 -0.0643,0 -0.90357,-0.05245 -0.9309,0 -0.0245,0.04694 0.63232,0.322481 0.78803,0.789606 0.068,0.204077 0.30861,1.063658 0.0168,1.230861 -0.40489,0.231946 -2.25468,-1.737562 -2.74429,-1.90145 -0.35096,-0.117476 -0.67956,-0.36281 -1.12543,-0.245001 -0.36309,0.09594 -0.54433,0.477361 -0.81557,0.68833 -0.0652,0.05069 -1.853684,1.097898 -1.890868,1.082705 -0.366275,-0.149655 1.196748,-1.44735 0.395608,-1.89903 -0.651725,-0.367442 -1.409918,0.689085 -2.062184,0.689085 -0.04437,0 -0.642895,0.02163 -0.616872,-0.05724 0.140423,-0.425587 2.688957,-3.181567 3.217246,-3.484738 0.1355,-0.07776 0.84244,-0.594012 0.91632,-0.708005 0.0332,-0.05128 -0.0694,-0.106287 -0.0766,-0.121638 -0.0422,-0.08969 0,-0.311002 0,-0.408563 0,-0.169944 0.19032,-0.389876 0.11811,-0.514902 -0.0188,-0.03255 -0.0532,-0.05316 -0.0797,-0.07974 -0.0588,-0.165011 -0.11758,-0.330022 -0.17637,-0.495034 z"
       id="path1435" />
    <path
       style="fill:#00b100;fill-opacity:1;stroke:#000000;stroke-width:1px;stroke-linecap:butt;stroke-linejoin:miter;stroke-opacity:1"
       d="m 118.20633,78.544634 c 0.96314,-0.332376 2.02393,-0.258172 2.99707,-0.452801 0.60481,-0.120962 2.02773,-0.592421 2.61202,-0.02615 0.2491,0.241413 -1.35188,1.385424 -1.51863,1.472101 -0.17972,0.09342 -0.88911,0.244809 -1.09906,0.244809 -0.0421,0 -0.1211,-0.04177 -0.12627,0 -0.0116,0.09376 0.98112,0.557936 1.09334,0.726787 0.0997,0.149995 0.48733,1.528631 0.18247,1.681041 -0.19867,0.09932 -3.3265,-1.78796 -4.08828,-1.407055 -0.45806,0.229036 -2.09577,2.190803 -2.3783,2.25141 -0.28451,0.06103 0.1138,-2.145924 -0.14758,-2.276558 -0.20039,-0.100155 -3.479,0.1442 -3.44222,-0.05846 0.0652,-0.359041 0.74708,-0.422987 0.96591,-0.587108 0.15295,-0.114711 0.32289,-0.409275 0.50275,-0.502749 0.17398,-0.09042 0.43883,-0.116552 0.61804,-0.250958 0.37357,-0.280184 0.69422,-0.660069 1.11545,-0.870682 0.1396,-0.0698 1.57734,-0.64636 1.65753,-0.594791 0.44778,0.287983 0.5347,0.170304 1.05576,0.651159 z"
       id="path1437" />
    <path
       style="fill:#00b100;fill-opacity:1;stroke:#000000;stroke-width:1px;stroke-linecap:butt;stroke-linejoin:miter;stroke-opacity:1"
       d="m 99.612992,88.314611 c 1.065338,0.06955 1.896748,-1.001631 2.890568,-1.167766 0.57819,-0.09665 1.15018,-0.05496 1.73658,-0.126269 0.48099,-0.05849 0.95044,-0.189168 1.4269,-0.277207 0.43116,-0.07967 0.61911,-0.127163 0.97398,-0.127163 0.0398,0 0.1388,-0.03479 0.11944,0 -0.0829,0.149074 -0.28826,0.260299 -0.39512,0.395122 -0.52948,0.668039 -1.0425,1.30559 -1.64336,1.906444 -0.12232,0.12232 -0.23523,0.231716 -0.37864,0.3016 -0.0222,0.01081 -0.15851,-0.03139 -0.1501,0.05924 0.0128,0.138047 0.93416,0.253929 1.07578,0.325044 0.37101,0.186291 0.37304,0.606364 0.56932,0.900792 0.0776,0.116317 0.50039,0.371165 0.51149,0.511496 0.003,0.0376 -0.0481,0.0599 -0.08,0.08002 -0.61799,0.389715 -2.26794,0.0212 -3.00114,0.113152 -0.17332,0.02174 -0.33471,0.108553 -0.5084,0.127101 -0.13061,0.01395 -0.98745,-0.103891 -1.22404,0 -0.29555,0.129777 -0.13235,0.71276 -0.17364,0.918634 -0.0206,0.102527 -1.35087,2.748532 -1.376339,2.763215 -0.529334,0.305111 -0.84798,-2.335406 -1.567342,-2.376678 -0.244452,-0.01403 -0.06455,0.485786 -0.112567,0.725885 -0.07354,0.367706 -0.766074,2.403924 -1.132606,2.568933 -0.112924,0.05084 -0.247678,0 -0.371517,0 -0.732942,0 -0.815939,-0.258744 -0.704499,-1.036317 0.172385,-1.202819 -0.07591,-2.764651 0.12684,-3.775649 0.08288,-0.413292 0.294741,-0.827243 0.380518,-1.255354 0.0883,-0.440719 0.106002,-1.14002 0.548674,-1.428526 0.341748,-0.222731 2.086067,-0.206121 2.459233,-0.125753 z"
       id="path1439" />
    <path
       style="fill:#00b100;fill-opacity:1;stroke:#000000;stroke-width:1px;stroke-linecap:butt;stroke-linejoin:miter;stroke-opacity:1"
       d="m 119.56356,87.467512 c 2.36313,0.421104 4.88102,-0.211168 7.19955,0.252538 0.15867,0.03173 1.74918,0.145039 1.73431,0.350084 -0.0182,0.251328 -0.92161,0.575268 -1.00647,0.623685 -0.63803,0.364016 -1.17593,0.835999 -1.73752,1.289456 -0.41065,0.331584 -0.91626,0.198368 -1.36213,0.377235 -0.30111,0.120794 0.92654,0.787499 0.17634,1.162664 -0.56257,0.281332 -2.55702,-0.230747 -3.09574,-0.47448 -0.0977,-0.0442 -0.26112,0.04785 -0.35681,0 -0.15691,-0.07845 -0.33272,-0.30056 -0.54652,-0.225911 -0.34978,0.122127 -0.64714,0.520303 -0.89242,0.765575 -0.85394,0.853955 -1.57659,1.829707 -2.4138,2.66691 -0.0785,0.07852 -0.63834,0.720013 -0.72607,0.631346 -0.36349,-0.367333 0.14087,-2.251213 -0.185,-2.422094 -0.3993,-0.209388 -2.48713,0.773738 -3.07297,0.891112 -0.12329,0.0247 -0.25794,-0.03976 -0.37723,0 -0.0882,0.02939 -0.17622,0.182016 -0.24937,0.124689 -0.1092,-0.08557 0.18953,-0.27221 0.21516,-0.330161 0.10834,-0.244908 -0.0737,-0.298023 0.12627,-0.631346 0.1225,-0.204165 0.33672,-0.336717 0.50508,-0.505076 0.44937,-0.449368 0.73962,-1.01958 1.13869,-1.518643 0.48336,-0.604465 1.04893,-1.144508 1.51365,-1.764607 0.18848,-0.251496 0.22705,-0.422836 0.50156,-0.628394 0.36956,-0.276738 0.85165,-0.304708 1.24505,-0.504637 0.74977,-0.381043 0.91484,-0.724415 1.66639,-0.129945 z"
       id="path1441" />
    <path
       style="fill:#00b100;fill-opacity:1;stroke:#000000;stroke-width:1px;stroke-linecap:butt;stroke-linejoin:miter;stroke-opacity:1"
       d="m 125.28804,81.679743 c 0.33902,-0.184664 0.76238,-0.475618 1.17492,-0.559856 0.59557,-0.121613 1.11243,-0.371973 1.64809,-0.641488 0.12706,-0.06393 0.33818,0.0456 0.47498,0 0.16447,-0.05482 0.47221,-0.210507 0.65239,-0.219537 0.16585,-0.0083 -0.1546,0.293987 -0.23638,0.438504 -0.28967,0.511875 -0.57856,0.954977 -0.89726,1.433436 -0.19321,0.290056 -0.77239,1.25312 -0.82519,1.538003 -0.009,0.0482 0.17755,0.247833 0.18781,0.268352 0.0538,0.107644 0,0.507347 0,0.609258 0,0.16697 0.22683,0.242025 0.0329,0.345945 -0.0405,0.0217 -2.85799,0.02512 -2.92192,-0.08849 -0.0505,-0.08969 0,-0.48453 0,-0.562539 0,-0.130726 -0.0697,-0.58322 0,-0.710895 0.40341,-0.738982 1.00026,-0.873158 0.7097,-1.850693 z"
       id="path1443" />
    <path
       id="path1469"
       style="fill:#008000;stroke:#000000;stroke-width:1px;stroke-linecap:butt;stroke-linejoin:miter;stroke-opacity:1"
       d="m 28.509218,136.78582 c 0.935605,-3.66514 0.590443,-7.68724 1.513385,-11.45134 0.436222,-6.46828 0.05603,-12.98834 0.176618,-19.48067 0.734627,-5.43908 -6.31912,-7.040459 -9.764945,-9.346989 C 15.531254,100.1618 9.6201666,97.244769 8.3801,91.571777 c -6.7363677,-4.30498 2.108443,-3.495907 5.782111,-3.557637 5.563618,0.4114 4.85411,8.528788 11.028753,8.718112 4.437091,4.222708 2.227654,-2.302464 2.569368,-5.312812 0.965202,-5.428035 -2.623657,-10.188116 -3.474045,-15.415976 -3.083931,-1.921248 -6.21745,-6.962718 -9.826706,-5.958191 -5.414637,3.386625 -9.2786682,-2.219601 -9.9480492,-7.08084 -2.3101173,-3.745594 1.2247087,-3.366554 3.4220331,-2.637023 3.4636241,1.687712 12.3602761,1.632049 9.1333311,7.423014 0.825486,2.489549 8.78098,3.00941 8.976753,7.68983 0.937029,-1.756976 0.652768,-7.870507 0.109041,-11.066963 1.199714,-3.343745 1.233905,-6.886619 0.05541,-10.257205 -2.175214,-3.809091 -3.664908,-10.396505 -9.134247,-9.259438 -2.626856,1.975719 -3.97595,-0.797186 -1.116594,-2.007616 4.943597,-3.032295 8.76768,2.885147 10.68435,6.776609 2.372645,4.657142 1.84169,0.03518 2.704682,-2.475533 1.795146,-4.349038 2.621816,-9.080919 -2.863441,-10.907421 -2.908828,-4.331071 -5.720252,2.286691 -8.792728,-0.403852 -1.612759,-2.156292 -3.122009,-8.227179 -1.02442,-8.528189 3.705289,0.929987 10.685424,0.0302 11.033471,5.378718 -4.282888,1.611075 1.295717,2.658383 3.131125,4.277062 3.377253,3.489072 2.760345,-1.615431 2.895014,-3.978786 -0.07562,-4.466498 1.862484,-8.917384 1.019855,-13.31491 -0.04946,-4.85395 -3.35364,-9.614056 -8.650981,-6.866413 -6.258232,0.920891 1.041196,-4.7188483 4.142591,-3.2667832 4.943258,-0.043554 8.1125,5.3160212 7.605715,9.8006742 0.442316,-0.794521 2.250235,-5.991055 2.91811,-8.385563 1.110504,-4.3381203 5.942727,-5.3425878 9.661856,-3.8908402 3.766178,2.7507744 -1.797483,2.1172721 -4.142081,2.1937541 -4.702785,3.3929721 -5.117802,9.7232041 -5.591835,14.9759471 -2.166952,6.878303 5.29402,4.271991 8.393211,1.735197 2.030073,-3.261171 10.840294,-2.587824 6.353439,1.569394 -4.651608,2.313669 -9.977678,2.342482 -14.947288,3.157904 -1.437926,1.517157 -4.361514,9.611028 -1.120396,8.167002 3.42236,-3.448259 7.681501,-6.042135 12.686909,-5.885836 1.972941,-0.813499 9.139715,-0.681243 5.091309,1.735184 -6.726002,-1.055827 -13.096011,3.313886 -16.895706,8.569059 -1.23952,2.474539 -6.964921,7.135412 -3.439667,9.249779 -0.409241,2.291244 5.852988,4.508251 1.501986,4.497621 -1.513892,-2.436291 -5.347937,-3.539819 -4.361505,0.795078 -0.38522,4.234651 2.410242,9.220532 3.605193,12.416766 0.183373,2.681875 -1.238381,7.472501 -0.288947,11.063613 -0.330646,6.277067 5.563231,1.35805 8.916984,3.570252 4.581484,1.233715 9.052849,0.559811 13.353058,1.383156 3.165533,1.136798 8.761553,4.995788 8.170484,7.483635 -4.864152,-0.02688 -10.682167,-0.714548 -12.396272,-6.157586 -4.262328,-0.852882 -11.545841,-2.607169 -14.261864,1.814978 0.405817,3.571209 -0.785055,7.496678 1.151727,10.738318 3.022939,2.10698 6.736248,3.43729 10.052265,4.94686 3.699084,4.13712 -7.432029,6.54208 -6.932565,0.74792 1.582722,-4.29819 -8.179618,-5.934316 -5.501344,-0.74497 -0.353434,5.30535 1.515341,10.25181 2.390981,15.44376 0.651349,5.33956 -0.392051,10.64026 -0.828373,15.89885 -0.427869,0.13382 -0.773037,0.40521 -1.226533,0.46999 -3.415766,0.49913 -6.629335,1.0493 -10.201504,0.98108 -0.240122,-0.12006 -1.201354,-0.22856 -1.32025,-0.50415 -0.06684,-0.15494 -0.05947,-0.42322 -0.124656,-0.59054 z"
       sodipodi:nodetypes="cccccccccccccccccccccccccccccccccccccccccccccccccccccccccccsc" />
    <path
       style="fill:#ff0000;fill-opacity:1;stroke:#000000;stroke-width:1px;stroke-linecap:butt;stroke-linejoin:miter;stroke-opacity:1"
       d="m 62.835942,29.417267 c 0.762573,0.164296 1.263025,-0.512573 1.922432,-0.760773 1.417918,-0.533701 4.017484,-0.654217 5.39991,-0.133179 1.365555,0.514681 3.808222,1.031965 4.643219,2.414238 0.331613,0.54896 0.33353,1.125256 0.393135,1.7295 0.12897,1.307424 0.176749,1.816013 -0.567459,3.034752 -0.07458,0.122139 -0.227358,0.18246 -0.303581,0.303581 -0.180028,0.286073 -0.271051,0.622948 -0.457085,0.905152 -1.036995,1.57307 -2.234629,3.126315 -3.567711,4.459389 -0.388017,0.388014 -0.714781,0.848971 -1.164047,1.164047 -0.607977,0.426381 -1.288358,0.56191 -1.947342,0.825073 -0.888255,0.354721 -0.773855,0.495511 -1.652504,0.743332 -1.045306,0.294827 -1.977275,0.535668 -3.027,0.693283 -1.023471,0.153673 -3.568974,0.386201 -4.443917,0.0082 -0.886923,-0.38316 -2.891138,-1.596294 -3.106781,-2.683693 -0.0796,-0.401388 -0.05854,-0.849289 -0.125961,-1.253838 -0.194351,-1.166104 -0.159222,-2.295193 0.125969,-3.428802 0.25356,-1.007879 -0.274498,-1.429375 0.61692,-2.320793"
       id="path1447" />
    <path
       style="fill:#ff0000;fill-opacity:1;stroke:#000000;stroke-width:1px;stroke-linecap:butt;stroke-linejoin:miter;stroke-opacity:1"
       d="m 16.968705,48.413467 c 0.54295,1.021934 1.648639,4.206729 0.986519,5.530968 -0.343897,0.687795 -1.031811,1.407166 -1.672722,1.798294 -0.864487,0.52757 -4.295847,0.47417 -5.407075,0.391938 C 9.9030723,56.062711 10.031413,55.947303 9.0889554,55.687569 7.3440519,55.206687 5.1927746,54.863726 3.9171566,53.428116 2.0788733,51.359269 1.9704184,44.544787 2.9128479,42.048592 c 0.1562659,-0.413899 0.7277235,-1.47574 1.1706658,-1.698609 1.391477,-0.700129 5.01447,-0.386764 6.7885813,-0.386764 0.152722,0 0.41284,-0.05233 0.554658,0 0.24858,0.09172 0.952152,0.657766 0.952152,0.92823"
       id="path1451" />
    <path
       style="fill:#ff0000;fill-opacity:1;stroke:#000000;stroke-width:1px;stroke-linecap:butt;stroke-linejoin:miter;stroke-opacity:1"
       d="m 24.9409,13.564774 c 2.040731,1.045851 4.26947,2.380753 4.491333,4.82579 0.173971,1.917251 0.444248,3.772801 -0.742531,5.431881 -1.278246,1.786948 -2.687969,1.770973 -4.647446,1.770973 -1.365333,0 -2.419358,0.108193 -3.747803,-0.327789 -0.859458,-0.282066 -1.262854,-0.789175 -1.946758,-1.284317 -0.554624,-0.401544 -1.191799,-0.684332 -1.729774,-1.107922 -0.234943,-0.184989 -0.409386,-0.437322 -0.634339,-0.634338 -0.113518,-0.09942 -0.30404,-0.118843 -0.376671,-0.251114 -0.255041,-0.464466 -0.43619,-3.715619 -0.263027,-4.315216 0.0018,-0.0062 0.928703,-1.859305 0.929493,-1.860886 0.193222,-0.386437 0.29967,-0.924265 0.518273,-1.289043 0.172497,-0.287843 0.470011,-0.486327 0.646301,-0.771862 0.363913,-0.589428 0.681636,-1.365889 1.316311,-1.746578 0.302409,-0.181391 0.67902,-0.186313 1.003395,-0.25113 2.259919,-0.451576 3.50531,0.376876 5.183243,1.811551 z"
       id="path1453" />
    <path
       style="fill:#ff0000;fill-opacity:1;stroke:#000000;stroke-width:1px;stroke-linecap:butt;stroke-linejoin:miter;stroke-opacity:1"
       d="m 53.062253,8.0109596 c 1.401525,-0.2431593 3.238521,-0.6723524 4.556259,0.1275139 0.880478,0.5344497 2.867409,1.4604167 3.277191,2.4124065 0.324661,0.75424 0.277603,1.674516 0.277603,2.466538 0,0.578695 0.148935,1.176883 0,1.736084 -0.388941,1.460351 -1.999757,3.102257 -2.92099,4.210453 -0.485843,0.584445 -1.28659,1.459331 -2.036071,1.646702 -0.32974,0.08244 -2.624615,0.08387 -2.889313,0 -0.552006,-0.174899 -1.044481,-0.500939 -1.556427,-0.771515 -0.99861,-0.52779 -1.786961,-1.132271 -2.206055,-2.185322 -0.0925,-0.232415 -0.164807,-0.474051 -0.278702,-0.696762 -0.07778,-0.152091 -0.247881,-0.255808 -0.29274,-0.420639 -0.102851,-0.377921 0,-0.783333 0,-1.174999 0,-1.494562 0.460923,-2.798733 1.448975,-3.936791 0.269767,-0.310723 2.773098,-2.7333148 2.767975,-2.8906667 -0.0059,-0.1810574 -0.09847,-0.3486685 -0.147705,-0.5230027 z"
       id="path1455" />
    <path
       style="fill:#00b100;fill-opacity:1;stroke:#000000;stroke-width:1px;stroke-linecap:butt;stroke-linejoin:miter;stroke-opacity:1"
       d="m 58.260625,31.754288 c 1.201493,-0.961696 2.569714,-1.716216 3.776077,-2.67276 0.344614,-0.27325 0.487074,-0.697342 0.967217,-0.713753 0.03935,-0.0013 -0.316923,0.676632 -0.765008,1.249588 -0.11102,0.14196 -0.277961,0.235354 -0.382301,0.382294 -0.07907,0.111356 -0.827208,1.5302 -0.88813,1.776832 -0.04566,0.184848 -0.04194,0.458879 -0.125,0.625 -0.07747,0.15495 -0.364272,0.258984 -0.25,0.49688 0.193079,0.401961 2.07876,0.634893 2.472702,1.344177 0.138637,0.249612 -0.190453,0.513912 -0.373451,0.559715 -0.656773,0.164388 -1.33658,0.281162 -2.004181,0.376534 -0.235911,0.0337 -0.750451,-0.100741 -0.998436,0 -0.303367,0.123239 -0.245618,0.955042 -0.323609,1.188835 -0.263046,0.78854 -0.700925,1.235915 -1.494514,1.374954 -0.493751,0.08651 -1.034551,0.329631 -1.49752,0.137451 -0.292213,-0.121298 0.141018,-0.804476 0.169693,-0.973602 0.05725,-0.337668 0,-0.784504 0,-1.130318 0,-1.259199 -1.363022,-0.08467 -1.660714,-0.68013 -0.201916,-0.403886 0.407842,-0.717669 0.550797,-0.914199 0.07829,-0.107635 0.05115,-0.268683 0.125564,-0.379036 0.09866,-0.146305 0.970199,-1.171794 1.146927,-1.27192 0.05509,-0.03121 0.134754,0.03103 0.189942,0 0.492036,-0.27667 0.877736,-0.391418 1.363945,-0.776542 z"
       id="path1445" />
    <path
       style="fill:#ff0000;fill-opacity:1;stroke:#000000;stroke-width:1px;stroke-linecap:butt;stroke-linejoin:miter;stroke-opacity:1"
       d="m 40.47553,57.45649 c 1.025951,0 2.051902,0 3.077854,0 1.22594,0 2.059835,0.496892 3.063358,1.167106 1.141768,0.762544 1.972044,1.305462 2.735626,2.506378 1.095708,1.723264 1.404038,3.907898 1.404038,5.904755 0,0.868391 0.07973,1.785636 0,2.650055 -0.05395,0.584911 -0.423708,1.065213 -0.654435,1.585846 -0.73992,1.669627 -2.114859,2.77851 -3.86306,3.299896 -0.948979,0.283026 -0.488073,0.04493 -1.392719,0.137429 -0.631436,0.06456 -0.744727,0.258154 -1.39658,0.137435 -1.601236,-0.296538 -3.050392,-1.170574 -4.461071,-1.928939 -1.02038,-0.548546 -1.880779,-0.921973 -2.305633,-2.097824 -0.09905,-0.274141 -0.06893,-0.580432 -0.139359,-0.863282 -0.02403,-0.09651 -0.411865,-1.156806 -0.438072,-1.426765 -0.08763,-0.902678 -0.148411,-1.742949 -0.148411,-2.662438 0,-1.084353 -0.23315,-2.497823 0.148281,-3.53524 0.09847,-0.267825 0.322395,-0.474454 0.439229,-0.734794 0.136427,-0.304002 0.178643,-0.644802 0.316112,-0.948334 0.276945,-0.611494 1.35373,-2.088467 1.993912,-2.421967 0.672058,-0.350105 0.932752,-0.157493 1.62093,-0.769317 z"
       id="path1457" />
    <path
       style="fill:#00b100;fill-opacity:1;stroke:#000000;stroke-width:1px;stroke-linecap:butt;stroke-linejoin:miter;stroke-opacity:1"
       d="m 14.967717,43.409905 c 1.105817,0.825384 0.894233,2.299895 1.57473,3.324203 0.161984,0.243825 0.843189,1.246583 0.704681,1.653908 -0.04066,0.119579 -0.668663,0.05619 -0.671211,0.05619 -0.482938,0 -2.475066,-0.615711 -2.74387,-1.122078 -0.04586,-0.0864 -0.385448,-0.73909 -0.48493,-0.718345 -0.285641,0.05956 -0.292119,0.915247 -0.654163,1.10878 -0.206349,0.110305 -1.436854,0.08318 -1.700151,0.08308 -0.211428,-7.8e-5 0.167329,-0.388341 0.250564,-0.582695 0.05387,-0.125788 0.435459,-1.096813 0.378391,-1.247399 C 11.47642,45.582044 10.122781,45.458917 9.8123612,45.27842 9.7787162,45.258856 8.6012038,44.391754 8.5329136,44.263542 7.9815947,43.228467 10.714843,43.467545 10.962429,43.467545 c 0.208333,0 0.416666,0 0.624999,0 0.04115,0 0.136116,0.03914 0.123436,0 -0.02653,-0.08188 -0.147799,-0.103858 -0.182585,-0.182587 -0.116423,-0.263498 -0.06723,-1.087327 0,-1.355652 0.07489,-0.298892 0.994864,-2.030444 1.541477,-1.751068 0.991293,0.506653 1.060022,1.421176 1.251126,2.376694 0.05343,0.267152 0.609146,0.811279 0.646835,0.854973 z"
       id="path1449" />
    <path
       style="fill:#00b100;fill-opacity:1;stroke:#000000;stroke-width:1px;stroke-linecap:butt;stroke-linejoin:miter;stroke-opacity:1"
       d="m 51.349683,8.3637962 c 1.234927,-0.5157056 2.259219,-1.6023418 3.426071,-2.1684417 0.156398,-0.075877 0.234513,-0.4591495 0.478775,-0.3537827 0.246545,0.1063518 -0.284785,0.4604537 -0.518242,1.0059662 -0.228737,0.5344826 -0.213415,1.1976595 -0.390305,1.7283287 -0.01863,0.055902 -0.116655,0.066668 -0.125,0.125 -0.01942,0.1357564 0.51152,0.4032891 0.563683,0.4380646 0.2143,0.1428671 1.478804,1.5858557 1.373939,1.8564187 -0.01098,0.02832 -1.862091,0.249082 -2.064865,0.198707 -0.08929,-0.02218 -0.154912,-0.120573 -0.246872,-0.123435 -0.189481,-0.0059 -0.103963,0.535482 -0.112258,0.596981 -0.06355,0.471159 -0.05161,2.047013 -0.623871,2.352169 -0.442113,0.235752 -0.810935,-0.885821 -0.83902,-1.133503 -0.03,-0.264546 0.193313,-1.131943 -0.203148,-1.328152 -0.42364,-0.20966 -0.782575,0.350651 -1.064735,0.509163 -0.223511,0.125563 -2.494919,1.089349 -2.540589,1.068153 -0.323307,-0.150047 0.0929,-0.797008 0.142388,-0.96978 0.247927,-0.8655 0.737456,-1.475959 1.131584,-2.2626035 0.119862,-0.2362023 0.134857,-0.5159917 0.25341,-0.7527008 0.05909,-0.1179777 0.809592,-0.9215286 0.91806,-0.9180603 0.153317,0.0049 0.293997,0.087672 0.440995,0.1315078 z"
       id="path1459" />
    <path
       style="fill:#00b100;fill-opacity:1;stroke:#000000;stroke-width:1px;stroke-linecap:butt;stroke-linejoin:miter;stroke-opacity:1"
       d="m 25.294335,11.615059 c 0.996742,0.787417 1.235487,1.955058 1.704941,3.081932 0.131037,0.314541 0.271566,0.62508 0.412731,0.935207 0.09928,0.218107 0.81268,1.525521 0.741985,1.699952 -0.103436,0.255217 -2.215972,-0.605377 -2.559406,-0.801381 -0.06131,-0.03499 -0.294189,-0.234513 -0.357292,-0.238193 -0.153559,-0.009 0,0.30764 0,0.46146 0,0.419702 -0.0098,0.881204 -0.488224,1.071953 -0.448323,0.178737 -2.600614,0.600616 -3.040386,0.380729 -0.196773,-0.09839 -0.12344,-0.409472 -0.12344,-0.580657 0,-0.505715 0.650883,-1.00037 0.89323,-1.40477 0.183103,-0.305541 0.17028,-0.681288 0.250565,-1.001698 0.04233,-0.168917 0.369343,-0.495257 0.376133,-0.626694 0.0055,-0.10613 -0.124031,-0.193649 -0.225437,-0.225437 -0.226779,-0.07109 -0.51588,0.05775 -0.746868,0 -0.417741,-0.104435 -0.816165,-0.177382 -1.25,-0.25 -0.334356,-0.05597 -0.56439,-0.270372 -0.872784,-0.374389 -0.07001,-0.02362 -0.154895,0.03163 -0.221672,0 -0.161441,-0.07647 -0.140412,-0.520141 0.03111,-0.576836 0.08684,-0.02871 1.705468,0.08744 1.697033,-0.09234 -0.03877,-0.826293 -1.221857,-3.1841651 -0.869839,-3.9766545 0.278474,-0.6269217 4.356037,0.5524654 4.858711,1.4573935 0.05689,0.102418 -0.195631,1.006132 -0.21109,1.060425 z"
       id="path1461" />
    <path
       style="fill:#00b100;fill-opacity:1;stroke:#000000;stroke-width:1px;stroke-linecap:butt;stroke-linejoin:miter;stroke-opacity:1"
       d="m 39.704354,56.419861 c 1.066614,0.123228 2.009298,-0.05415 3.035809,-0.261932 1.044441,-0.211413 1.974149,-0.262482 3.026237,-0.262482 0.01645,0 0.724194,-0.04404 0.702763,0.06553 -0.0178,0.091 -0.281891,0.281891 -0.347389,0.347389 -0.312938,0.312936 -0.730876,0.77252 -1.128296,1.002731 -0.207393,0.120135 -0.876786,0.06393 -0.992359,0.31659 -0.136942,0.299366 1.153259,1.648369 0.935878,1.68943 -1.162741,0.219631 -2.121516,-0.306994 -3.18898,-0.520104 -0.160264,-0.032 -0.698538,-0.25897 -0.713405,-0.248436 -0.281487,0.199459 -1.442064,1.798528 -1.561005,2.148751 -0.02092,0.06161 -0.208471,0.64229 -0.359818,0.596931 -0.161838,-0.0485 0.03109,-0.340786 0,-0.506851 -0.03784,-0.202104 -0.577853,-1.584325 -0.790058,-1.616356 -0.31919,-0.04818 -1.712773,1.860831 -1.901024,2.203079 -0.177817,0.323281 0.48678,-0.285503 -0.119098,0.338555 -0.01533,0.01579 -0.327638,0.0094 -0.346508,0 -0.175524,-0.08776 -0.523627,-0.184836 -0.621876,-0.373436 -0.09076,-0.174227 -0.04443,-1.637523 0,-1.859055 0.183227,-0.913662 0.014,0.09757 0.376129,-0.626694 0.326308,-0.652609 0.388451,-1.594902 1.122246,-1.987846 0.178362,-0.09551 0.530412,0.04874 0.725353,0 0.364809,-0.0912 0.74203,-0.256288 1.0952,-0.375 0.231445,-0.0778 0.845855,-0.04215 1.050201,-0.07079 z"
       id="path1463" />
    <path
       style="fill:#ff0000;fill-opacity:1;stroke:#000000;stroke-width:1px;stroke-linecap:butt;stroke-linejoin:miter;stroke-opacity:1"
       d="m 95.893643,51.92971 c 2.840867,-1.297206 6.405817,-1.881863 9.448517,-1.014389 0.66666,0.190065 1.55933,0.320595 2.17128,0.706162 1.00129,0.630871 1.92094,2.057442 2.23121,3.163246 0.12224,0.435667 0.11465,0.897692 0.17139,1.346611 0.21039,1.664582 0.34319,3.522832 0.17303,5.207794 -0.26611,2.634936 -2.86243,6.698713 -5.44435,7.665787 -0.28469,0.106632 -0.60232,0.08652 -0.89947,0.150719 -0.43167,0.09327 -0.846,0.276298 -1.28533,0.321335 -1.9327,0.198126 -5.200644,0 -7.089928,0 -1.697532,0 -3.395065,0 -5.092598,0 -0.517949,0 -1.053701,0.134625 -1.553848,0 -0.388856,-0.104669 -0.733054,-0.334728 -1.108597,-0.480095 -1.799525,-0.696568 -1.7987,-0.84802 -2.424034,-3.044709 -0.368473,-1.294382 -0.232562,-2.98631 0.301376,-4.212257 0.213419,-0.49002 0.504427,-0.943802 0.717072,-1.434158 0.879367,-2.027811 1.129975,-3.27624 2.722343,-4.868622 0.318216,-0.318218 0.594103,-0.685339 0.954651,-0.954651 1.526474,-1.140205 3.359063,-1.869548 5.155297,-2.45166 0.212753,-0.06895 0.647866,-0.05827 0.851989,-0.101113 z"
       id="path1472" />
    <path
       style="fill:#00b100;fill-opacity:1;stroke:#000000;stroke-width:1px;stroke-linecap:butt;stroke-linejoin:miter;stroke-opacity:1"
       d="m 98.048779,49.439949 c -0.257372,0.04185 -0.528373,0.03293 -0.772117,0.125565 -0.34543,0.131282 -0.505554,0.540846 -0.783905,0.783905 -0.704778,0.615417 -1.478884,1.308373 -2.295388,1.761345 -0.358616,0.198949 -0.774169,0.288203 -1.130218,0.501701 -0.740674,0.444133 -1.536205,1.010681 -2.374832,1.250694 -0.487303,0.139465 -1.063251,0.156663 -1.504456,0.37751 -0.430766,0.215622 -1.285281,1.019964 -1.066292,1.57412 0.09526,0.241052 1.225295,-0.2761 1.403847,-0.298821 0.880466,-0.112039 1.710801,-0.360603 2.554596,-0.641868 0.659382,-0.219794 1.067092,-0.499565 1.765747,-0.499565 0.140809,0 0.228463,-0.181714 0.341919,-0.125 0.405101,0.2025 -0.343534,2.1762 -0.47789,2.579269 -0.06489,0.194679 -0.30758,0.507952 -0.125549,0.602692 0.07494,0.039 0.114525,-0.124877 0.179214,-0.179215 0.31052,-0.260833 0.622832,-0.519644 0.940308,-0.771965 1.287065,-1.022923 2.664459,-2.073587 4.287201,-2.490989 0.154912,-0.03985 0.255171,0.143141 0.348488,0.236457 0.690208,0.690206 1.423138,1.218188 2.258998,1.725678 0.0539,0.03275 0.64332,0.410276 0.67313,0.193069 0.11213,-0.817115 -0.37675,-1.365083 -0.50113,-2.111335 -0.0692,-0.41521 -0.125,-0.824623 -0.125,-1.25 0,-0.445514 0.51329,-0.316925 0.8491,-0.316925 0.77681,0 1.30599,-0.291863 2.00161,-0.37613 0.21674,-0.02626 0.4381,0.02522 0.65496,0 0.57225,-0.06655 0.50289,-0.177349 1.02676,-0.38742 0.19021,-0.07627 0.61755,0 0.81344,0 0.12864,0 1.45051,0.07843 1.45282,-0.08247 1.5e-4,-0.01058 -1.05104,-0.478177 -1.42518,-0.702194 -0.59026,-0.353413 -1.13744,-0.487154 -1.74818,-0.749573 -0.1516,-0.06514 -0.56308,-0.31273 -0.75191,-0.375671 -0.45159,-0.150524 -0.95049,-0.161226 -1.36177,-0.375565 -0.49501,-0.257973 -4.176473,0.202818 -5.108321,0.02271 z"
       id="path1474" />
    <path
       style="fill:none;stroke:#000000;stroke-width:1.00157;stroke-linecap:round;stroke-linejoin:miter;stroke-miterlimit:4;stroke-dasharray:none;stroke-opacity:1"
       d="M 99.626767,46.357742 C 98.449506,45.415525 97.340827,44.380555 96.094983,43.53109 92.793029,41.279689 89.503891,39.516638 86.025082,37.761116 84.941786,37.214449 83.554154,36.236069 82.277211,36.236069"
       id="path1476" />
    <path
       style="fill:none;stroke:#000000;stroke-width:1.00157;stroke-linecap:round;stroke-linejoin:miter;stroke-miterlimit:4;stroke-dasharray:none;stroke-opacity:1"
       d="M 88.764623,50.215492 C 86.890526,48.943924 84.833242,47.979438 82.91496,46.783058 82.389671,46.45545 81.960773,45.98599 81.429173,45.668724 81.01716,45.422829 80.535469,45.316443 80.104421,45.10569 c -0.665069,-0.325173 -1.249107,-0.80303 -1.91935,-1.117401 -0.158343,-0.07427 -0.347958,-0.05955 -0.508736,-0.128388 -0.138104,-0.05913 -0.23561,-0.193963 -0.375,-0.25 -0.253767,-0.102017 -0.393292,0.10046 -0.613373,-0.119621"
       id="path1478" />
    <path
       style="fill:none;stroke:#000000;stroke-width:1.00157;stroke-linecap:round;stroke-linejoin:miter;stroke-miterlimit:4;stroke-dasharray:none;stroke-opacity:1"
       d="m 80.857602,59.827751 c -1.059678,-1.904493 -2.862907,-3.040724 -4.41729,-4.458618 -0.850169,-0.775517 -1.471229,-1.801486 -2.36689,-2.518524 -0.530063,-0.424353 -0.349494,-0.15518 -1.129013,-0.502007 -1.19081,-0.529819 -2.386317,-1.108515 -3.622116,-1.548729 -0.672912,-0.239703 -1.542169,-0.297014 -2.240814,-0.414215"
       id="path1480" />
  </g>
</svg>
