<?xml version="1.0" encoding="UTF-8" standalone="no"?>
<!-- Created with Inkscape (http://www.inkscape.org/) -->

<svg
   width="144.0px"
   height="144.0px"
   viewBox="0 0 144.0 144.0"
   version="1.1"
   id="SVGRoot"
   sodipodi:docname="skitter-chlorinated-ankylosaurus.svg"
   inkscape:version="1.2.1 (9c6d41e410, 2022-07-14)"
   xmlns:inkscape="http://www.inkscape.org/namespaces/inkscape"
   xmlns:sodipodi="http://sodipodi.sourceforge.net/DTD/sodipodi-0.dtd"
   xmlns="http://www.w3.org/2000/svg"
   xmlns:svg="http://www.w3.org/2000/svg">
  <sodipodi:namedview
     id="namedview1076"
     pagecolor="#ffffff"
     bordercolor="#666666"
     borderopacity="1.0"
     inkscape:showpageshadow="2"
     inkscape:pageopacity="0.0"
     inkscape:pagecheckerboard="0"
     inkscape:deskcolor="#d1d1d1"
     inkscape:document-units="px"
     showgrid="true"
     inkscape:zoom="1"
     inkscape:cx="70.5"
     inkscape:cy="79.5"
     inkscape:window-width="1920"
     inkscape:window-height="1139"
     inkscape:window-x="0"
     inkscape:window-y="0"
     inkscape:window-maximized="1"
     inkscape:current-layer="layer1">
    <inkscape:grid
       type="xygrid"
       id="grid1562"
       enabled="false" />
  </sodipodi:namedview>
  <defs
     id="defs1071" />
  <g
     inkscape:label="Layer 1"
     inkscape:groupmode="layer"
     id="layer1">
    <path
       style="fill:#ffd42a;stroke:none;stroke-width:1px;stroke-linecap:butt;stroke-linejoin:miter;stroke-opacity:1"
       d="M -4.4075238,-6.472946 -9.0030594,91.81247 53.918594,33.494316 163.00678,35.587669 155.43991,-4.421783 Z"
       id="path8656"
       sodipodi:nodetypes="cccccc" />
    <path
       style="fill:#aaeeff;stroke:none;stroke-width:1px;stroke-linecap:butt;stroke-linejoin:miter;stroke-opacity:1"
       d="M 156.68226,34.247186 66.190766,30.439702 28.415862,48.522609 -10.743131,147.3183 151.64761,146.45583 Z"
       id="path4820"
       sodipodi:nodetypes="cccccc" />
    <path
       style="fill:#d45500;stroke:#000000;stroke-width:1px;stroke-linecap:butt;stroke-linejoin:miter;stroke-opacity:1"
       d="m -17.278638,76.62497 c 5.198819,-4.124133 11.023987,-7.423233 15.4856306,-12.421998 3.9739368,-3.855165 7.1109268,-5.886698 10.4368782,-7.637639 5.0102642,-4.17628 6.5238322,-3.740949 12.1201662,-8.122938 3.12066,-2.768574 6.983825,-3.993001 10.130276,-6.540585 2.302502,-2.213637 3.077295,-4.215078 6.224483,-5.336379 5.856399,-2.807577 11.556678,-5.276495 17.710502,-7.084171 2.342378,-0.407344 6.542977,-1.085757 9.638609,-1.326973 11.77931,-0.04747 23.535104,-0.0078 35.26638,0.445916 9.521733,-0.101313 19.027023,0.222689 28.497863,0.445916 6.68834,1.437579 13.67467,0.168202 20.39163,1.486387 2.47619,-0.399451 3.77793,0.555327 4.08011,2.71717 0.63562,3.656853 -1.27048,5.263734 -4.85089,4.437928 -3.23504,-0.0079 -6.45375,-0.04731 -9.66013,-0.362324 -4.01692,-0.486599 -9.89069,-1.489963 -14.68265,-2.063216 -8.20942,-1.074735 -16.59686,0.0214 -24.833699,-0.778117 -7.620091,-0.0016 -15.24102,0.0011 -22.861488,0 -5.789362,1.283663 -12.087847,1.264205 -17.440356,4.402583 -5.197092,2.253324 -9.809705,5.593202 -13.988643,9.375299 -3.396467,5.293943 -7.052295,9.954477 -9.443391,15.755204 -1.661759,4.187582 -5.388611,10.041209 -6.97425,15.335091 -5.332991,10.881275 -9.809637,22.330986 -14.496829,33.396846 -0.37313,2.82038 -13.19265494,31.79188 -13.90328194,34.66145 -5.51204286,-0.72888 1.23530618,-28.21922 -3.85184426,-29.28818 -4.4443854,-1.17113 -10.0651178,-0.19568 -13.8683258,-1.73305 -2.997198,-8.30631 -3.863597,-17.275066 -2.978211,-26.026779 1.487145,-4.259626 1.870239,-8.865689 3.290612,-13.03512 0.03838,-0.33209 -0.188491,-0.840339 0.560849,-0.702321 z"
       id="path4586"
       sodipodi:nodetypes="cccccccccccccccccccccccccccc" />
    <path
       style="fill:none;stroke:#000000;stroke-width:1px;stroke-linecap:butt;stroke-linejoin:miter;stroke-opacity:1"
       d="m 150.07918,34.741217 c -10.1937,0.02169 -20.38385,-0.693563 -30.48141,-2.269794 -10.78051,-0.146258 -21.288497,-2.053328 -32.113203,-1.341114 -9.301597,-0.495682 -18.136074,2.890686 -27.38596,3.104628 -6.758958,2.335141 -12.967822,7.72087 -19.010268,12.044864 -4.466364,6.114401 -10.409251,11.07184 -13.68051,18.032172 -4.433455,6.820172 -8.064775,14.156687 -13.068141,20.645943 -4.4917544,8.249539 -12.5778264,13.470972 -18.2303558,20.797934 -4.2942592,3.95119 -6.8204502,9.28542 -11.0110002,13.30031"
       id="path4592"
       sodipodi:nodetypes="ccccccccc" />
    <path
       style="fill:none;stroke:#58abff;stroke-width:1px;stroke-linecap:butt;stroke-linejoin:miter;stroke-opacity:1"
       d="m 130.35063,47.076619 c -2.60564,1.356651 -5.23443,-1.478636 -6.67408,-2.272206 -1.26935,1.213059 -2.81923,2.30682 -4.57556,2.069247 -1.99327,0.546043 -3.03057,-3.233426 -4.45784,-0.830008 -1.60446,0.161929 -3.04637,-0.33014 -4.40062,-1.094186"
       id="path4702"
       sodipodi:nodetypes="ccccc" />
    <path
       style="fill:none;stroke:#58abff;stroke-width:0.999999px;stroke-linecap:butt;stroke-linejoin:miter;stroke-opacity:1"
       d="m 56.120864,49.339223 c 3.32568,0.378561 7.143899,0.68247 9.821321,-1.820451 1.002989,1.274384 4.810239,2.876663 7.033487,0.819349 7.121939,-1.615242 2.771867,4.547951 8.826333,0.62562"
       id="path4704"
       sodipodi:nodetypes="cccc" />
    <path
       style="fill:none;stroke:#58abff;stroke-width:0.999999px;stroke-linecap:butt;stroke-linejoin:miter;stroke-opacity:1"
       d="m 79.897923,67.146307 c 4.846694,0.730627 10.411184,1.317175 14.313144,-3.513491 1.46171,2.459576 7.010223,5.551993 10.250273,1.581353 10.37919,-3.117435 4.03959,8.777597 12.8631,1.207454"
       id="path4704-7"
       sodipodi:nodetypes="cccc" />
    <path
       style="font-variation-settings:normal;opacity:1;vector-effect:none;fill:#aa4400;fill-opacity:1;stroke:#000000;stroke-width:0.999999px;stroke-linecap:butt;stroke-linejoin:miter;stroke-miterlimit:4;stroke-dasharray:none;stroke-dashoffset:0;stroke-opacity:1;-inkscape-stroke:none;stop-color:#000000;stop-opacity:1"
       d="m 104.3068,117.22355 c 3.10118,-1.27784 5.87003,-3.28806 8.33971,-5.51828 1.45713,-1.905 2.42621,-4.11653 3.47204,-6.25779 0.57675,-1.24305 1.88194,-3.37161 2.67978,-4.97723 1.58794,-1.444622 1.6444,-4.090592 3.45781,-5.128032 2.60008,-0.59834 5.50815,-1.431375 7.01395,-3.827185 -0.63175,-2.190044 -1.43744,-4.272297 -2.68981,-6.159429 -2.03654,-1.427439 -0.28696,-1.374635 -2.98798,-0.893633 -2.46172,-0.137008 -4.75258,1.093098 -7.14506,1.526298 -1.95517,0.717723 -5.6523,0.4865 -3.79412,3.319838 0.65036,2.268756 -2.82188,3.367466 -0.16111,4.061406 1.51566,0.38276 5.64467,0.37461 3.21306,2.651095 -1.70177,1.92419 -3.01344,4.161682 -4.89473,5.922562 -2.02719,2.43887 -3.07063,5.6138 -5.23855,7.90253 -1.4987,1.21715 -3.13364,2.21757 -5.06442,2.53737 -0.41481,0.21945 -1.52247,0.42203 -1.47124,0.67084"
       id="path6325"
       sodipodi:nodetypes="cccccccccccccccc" />
    <path
       style="font-variation-settings:normal;opacity:1;vector-effect:none;fill:#552200;fill-opacity:1;stroke:#000000;stroke-width:0.999999px;stroke-linecap:butt;stroke-linejoin:miter;stroke-miterlimit:4;stroke-dasharray:none;stroke-dashoffset:0;stroke-opacity:1;-inkscape-stroke:none;stop-color:#000000;stop-opacity:1"
       d="m 118.25586,97.762148 c 1.03694,-0.57326 5.19548,-2.23887 2.93817,-0.11369 -1.42328,1.03906 -2.79884,2.16231 -4.27544,3.128462"
       id="path7053" />
    <path
       style="font-variation-settings:normal;opacity:1;vector-effect:none;fill:#552200;fill-opacity:1;stroke:#000000;stroke-width:0.999999px;stroke-linecap:butt;stroke-linejoin:miter;stroke-miterlimit:4;stroke-dasharray:none;stroke-dashoffset:0;stroke-opacity:1;-inkscape-stroke:none;stop-color:#000000;stop-opacity:1"
       d="m 113.52782,104.99195 c 1.6118,-0.32752 4.29363,-1.53232 5.3684,-0.59531 -1.71631,1.29948 -3.70986,2.63269 -5.79878,3.2259"
       id="path7055" />
    <path
       style="font-variation-settings:normal;opacity:1;vector-effect:none;fill:#552200;fill-opacity:1;stroke:#000000;stroke-width:0.999999px;stroke-linecap:butt;stroke-linejoin:miter;stroke-miterlimit:4;stroke-dasharray:none;stroke-dashoffset:0;stroke-opacity:1;-inkscape-stroke:none;stop-color:#000000;stop-opacity:1"
       d="m 107.01181,112.11457 c 2.11485,-0.13616 5.22725,-0.64051 6.74762,0.29294 -2.69374,1.5664 -6.05157,1.73971 -9.00724,2.77316 -0.37588,-0.0766 -0.82618,0.4997 -1.16906,0.17113"
       id="path7057" />
    <path
       style="fill:#552200;stroke:#000000;stroke-width:0.999999px;stroke-linecap:butt;stroke-linejoin:miter;stroke-opacity:1"
       d="m 66.698302,52.068811 c -1.959727,0.0025 -3.944701,-0.0034 -5.888243,0 0.820443,1.408556 1.274639,2.963697 1.710323,4.452004"
       id="path8543" />
    <path
       style="fill:#552200;stroke:#000000;stroke-width:0.999999px;stroke-linecap:butt;stroke-linejoin:miter;stroke-opacity:1"
       d="m 80.584715,45.688088 c -2.952198,0.06463 -4.783959,-0.03954 -7.886755,-1.028937 -2.522166,-1.66848 -2.183022,0.368094 -1.45715,2.008701 0.601098,0.602234 0.610573,1.360272 1.145036,1.929521"
       id="path8541" />
    <path
       style="fill:#aa4400;stroke:#000000;stroke-width:0.999999px;stroke-linecap:butt;stroke-linejoin:miter;stroke-opacity:1"
       d="m 84.979201,106.75832 c -0.292335,-3.50967 -2.101918,-6.75225 -2.396211,-10.318267 -0.927201,-2.63802 -0.707043,-5.51327 -1.089187,-8.27615 0,-4.86228 0,-9.724556 0,-14.586832 0.544887,-2.913992 1.687945,-5.510763 3.986391,-7.675986 1.99361,-2.217645 4.085572,-4.426036 6.468932,-6.219316 1.57321,-1.00746 3.43115,-1.312071 4.79842,-2.867682 1.29103,-1.494985 3.628524,-2.889501 3.437244,-5.026357 -2.236014,1.145111 -5.183734,1.984354 -7.333614,3.468773 -1.56149,0.997181 -4.79893,3.741987 -2.774,0.367268 1.1481,-2.58719 1.8393,-5.636934 3.02369,-8.34476 1.11099,-1.767265 2.47923,-3.551358 4.67184,-3.211027 2.310014,0.431834 3.049834,-0.693407 0.53679,-1.426652 -2.39465,-0.763672 -4.10507,-3.434956 -6.69547,-3.432212 -2.10409,-0.0419 -3.8817,1.387939 -5.796097,2.062881 -2.358608,0.666433 -3.099712,2.320467 -5.568375,3.655371 -2.292198,2.151706 -5.63962,2.805212 -8.483613,3.615733 -1.9563,0.580775 -3.73426,1.170089 -5.022807,2.8611 -3.095192,2.708244 -4.741591,6.591103 -6.051184,10.397883 -0.522577,2.798155 -0.659185,5.826031 0.270233,8.585299 -0.76886,1.347094 -4.922339,1.504402 -6.894895,2.443764 -2.624374,1.086005 -5.956719,1.274389 -7.840424,3.04948 -2.042395,1.825816 -2.656028,4.539572 -4.482851,6.632712 -1.760058,2.8459 -2.631476,6.17039 -4.402179,9.03791 -0.854988,2.84874 -1.394275,3.80224 -2.241986,7.26706 -0.756754,2.288487 -0.758615,4.813057 -0.978461,7.302137 -1.477959,2.76123 -0.232008,6.14753 -2.369851,8.57945 l -0.0584,0.21191 -0.150765,0.64733"
       id="path7791" />
    <path
       style="fill:#aa4400;stroke:#000000;stroke-width:0.999999px;stroke-linecap:butt;stroke-linejoin:miter;stroke-opacity:1"
       d="m 72.311749,92.562485 c -0.04426,-3.00381 2.20908,-5.34124 4.138909,-7.74191 2.936772,-3.26749 6.673645,-5.56087 10.505834,-7.668572 3.29526,-1.994287 4.48507,-5.131676 5.02693,-8.813671 1.05691,-0.277412 -0.14824,5.636771 0.94595,4.192666 1.78761,-2.890156 5.23732,-3.715034 8.132508,-5.064683 3.18219,-1.680549 -2.385978,2.448131 -2.954548,3.480886 -3.484,3.009605 4.308988,1.785039 6.044158,2.154234 4.28352,-0.302685 -1.22114,1.003682 -2.80263,1.712393 -1.15475,0.106866 -8.178178,2.540652 -4.598808,2.501215 3.085194,0.571118 6.617678,2.090452 9.143958,3.391822 0.0835,1.16438 -4.22547,0.85243 -6.066004,0.92998 -2.228704,0.17193 -4.749874,-0.59746 -6.277174,1.12143 -2.08155,1.24035 -3.67713,2.93095 -5.35981,4.67455 -3.753005,3.04615 -6.575018,7.0609 -10.314748,10.1075 -0.402332,0.30545 -0.580057,0.76858 -0.77975,1.214887"
       id="path7059" />
    <path
       style="fill:#552200;stroke:#000000;stroke-width:0.999999px;stroke-linecap:butt;stroke-linejoin:miter;stroke-opacity:1"
       d="m 89.209782,80.351385 c -0.90715,-2.187003 1.06985,-6.818406 -0.58752,-7.627537 -1.00662,3.110948 -2.29832,6.296247 -2.18294,9.634287"
       id="path7061" />
    <path
       style="fill:#552200;stroke:#000000;stroke-width:0.999999px;stroke-linecap:butt;stroke-linejoin:miter;stroke-opacity:1"
       d="m 80.799543,85.639008 c -0.279892,-2.44189 0.786881,-7.13516 -1.547854,-8.179072 -0.703079,2.380852 -1.307311,4.260422 -1.850877,7.122542 -0.05061,1.48397 0.219116,3.0548 -0.199933,4.47866"
       id="path7063" />
    <path
       style="fill:#552200;stroke:#000000;stroke-width:0.999999px;stroke-linecap:butt;stroke-linejoin:miter;stroke-opacity:1"
       d="m 48.921592,78.473305 c -2.890203,1.187791 -5.916973,2.025848 -8.861414,3.060428 -1.646869,0.10735 -6.570858,2.02064 -2.348285,1.49162 2.520816,0.8207 5.189123,1.00592 7.824672,0.92351"
       id="path7793" />
    <path
       style="fill:#552200;stroke:#000000;stroke-width:0.999999px;stroke-linecap:butt;stroke-linejoin:miter;stroke-opacity:1"
       d="m 42.312229,89.029353 c -3.107484,1.7984 -6.839028,2.81853 -9.129126,5.73917 -0.956755,0.87846 -3.930232,3.55601 -0.833434,2.26434 2.63732,-0.56201 4.599898,-2.83943 7.135674,-3.05887"
       id="path7795" />
    <path
       style="fill:#552200;stroke:#000000;stroke-width:0.999999px;stroke-linecap:butt;stroke-linejoin:miter;stroke-opacity:1"
       d="m 40.127726,101.21625 c -2.983201,1.98365 -6.359911,3.46437 -8.640513,6.32527 -1.691547,1.11945 -2.165249,2.57505 0.191676,1.51986 1.955139,-0.52897 3.989784,-0.90933 5.89373,-1.59957"
       id="path7797" />
    <path
       style="fill:#552200;stroke:#000000;stroke-width:0.999999px;stroke-linecap:butt;stroke-linejoin:miter;stroke-opacity:1"
       d="m 53.836454,80.301063 c -1.422944,3.02442 -4.377598,4.42194 -6.970376,6.09237 -1.729908,1.21397 -1.059519,1.99726 0.959786,0.89746 1.723255,0.23244 3.011019,-1.00393 4.652762,-0.95512"
       id="path7799" />
    <path
       style="fill:#552200;stroke:#000000;stroke-width:0.999999px;stroke-linecap:butt;stroke-linejoin:miter;stroke-opacity:1"
       d="m 48.905277,91.903883 c -0.97363,2.01626 -4.279253,4.05674 -3.9389,6.133537 1.99497,0.2789 3.649392,-0.824757 5.337933,-1.752727"
       id="path7801" />
    <path
       style="fill:#552200;stroke:#000000;stroke-width:0.999999px;stroke-linecap:butt;stroke-linejoin:miter;stroke-opacity:1"
       d="m 44.517136,101.77287 c -1.051589,1.62198 -4.737266,6.32369 -0.820894,6.23004 1.018636,-0.78172 3.697249,-1.78003 3.774369,-2.9594"
       id="path7803" />
    <path
       style="fill:#552200;stroke:#000000;stroke-width:0.999999px;stroke-linecap:butt;stroke-linejoin:miter;stroke-opacity:1"
       d="m 56.127309,105.00338 c 0.489174,1.47211 1.689879,5.98282 3.470571,3.28193 0.0086,-1.40678 1.961871,-4.38269 1.810017,-4.80642"
       id="path7809" />
    <path
       style="fill:#aaeeff;stroke:#58abff;stroke-width:1px;stroke-linecap:butt;stroke-linejoin:miter;stroke-opacity:1"
       d="m 26.899742,115.04083 c 6.592883,3.76571 12.635752,-5.00988 18.134093,-8.51822 3.879125,-0.66813 6.124469,-10.538428 7.469164,-3.31553 3.092795,3.42809 7.469242,5.23316 12.149544,4.88498 4.439122,-1.07468 10.452783,-4.95072 13.551429,-10.128178 1.638649,5.291968 6.361931,9.869308 12.366221,11.233558 1.608047,0.4145 54.203437,17.40253 55.742997,18.01123"
       id="path4708"
       sodipodi:nodetypes="ccccccc" />
    <path
       style="fill:#aaeeff;stroke:#58abff;stroke-width:1px;stroke-linecap:butt;stroke-linejoin:miter;stroke-opacity:1"
       d="m 85.568288,115.27454 c 2.1177,-0.06 4.18851,-0.69404 6.30288,-0.88268 4.2722,0.0818 5.9336,-7.57652 6.0006,-8.43266 2.426472,2.93644 5.756632,5.32993 9.037532,7.31937 4.57337,0.92492 8.99023,-1.41114 12.94303,-3.46356 4.00611,-2.0533 7.43181,-5.18382 9.12496,-9.40019 0.81046,1.09208 1.63011,5.65443 3.85172,7.07347 3.04677,2.72091 5.44469,6.87934 9.64667,7.34514 l 12.46565,0.90374 -2.78,16.84665"
       id="path4706"
       sodipodi:nodetypes="cssssssssscsssssssssssssssssssssssscccccscscssssscssc" />
    <path
       style="fill:#552200;stroke:#000000;stroke-width:0.999999px;stroke-linecap:butt;stroke-linejoin:miter;stroke-opacity:1"
       d="m 59.580237,81.400943 c -0.497526,2.01278 0.09763,5.68919 1.236836,6.40903 0.999082,-1.90466 1.834584,-4.59026 2.79999,-5.99963"
       id="path7805" />
    <path
       style="fill:#552200;stroke:#000000;stroke-width:0.999999px;stroke-linecap:butt;stroke-linejoin:miter;stroke-opacity:1"
       d="m 56.862191,92.885593 c 1.094284,1.63435 0.923665,3.512927 1.514344,5.309657 2.254357,0.83341 3.544883,-3.715577 5.152057,-4.806247"
       id="path7807" />
    <path
       style="fill:#552200;stroke:#000000;stroke-width:0.999999px;stroke-linecap:butt;stroke-linejoin:miter;stroke-opacity:1"
       d="m 84.218725,49.00604 c 1.530809,0.25743 7.166181,2.796608 3.055171,2.946617 -1.770773,0.703385 -3.888518,0.114732 -5.58952,0.683166 -0.13571,-0.148413 -0.390216,0.07257 -0.441253,0.174741"
       id="path8537" />
    <path
       style="fill:#552200;stroke:#000000;stroke-width:0.999999px;stroke-linecap:butt;stroke-linejoin:miter;stroke-opacity:1"
       d="m 75.889717,57.297334 c 1.899335,0.206875 4.418335,1.450274 5.193819,2.77315 -2.357007,0.497292 -4.620005,1.600868 -7.127287,1.303719 -0.764851,-0.194189 -0.962908,0.277012 -1.547169,0.217742"
       id="path8539" />
    <path
       style="fill:#ffffff;stroke:#000000;stroke-width:0.999999px;stroke-linecap:butt;stroke-linejoin:miter;stroke-opacity:1"
       d="m 77.103964,49.341431 c -2.259129,0.142961 -5.95091,0.550733 -5.373996,3.71398 1.129882,4.245747 5.343195,0.04398 7.301229,-1.438569 1.500655,-1.857505 0.154806,-3.707707 -1.927233,-2.275411 z"
       id="path8551" />
    <path
       style="fill:#552200;stroke:#000000;stroke-width:1.00157;stroke-linecap:round;stroke-linejoin:miter;stroke-dasharray:none;stroke-opacity:1"
       d="m 74.432585,52.273862 c 1.014243,-0.577516 2.111596,-1.15317 3.048983,-1.351928"
       id="path8553" />
    <path
       style="font-variation-settings:normal;opacity:1;vector-effect:none;fill:#aaeeff;fill-opacity:1;stroke:#58abff;stroke-width:1px;stroke-linecap:butt;stroke-linejoin:miter;stroke-miterlimit:4;stroke-dasharray:none;stroke-dashoffset:0;stroke-opacity:1;-inkscape-stroke:none;stop-color:#000000;stop-opacity:1"
       d="m 124.92066,137.49733 c -3.6692,-0.18272 -7.71794,1.05415 -10.96197,-1.24407 -5.25234,-1.83338 -8.69292,-6.3287 -13.71526,-8.46012 -3.095205,-0.9951 -4.832704,-5.18197 -7.146708,-6.06713 -1.075218,5.62737 -4.37302,10.98586 -9.68993,13.49508 -5.887108,3.34917 -12.73477,6.1017 -19.608414,5.09038 -5.224724,-1.39078 -9.48087,-4.99861 -14.015036,-7.79605 -2.682614,-0.6414 -5.953829,-6.42906 -8.091437,-4.46235 1.062885,5.29831 -3.842594,10.01801 -8.981703,10.08833 -5.206304,0.3251 -10.6653,0.77131 -15.501611,-1.59264 -2.847221,-0.83834 -8.2805529,-4.24953 -8.7167469,-5.20523 1.0813864,3.91792 0.4623392,8.02499 -3.3000006,10.20287 -0.8216628,0.58944 -1.8751332,0.85341 -2.8727364,0.68297"
       id="path8630" />
  </g>
</svg>
