<?xml version="1.0" encoding="UTF-8" standalone="no"?>
<!-- Created with Inkscape (http://www.inkscape.org/) -->

<svg
   width="512"
   height="512"
   viewBox="0 0 135.46667 135.46667"
   version="1.1"
   id="svg5"
   inkscape:version="1.1 (c4e8f9e, 2021-05-24)"
   sodipodi:docname="paint-rightful-patch.svg"
   xmlns:inkscape="http://www.inkscape.org/namespaces/inkscape"
   xmlns:sodipodi="http://sodipodi.sourceforge.net/DTD/sodipodi-0.dtd"
   xmlns="http://www.w3.org/2000/svg"
   xmlns:svg="http://www.w3.org/2000/svg">
  <sodipodi:namedview
     id="namedview7"
     pagecolor="#ffffff"
     bordercolor="#666666"
     borderopacity="1.0"
     inkscape:pageshadow="2"
     inkscape:pageopacity="0.0"
     inkscape:pagecheckerboard="0"
     inkscape:document-units="mm"
     showgrid="false"
     inkscape:zoom="0.77771465"
     inkscape:cx="249.44882"
     inkscape:cy="230.16154"
     inkscape:window-width="1306"
     inkscape:window-height="942"
     inkscape:window-x="537"
     inkscape:window-y="440"
     inkscape:window-maximized="0"
     inkscape:current-layer="layer1"
     height="175mm"
     fit-margin-top="10"
     fit-margin-left="10"
     fit-margin-bottom="10"
     fit-margin-right="10"
     showborder="false"
     units="px"
     width="512px" />
  <defs
     id="defs2">
    <inkscape:path-effect
       effect="spiro"
       id="path-effect15143"
       is_visible="true"
       lpeversion="1" />
    <inkscape:path-effect
       effect="simplify"
       id="path-effect14793"
       is_visible="true"
       lpeversion="1"
       steps="1"
       threshold="0.00108696"
       smooth_angles="360"
       helper_size="0"
       simplify_individual_paths="false"
       simplify_just_coalesce="false" />
    <inkscape:path-effect
       effect="simplify"
       id="path-effect14721"
       is_visible="true"
       lpeversion="1"
       steps="1"
       threshold="0.00108696"
       smooth_angles="360"
       helper_size="0"
       simplify_individual_paths="false"
       simplify_just_coalesce="false" />
    <inkscape:path-effect
       effect="spiro"
       id="path-effect11234"
       is_visible="true"
       lpeversion="1" />
    <inkscape:path-effect
       effect="bspline"
       id="path-effect10601"
       is_visible="true"
       lpeversion="1"
       weight="33.333333"
       steps="2"
       helper_size="0"
       apply_no_weight="true"
       apply_with_weight="true"
       only_selected="false" />
    <inkscape:path-effect
       effect="bspline"
       id="path-effect10404"
       is_visible="true"
       lpeversion="1"
       weight="33.333333"
       steps="2"
       helper_size="0"
       apply_no_weight="true"
       apply_with_weight="true"
       only_selected="false" />
    <inkscape:path-effect
       effect="spiro"
       id="path-effect3846"
       is_visible="true"
       lpeversion="1" />
    <inkscape:path-effect
       effect="simplify"
       id="path-effect3844"
       is_visible="true"
       lpeversion="1"
       steps="1"
       threshold="0.00108696"
       smooth_angles="360"
       helper_size="0"
       simplify_individual_paths="false"
       simplify_just_coalesce="false" />
    <inkscape:path-effect
       effect="bspline"
       id="path-effect3452"
       is_visible="true"
       lpeversion="1"
       weight="33.333333"
       steps="2"
       helper_size="0"
       apply_no_weight="true"
       apply_with_weight="true"
       only_selected="false" />
    <inkscape:path-effect
       effect="bspline"
       id="path-effect3448"
       is_visible="true"
       lpeversion="1"
       weight="33.333333"
       steps="2"
       helper_size="0"
       apply_no_weight="true"
       apply_with_weight="true"
       only_selected="false" />
    <inkscape:path-effect
       effect="simplify"
       id="path-effect3444"
       is_visible="true"
       lpeversion="1"
       steps="1"
       threshold="0.00108696"
       smooth_angles="360"
       helper_size="0"
       simplify_individual_paths="false"
       simplify_just_coalesce="false" />
  </defs>
  <g
     inkscape:label="Layer 1"
     inkscape:groupmode="layer"
     id="layer1"
     transform="translate(-33.499858,-32.958492)">
    <path
       style="fill:#333333;fill-rule:evenodd;stroke-width:0.264583"
       id="path1949"
       sodipodi:type="arc"
       sodipodi:cx="67.701027"
       sodipodi:cy="92.876297"
       sodipodi:rx="25.175257"
       sodipodi:ry="20.412371"
       sodipodi:start="5.6733665"
       sodipodi:end="3.7910956"
       sodipodi:arc-type="arc"
       d="M 88.338489,81.185746 A 25.175257,20.412371 0 0 1 84.180565,108.30768 25.175257,20.412371 0 0 1 50.479392,107.76542 25.175257,20.412371 0 0 1 47.651842,80.531086"
       sodipodi:open="true" />
    <path
       style="fill:none;stroke:#000000;stroke-width:0.765;stroke-linecap:butt;stroke-linejoin:miter;stroke-miterlimit:4;stroke-dasharray:none;stroke-opacity:1"
       d="m 47.651845,81.211495 c -1.842463,0.26119 -3.75258,0.02872 -5.478611,-0.666773 -1.726031,-0.695493 -3.263698,-1.852285 -4.410349,-3.317919 -1.242113,-1.587652 -2.017866,-3.525052 -2.281192,-5.523587 -0.263326,-1.998536 -0.02047,-4.054059 0.637879,-5.95933 1.316703,-3.810542 4.264793,-6.932379 7.767025,-8.929454 3.855109,-2.198296 8.317352,-3.108415 12.738305,-3.495126 4.420953,-0.38671 8.87217,-0.282023 13.297715,-0.612053 8.275083,-0.617106 16.380613,-2.74701 24.654698,-3.377357 8.647745,-0.658813 17.352735,0.333166 25.855675,2.041239 2.84769,0.572045 5.69769,1.230273 8.36689,2.375671 2.66921,1.145398 5.16876,2.808689 6.9424,5.108864 2.30707,2.991964 3.23822,6.945114 2.77702,10.695007 -0.4612,3.749893 -2.25719,7.279922 -4.81826,10.05757 -3.26532,3.541454 -7.78329,5.851092 -12.53466,6.644016 -4.75136,0.792925 -9.60984,0.04191 -14.34163,-0.860511 L 88.338492,81.866155"
       id="path3842"
       inkscape:path-effect="#path-effect3844;#path-effect3846"
       inkscape:original-d="m 47.651845,81.211495 -9.88896,-3.984692 6.123712,-20.412371 25.855671,-4.082474 24.835047,-3.402062 25.855675,2.041239 15.30929,7.484535 -2.04124,20.752577 -26.87629,5.783505 -18.486258,-3.525597"
       sodipodi:nodetypes="cccccccccc" />
    <ellipse
       style="fill:#ba864b;fill-opacity:1;stroke-width:0.506788;stroke-miterlimit:4;stroke-dasharray:none"
       id="path7036"
       cx="15.810457"
       cy="172.67978"
       rx="40.659763"
       ry="3.3973348"
       transform="matrix(0.67198103,-0.74056836,0.75313339,0.65786785,0,0)" />
    <path
       style="fill:#c7c7c7;fill-opacity:1;stroke-width:0.60226;stroke-miterlimit:4;stroke-dasharray:none"
       id="path9372"
       transform="matrix(0.69073777,-0.72310534,0.63261553,0.77446601,0,0)"
       sodipodi:type="arc"
       sodipodi:cx="13.381654"
       sodipodi:cy="174.14868"
       sodipodi:rx="9.2350283"
       sodipodi:ry="2.7730632"
       sodipodi:start="0.90578183"
       sodipodi:end="5.2590291"
       sodipodi:arc-type="arc"
       d="M 19.080318,176.33083 A 9.2350283,2.7730632 0 0 1 6.8471305,176.10822 9.2350283,2.7730632 0 0 1 6.1221777,172.43458 9.2350283,2.7730632 0 0 1 18.182205,171.77972"
       sodipodi:open="true" />
    <path
       style="fill:#5f543a;fill-opacity:1;stroke:#000000;stroke-width:0.264583px;stroke-linecap:butt;stroke-linejoin:miter;stroke-opacity:1"
       d="m 118.39176,127.23711 c -0.78506,-1.0661 -1.84485,-1.92811 -3.04848,-2.47961 -1.20364,-0.5515 -2.54853,-0.79127 -3.86859,-0.68973 -1.32007,0.10154 -2.61246,0.54419 -3.71759,1.27329 -1.10513,0.72909 -2.0206,1.74306 -2.63338,2.91668 l -4.42268,15.98969 15.64949,-5.78351 c 1.78561,-1.1606 3.06138,-3.0778 3.44234,-5.17309 0.38096,-2.09529 -0.13831,-4.33887 -1.40111,-6.05372 z"
       id="path11232"
       inkscape:path-effect="#path-effect11234"
       inkscape:original-d="m 118.39176,127.23711 c 6.67757,-3.45134 -11.33821,-2.83904 -13.26804,1.02063 l -4.42268,15.98969 15.64949,-5.78351 c 0,0 -1.89286,-9.19345 2.04123,-11.22681 z"
       sodipodi:nodetypes="ssccs" />
    <path
       style="fill:#005aff;fill-opacity:1;stroke-width:0.765;stroke-miterlimit:4;stroke-dasharray:none"
       id="path14832"
       d="m 102.06277,137.18665 c 0.0515,0.6155 -0.084,1.2302 -0.29395,1.80621 -0.18058,0.66806 -0.45958,1.29776 -0.71978,1.93664 -0.17005,0.64583 -0.44716,1.25686 -0.60156,1.90658 -0.18298,0.54467 -0.464995,1.11693 -0.25878,1.68332 0.19323,0.19077 0.22028,0.26763 0.47901,0.34578 0.22161,0.0669 0.56025,0.0631 0.7681,-0.0518 1.20824,-0.66756 2.39849,-1.36718 3.59773,-2.05077 0.43165,-0.26946 0.7091,-0.70151 1.16358,-0.93809 -5.95292,3.14325 -3.37592,2.00102 -2.04545,1.27383 1.50565,-0.78269 0.0927,-0.0428 3.88388,-2.25395 0.19978,-0.11652 0.79409,-0.47448 0.59349,-0.35938 -3.47295,1.99283 -4.02876,2.26941 -2.70879,1.59548 1.71129,-0.79837 3.27886,-1.80154 4.91903,-2.76264 1.5253,-0.95638 -3.90169,2.26556 -2.929,1.69448 1.1896,-0.69843 2.38263,-1.39099 3.57511,-2.08448 0.20844,-0.12122 0.34207,-0.16142 0.41003,-0.39813 -0.22699,-0.58654 -0.88243,-0.52647 -1.40749,-0.68047 -0.58089,-0.2372 -1.14496,-0.50281 -1.73467,-0.71857 -0.59642,-0.18432 -1.13542,-0.49548 -1.68037,-0.79161 -1.49728,-0.68361 -1.85016,0.55533 -3.94247,1.8864 -0.0872,0.0555 -0.0845,0.63119 -0.0954,0.73583 0.033,0.54458 -0.0715,1.05493 -0.18457,1.58236 -0.14591,0.59873 -0.10198,1.09649 0.40537,1.48708 0.48949,0.227 0.95154,0.002 1.42482,-0.14468 0.50092,-0.19136 1.02,-0.33918 1.51931,-0.53514 0.49673,-0.21565 1.03131,-0.29199 1.56576,-0.34145 0.5679,-0.007 1.11866,-0.14813 1.66816,-0.27656 0.50428,-0.12106 0.92739,-0.42604 1.41136,-0.59828 0.57387,-0.20905 1.17676,-0.31684 1.75647,-0.50398 0.0269,-0.0625 1.1418,-0.23583 1.11906,-0.28664 -0.0316,-0.0707 -0.0938,-0.1233 -0.14066,-0.18495 5.03205,-3.20771 3.95152,-2.01897 2.03485,-1.88172 -0.63855,0.0497 -1.27811,-0.0633 -1.89823,-0.20796 -0.52554,-0.17304 -1.03493,-0.33657 -1.59028,-0.25986 -0.56439,0.20783 -1.08431,0.49454 -1.66559,0.6594 -0.63388,0.14464 -1.28598,0.19265 -1.93435,0.16389 -0.47532,-0.0386 -0.91786,-0.19055 -1.35935,-0.35788 0,0 -3.26193,2.1998 -3.26193,2.1998 v 0 c 0.47271,0.1658 0.9267,0.37779 1.43297,0.42527 0.66523,0.10345 1.34279,0.0423 2.00696,-0.0545 0.5966,-0.11563 1.13951,-0.31703 1.66546,-0.61979 0.48561,-0.27452 0.96868,-0.115 1.4677,0.062 0.62625,0.20745 1.32094,0.29068 1.9761,0.31158 2.25465,-0.0782 1.60212,-0.11784 4.66625,-2.28059 -0.049,-0.0874 -0.0808,-0.18698 -0.14694,-0.26231 -0.14193,-0.16175 -1.04638,0.15749 -1.27105,0.16419 -0.57474,0.20005 -1.16208,0.31413 -1.73674,0.51703 -0.52833,0.1043 -0.94492,0.36505 -1.42192,0.59699 -0.50898,0.18305 -1.07651,0.29234 -1.61151,0.34153 -0.55235,0.0232 -1.11011,0.0751 -1.63919,0.24447 -0.16324,0.0649 -0.3157,0.15637 -0.4819,0.2132 -0.33733,0.11535 -0.70985,0.14015 -1.01047,0.359 -0.43147,0.0961 -0.80535,0.30599 -1.23766,0.36609 -0.47195,-0.0427 -0.21731,-0.74396 -0.17231,-1.02764 0.11035,-0.53369 0.1476,-1.06774 0.183,-1.61026 0.0229,-0.12264 0.0402,-0.28685 0.11233,-0.39604 0.0273,-0.0412 0.15707,-0.11886 0.11365,-0.0952 -1.1079,0.6028 -2.20639,1.22274 -3.30958,1.83411 0.15668,-0.13463 0.0617,-0.1003 0.29524,-0.0686 0.56818,0.28031 1.10214,0.63373 1.71282,0.8207 0.5835,0.23967 1.18162,0.43852 1.74389,0.73107 0.13342,0.0522 1.27239,0.55548 1.0092,0.0682 -0.11813,0.0315 -0.89484,0.50662 -0.43471,0.24503 6.63333,-3.7711 1.55018,-0.95505 -0.64039,0.39794 5.95388,-3.4048 3.212,-1.7958 1.80566,-1.10995 -0.87433,0.35815 -9.192395,5.2438 -1.51514,0.84885 0.0809,-0.0463 -0.16046,0.095 -0.24069,0.14253 -1.62936,0.73688 -3.03276,1.96394 -4.69591,2.61964 -0.38316,0.31694 -0.72345,0.69079 -1.17033,0.92408 8.43872,-4.76434 3.18992,-1.3363 2.2917,-1.57192 -0.12971,-0.48095 0.2661,-1.00259 0.33935,-1.46779 0.18033,-0.6235 0.39724,-1.23794 0.60855,-1.8511 0.27116,-0.64473 0.5153,-1.29841 0.7129,-1.96986 0.18174,-0.65639 0.31163,-1.33532 0.23192,-2.01883 0,0 -3.48163,1.88279 -3.48163,1.88279 z" />
    <path
       style="fill:#005aff;fill-opacity:1;stroke:#000000;stroke-width:0.0576861px;stroke-linecap:butt;stroke-linejoin:miter;stroke-opacity:1"
       d="m 100.6138,153.51013 c 0.28525,0.0633 0.587,0.0506 0.86591,-0.0365 0.27891,-0.0871 0.53432,-0.24826 0.73291,-0.46258 0.19859,-0.21431 0.3399,-0.48124 0.4055,-0.76596 0.0656,-0.28473 0.0553,-0.58657 -0.0295,-0.86618 l -1.48817,-3.39193 -1.701175,3.29847 c -0.165389,0.44883 -0.127226,0.96833 0.101976,1.38817 0.229202,0.41985 0.645539,0.73289 1.112519,0.8365 z"
       id="path15139"
       inkscape:path-effect="#path-effect15143"
       inkscape:original-d="m 100.6138,153.51013 c -0.59098,1.57597 2.19663,-1.18531 1.97485,-2.13121 l -1.48817,-3.39193 -1.701175,3.29847 c 0,0 1.562675,1.29619 1.214495,2.22467 z"
       sodipodi:nodetypes="ssccs" />
    <path
       style="fill:#005aff;fill-opacity:1;stroke-width:0.765;stroke-miterlimit:4;stroke-dasharray:none"
       id="path15214"
       d="m 52.653967,98.122389 c 0.99609,-0.0263 1.992839,-0.03093 2.989262,-0.03684 1.028711,-0.04135 2.042658,0.153842 3.062978,0.24656 1.009963,0.07462 2.02292,0.09115 3.035144,0.106831 1.05147,-0.02648 2.092169,0.141547 3.136498,0.234034 0.967473,0.08071 1.938692,0.09815 2.909033,0.102841 1.153872,-0.03326 2.30025,0.128355 3.446264,0.237668 1.099034,0.102311 2.204709,0.08362 3.307292,0.09553 0.974513,0.01344 1.949079,0.01643 2.923661,0.01262 0.834628,-2.64e-4 1.669249,0.0039 2.503874,0.0061 1.736072,0.02867 4.239469,-0.286877 4.894456,-2.236473 -0.08113,-0.577159 -0.540592,-0.893979 -0.987661,-1.204891 -0.670581,-0.325564 -1.23943,-0.802957 -1.755526,-1.333844 -0.554453,-0.587716 -0.954712,-1.294169 -1.356577,-1.989315 -0.36381,-0.600792 -0.825336,-1.128376 -1.307745,-1.634971 -0.53943,-0.603091 -1.139979,-1.132872 -1.790661,-1.611926 -1.65322,-1.003144 -0.888053,-0.522436 -3.950898,1.828286 -0.01019,0.0078 0.168735,0.149334 0.440274,0.367798 0.695024,0.45621 1.295215,1.022207 1.861093,1.626661 0.516757,0.442134 0.835255,1.024281 1.197364,1.586039 0.476877,0.667361 1.004255,1.300673 1.543608,1.918504 0.496467,0.544605 1.042522,1.039718 1.564931,1.558499 0.468204,0.489752 1.052819,0.842116 1.535107,1.315723 0.2887,0.375513 -0.03318,0.573373 -0.382429,0.703087 -1.116745,0.74594 -2.831076,1.75508 2.649575,-1.519615 0.08452,-0.0505 -0.18074,0.07825 -0.272312,0.114419 -0.638313,0.252122 0.09299,-0.05525 -0.525544,0.208979 -0.49107,0.192701 -0.984213,0.389339 -1.452325,0.633539 -0.5711,0.238548 -1.164497,0.415131 -1.73687,0.654778 -2.330847,1.1859 -8.747779,5.05674 -1.845567,1.03597 -1.201203,0.70111 -2.401821,1.40322 -3.603614,2.10332 -0.08159,0.0475 -0.328131,0.18708 -0.246526,0.13957 1.038921,-0.60491 4.180583,-2.37496 3.118488,-1.81174 -1.221902,0.64796 -2.382899,1.40591 -3.598222,2.06613 -1.062898,0.57742 2.095957,-1.20817 3.140805,-1.81764 0.0746,-0.0435 -0.153215,0.0798 -0.229825,0.11963 -0.106265,0.0524 -0.21622,0.0978 -0.318797,0.15704 -1.229336,0.71015 -2.459072,1.41988 -3.67621,2.15074 -0.157459,0.0945 -0.559703,0.44902 -0.698712,0.55585 -0.342371,0.26309 -0.366646,0.26142 -0.733266,0.47314 0.994008,-0.58159 1.991317,-1.15757 2.982028,-1.74476 0.194554,-0.11531 -0.40382,0.2042 -0.600212,0.31635 -1.19339,0.68147 -2.395141,1.34876 -3.575635,2.05235 -0.339524,0.20236 0.03231,0.10767 -0.148537,0.14777 0.104161,0.15428 0.179478,0.33261 0.312481,0.46285 0.05155,0.0505 0.436351,-0.14138 0.477742,-0.16555 3.403611,-1.9872 2.403864,-1.3563 3.742955,-2.20549 0.162306,-0.21362 0.388829,-0.33822 0.614037,-0.4734 0.08643,-0.0519 0.346951,-0.20541 0.259781,-0.15479 -6.367576,3.69783 -1.712013,1.00177 0.512133,-0.284 -7.360431,4.28552 -0.515628,0.29127 0.545981,-0.28642 1.045405,-0.56888 -4.088913,2.43593 -3.090328,1.78839 1.120735,-0.72676 2.758006,-1.65401 4.112019,-2.42535 0.661339,-0.36285 1.184809,-0.88984 1.738667,-1.38492 0.390758,-0.50464 0.937495,-0.84935 1.400873,-1.276434 0.489162,-0.341789 0.894803,-0.78168 1.346587,-1.166588 1.24841,-0.900824 -0.674619,0.495052 -3.130759,1.801372 -0.128331,0.0683 2.64e-4,-0.27035 -0.289645,-0.335614 -0.02532,-0.0057 -0.100751,0.202574 -0.163692,0.364364 -0.311539,0.44569 -0.616924,0.88513 -0.895829,1.35477 -0.362345,0.42698 -0.780675,0.80146 -1.183609,1.18899 0.443365,-0.1121 -1.048845,0.72401 -0.678553,0.50963 3.362992,-1.94704 4.245542,-2.37344 2.928266,-1.72683 -0.571019,0.21971 -1.128776,0.46959 -1.684298,0.72531 -1.195684,0.70863 -2.393384,1.41386 -3.587051,2.12589 -0.491229,0.29301 -0.645375,0.44117 -0.249172,0.92352 0.05885,0.0192 0.114922,0.0518 0.176549,0.0575 0.181925,0.017 0.44823,-0.0623 0.60325,-0.15061 1.195628,-0.68071 2.367343,-1.40357 3.573306,-2.0658 1.05713,-0.5805 -2.084451,1.2137 -3.126674,1.82055 9.846696,-5.736975 0.353073,-0.21248 0.533485,-0.31189 1.226436,-0.67583 2.428248,-1.39547 3.636809,-2.10277 0.255942,-0.14979 0.47167,-0.35395 0.724244,-0.51064 1.143328,-0.72926 2.898783,-1.80071 -2.52943,1.45543 -0.09155,0.0549 0.195114,-0.0872 0.295532,-0.12348 0.153315,-0.0554 0.487619,-0.14382 0.640344,-0.18582 0.573784,-0.1478 1.119518,-0.38278 1.640999,-0.6611 1.469469,-0.77604 0.685866,-0.35716 3.8936,-2.26772 0.09861,-0.0587 0.470329,-0.32341 0.424876,-0.504055 -0.0249,-0.09893 -0.0985,-0.178673 -0.147754,-0.268009 -0.07158,-0.05613 -0.128106,-0.140648 -0.214736,-0.168387 -0.107431,-0.0344 -0.209587,0.08516 -0.307795,0.140661 -1.194189,0.67487 -2.347846,1.42576 -3.577722,2.03316 -1.096076,0.54133 4.079663,-2.657352 3.175564,-1.83454 -1.023832,0.93178 -2.361444,1.44546 -3.542165,2.16818 -0.461018,0.38917 -0.931265,0.80095 -1.451727,1.11236 -0.539887,0.35872 -1.063307,0.73664 -1.62116,1.0681 -0.436084,0.26827 -0.840179,0.58148 -1.277713,0.84634 0,0 3.643707,-1.41794 3.643707,-1.41794 v 0 c 0.421405,-0.2851 0.839568,-0.5754 1.275797,-0.83779 0.552979,-0.35073 1.086448,-0.73018 1.633469,-1.09006 0.495128,-0.37175 0.996048,-0.74245 1.435587,-1.18 -8.215485,4.68498 0.148211,-0.0802 0.413906,-0.2506 1.037627,-0.66537 -2.15242,1.20222 -3.217066,1.82343 -0.04258,0.0248 0.693547,-0.22325 0.222446,-0.3458 -0.02643,-0.0642 -0.03222,-0.14166 -0.07932,-0.19272 -0.01638,-0.0178 -0.03198,0.0365 -0.05067,0.0518 -0.04352,0.0356 -0.08937,0.0684 -0.135456,0.10058 -0.08293,0.058 -0.339614,0.21971 -0.251518,0.16994 2.431113,-1.37351 4.147238,-2.412961 2.825665,-1.61445 -0.530526,0.25297 -1.032975,0.5889 -1.611495,0.72664 -0.295653,0.0953 -0.696872,0.11393 -0.968576,0.26115 -1.421759,0.77038 -2.859241,1.5065 -4.193495,2.41624 -0.157284,0.11338 -0.31904,0.23252 -0.481028,0.3393 -0.07938,0.0523 -0.324141,0.19877 -0.241477,0.1518 1.026771,-0.58343 4.098851,-2.34814 3.074027,-1.7613 -1.865001,1.06794 -7.283,4.17318 -0.525587,0.30053 -1.203513,0.69251 -2.434429,1.33945 -3.610544,2.07755 -1.037315,0.65099 2.132833,-1.20433 3.193799,-1.81602 0.11571,-0.0667 -0.22746,0.14153 -0.349105,0.19668 -0.04996,0.0226 -0.112501,0.008 -0.161086,0.0337 -0.03032,0.0159 -0.04061,0.0551 -0.06092,0.0827 0.02056,0.075 0.01291,0.21814 0.09066,0.2151 0.03737,-0.002 0.06268,-0.0409 0.09337,-0.0622 1.109686,-0.77275 2.579365,-1.90536 -2.708841,1.49628 0.500581,-0.33926 1.099254,-0.51713 1.646862,-0.76808 1.679548,-0.49117 3.239143,-1.48409 4.481605,-2.70914 0.410445,-0.39517 0.83082,-0.79174 1.139568,-1.27471 0.305607,-0.461669 0.627139,-0.914524 0.898422,-1.39746 0.182491,-0.288364 0.297413,-0.293519 0.131069,-0.686401 -0.02653,-0.06265 -0.07369,-0.184277 -0.134421,-0.153609 -1.199058,0.60548 -2.342888,1.314857 -3.503721,1.990738 -0.05468,0.03184 -0.0923,0.08658 -0.138446,0.129868 -0.426448,0.409024 -0.891464,0.774144 -1.342054,1.155964 -0.491615,0.4005 -0.962922,0.82207 -1.395045,1.28693 -0.534117,0.50836 -1.128191,0.94202 -1.767988,1.31006 -0.09629,0.0605 -0.193646,0.11925 -0.288856,0.1814 -0.0782,0.051 -0.312632,0.20393 -0.23128,0.15808 1.043381,-0.58805 4.154397,-2.38579 3.118207,-1.78516 -11.980032,6.9443 7.846647,-4.545257 -4.175744,2.37765 1.040865,-0.59587 4.168034,-2.37541 3.122596,-1.78761 -1.595496,0.89708 -3.123485,1.61619 -4.515069,2.71937 -1.185313,0.84034 -0.41343,0.28386 3.014122,-1.69901 0.188138,-0.10884 -1.552874,0.78898 -0.169285,0.69536 0.01831,-0.0456 0.16193,-0.11106 0.119372,-0.0865 -5.619176,3.24292 -3.771241,2.17705 -2.548459,1.48015 1.230752,-0.70144 2.463234,-1.39983 3.694851,-2.09975 0.369787,-0.25016 0.713912,-0.5275 1.075438,-0.78872 0.118171,-0.0854 0.488429,-0.31778 0.361074,-0.24681 -2.203878,1.228 -4.078065,2.37408 -2.724904,1.54918 1.524366,-0.55211 0.584653,-0.1953 3.845365,-2.1584 1.035002,-0.62312 -4.211749,2.36855 -3.146796,1.79813 1.223045,-0.6551 2.416292,-1.36439 3.62122,-2.05224 0.08175,-0.0467 0.320381,-0.19769 0.23854,-0.15117 -1.037952,0.58997 -2.071425,1.18778 -3.107137,1.78167 1.210765,-0.6981 2.424867,-1.39044 3.632296,-2.0943 0.09607,-0.056 0.374615,-0.23944 0.277659,-0.18497 -1.019858,0.57299 -2.033268,1.15741 -3.047127,1.74095 -0.216273,0.12448 0.871958,-0.46701 0.647724,-0.37535 0.103579,-0.0529 0.207158,-0.10582 0.310734,-0.15874 0.573471,-0.22734 1.130028,-0.49973 1.741242,-0.61669 0.473432,-0.23394 0.936551,-0.49462 1.438873,-0.66083 1.724154,-0.69847 3.382261,-1.586442 4.899776,-2.680156 0.418685,-0.453583 0.455922,-0.801703 0.06165,-1.311997 -0.480121,-0.479687 -1.066514,-0.833946 -1.546088,-1.31422 -0.528822,-0.499856 -1.0503,-1.00857 -1.561039,-1.526693 -0.535916,-0.591704 -1.045223,-1.215348 -1.504315,-1.868781 -0.367913,-0.588648 -0.696393,-1.198372 -1.232479,-1.658636 -0.593119,-0.588749 -1.195972,-1.166752 -1.873438,-1.659747 -0.153485,-0.142084 -0.341849,-0.316519 -0.342035,-0.316413 -4.85594,2.729008 -4.361021,1.541031 -2.762316,2.28264 0.641461,0.447005 1.209842,0.979358 1.737389,1.55589 0.456311,0.491567 0.908765,0.991891 1.263746,1.564013 0.439896,0.70467 0.84207,1.440212 1.409316,2.054778 0.506804,0.556464 1.099304,1.092597 1.778198,1.424919 0.137105,0.08717 0.82218,0.493694 0.653265,0.659971 -1.260936,0.523645 0.27193,-0.108466 3.161363,-1.773714 0.07302,-0.04208 -0.159946,0.05362 -0.24152,0.07481 -0.336365,0.08738 -0.666485,0.06978 -1.011758,0.06624 -0.841579,0.0026 -1.683147,0.0076 -2.524729,0.0087 -0.982839,-0.0021 -1.965626,0.0044 -2.94845,0.0088 -1.089287,-0.0021 -2.179106,-0.015 -3.266353,-0.08796 -1.155827,-0.08485 -2.30814,-0.2409 -3.467097,-0.259246 -0.96361,-0.0099 -1.928048,-0.0145 -2.889877,-0.08063 -1.049113,-0.08144 -2.094227,-0.238617 -3.145539,-0.263112 -1.007398,-0.0016 -2.015693,-0.0084 -3.021068,-0.07928 -1.039929,-0.08736 -2.073963,-0.279554 -3.120646,-0.246518 -0.96261,-0.0058 -1.925611,-0.0099 -2.887853,-0.03684 0,0 -3.203189,2.327254 -3.203189,2.327254 z" />
  </g>
</svg>
