<?xml version="1.0" encoding="UTF-8" standalone="no"?>
<!-- Created with Inkscape (http://www.inkscape.org/) -->

<svg
   xmlns:dc="http://purl.org/dc/elements/1.1/"
   xmlns:cc="http://creativecommons.org/ns#"
   xmlns:rdf="http://www.w3.org/1999/02/22-rdf-syntax-ns#"
   xmlns:svg="http://www.w3.org/2000/svg"
   xmlns="http://www.w3.org/2000/svg"
   xmlns:sodipodi="http://sodipodi.sourceforge.net/DTD/sodipodi-0.dtd"
   xmlns:inkscape="http://www.inkscape.org/namespaces/inkscape"
   width="155px"
   height="155px"
   viewBox="0 0 155 155"
   version="1.1"
   id="SVGRoot"
   inkscape:version="0.92.4 (5da689c313, 2019-01-14)"
   sodipodi:docname="handsome-boom-mall.svg">
  <defs
     id="defs815" />
  <sodipodi:namedview
     id="base"
     pagecolor="#ffffff"
     bordercolor="#666666"
     borderopacity="1.0"
     inkscape:pageopacity="0.0"
     inkscape:pageshadow="2"
     inkscape:zoom="4.6714667"
     inkscape:cx="80.079675"
     inkscape:cy="85.955944"
     inkscape:document-units="px"
     inkscape:current-layer="layer1"
     showgrid="false"
     inkscape:window-width="1920"
     inkscape:window-height="1151"
     inkscape:window-x="0"
     inkscape:window-y="0"
     inkscape:window-maximized="1"
     inkscape:grid-bbox="true"
     inkscape:snap-global="false" />
  <metadata
     id="metadata818">
    <rdf:RDF>
      <cc:Work
         rdf:about="">
        <dc:format>image/svg+xml</dc:format>
        <dc:type
           rdf:resource="http://purl.org/dc/dcmitype/StillImage" />
        <dc:title></dc:title>
      </cc:Work>
    </rdf:RDF>
  </metadata>
  <g
     inkscape:label="Layer 1"
     inkscape:groupmode="layer"
     id="layer1">
    <path
       id="path1373"
       style="fill:#703217;fill-opacity:1;fill-rule:nonzero;stroke:#000000;stroke-width:1px;stroke-linecap:butt;stroke-linejoin:miter;stroke-opacity:1"
       d="M 132.72062,149.64836 C 113.48179,134.58465 111.23397,107.93535 109.0813,85.376826 108.95843,79.888599 109.59788,72.325961 111.52814,67.159722 97.231702,46.758662 79.862044,41.943194 57.583627,62.022149 c 9.766254,18.533444 0.555013,40.926681 -5.108381,59.122861 -3.90858,15.53169 -19.53134,22.07028 -32.781218,27.86116"
       inkscape:connector-curvature="0"
       sodipodi:nodetypes="cccccc" />
    <path
       style="fill:none;stroke:#000000;stroke-width:1px;stroke-linecap:butt;stroke-linejoin:miter;stroke-opacity:1"
       d="M 98.898274,106.40713 C 97.373169,101.45632 99.15435,96.127975 97.466112,91.199722 96.74547,87.046043 94.063972,83.365139 94.24585,79.03322 94.115943,76.251418 93.908987,73.333039 94.831029,70.658181"
       id="path1429"
       inkscape:connector-curvature="0" />
    <path
       style="fill:#e1830d;fill-opacity:1;stroke:none;stroke-width:1px;stroke-linecap:butt;stroke-linejoin:miter;stroke-opacity:1"
       d="M 140.85511,63.594018 77.491721,60.811167 20.55029,45.826579 18.837766,13.71675 32.752026,9.0073088 66.360314,12.860488 78.133918,9.4354398 113.66879,22.493437 Z"
       id="path1418"
       inkscape:connector-curvature="0" />
    <path
       style="fill:none;stroke:#000000;stroke-width:1px;stroke-linecap:butt;stroke-linejoin:miter;stroke-opacity:1"
       d="m 80.702704,108.33372 c 1.21917,-5.27806 3.508689,-10.370298 3.495005,-15.876018 0.421868,-3.392545 0.966869,-6.76966 1.235048,-10.178753 0.521088,-2.997394 1.050534,-6.015777 0.835651,-9.069632 0,-0.279537 0,-0.559075 0,-0.838612"
       id="path1431"
       inkscape:connector-curvature="0" />
    <path
       id="path1385"
       style="fill:#e1830d;fill-opacity:1;stroke:#000000;stroke-width:1px;stroke-linecap:butt;stroke-linejoin:miter;stroke-opacity:1"
       d="m 64.219658,8.5791777 c 9.531608,-11.1244279 19.315091,6.9050063 28.273647,-3.5535812 9.313425,-0.9341647 11.438855,8.1816445 20.598965,4.3169521 6.88234,-0.1334879 13.23908,11.3761794 5.0719,14.0071504 M 21.406552,12.432357 C 25.052125,11.153602 -3.053597,13.592555 9.6501293,24.403389 11.799296,26.197267 2.0972691,37.56072 12.036523,41.92051 c 10.61485,6.974765 -0.463537,1.452646 -2.6176397,6.902986 -0.3832378,9.425787 10.0951777,12.581409 17.6833677,10.962856 9.802318,-6.063112 12.686255,0.951297 21.265158,5.003296 10.420212,-5.430166 27.082994,7.928544 32.763426,-5.262875 m 63.791525,1.712525 c 1.92492,18.89812 -21.06933,3.666579 -26.85966,10.175842 -12.35628,0.29419 -19.583362,-14.785905 -32.171099,-6.054254 -3.23931,0.548199 -7.933836,-2.1778 -4.760766,-5.834113 M 93.546636,18.212126 c 7.987974,-7.464764 19.883594,-0.670441 23.485044,5.199688 9.24019,-4.896654 34.83185,2.327186 23.47589,13.78478 -1.573,3.685892 23.47931,19.039021 7.38148,24.19643 -3.30254,-0.402423 -6.97357,1.282059 -10.03085,-0.581857 M 37.461467,43.043728 C 21.345748,46.625341 13.692236,25.100916 23.665801,14.54117 27.641581,2.5323846 40.675549,-0.12243959 48.284245,9.2665907 57.687876,12.237007 77.208698,1.3406197 78.347983,16.927733"
       inkscape:connector-curvature="0"
       sodipodi:nodetypes="cccccccccccccccccccccccc" />
    <path
       style="fill:none;stroke:#000000;stroke-width:1px;stroke-linecap:butt;stroke-linejoin:miter;stroke-opacity:1"
       d="m 63.577462,115.18381 c 1.6183,-3.82932 4.319847,-7.15724 5.371856,-11.23448 0.975633,-3.22285 2.532471,-6.210639 3.85026,-9.292224 0.743083,-2.216429 1.601736,-4.398022 2.531549,-6.531468 1.257697,-3.759515 2.035642,-7.682055 1.952121,-11.65892 0.258888,-2.127815 -0.333977,-4.007716 -0.860879,-6.025839 -0.149399,-0.560338 -0.409612,-1.111148 -0.85724,-1.495222"
       id="path1433"
       inkscape:connector-curvature="0" />
    <path
       style="fill:#e6f9fa;fill-opacity:1;stroke:#000000;stroke-width:1px;stroke-linecap:butt;stroke-linejoin:miter;stroke-opacity:1"
       d="m 107.88902,147.50771 c -0.28542,-0.21407 -0.60398,-0.38992 -0.85626,-0.6422 -0.0505,-0.0505 0.0319,-0.15024 0,-0.21406 -0.48985,-0.9797 0.0887,0.90837 -0.42813,-0.6422 -0.0226,-0.0677 0.0226,-0.14637 0,-0.21407 -0.0505,-0.15136 -0.16361,-0.27676 -0.21407,-0.42813 -0.0226,-0.0677 0.0226,-0.14637 0,-0.21406 -0.51685,-1.55057 0.0617,0.3375 -0.42813,-0.6422 -0.0319,-0.0638 0.0319,-0.15024 0,-0.21406 -0.0451,-0.0903 -0.16893,-0.12381 -0.21406,-0.21407 -0.0319,-0.0638 0.0319,-0.15024 0,-0.21406 -0.0451,-0.0903 -0.18216,-0.11834 -0.21407,-0.21407 -0.0451,-0.13539 0.0451,-0.29274 0,-0.42813 -0.0319,-0.0957 -0.15809,-0.1301 -0.21406,-0.21407 -0.37409,-0.56113 -0.08,-0.37409 -0.42813,-1.07032 -0.11506,-0.23012 -0.31308,-0.41209 -0.42814,-0.6422 -0.0319,-0.0638 0.0319,-0.15024 0,-0.21407 -0.50542,-1.01085 0.11258,1.30658 -0.42813,-0.85626 -0.0173,-0.0692 0.0319,-0.15024 0,-0.21406 -0.0451,-0.0903 -0.15809,-0.13011 -0.21406,-0.21407 -0.0885,-0.13276 -0.14271,-0.28542 -0.21407,-0.42813 -0.0714,-0.14271 -0.16361,-0.27676 -0.21406,-0.42813 -0.0226,-0.0677 0.0226,-0.14637 0,-0.21407 -0.0505,-0.15136 -0.16361,-0.27676 -0.21407,-0.42813 -0.0451,-0.13539 0.0638,-0.30049 0,-0.42813 -0.0451,-0.0903 -0.15809,-0.1301 -0.21406,-0.21407 -0.6233,-0.93494 0.0949,0.0706 -0.21407,-0.85626 -0.0319,-0.0957 -0.16894,-0.12381 -0.21407,-0.21406 -0.0319,-0.0638 0,-0.14271 0,-0.21407 -0.0714,-0.0713 -0.16893,-0.12381 -0.21406,-0.21406 -0.0319,-0.0638 0,-0.14271 0,-0.21407 0,-0.14271 0.0451,-0.29274 0,-0.42813 -0.0319,-0.0957 -0.16894,-0.12381 -0.21407,-0.21407 -0.0476,-0.0953 0.0326,-0.75835 0,-0.85626 -0.0319,-0.0957 -0.15809,-0.1301 -0.21406,-0.21406 -0.72095,-1.08142 -0.002,-0.005 -0.21407,-0.6422 -0.0504,-0.15137 -0.16361,-0.27676 -0.21406,-0.42813 -0.0642,-0.19266 0.0642,-0.44954 0,-0.6422 -0.0319,-0.0957 -0.16894,-0.12381 -0.21407,-0.21406 -0.0319,-0.0638 0.0226,-0.14638 0,-0.21407 -0.0504,-0.15137 -0.16361,-0.27676 -0.21406,-0.42813 -0.0451,-0.13539 0.0451,-0.29274 0,-0.42813 -0.10092,-0.30274 -0.32722,-0.55353 -0.42814,-0.85626 -0.0226,-0.0677 0.0319,-0.15025 0,-0.21407 -0.0451,-0.0903 -0.16893,-0.12381 -0.21406,-0.21406 -0.0638,-0.12765 0.0451,-0.29275 0,-0.42814 -0.0505,-0.15136 -0.16361,-0.27676 -0.21407,-0.42813 -0.0226,-0.0677 0.0319,-0.15024 0,-0.21406 -0.0451,-0.0903 -0.16893,-0.12381 -0.214056,-0.21407 -0.0673,-0.13454 0.0673,-0.72171 0,-0.85626 -0.0451,-0.0903 -0.16894,-0.12381 -0.214068,-0.21407 -0.03191,-0.0638 0.02257,-0.14637 0,-0.21406 -0.05045,-0.15137 -0.163609,-0.27676 -0.214065,-0.42813 -0.02257,-0.0677 0.01399,-0.1441 0,-0.21407 -0.0577,-0.28849 -0.156367,-0.56777 -0.214066,-0.85626 -0.01399,-0.07 0.01731,-0.14484 0,-0.21406 -0.05473,-0.21891 -0.169813,-0.42094 -0.214065,-0.6422 -0.02799,-0.13994 0.04513,-0.29275 0,-0.42813 -0.03191,-0.0957 -0.182155,-0.11834 -0.214066,-0.21407 -0.04513,-0.13539 0,-0.28542 0,-0.42813 0,-0.11948 0.03266,-0.97234 0,-1.07033 -0.03191,-0.0957 -0.182154,-0.11833 -0.214065,-0.21406 -0.04513,-0.13539 0,-0.28542 0,-0.42813 0,-0.15304 0.03653,-1.17482 0,-1.2844 -0.03191,-0.0957 -0.182155,-0.11833 -0.214066,-0.21406 -0.06769,-0.20308 0,-0.42813 0,-0.6422 0,-0.42813 0,-0.85626 0,-1.28439 0,-1.49846 0,-2.99692 0,-4.49538 0,-0.42813 0,-0.85626 0,-1.28439 0,-0.0714 0.05046,-0.16361 0,-0.21407 -0.05046,-0.0504 -0.14271,0 -0.214065,0 -0.570842,0 -1.141683,0 -1.712525,0 -1.641169,0 -3.282338,0 -4.923507,0 -0.499486,0 -0.998972,0 -1.498458,0 -0.214066,0 -0.439117,-0.0677 -0.642197,0 -0.09573,0.0319 -0.123808,0.16894 -0.214066,0.21407 -0.04798,0.024 -0.805393,0 -0.856262,0 -4.067245,0 -8.13449,0 -12.201735,0 -0.428131,0 -0.856262,0 -1.284393,0 -0.09641,0 -0.577049,0.0326 -0.642197,0 -0.09026,-0.0451 -0.123807,-0.16894 -0.214065,-0.21407 -0.129986,-0.065 -1.154408,0.065 -1.284393,0 -0.09026,-0.0451 -0.123808,-0.16893 -0.214066,-0.21406 -0.05629,-0.0281 -0.744323,0 -0.856262,0 -0.285421,0 -0.570841,0 -0.856262,0 -0.07135,0 -0.142711,0 -0.214066,0 -0.07135,0 -0.214065,-0.0714 -0.214065,0 0,0.10091 0.168936,0.12381 0.214065,0.21406 0.03191,0.0638 0,0.14271 0,0.21407 0,0.0714 0,0.14271 0,0.21406 0,0.42814 0,0.85627 0,1.2844 0,0.57084 0,1.14168 0,1.71252 0,0.14271 0,0.28542 0,0.42813 0,0.0714 0.02257,0.14637 0,0.21407 -0.05045,0.15137 -0.163609,0.27676 -0.214065,0.42813 -0.02257,0.0677 0.03191,0.15024 0,0.21406 -0.04513,0.0903 -0.182155,0.11834 -0.214066,0.21407 -0.07582,0.22747 0.07582,0.62879 0,0.85626 -0.05045,0.15137 -0.16361,0.27677 -0.214065,0.42813 -0.07582,0.22747 0.07582,0.6288 0,0.85627 -0.03191,0.0957 -0.168937,0.1238 -0.214066,0.21406 -0.06382,0.12765 0.04513,0.29275 0,0.42813 -0.606414,1.21283 0.07978,-0.31911 -0.214065,0.85626 -0.0387,0.1548 -0.16361,0.27677 -0.214066,0.42814 -0.02256,0.0677 0.02257,0.14637 0,0.21406 -0.05046,0.15137 -0.16361,0.27676 -0.214065,0.42813 -0.04513,0.13539 0.06382,0.30049 0,0.42813 -0.04513,0.0903 -0.168937,0.12381 -0.214066,0.21407 -0.06382,0.12764 0.06382,0.30049 0,0.42813 -0.04513,0.0903 -0.182154,0.11833 -0.214065,0.21407 -0.04513,0.13538 0.04513,0.29274 0,0.42813 -0.03191,0.0957 -0.168937,0.1238 -0.214066,0.21406 -0.03191,0.0638 0.03191,0.15025 0,0.21407 -0.04513,0.0903 -0.168937,0.1238 -0.214066,0.21406 -0.03191,0.0638 0.02257,0.14637 0,0.21407 -0.05045,0.15137 -0.163609,0.27676 -0.214065,0.42813 -0.02257,0.0677 0.02256,0.14637 0,0.21407 -0.173053,0.51915 -0.517161,0.57018 -0.642197,1.07032 -0.03461,0.13845 0.04513,0.29275 0,0.42813 -0.03191,0.0957 -0.15809,0.13011 -0.214065,0.21407 -0.08851,0.13276 -0.118333,0.30049 -0.214066,0.42813 -0.121093,0.16146 -0.337873,0.24762 -0.428131,0.42813 -0.06382,0.12765 0.04513,0.29275 0,0.42813 -0.03191,0.0957 -0.15809,0.1301 -0.214065,0.21407 -0.08851,0.13276 -0.142711,0.28542 -0.214066,0.42813 -0.07135,0.14271 -0.16361,0.27676 -0.214065,0.42813 -0.09304,0.27911 -0.104801,0.5831 -0.214066,0.85626 -0.03748,0.0937 -0.15809,0.1301 -0.214065,0.21407 -0.177011,0.26551 -0.251121,0.59074 -0.428131,0.85626 -0.05598,0.084 -0.15809,0.1301 -0.214066,0.21407 -0.0885,0.13275 -0.14271,0.28542 -0.214066,0.42813 -0.07136,0.14271 -0.163609,0.27676 -0.214065,0.42813 -0.02257,0.0677 0.03191,0.15024 0,0.21406 -0.04513,0.0903 -0.15809,0.13011 -0.214066,0.21407 -0.17701,0.26551 -0.25112,0.59075 -0.428131,0.85626 -0.05598,0.084 -0.168936,0.12381 -0.214065,0.21407 -0.03191,0.0638 0.03191,0.15024 0,0.21406 -0.04513,0.0903 -0.15809,0.1301 -0.214066,0.21407 -0.112927,0.16939 -0.579201,1.0954 -0.642196,1.28439 -0.02257,0.0677 0.02256,0.14637 0,0.21407 -0.100912,0.30273 -0.285421,0.57084 -0.428131,0.85626 -0.142711,0.28542 -0.251121,0.59074 -0.428131,0.85626 -0.111952,0.16793 -0.31618,0.2602 -0.428131,0.42813 -0.07136,0.14271 -0.142711,0.28542 -0.214066,0.42813 0,0.0714 0.03191,0.15025 0,0.21407 -0.04513,0.0903 -0.15809,0.1301 -0.214066,0.21406 -0.471621,0.10781 -0.113154,0.44038 -0.214065,0.6422 -0.04513,0.0903 -0.168937,0.12381 -0.214066,0.21407 -0.03191,0.0638 0.03191,0.15024 0,0.21406 -0.04513,0.0903 -0.168936,0.12381 -0.214065,0.21407 -0.03191,0.0638 0.03191,0.15024 0,0.21406 -0.04513,0.0903 -0.168937,0.12381 -0.214066,0.21407 -0.03191,0.0638 0.03191,0.15024 0,0.21406 -0.04513,0.0903 -0.168936,0.12381 -0.214065,0.21407 -0.03191,0.0638 0.03191,0.15024 0,0.21406 -0.09026,0.18052 -0.337873,0.24762 -0.428131,0.42814 -0.03191,0.0638 0.03191,0.15024 0,0.21406 -0.04513,0.0903 -0.15809,0.1301 -0.214066,0.21407 -0.0885,0.13275 -0.12556,0.29537 -0.214065,0.42813 -0.05598,0.084 -0.142711,0.14271 -0.214066,0.21406 -0.214065,0.21407 -0.428131,0.42813 -0.642196,0.6422 -0.285421,0.28542 -0.570842,0.57084 -0.856263,0.85626 -0.14271,0.14271 -0.260204,0.31618 -0.428131,0.42813 -0.132757,0.0885 -0.295373,0.12556 -0.428131,0.21407 -0.08396,0.056 -0.123807,0.16893 -0.214065,0.21406 -0.06382,0.0319 -0.150244,-0.0319 -0.214066,0 -0.09026,0.0451 -0.130102,0.15809 -0.214065,0.21407 -0.132758,0.0885 -0.295373,0.12556 -0.428131,0.21406 -0.08396,0.056 -0.142711,0.14272 -0.214066,0.21407 -0.07135,0.0714 -0.214065,0.11315 -0.214065,0.21407 0,0.0713 0.150243,-0.0319 0.214065,0 0.09026,0.0451 0.118333,0.18215 0.214066,0.21406 0.270774,0.0903 0.585488,-0.0903 0.856262,0 0.09573,0.0319 0.118332,0.18216 0.214065,0.21407 0.135387,0.0451 0.285421,0 0.428131,0 0.142711,0 0.285421,0 0.428131,0 0.175256,0 0.931632,-0.0462 1.070328,0 0.151367,0.0505 0.271675,0.18277 0.428131,0.21406 0.349848,0.07 0.724204,-0.0865 1.070328,0 0.154791,0.0387 0.27334,0.17537 0.428131,0.21407 0.138449,0.0346 0.285421,0 0.428131,0 0.145105,0 1.746995,-0.0359 1.92659,0 0.156456,0.0313 0.27334,0.17537 0.428131,0.21406 0.168387,0.0421 1.061781,0 1.284393,0 0.713552,0 1.427103,0 2.140655,0 0.483625,0 -0.09573,0.0319 0.642197,-0.21406 0.135387,-0.0451 0.300487,0.0638 0.428131,0 0.09026,-0.0451 0.123807,-0.16894 0.214065,-0.21407 0.117801,-0.0589 1.117039,0.0558 1.284394,0 0.09573,-0.0319 0.123807,-0.16893 0.214065,-0.21406 0.136793,-0.0684 0.683961,0.0574 0.856262,0 0.151367,-0.0505 0.276764,-0.16361 0.428131,-0.21407 0.06769,-0.0226 0.142711,0 0.214066,0 0.181611,0 1.142368,0.0355 1.284393,0 0.154791,-0.0387 0.276764,-0.16361 0.428131,-0.21406 0.120776,-0.0403 0.501533,0 0.642197,0 0.499486,0 0.998972,0 1.498458,0 1.641169,0 3.282338,0 4.923508,0 5.208927,0 10.417855,0 15.626783,0 1.855235,0 3.710469,0 5.5657,0 0.71355,0 1.4271,0 2.14066,0 0.11193,0 0.79997,-0.0282 0.85626,0 0.0903,0.0451 0.1238,0.16893 0.21406,0.21406 0.0774,0.0387 0.92144,0 1.07033,0 0.0714,0 0.16361,-0.0505 0.21407,0 0.0504,0.0505 -0.0505,0.16361 0,0.21407 0.0751,0.0751 0.92246,-0.0739 1.07032,0 0.0903,0.0451 0.12381,0.16893 0.21407,0.21406 0.12764,0.0638 0.30049,-0.0638 0.42813,0 0.0903,0.0451 0.13334,0.15352 0.21407,0.21407 0.20582,0.15436 0.42813,0.28542 0.64219,0.42813 z"
       id="path1411"
       inkscape:connector-curvature="0" />
    <path
       style="fill:none;stroke:#000000;stroke-width:1px;stroke-linecap:butt;stroke-linejoin:miter;stroke-opacity:1"
       d="m 84.127753,113.68536 c 0,0.28542 0.05598,0.57638 0,0.85626 -0.01979,0.0989 -0.168937,0.12381 -0.214066,0.21406 -0.06752,0.13505 0.06752,0.93528 0,1.07033 -0.04513,0.0903 -0.168936,0.12381 -0.214065,0.21407 -0.03871,0.0774 0,0.92143 0,1.07032 0,0.6422 0,1.2844 0,1.92659 0,0.0775 0.0375,1.13441 0,1.2844 -0.0387,0.15479 -0.175368,0.27334 -0.214066,0.42813 -0.04721,0.18885 0.06113,0.67288 0,0.85626 -0.05046,0.15137 -0.175368,0.27334 -0.214065,0.42813 -0.03461,0.13845 0,0.28542 0,0.42813 0,0.42813 0,0.85626 0,1.2844 0,0.14271 0,0.28542 0,0.42813 0,0.0713 0.02256,0.14637 0,0.21406 -0.05046,0.15137 -0.175368,0.27334 -0.214066,0.42813 -0.09292,0.37167 0.09292,0.91273 0,1.2844 -0.0387,0.15479 -0.16361,0.27676 -0.214066,0.42813 -0.04513,0.13538 0.03461,0.28968 0,0.42813 -0.05473,0.21891 -0.169812,0.42093 -0.214065,0.64219 -0.04249,0.21243 0,0.84543 0,1.07033 0,0.0714 0,0.14271 0,0.21407 0,0.0713 0.03191,0.15024 0,0.21406 -0.04513,0.0903 -0.182155,0.11834 -0.214066,0.21407 -0.06422,0.19266 0.06422,0.44954 0,0.6422 -0.05045,0.15136 -0.163609,0.27676 -0.214065,0.42813 -0.03862,0.11585 0,0.78333 0,0.85626 0,0.48362 0.03191,-0.0957 -0.214066,0.6422 -0.02256,0.0677 0,0.14271 0,0.21406 0,0.20097 0.04089,0.94767 0,1.07033 -0.03191,0.0957 -0.168936,0.12381 -0.214065,0.21406 -0.03191,0.0638 0,0.14271 0,0.21407 0,0.28542 0,0.57084 0,0.85626 0,0.14271 0.04513,0.29275 0,0.42813 -0.05046,0.15137 -0.16361,0.27677 -0.214066,0.42813 -0.04479,0.13436 0,0.68394 0,0.85627 0,0.64219 0,1.28439 0,1.92659 0,0.42813 0,0.85626 0,1.28439 0,0.0964 -0.03257,0.57705 0,0.6422 0.04513,0.0902 0.168937,0.1238 0.214066,0.21406 0.06499,0.12999 -0.06499,1.15441 0,1.28439 0.04513,0.0903 0.168936,0.12381 0.214065,0.21407 0.03191,0.0638 0,0.14271 0,0.21407 0,0.0713 0,0.14271 0,0.21406 0,0.0968 -0.02852,1.22735 0,1.28439 0.04513,0.0903 0.168937,0.12381 0.214066,0.21407 0.06499,0.12998 -0.06499,1.15441 0,1.28439 0.04513,0.0903 0.168936,0.12381 0.214065,0.21407 0.03257,0.0651 0,0.54579 0,0.64219"
       id="path1413"
       inkscape:connector-curvature="0" />
    <path
       style="fill:none;stroke:#000000;stroke-width:1px;stroke-linecap:butt;stroke-linejoin:miter;stroke-opacity:1"
       d="m 124.158,42.615597 c 2.28087,1.675574 2.90644,5.802541 -0.0727,7.136486 -2.88546,0.842105 -5.803,0.310714 -8.51941,-0.659688 -1.14431,-0.65679 -2.15595,-0.786485 -1.97524,0.892967 -1.50437,2.658989 -4.38917,4.258677 -7.38877,4.687256 -2.39163,0.200623 -4.93136,0.45769 -7.198465,-0.498554 -2.328468,-0.434373 -4.356467,-2.049741 -6.776318,-1.941845 -3.186811,1.442579 -7.389235,0.600878 -8.955646,-2.766521"
       id="path1420"
       inkscape:connector-curvature="0" />
    <path
       style="fill:none;stroke:#000000;stroke-width:1px;stroke-linecap:butt;stroke-linejoin:miter;stroke-opacity:1"
       d="m 36.819271,35.979565 c -1.154502,1.079271 -3.279759,1.265621 -3.725461,2.992122 0.352963,1.209311 1.98683,1.715838 3.10172,2.219596 1.470072,0.349876 2.72265,1.151868 4.167297,1.573689 1.247267,0.211469 2.631875,1.111697 0.773237,1.612997 -1.182998,0.573634 -2.672445,1.813765 -1.893608,3.268637 0.849513,1.376228 2.870429,1.09822 4.221438,0.702584 1.675517,-0.471524 3.358254,-1.267383 5.126249,-1.131615 2.09253,0.539381 2.700872,3.131214 4.725576,3.810053 2.009478,1.304083 4.764796,2.078558 7.007452,0.934858 1.585422,-1.013355 2.30743,-2.855703 3.658002,-4.104372 1.787694,1.896298 4.531207,3.652332 7.21139,2.640669 0.413024,-0.150164 0.781142,-0.390296 1.161586,-0.604958"
       id="path1424"
       inkscape:connector-curvature="0" />
  </g>
</svg>
