<?xml version="1.0" encoding="UTF-8" standalone="no"?>
<svg
   xmlns:dc="http://purl.org/dc/elements/1.1/"
   xmlns:cc="http://creativecommons.org/ns#"
   xmlns:rdf="http://www.w3.org/1999/02/22-rdf-syntax-ns#"
   xmlns:svg="http://www.w3.org/2000/svg"
   xmlns="http://www.w3.org/2000/svg"
   xmlns:sodipodi="http://sodipodi.sourceforge.net/DTD/sodipodi-0.dtd"
   xmlns:inkscape="http://www.inkscape.org/namespaces/inkscape"
   width="144"
   height="144"
   viewBox="0 0 38.099999 38.100001"
   version="1.1"
   id="svg8"
   inkscape:version="1.0.2 (e86c870879, 2021-01-15)"
   sodipodi:docname="cheerful-plausible-bite.svg">
  <defs
     id="defs2" />
  <sodipodi:namedview
     id="base"
     pagecolor="#ffffff"
     bordercolor="#666666"
     borderopacity="1.0"
     inkscape:pageopacity="0.0"
     inkscape:pageshadow="2"
     inkscape:zoom="5.6"
     inkscape:cx="70.996377"
     inkscape:cy="67.391447"
     inkscape:document-units="px"
     inkscape:current-layer="layer1"
     inkscape:document-rotation="0"
     showgrid="false"
     units="px"
     inkscape:snap-global="false"
     inkscape:window-width="1920"
     inkscape:window-height="1152"
     inkscape:window-x="0"
     inkscape:window-y="0"
     inkscape:window-maximized="1" />
  <metadata
     id="metadata5">
    <rdf:RDF>
      <cc:Work
         rdf:about="">
        <dc:format>image/svg+xml</dc:format>
        <dc:type
           rdf:resource="http://purl.org/dc/dcmitype/StillImage" />
        <dc:title></dc:title>
      </cc:Work>
    </rdf:RDF>
  </metadata>
  <g
     inkscape:label="Layer 1"
     inkscape:groupmode="layer"
     id="layer1">
    <path
       id="path875"
       style="fill:#681700;fill-opacity:1;stroke:#020202;stroke-width:0.264583px;stroke-linecap:round;stroke-linejoin:miter;stroke-opacity:1"
       d="m 15.759155,16.268591 c -0.393396,1.990582 -0.405558,4.036849 -0.374781,6.055976 0.434109,1.743688 2.22664,2.343488 3.879624,2.216612 2.165218,-0.05187 4.344114,0.104482 6.500454,-0.109517 1.349729,-0.560219 3.144639,-0.440853 4.078707,-1.848847 1.182132,-0.949024 2.919767,-2.004769 2.623719,-3.767659 -0.07537,-1.189197 0.168969,-2.423901 -0.142815,-3.575469 -0.963737,-1.484034 -3.224514,-0.910588 -4.754456,-1.337277 -1.740637,-0.02238 -3.551555,-0.286289 -5.23841,0.251192 -1.669563,0.449021 -3.318324,0.914362 -4.867119,1.703289 -0.489584,0.193169 -1.220405,0.586912 -1.704923,0.4117 z" />
    <path
       style="fill:#ffe700;fill-opacity:1;stroke:#030300;stroke-width:0.264583px;stroke-linecap:round;stroke-linejoin:miter;stroke-opacity:1"
       d="m 29.960047,19.555767 c -0.992081,1.496549 -3.216617,2.182893 -4.832332,2.698455 -2.248269,0.609489 -4.622383,0.316917 -6.939174,0.375222 -1.397678,-0.435479 -3.017585,1.377423 -2.116591,2.573903 l -1e-6,6e-6 c 0.775557,1.990889 3.02845,2.775064 4.833878,3.616139 1.443182,0.476686 2.923843,0.750331 4.447917,0.659726 1.939647,-0.01274 4.027153,0.13157 5.765484,-0.828615 1.506266,-0.466177 2.568049,-1.67486 3.279419,-3.062303 0.992326,-1.478346 1.77758,-3.399454 1.589615,-5.263692"
       id="path901"
       sodipodi:nodetypes="cccssccccc" />
    <g
       id="g962"
       transform="translate(24.41883,21.89277)"
       style="stroke-linecap:round">
      <path
         id="path859"
         style="fill:#d32800;fill-opacity:1;stroke:#000000;stroke-width:0.264583px;stroke-linecap:round;stroke-linejoin:miter;stroke-opacity:1"
         d="m -10.317194,10.270827 c 0.7487901,-1.08768 2.0568321,-1.810034 2.9237561,-2.84553 0.819786,-1.54143 1.48845,-3.09598 2.637107,-4.445678 1.532025,-1.5885646 2.777698,-3.40232159 4.17896105,-5.1027346 1.217829,-1.290395 2.18284895,-2.795141 3.00688795,-4.356641 -0.509078,-0.48799 -2.41198295,0.248474 -3.457225,0.254874 -1.595669,0.409616 -3.244811,0.487456 -4.87998,0.488756 -2.327162,0.342091 -4.4911171,1.481097 -6.8255941,1.794861 -2.105009,0.186043 -4.977486,0.6669226 -7.054813,0.9246766 l -0.599388,1.0793702 0.271962,4.5943102 5.975236,6.6253108 z"
         sodipodi:nodetypes="ccccccccccccc" />
      <path
         id="path861"
         style="fill:#ff1267;fill-opacity:1;stroke:#000000;stroke-width:0.264583px;stroke-linecap:round;stroke-linejoin:miter;stroke-opacity:1"
         d="m -13.902769,-1.8246726 c 1.145197,0.482777 2.852143,2.67178601 0.833212,3.129353 -1.443599,0.77965 -4.260984,-0.87319499 -2.829693,-2.460784 0.403753,-0.737581 1.270173,-0.724359 1.996481,-0.668569 z" />
      <path
         id="path863"
         style="fill:#ff1267;fill-opacity:1;stroke:#000000;stroke-width:0.264583px;stroke-linecap:round;stroke-linejoin:miter;stroke-opacity:1"
         d="m -5.8244119,-4.5899876 c 1.719554,-1.126059 2.918169,2.715321 0.779812,2.570311 -1.675961,0.325232 -1.744724,-3.158402 -0.779812,-2.570311 z" />
      <path
         id="path865"
         style="fill:#ff1267;fill-opacity:1;stroke:#000000;stroke-width:0.264583px;stroke-linecap:round;stroke-linejoin:miter;stroke-opacity:1"
         d="m -8.6239479,1.3338124 c 1.673369,-0.141763 3.666853,1.9421676 1.700106,3.1047216 -1.330704,0.467928 -4.3793081,-0.0081 -2.902743,-1.9132896 0.366054,-0.437814 0.545347,-1.120189 1.202637,-1.191432 z" />
      <path
         id="path867"
         style="fill:#6a6181;fill-opacity:1;stroke:#000000;stroke-width:0.264583px;stroke-linecap:round;stroke-linejoin:miter;stroke-opacity:1"
         d="m -7.3372509,-0.38256259 c -0.608654,1.65633099 -1.922214,-0.168482 -0.98892,-1.12918901 0.566538,-1.147368 2.136258,-0.379101 1.116511,0.317671 1.415984,-0.09355 1.663252,1.44229201 -0.127591,0.81151801 z" />
      <path
         id="path869"
         style="fill:#6a6181;fill-opacity:1;stroke:#000000;stroke-width:0.264583px;stroke-linecap:round;stroke-linejoin:miter;stroke-opacity:1"
         d="m -13.311175,3.403857 c -1.57272,-0.48295 0.783124,-1.7739136 1.494706,-0.8626946 1.616281,0.03189 0.749081,2.5974236 -0.273975,1.5389946 0.385509,-1.6797916 -1.856823,1.999858 -1.765916,0.02959 0.191036,-0.227247 0.44868,-0.410458 0.545185,-0.705892 z" />
      <path
         id="path871"
         style="fill:#07910d;fill-opacity:1;stroke:#000000;stroke-width:0.264583px;stroke-linecap:round;stroke-linejoin:miter;stroke-opacity:1"
         d="m -9.7969699,-3.8286426 c 1.171806,1.570425 -0.5516471,3.05161601 -2.1038441,2.480905 0.888195,-0.672428 1.715438,-1.429165 2.1038441,-2.480905 z" />
      <path
         id="path857"
         style="fill:#ffd374;fill-opacity:1;stroke:#000000;stroke-width:0.264583px;stroke-linecap:round;stroke-linejoin:miter;stroke-opacity:1"
         d="m -19.081339,-3.1146056 c -0.451652,0.903622 -0.550174,2.59886501 -0.529263,3.97169201 -0.02811,1.84870099 2.271501,2.22311759 3.248676,3.42967459 0.894126,0.986013 1.901943,1.825135 2.870173,2.720799 1.018439,1.588044 3.0399,2.226139 3.6909371,4.061559 0.194691,2.18997 -2.8176361,1.253465 -3.8705721,0.517813 -1.642967,-0.74285 -3.000147,-2.061074 -4.151421,-3.435055 -0.654923,-1.035412 -1.20763,-2.326605 -1.894015,-3.472936 -0.751597,-1.336992 -1.220306,-2.8096566 -1.33155,-4.31958959 0.041,-1.39915701 -0.105026,-2.82112101 0.09227,-4.19963301 0.519106,-0.613296 1.481338,0.307642 1.874766,0.725676 z" />
      <path
         style="fill:none;stroke:#ffeb05;stroke-width:0.264583px;stroke-linecap:round;stroke-linejoin:miter;stroke-opacity:1"
         d="m -0.28176776,-6.3929718 c -0.37492292,0.3608963 -0.11436848,0.6723736 -0.007449,1.0711821"
         id="path903" />
      <path
         style="fill:none;stroke:#ffeb05;stroke-width:0.264583px;stroke-linecap:round;stroke-linejoin:miter;stroke-opacity:1"
         d="M -0.17493191,-3.0899634 C -0.49109637,-2.9536413 -0.84729486,-2.896332 -1.2079891,-2.896332"
         id="path905" />
      <path
         style="fill:none;stroke:#ffeb05;stroke-width:0.264583px;stroke-linecap:round;stroke-linejoin:miter;stroke-opacity:1"
         d="m -6.3881838,-4.125717 c -0.653445,-0.00217 -1.6913466,0.048687 -1.6913466,0.6514833"
         id="path907" />
      <path
         style="fill:none;stroke:#ffeb05;stroke-width:0.264583px;stroke-linecap:round;stroke-linejoin:miter;stroke-opacity:1"
         d="m -8.1232151,-0.39075462 c 0,0.20929791 0,0.41859551 0,0.62789351"
         id="path909" />
      <path
         style="fill:none;stroke:#ffeb05;stroke-width:0.264583px;stroke-linecap:round;stroke-linejoin:miter;stroke-opacity:1"
         d="m -4.4906012,1.0313683 c 0.3892241,-0.63356597 0.4663436,-1.34883637 0.6478956,-2.02844293"
         id="path911" />
      <path
         style="fill:none;stroke:#ffeb05;stroke-width:0.264583px;stroke-linecap:round;stroke-linejoin:miter;stroke-opacity:1"
         d="m -4.1026311,-2.6236686 c 0.2034485,-0.4740228 0.5012423,-0.9196459 0.8038416,-1.361271"
         id="path913" />
      <path
         style="fill:none;stroke:#ffeb05;stroke-width:0.264583px;stroke-linecap:round;stroke-linejoin:miter;stroke-opacity:1"
         d="m -10.350378,7.85353 c -0.274694,0.3066749 -0.250747,0.1675563 -0.250747,0.376538"
         id="path915" />
      <path
         style="fill:none;stroke:#ffeb05;stroke-width:0.264583px;stroke-linecap:round;stroke-linejoin:miter;stroke-opacity:1"
         d="m -14.786904,3.1123174 c 0.291293,0.2542952 0.969237,0.8656683 1.425502,0.8656683"
         id="path917" />
      <path
         style="fill:none;stroke:#ffeb05;stroke-width:0.264583px;stroke-linecap:round;stroke-linejoin:miter;stroke-opacity:1"
         d="m -7.9463319,5.273517 c 0.071621,-0.1505853 0.1432424,-0.3011707 0.2148637,-0.451756"
         id="path919" />
      <path
         style="fill:none;stroke:#ffeb05;stroke-width:0.264583px;stroke-linecap:round;stroke-linejoin:miter;stroke-opacity:1"
         d="m -10.606915,1.9490676 c -0.67085,-0.7678335 -1.468301,-1.43609096 -1.94498,-2.28889304 -0.17467,-0.31248879 -0.158446,-0.23642707 -0.158446,-0.44725972"
         id="path921" />
      <path
         style="fill:none;stroke:#ffeb05;stroke-width:0.264583px;stroke-linecap:round;stroke-linejoin:miter;stroke-opacity:1"
         d="m -7.654524,-1.304085 c 0.4799204,0.1997826 0.8817064,0.49061838 1.3538867,0.1368004"
         id="path923" />
      <path
         style="fill:none;stroke:#ffeb05;stroke-width:0.264583px;stroke-linecap:round;stroke-linejoin:miter;stroke-opacity:1"
         d="m -11.525426,-3.2671567 c -0.101394,0.4018343 -0.43252,0.7357906 -0.607341,1.1153691 -0.07977,0.1731919 0.07614,0.1726661 -0.0559,0.2716021"
         id="path925" />
      <path
         style="fill:none;stroke:#ffeb05;stroke-width:0.264583px;stroke-linecap:round;stroke-linejoin:miter;stroke-opacity:1"
         d="m -17.46028,1.6819111 c -0.354869,0.2621862 -0.715771,0.6032103 -1.237882,0.6032103"
         id="path927" />
      <path
         style="fill:none;stroke:#ffeb05;stroke-width:0.264583px;stroke-linecap:round;stroke-linejoin:miter;stroke-opacity:1"
         d="m -6.8737012,3.4956596 c 0.9717604,-0.1823239 2.0318563,-0.3284828 3.043994,-0.3284828"
         id="path929" />
      <path
         style="fill:none;stroke:#ffeb05;stroke-width:0.264583px;stroke-linecap:round;stroke-linejoin:miter;stroke-opacity:1"
         d="m -1.7915768,0.40656446 c 0,-0.0923493 0.0158,-0.18546006 0,-0.27704709 -0.00615,-0.035703 -0.042972,-0.0643993 -0.064457,-0.0965989 -0.023531,-0.11730064 -0.055468,-0.23382629 -0.070599,-0.35190171 -0.04375,-0.34142707 -0.024148,-0.69717656 -0.1353535,-1.03049146"
         id="path931" />
      <path
         style="fill:none;stroke:#ffeb05;stroke-width:0.264583px;stroke-linecap:round;stroke-linejoin:miter;stroke-opacity:1"
         d="m -10.324656,3.7041425 c -0.0704,0.1044766 -0.178974,0.1989073 -0.211188,0.3134278 -0.09462,0.3363952 -0.104939,0.683096 -0.16501,1.0239238 -0.121146,0.6873456 -0.190391,0.8093062 -0.190391,1.3438246"
         id="path933" />
      <path
         style="fill:none;stroke:#ffeb05;stroke-width:0.264583px;stroke-linecap:round;stroke-linejoin:miter;stroke-opacity:1"
         d="m -16.048994,-0.26784825 c -0.473725,-0.5374299 -1.275217,-0.6838709 -2.010367,-0.94530985 -1.060853,-0.3772668 -0.337437,-0.1593728 -1.257224,-0.4162676"
         id="path935" />
    </g>
    <path
       style="fill:#ffe700;fill-opacity:1;stroke:#030300;stroke-width:0.264583px;stroke-linecap:round;stroke-linejoin:miter;stroke-opacity:1"
       d="M 35.988262,20.466349 C 36.123824,18.759157 35.711781,17.093293 35.53203,15.409787 35.185492,13.513181 34.89083,11.617455 34.657367,9.7017235 34.070695,8.4179245 34.444592,6.7758975 33.527575,5.6419857 32.363628,4.2414652 31.168749,2.460657 29.160985,2.3327581 c -1.692728,-0.1216117 -3.345913,0.00484 -4.954268,0.4925466 -1.706311,0.088146 -3.296354,0.7458297 -4.857005,1.3970197 -1.348773,0.8320405 -2.696279,1.7133024 -3.844723,2.8215674 -1.34265,1.3812696 -2.536505,3.1887542 -2.36713,5.1874132 -0.413263,1.966195 0.41747,3.841152 2.593289,4.016207 1.306787,0.717592 2.906735,0.378195 4.261596,0.849509 1.305055,0.228555 2.759478,0.226407 3.960234,0.271014 1.591765,0.05913 3.818477,-0.251355 4.517057,-1.141292 2.978995,-3.795012 2.519613,1.156669 1.301024,3.612506"
       id="path873"
       sodipodi:nodetypes="cccccccccccssc" />
    <path
       id="path877"
       style="fill:#ffffff;fill-opacity:1;stroke:#000000;stroke-width:0.264583px;stroke-linecap:round;stroke-linejoin:miter;stroke-opacity:1"
       d="m 20.347142,7.8512029 c -1.010938,-0.5187508 -2.841556,0.8488302 -3.52972,2.0917151 -0.398932,0.702253 -0.04536,1.634154 0.652189,1.995482 0.742493,0.443394 1.681349,0.480108 2.481447,0.189423 1.100252,-0.06344 2.18181,-1.017043 2.066464,-2.1781617 0.07904,-1.2716845 -0.659442,-1.5797076 -1.67038,-2.0984584 z"
       sodipodi:nodetypes="zccccz" />
    <path
       id="path879"
       style="fill:#ffffff;fill-opacity:1;stroke:#000000;stroke-width:0.264583px;stroke-linecap:round;stroke-linejoin:miter;stroke-opacity:1"
       d="m 27.547824,7.3536328 c 1.013734,-0.089377 2.594312,0.4536041 3.48416,1.4199108 0.439404,0.4953875 0.568581,1.1773678 0.635084,1.8143214 0.01517,1.155582 -1.120721,1.939124 -2.178934,2.041501 -0.767533,0.108077 -1.566242,0.201636 -2.321297,-0.04372 -0.921055,-0.233295 -1.733246,-1.035172 -1.730745,-2.026173 0.05562,-0.5919741 -0.138951,-1.2430821 0.230823,-1.7733424 0.529894,-0.58336 0.867175,-1.343121 1.880909,-1.4324978 z"
       sodipodi:nodetypes="zccccccz" />
    <path
       id="path881"
       style="fill:none;stroke:#000000;stroke-width:0.264583px;stroke-linecap:round;stroke-linejoin:miter;stroke-opacity:1"
       d="M 28.071842,8.9454007 C 27.838481,9.4471838 27.711127,9.9623134 27.689384,10.534753" />
    <path
       id="path883"
       style="fill:none;stroke:#000000;stroke-width:0.264583px;stroke-linecap:round;stroke-linejoin:miter;stroke-opacity:1"
       d="M 19.73901,9.1152005 C 19.388159,9.5659611 18.715116,10.247617 19.103695,10.846585" />
  </g>
</svg>
