<?xml version="1.0" encoding="UTF-8" standalone="no"?>
<!-- Created with Inkscape (http://www.inkscape.org/) -->

<svg
   xmlns:dc="http://purl.org/dc/elements/1.1/"
   xmlns:cc="http://creativecommons.org/ns#"
   xmlns:rdf="http://www.w3.org/1999/02/22-rdf-syntax-ns#"
   xmlns:svg="http://www.w3.org/2000/svg"
   xmlns="http://www.w3.org/2000/svg"
   xmlns:sodipodi="http://sodipodi.sourceforge.net/DTD/sodipodi-0.dtd"
   xmlns:inkscape="http://www.inkscape.org/namespaces/inkscape"
   width="144px"
   height="144px"
   viewBox="0 0 144 144"
   version="1.1"
   id="SVGRoot"
   inkscape:version="0.92.4 (5da689c313, 2019-01-14)"
   sodipodi:docname="fearless-canary-echium.svg">
  <defs
     id="defs815" />
  <sodipodi:namedview
     id="base"
     pagecolor="#ffffff"
     bordercolor="#666666"
     borderopacity="1.0"
     inkscape:pageopacity="0.0"
     inkscape:pageshadow="2"
     inkscape:zoom="2.8284271"
     inkscape:cx="111.68489"
     inkscape:cy="56.585538"
     inkscape:document-units="px"
     inkscape:current-layer="layer1"
     showgrid="false"
     inkscape:window-width="1920"
     inkscape:window-height="1151"
     inkscape:window-x="0"
     inkscape:window-y="0"
     inkscape:window-maximized="1"
     inkscape:grid-bbox="true"
     inkscape:snap-global="false" />
  <metadata
     id="metadata818">
    <rdf:RDF>
      <cc:Work
         rdf:about="">
        <dc:format>image/svg+xml</dc:format>
        <dc:type
           rdf:resource="http://purl.org/dc/dcmitype/StillImage" />
        <dc:title></dc:title>
      </cc:Work>
    </rdf:RDF>
  </metadata>
  <g
     inkscape:label="Layer 1"
     inkscape:groupmode="layer"
     id="layer1">
    <g
       id="g1441"
       transform="matrix(-1.0317751,0,0,1.0101494,146.36661,-2.3272557)"
       style="stroke-width:0.97952306">
      <path
         style="fill:#2f852c;fill-opacity:1;stroke:#005500;stroke-width:0.97952306px;stroke-linecap:butt;stroke-linejoin:miter;stroke-opacity:1"
         d="m 25.36917,90.931392 c -0.106547,-2.156376 0.108563,-9.285765 0.620446,-3.524879 -0.287768,6.271264 2.721912,13.482477 -0.856694,18.962237 -1.386423,2.86948 -1.170717,7.12002 -0.739766,1.59342 0.480883,-6.87242 -0.313865,-13.998464 0.412208,-20.725734 1.451576,4.89702 -1.787766,0.636846 -0.956264,-2.080068 0.917057,1.767894 1.077413,3.855136 1.52007,5.775024 z"
         id="path1405"
         inkscape:connector-curvature="0" />
      <path
         style="fill:#855cb8;fill-opacity:1;stroke:#3c0069;stroke-width:0.97952306px;stroke-linecap:butt;stroke-linejoin:miter;stroke-opacity:1"
         d="m 26.11503,65.483526 c 1.070432,2.068488 3.931964,8.100034 2.08954,8.437709 0.273107,3.938583 1.247062,3.436528 1.275964,6.864505 1.862757,2.180512 1.912079,5.466596 -1.275964,1.836882 -5.100759,-0.553796 2.025564,7.81792 1.577143,10.914928 -2.577071,-0.665583 -3.665128,-7.447986 -5.529029,-3.803232 -1.766754,-1.59427 -3.539444,-9.300193 -2.587488,-3.63561 -0.77928,1.922314 2.186963,-8.319103 0.650572,-3.796954 -0.243747,-4.718358 3.726979,-9.330924 4.582832,-13.917765 -2.307392,2.942095 -0.823338,0.311448 0.2612,-1.845749 0.237385,-1.287871 -2.297401,-0.779895 -1.04477,-2.636784"
         id="path1397"
         inkscape:connector-curvature="0" />
      <path
         style="fill:#2f852c;fill-opacity:1;stroke:#005500;stroke-width:0.97952306px;stroke-linecap:butt;stroke-linejoin:miter;stroke-opacity:1"
         d="m 21.93595,139.0498 c -3.837129,-3.60891 -9.270247,-6.32318 -12.67547,-10.67287 -1.4425505,-3.02961 -6.1100523,-6.58198 -3.25725,-1.19266 4.363986,6.9674 -3.0808108,-6.93509 -0.26119,-3.6915 -0.03509,-4.2679 0.212913,-8.57636 -0.52239,-12.73138 -0.4620788,-5.44825 4.88997,2.29397 6.00742,3.76632 2.157913,3.74697 1.032276,-2.02243 1.30596,-3.57382 -0.01744,-1.47004 -0.269626,-7.74894 1.037997,-4.20258 0.325972,2.22382 3.530678,6.8718 1.312733,1.97547 -0.226694,-3.17807 -0.693427,-6.72192 0.2612,-9.756097 3.084493,-3.15795 6.081146,5.414377 7.881236,7.757557 0.981525,4.7332 1.610328,-6.26373 4.655984,-6.43917 2.714184,1.19531 2.429174,11.34904 6.52981,5.53725 1.818213,-3.5711 11.211202,-8.774886 10.447684,-1.35762 0.09303,6.19976 9.414769,-4.14522 9.020966,-2.4891 -0.409491,1.36407 6.765976,-7.652818 6.128182,-2.257108 1.167748,2.551058 -7.022268,9.924788 -1.567153,5.576468 2.372308,-1.89059 4.526711,-7.048772 3.917883,-1.58207 -0.181673,2.02503 0.392256,10.36234 1.402731,8.87816 0.751906,-2.76272 1.970086,-10.91231 2.10102,-4.10154 1.715091,4.93638 5.943915,-6.73064 5.269866,0.56191 -0.154455,2.50828 0.23482,6.27945 2.262175,2.05004 5.616915,-7.46661 13.014388,-13.491672 21.35204,-17.672023 3.446948,0.899119 -5.370894,8.538893 -2.245984,10.362303 4.748841,-3.28931 10.40423,-5.122031 14.69525,-9.123044 -0.65928,3.681296 -3.53032,7.789704 -4.09112,11.153624 4.71933,-2.77449 9.51328,-4.25744 14.57353,-5.888015 4.56666,-2.487781 9.53564,-3.945201 14.15762,-6.24119 6.01456,-3.354336 -2.7851,1.767294 -2.98287,4.499274 -4.38013,3.396551 -0.69257,5.316471 3.01551,2.828021 3.15305,-1.917505 9.70156,-1.595092 5.12106,3.0195 -0.99895,1.46713 -4.08546,8.46574 -1.94335,3.81248 -1.27969,3.65607 -6.92458,7.98861 -4.68746,11.42311 2.07385,0.6422 10.0072,-1.02488 5.4801,3.01215 -4.96694,2.97325 -10.42027,5.06181 -15.75664,7.26573 -3.30375,1.9844 6.04026,1.86282 7.72918,1.84574 3.34396,0 6.68793,0 10.03189,0 -4.60968,1.79883 -9.6429,3.5112 -14.10438,5.80093 1.81237,2.53886 -3.34401,0.82363 -5.16529,1.31839 -5.22452,0.11517 -10.50472,-0.2414 -15.68094,0.19728 -3.994273,1.78333 -6.198857,1.00429 -10.496836,1.64847 -4.241584,-2.47582 -8.880195,-5.0593 -13.843186,-3.42782 -3.311954,0.0125 -6.720756,-0.30438 -9.780146,1.06539 -6.200027,1.27942 -12.744271,0.61867 -19.132547,0.78036 -8.297635,0 -16.59527,0 -24.892905,0 -0.567976,0.60868 -1.826314,0.10123 -2.61192,0.26368 z"
         id="path1401"
         inkscape:connector-curvature="0" />
      <path
         style="fill:#2f852c;fill-opacity:1;stroke:#005500;stroke-width:0.97952306px;stroke-linecap:butt;stroke-linejoin:miter;stroke-opacity:1"
         d="m 46.488019,112.906 c -0.0095,-6.79208 -0.07426,-13.595441 0.261192,-20.327006 -0.261781,-1.8139 0.671639,-6.355702 -0.783576,-6.426063 -0.271334,4.095003 -0.703889,8.440024 -0.783577,12.658907 -0.387737,4.474622 1.362884,6.643392 1.567153,10.429352 0.449302,3.03797 -0.883239,5.14996 -1.033291,0.43889 -0.53676,-5.42084 -0.607549,-11.083197 -2.36221,-16.197541 -0.549828,-4.034856 -0.129313,1.411467 -0.26119,2.763936 -0.19577,4.632435 0.573727,9.254525 1.332412,13.732885 0.287557,-0.3533 0.860656,3.75201 1.018319,2.56016"
         id="path1403"
         inkscape:connector-curvature="0" />
      <path
         style="fill:#2f852c;fill-opacity:1;stroke:#005500;stroke-width:0.97952306px;stroke-linecap:butt;stroke-linejoin:miter;stroke-opacity:1"
         d="m 81.748967,102.92586 c 1.272343,-2.88012 1.344324,-8.265292 2.350729,-12.920243 -0.571834,3.396213 -0.679053,7.112812 -1.044768,10.547133 -0.784583,3.52106 0.236784,-2.29382 0,-3.801904 0.697789,-5.644413 1.350858,2.54639 0.261192,3.274554"
         id="path1407"
         inkscape:connector-curvature="0" />
      <path
         style="fill:#2f852c;fill-opacity:1;stroke:#005500;stroke-width:0.97952306px;stroke-linecap:butt;stroke-linejoin:miter;stroke-opacity:1"
         d="m 100.69649,102.06156 c -1.123848,-4.683369 -1.292208,-9.545315 -1.305957,-14.36466 6.84e-4,-9.460314 -9.36e-4,-18.922993 0,-28.381731 0.856557,-4.48072 0.416223,2.145307 0.522384,3.732535 -0.172172,5.906727 0.759973,11.731974 0.783573,17.640658 0.76023,6.655947 0.56679,13.408711 0.40128,20.086408 -0.9279,3.56786 0.28025,-5.639716 -0.14008,-7.075739 -0.11579,-8.355367 0.24327,-16.781416 -0.20491,-25.087138 -0.1269,8.204859 -0.022,16.5199 -0.0563,24.766802"
         id="path1409"
         inkscape:connector-curvature="0" />
      <path
         style="fill:#2f852c;fill-opacity:1;stroke:#005500;stroke-width:0.97952306px;stroke-linecap:butt;stroke-linejoin:miter;stroke-opacity:1"
         d="m 119.09945,100.28907 c 1.34407,-6.255175 0.58543,-12.826563 0.78358,-19.248518 1.6895,-0.972837 -0.88522,6.563585 -0.52239,8.701387 -0.88056,4.400416 -1.6966,8.859343 -2.87311,12.920241 1.92205,-0.39769 3.65547,-7.831495 4.70146,-11.074492 -0.0357,-2.503115 0.93904,-5.86227 -0.1808,-1.312256 -1.53936,4.666928 -0.99889,9.343815 -2.16993,13.705138 0.14066,-1.89254 0.0473,-6.522246 0,-9.49242"
         id="path1411"
         inkscape:connector-curvature="0" />
      <path
         style="fill:#855cb8;fill-opacity:1;stroke:#3c0069;stroke-width:0.97952306px;stroke-linecap:butt;stroke-linejoin:miter;stroke-opacity:1"
         d="m 121.97256,52.035928 c -2.94088,0.509927 -4.29973,6.050654 -5.22384,8.17403 3.92307,-5.737849 -0.11957,3.84868 -1.04477,5.537247 1.51467,-3.256926 -1.30456,4.944554 -1.82834,7.382995 -0.41547,1.911638 -2.6541,6.89226 -1.04477,2.636784 -0.40197,2.592567 -2.93217,11.002117 -2.07384,10.174112 2.42998,-4.387735 0.57681,1.776986 1.02907,4.025296 -0.06,3.618545 1.75132,-6.06571 1.30596,-0.188861 -0.042,5.841724 1.91279,-5.558975 2.35073,0.491765 0.67134,2.284298 0.89972,10.699954 1.56715,4.218854 0.21191,2.574306 1.09243,3.651172 0.78358,0.07845 0.96728,-2.3695 3.79689,7.671208 3.91788,0.712583 1.05809,-2.158528 3.76531,4.647484 2.87312,-0.712583 -0.31277,-5.231019 3.56663,7.565008 2.84735,0.712866 0.9446,-0.671246 -0.43221,-5.126216 0.0258,-4.219137 0.53507,-3.284952 0.13546,-6.68536 0.26119,-10.019779 -0.32781,0.892606 -2.32743,-8.858893 -2.61192,-7.910352 1.20549,3.002562 0.67769,-1.349182 0.78358,-2.707967 -0.16178,-2.146221 0.082,-8.682341 0.95201,-3.072594 0.0789,-2.383379 0.30477,-5.196028 -0.11997,-7.641048 -2.32256,-1.302022 -5.8063,-9.277375 -4.22754,-6.617949 z"
         id="path1391"
         inkscape:connector-curvature="0" />
      <path
         style="fill:#855cb8;fill-opacity:1;stroke:#3c0069;stroke-width:0.97952306px;stroke-linecap:butt;stroke-linejoin:miter;stroke-opacity:1"
         d="m 82.271351,54.145355 c -4.981724,-5.162812 2.872069,2.467192 3.395498,5.273568 0.328574,2.322966 3.22804,8.872928 3.069619,8.475706 0.966672,0.542407 5.527609,7.896822 2.154225,2.07143 -2.487467,1.446348 4.34598,8.187309 1.828346,8.174031 -1.660246,2.668149 2.653463,8.775148 0,8.965065 -2.370732,-4.088042 2.132635,12.621967 -0.522385,6.064603 -1.353035,-4.031635 0.834879,8.319802 -0.261192,5.273568 -2.066854,-4.386731 1.605771,5.833844 0,7.646674 -3.730279,-0.36829 -4.18746,-9.161239 -6.00742,-9.492423 -0.09176,1.797793 0.303291,7.144783 -0.522385,2.900463 -0.595076,-2.196887 -3.060296,-10.188442 -2.934025,-5.66596 0.348149,6.4191 -2.269781,3.146669 -4.901741,0.919749 -0.41478,3.204582 -4.59839,8.222611 -3.395498,1.845748 -0.148083,3.395757 -1.278348,0.791159 -0.783577,-1.617662 -0.276193,-3.138701 0.291901,-6.348726 1.828346,-8.929474 -3.751769,5.764793 1.255632,-6.030119 1.305961,-8.437708 1.891399,-2.848705 -0.719108,2.361742 0,-1.881341 0.137093,-2.791577 -0.379642,-5.826744 0.522384,-8.402117 -2.250315,4.690848 1.13483,-4.768349 2.873114,-5.800925 -0.608656,-1.877188 -0.08961,-4.225789 -0.252493,-6.280585 0.465588,-0.737963 1.618339,-2.475606 2.603223,-1.10241 z"
         id="path1393"
         inkscape:connector-curvature="0" />
      <path
         style="fill:#855cb8;fill-opacity:1;stroke:#3c0069;stroke-width:0.97952306px;stroke-linecap:butt;stroke-linejoin:miter;stroke-opacity:1"
         d="m 42.04775,48.344431 c 2.164116,1.293137 6.121702,7.646273 5.485038,7.910352 -1.143109,-0.779227 2.319586,6.708896 0,1.58207 -0.115301,5.172393 2.735793,9.84374 4.701461,14.502312 2.012896,3.350404 -2.881572,-5.472375 -1.089002,0.534386 1.405127,2.480467 1.076086,6.764963 1.611386,10.01275 -1.910049,-0.827989 -2.050731,-1.550998 -1.828345,1.731705 0,3.02637 0,6.052739 0,9.079109 -2.95175,1.425094 -3.719619,-4.366553 -3.656692,1.054714 0.894707,3.195052 -1.747869,3.865559 -2.873114,0.527356 1.854187,6.284385 -4.970985,-1.967244 -3.917882,-4.746211 0.422157,2.882064 -2.514585,10.051346 -2.08954,3.164141 0.223043,1.040202 -2.911911,-0.432259 -1.82834,-3.349367 0.08988,-3.210539 -0.378585,-6.510072 0.78357,-9.570875 -1.009014,4.106673 1.410249,-4.317023 1.348876,-5.503369 0.416398,-1.092861 4.992012,-8.938614 3.882798,-6.482321 -2.219471,-0.403987 0.570721,-6.077962 0.785286,-8.315165 0.204802,-3.704317 1.699513,-7.933724 0.428663,-11.341138 -0.656769,-0.03758 -1.411854,0.213518 -1.744163,-0.790449 z"
         id="path1395"
         inkscape:connector-curvature="0" />
      <path
         style="fill:#855cb8;fill-opacity:1;stroke:#3c0069;stroke-width:0.97952306px;stroke-linecap:butt;stroke-linejoin:miter;stroke-opacity:1"
         d="m 98.987651,39.643044 c 0.154068,2.479576 5.072479,8.211061 4.179079,8.17403 -3.417534,-3.507719 -0.36342,1.395958 1.33739,2.404839 2.87653,3.010001 -2.07016,-1.40919 -0.53702,2.41355 0.87315,3.100252 3.95179,8.551147 -0.53918,4.674033 -0.62626,2.292109 -0.18649,5.25776 0.26119,7.646674 -1.44896,-1.011613 -0.29149,4.962104 -2.9021,1.315986 -1.889393,-3.433475 -3.370391,-3.327481 -5.456049,-6.589554 -0.09493,-0.886227 -1.693673,5.829381 -1.828346,0.527356 -1.488403,-3.484086 1.233052,-5.842994 1.828346,-8.965065 0.914081,-2.681717 1.573057,-5.431351 1.305961,-8.437709 0.288069,-1.445876 1.159934,-2.761113 2.350729,-3.16414 z"
         id="path1399"
         inkscape:connector-curvature="0" />
    </g>
    <g
       id="g1428"
       transform="matrix(0.6877311,0,0,0.67312342,-86.399796,41.081088)"
       style="stroke-width:1.46974945">
      <path
         style="fill:#fec900;fill-opacity:1;stroke:#e47200;stroke-width:1.46974945px;stroke-linecap:butt;stroke-linejoin:miter;stroke-opacity:1"
         d="m 270.25775,30.833342 c -2.6666,-4.022179 -4.94184,-6.753239 -7.875,-10.125 -2.88133,-4.440777 -7.47737,-7.740417 -12.15826,-9.813586 -5.18007,-1.854652 -12.13548,-0.9352779 -18.11582,-1.1551636 -3.4148,0.2206075 -6.79764,-0.7567069 -9.10092,1.4062496 -3.03743,2.41113 -1.63993,7.316153 -1.96875,10.96875 0.46281,4.105485 1.45407,7.822969 3.09375,11.53125 0.88377,3.86051 5.71028,5.462483 6.46875,8.71875 1.66135,2.017969 3.67241,4.433729 4.78125,6.46875 0.65298,3.47462 -1.28593,6.705034 -4.21875,7.875 -2.48002,1.035347 -5.13447,1.087053 -7.63317,2.585234 -1.88778,0.538008 -4.59178,1.964757 -6.99183,2.196016 -4.32138,1.543576 -9.16792,1.972116 -14.0079,2.53125 -4.75568,0.03887 -9.66307,-0.364066 -13.83585,1.125 -3.38466,0.312838 -6.2079,1.981091 -9.84375,1.6875 -4.85678,0.149171 -8.94905,-3.744916 -11.8125,-7.3125 -2.42179,-6.61285 -2.05057,-0.91756 -1.96875,2.766177 1.82718,4.912938 -3.73216,2.045554 -6.41415,2.577573 -2.73694,-0.131355 -7.7645,-0.0875 -2.8671,1.125 3.38503,1.546026 5.67907,4.922172 8.71875,6.75 2.81499,1.462665 6.50109,2.073444 8.71875,4.78125 2.31014,1.795786 4.2623,4.317391 7.03125,5.34375 3.56197,1.612423 7.05549,3.009344 10.40625,4.78125 4.39438,1.557156 7.63599,3.477954 11.8125,5.0625 4.12566,2.932853 8.77315,3.839313 13.5,5.34375 5.58953,-0.149536 11.45745,0.737961 16.3125,-1.6875 4.67846,-0.850146 9.59698,-1.820738 14.0625,-3.9375 3.02791,-2.53867 10.33047,-4.77014 11.53125,-10.125 1.09361,-7.171199 0.34142,-14.630073 0.5625,-21.9375 -1.31209,-3.053895 -2.82855,-5.42636 -3.65625,-8.71875 -1.32797,-3.171629 -0.4767,-6.58634 2.04664,-8.796643 2.49725,-2.892226 5.88457,-3.365565 8.92211,-5.547107 2.3845,-0.276573 8.06832,-3.901038 4.5,-6.46875 z"
         id="path1375"
         inkscape:connector-curvature="0" />
      <path
         style="fill:#fec900;fill-opacity:1;stroke:#e47200;stroke-width:1.46974945px;stroke-linecap:butt;stroke-linejoin:miter;stroke-opacity:1"
         d="m 228.32188,60.721545 c -2.34705,-0.1901 -4.82233,2.323058 -7.53149,2.344944 -3.84534,1.478971 -8.84104,3.104714 -10.0922,7.756353 -1.94449,2.265567 -0.77769,4.743458 1.80755,2.705705 -0.86137,0.946035 -3.11084,4.645187 -3.01259,7.215212 -0.61907,6.310582 4.68491,-5.347684 2.5607,1.803804 -0.84242,3.632311 3.36054,-2.656899 3.61512,3.066466 1.20813,3.989612 5.73307,1.2972 8.6847,2.39797 1.3673,2.925696 5.2464,3.915622 7.88459,2.472298 1.74744,-2.278845 0.96588,-6.50904 -2.25945,-6.674073 -1.86768,-1.265933 -3.61437,1.314344 -4.97134,0.78926 -1.05597,-3.247816 -2.41951,-8.009759 -1.64708,-11.362991 1.11343,-3.060769 3.68251,-4.440418 6.0159,-6.021257 1.86606,-1.405867 4.30677,-4.591559 1.95819,-6.313311 -0.919,-0.122149 -2.02186,-1.166628 -3.0126,-0.18038 z"
         id="path1373"
         inkscape:connector-curvature="0" />
      <path
         style="fill:#e8f7e7;fill-opacity:1;stroke:#000000;stroke-width:1.46974945px;stroke-linecap:butt;stroke-linejoin:miter;stroke-opacity:1"
         d="m 248.039,15.927092 c -3.61423,0.562098 -5.83605,4.326743 -7.3125,6.46875 -0.85794,3.685696 1.68612,6.830144 5.28915,6.46875 2.7481,-0.262096 7.35206,1.147518 7.9296,-2.53125 0.32367,-2.401604 -1.30389,-7.613 2.53125,-5.34375 5.9258,1.590114 -2.63693,-0.0072 -4.21875,-1.125 -2.72078,-3.313843 -6.66584,-5.378728 -10.125,-7.59375 1.01459,0.363702 4.63536,1.16582 6.46875,1.96875 3.91362,1.421627 7.72876,4.724344 10.18789,7.070119 -2.9071,0.29323 -6.34559,-0.916569 -8.50585,-3.286919 -1.09204,-2.355545 -2.07951,-3.398637 -4.55743,-4.869331 2.98014,1.300655 8.55809,3.45141 11.31289,6.148631 0.62966,1.182622 -5.05382,-0.406903 -5.78079,-2.124535 -2.45832,-3.889425 4.17209,2.675754 5.49954,4.093285 0.51778,1.910934 -6.12179,-4.009576 -7.65393,-5.576556 -1.18239,1.859776 -1.67327,-1.684659 -1.62732,-1.454694"
         id="path1377"
         inkscape:connector-curvature="0" />
      <path
         style="fill:#fe4f00;fill-opacity:1;stroke:#000000;stroke-width:1.46974945px;stroke-linecap:butt;stroke-linejoin:miter;stroke-opacity:1"
         d="m 262.94525,26.614592 c 3.38291,0.763524 8.83831,2.400009 12.65625,4.78125 4.01147,1.18793 6.83763,3.981 10.96875,5.0625 1.91262,3.312207 -4.11512,1.957565 -6.19577,2.25 -5.87826,-0.346273 -10.84146,1.983652 -16.82041,1.40625 -3.63937,0.07275 -8.68439,0.853597 -7.35882,-4.445405 0.26388,-3.372278 -1.2968,-8.28471 3.09375,-9.335845 1.23825,0.07981 2.53691,-0.936117 3.65625,0.28125 z"
         id="path1379"
         inkscape:connector-curvature="0" />
      <path
         style="fill:none;stroke:#000000;stroke-width:1.46974945px;stroke-linecap:butt;stroke-linejoin:miter;stroke-opacity:1"
         d="m 219.63275,98.614592 c -3.65644,9.330118 -9.30115,17.998008 -12.65625,27.281248 -0.28811,2.75423 3.98604,4.62029 5.57743,6.98368 1.15433,0.98045 2.37159,1.77043 -0.23368,0.89132"
         id="path1381"
         inkscape:connector-curvature="0" />
      <path
         style="fill:none;stroke:#000000;stroke-width:1.46974945px;stroke-linecap:butt;stroke-linejoin:miter;stroke-opacity:1"
         d="m 206.13275,127.02084 c 3.36209,-1.99849 7.15017,-2.16507 11.03178,-1.97904 -1.27781,-0.36748 -5.67833,-0.79187 -7.37553,0.57279 -6.25754,1.91905 0.70504,0.70579 4.5,1.40625 1.099,0.54727 2.21745,0.80131 3.375,1.40625"
         id="path1383"
         inkscape:connector-curvature="0" />
      <path
         style="fill:none;stroke:#000000;stroke-width:1.46974945px;stroke-linecap:butt;stroke-linejoin:miter;stroke-opacity:1"
         d="m 237.63275,96.083342 c 0.13439,3.894597 -0.39153,8.680138 0.5625,11.531248 0.80463,3.78019 1.79637,7.5278 1.40625,11.8125 0.85067,1.1071 -0.28751,3.03248 0.5625,4.21875"
         id="path1385"
         inkscape:connector-curvature="0" />
      <path
         style="fill:none;stroke:#000000;stroke-width:1.46974945px;stroke-linecap:butt;stroke-linejoin:miter;stroke-opacity:1"
         d="m 248.039,130.11459 c -1.71311,-3.19915 -7.96221,-6.58591 -7.9296,-8.4375 3.53309,0.24561 6.74692,-0.4201 9.89835,-1.125"
         id="path1387"
         inkscape:connector-curvature="0" />
      <path
         style="fill:none;stroke:#000000;stroke-width:1.46974945px;stroke-linecap:butt;stroke-linejoin:miter;stroke-opacity:1"
         d="m 239.32025,122.80209 c 3.63547,0.84613 7.87561,-0.59187 10.96875,1.40625 h 1.40625"
         id="path1389"
         inkscape:connector-curvature="0" />
      <path
         style="fill:#000000;fill-opacity:1;stroke:none;stroke-width:1.46974945px;stroke-linecap:butt;stroke-linejoin:miter;stroke-opacity:1"
         d="m 252.164,24.114592 c -1.22404,6.08114 -7.64323,0.258625 -4.375,-2.5 1.70464,-1.64044 5.75577,-0.201073 4.375,2.5 0.54237,1.502244 -3.78216,4.037069 -3.375,2 l 0.125,-0.125 h 0.125"
         id="path1416"
         inkscape:connector-curvature="0" />
    </g>
  </g>
</svg>
