<?xml version="1.0" encoding="UTF-8" standalone="no"?>
<!-- Created with Inkscape (http://www.inkscape.org/) -->

<svg
   width="256"
   height="256"
   viewBox="0 0 67.733333 67.733333"
   version="1.1"
   id="svg5"
   inkscape:version="1.1.2 (0a00cf5339, 2022-02-04)"
   sodipodi:docname="classic-tall-individual-spoof.svg"
   xmlns:inkscape="http://www.inkscape.org/namespaces/inkscape"
   xmlns:sodipodi="http://sodipodi.sourceforge.net/DTD/sodipodi-0.dtd"
   xmlns="http://www.w3.org/2000/svg"
   xmlns:svg="http://www.w3.org/2000/svg">
  <sodipodi:namedview
     id="namedview7"
     pagecolor="#ffffff"
     bordercolor="#666666"
     borderopacity="1.0"
     inkscape:pageshadow="2"
     inkscape:pageopacity="0.0"
     inkscape:pagecheckerboard="0"
     inkscape:document-units="px"
     showgrid="false"
     inkscape:snap-page="false"
     inkscape:snap-global="false"
     units="px"
     width="256px"
     inkscape:zoom="1"
     inkscape:cx="133.5"
     inkscape:cy="19.5"
     inkscape:window-width="1920"
     inkscape:window-height="1141"
     inkscape:window-x="0"
     inkscape:window-y="0"
     inkscape:window-maximized="1"
     inkscape:current-layer="layer1" />
  <defs
     id="defs2" />
  <g
     inkscape:label="Layer 1"
     inkscape:groupmode="layer"
     id="layer1">
    <path
       style="fill:#ff0000;stroke:none;stroke-width:0.0972371px;stroke-linecap:butt;stroke-linejoin:miter;stroke-opacity:1;fill-opacity:1"
       d="m 29.38119,15.264645 c 2.457542,-0.695528 4.964177,-0.323827 7.448989,-0.417935 0.851289,0.114969 1.883856,-0.415376 2.515114,0.667061 -0.185653,1.291304 -1.318794,0.691458 -1.975379,0.830962 -2.136168,-0.04312 -4.281138,0.09371 -6.410315,-0.08427 -0.330251,-0.257445 -2.715147,-0.602127 -1.578409,-0.995818 z"
       id="path857" />
    <path
       style="fill:#ff0000;stroke:none;stroke-width:0.136825px;stroke-linecap:butt;stroke-linejoin:miter;stroke-opacity:1;fill-opacity:1"
       d="m 31.558423,14.250716 c 0.478332,-3.24999 -0.461443,-9.3417241 1.086892,-10.4273492 1.552463,-0.8556359 3.146259,-0.1396333 4.70922,-0.6445484 1.165624,1.0880357 0.212815,7.0630626 0.458732,10.1218666 l -0.05731,0.58934 -0.03293,0.588912"
       id="path859" />
    <path
       style="fill:#ff0000;stroke:none;stroke-width:0.110127px;stroke-linecap:butt;stroke-linejoin:miter;stroke-opacity:1;fill-opacity:1"
       d="m 37.405852,16.079151 c 0.283066,1.826263 0.447214,4.044579 -0.677868,5.604527 -1.330823,1.424597 -4.312167,1.61084 -4.673244,-0.752085 -0.536095,-1.792732 -0.315892,-3.686664 0.05232,-5.480226"
       id="path861" />
    <path
       style="fill:#ff0000;stroke:none;stroke-width:0.110127px;stroke-linecap:butt;stroke-linejoin:miter;stroke-opacity:1;fill-opacity:1"
       d="m 35.946484,26.542721 c 0.238688,1.680334 0.201066,3.16251 0.461949,4.874987 0.326332,2.393387 0.417981,4.828917 0.942974,7.185611 0.649408,0.707219 -0.338818,4.096573 0.563889,4.405572 0.342375,0.718934 2.231314,-1.472652 2.0982,-2.084662 -0.08104,-2.025906 -0.427657,-4.054026 -0.618929,-6.078678 -1.146109,-3.203208 -0.949743,-6.073814 -1.236814,-9.426517 0.0088,-1.692011 -1.010631,-2.503838 -2.630669,-1.981225 -1.595484,0.04773 -3.266604,-0.253406 -4.789918,0.267133 -0.845961,2.848184 -0.98297,5.880221 -1.519258,8.813565 -0.09065,2.940836 -0.71648,5.865116 -0.986467,8.807937 -0.251838,1.173533 0.721641,2.551903 1.714526,1.721331 0.240201,-1.832384 0.275647,-3.698099 0.506858,-5.539374 0.167279,-2.055431 1.145946,-3.908078 1.152652,-5.991085 0.223037,-1.915435 0.443198,-3.838481 1.471576,-5.504625"
       id="path867"
       sodipodi:nodetypes="ccccccccccccccc" />
    <path
       style="fill:#ff0000;stroke:none;stroke-width:0.110127px;stroke-linecap:butt;stroke-linejoin:miter;stroke-opacity:1;fill-opacity:1"
       d="m 31.264489,34.064554 c 0.117583,2.6932 -0.138077,5.383285 -0.588358,8.024442 0.112375,1.422937 -1.48242,5.023024 1.242428,3.601255 1.54759,-0.745499 3.841193,-0.0645 5.051003,-0.606713 -0.14003,-0.632373 -0.135736,-1.294023 -0.349541,-1.896512 L 36.860624,31.38702 36.517708,25.751543 31.908392,24.747576 Z"
       id="path869"
       sodipodi:nodetypes="ccccccccc" />
    <path
       style="fill:#ff0000;stroke:none;stroke-width:0.110127px;stroke-linecap:butt;stroke-linejoin:miter;stroke-opacity:1;fill-opacity:1"
       d="m 37.013917,45.629437 c -0.107506,3.227295 -1.065054,6.374829 -0.918976,9.615513 -0.460043,1.806908 0.434917,4.378905 -0.73684,5.683571 -1.212989,0.162004 -2.509951,0.564713 -1.754085,-1.088873 -0.165954,-1.896959 0.126493,-3.759162 0.341557,-5.636317 -0.04994,-1.847286 0.110017,-3.723558 -0.114432,-5.551588 -0.921586,1.259621 -0.475438,3.292299 -1.23376,4.671899 -0.668054,1.68375 -0.891234,3.071329 -1.47667,5.133205 -0.532641,1.128856 0.02013,3.578632 -1.87997,2.92222 -1.243698,-0.485484 0.319003,-3.167973 0.0586,-4.468411 0.219924,-1.935409 0.157048,-3.885766 0.585457,-5.804118 0.0726,-1.538623 0.232963,-3.092514 0.488166,-4.593309 l 0.103047,-0.201047 0.06781,-0.222981"
       id="path871" />
    <path
       style="fill:#ff0000;stroke:none;stroke-width:0.110127px;stroke-linecap:butt;stroke-linejoin:miter;stroke-opacity:1;fill-opacity:1"
       d="m 33.891926,61.119882 c 1.517885,-0.114059 3.885926,8.32e-4 4.08274,1.977561 0.248256,1.750167 -2.762001,0.120756 -3.876176,0.430363 -1.102853,0.09158 0.18978,-1.886562 -0.206564,-2.407924 z"
       id="path873" />
    <path
       style="fill:#ff0000;stroke:none;stroke-width:0.110127px;stroke-linecap:butt;stroke-linejoin:miter;stroke-opacity:1;fill-opacity:1"
       d="m 29.609308,61.350401 c -1.792,-0.0079 -3.563426,1.225804 -3.123515,3.323992 0.877499,-1.274902 3.43515,-1.005578 3.870935,-2.325261 0.08109,-0.365911 -0.29798,-1.13023 -0.74742,-0.998731 z"
       id="path910" />
    <path
       style="fill:#ff0000;stroke:none;stroke-width:0.110127px;stroke-linecap:butt;stroke-linejoin:miter;stroke-opacity:1;fill-opacity:1"
       d="m 34.323925,20.792537 c -0.09823,0.281853 -0.0092,0.606708 -0.176961,0.868792 -0.134464,0.304335 -0.118037,0.64467 -0.151783,0.968823 0.03169,-0.0065 0.02276,-0.179144 -0.01136,-0.03026 -0.120326,0.356224 -0.103076,0.737347 -0.08761,1.10683 -0.01836,0.163256 -0.04855,0.420895 0.192341,0.390017 0.417626,0.01861 0.835982,0.0055 1.253953,0.0093 0.0055,-0.409856 -0.04153,-0.819478 -0.0095,-1.229191 0.0195,-0.465316 0.01028,-0.938506 -0.120884,-1.388945 -0.08292,-0.314749 -0.188941,-0.628106 -0.191955,-0.9572 -0.0046,-0.113278 -0.01933,-0.343552 -0.170738,-0.19965 -0.156889,0.130464 -0.223519,0.36085 -0.429331,0.431193 -0.03127,0.01238 -0.06357,0.02222 -0.09613,0.03033 z"
       id="path1708" />
    <path
       style="fill:#ff0000;fill-opacity:1;stroke:none;stroke-width:0.264583px;stroke-linecap:butt;stroke-linejoin:miter;stroke-opacity:1"
       d="m 34.025582,44.849479 c -2.160502,0.372686 -4.355037,0.241335 -6.535158,0.26455 -1.786604,0.466815 -3.306812,1.640287 -4.566516,2.947827 -1.541505,1.892346 -2.301596,4.455631 -4.405488,5.859851 -1.331272,0.604531 -2.874419,0.452256 -4.305653,0.595125 -1.218426,0.125807 -2.454819,-0.101021 -3.514117,-0.731991 -1.4929086,-0.715086 -2.6074762,-2.33321 -2.3251333,-4.030993 -0.1365978,-1.483252 0.1207577,-2.928354 0.4428194,-4.365756 0.137061,-1.480193 1.0479979,-2.682297 1.6669619,-3.985166 0.565729,-1.19585 1.329057,-2.263855 2.234505,-3.224913 0.422026,-0.462702 1.353349,-1.399273 0.09203,-1.325902 -0.321014,-0.0048 -0.977716,0.109933 -1.722192,0.04834 0.747956,-0.383768 0.688489,-0.371176 1.034589,-0.457576 1.292278,-0.453999 2.576287,-0.935993 3.920673,-1.186826 -0.288298,0.881606 -0.498544,2.262626 -0.745927,3.29837 -0.01434,0.372739 -0.439904,0.842776 -0.622156,1.226346 -0.07406,-0.152194 -0.137686,-0.639507 -0.111467,-1.096392 -0.01521,-0.558095 -0.257757,-2.060918 -0.776856,-0.870362 -0.713297,1.156374 -1.639521,2.176606 -2.196959,3.439426 -0.804455,1.009982 -0.950807,2.309114 -1.464291,3.452824 -0.3920074,1.432539 -0.7019245,2.895349 -1.0326874,4.331307 0.2189443,1.315446 0.5755219,2.767905 1.4508014,3.801657 1.282577,1.110738 3.11136,0.920311 4.681519,0.787451 1.102536,-0.07664 2.057901,-0.595537 2.916515,-1.257564 1.252574,-0.675989 1.030174,-2.271025 1.807515,-3.305774 0.906545,-1.287374 1.871753,-2.543733 2.881334,-3.754514 1.092854,-0.897747 2.554259,-1.302835 3.964651,-1.259655 2.432566,-0.119341 4.857795,0.152773 7.271552,0.410001 0.65952,-0.01663 0.248729,0.215278 -0.04087,0.39031 z"
       id="path2772"
       sodipodi:nodetypes="scccccccccccccccccccccccccccss" />
    <path
       style="fill:#ff0000;stroke:none;stroke-width:0.264583px;stroke-linecap:butt;stroke-linejoin:miter;stroke-opacity:1"
       d="m 35.369515,7.6277791 c 3.46693,-0.9667156 5.270219,-1.9879769 4.896618,-4.345732 0,0 1.646793,3.1487797 -0.301848,4.4993988 -1.948643,1.3506191 -4.279778,1.2436433 -4.279778,1.2436433 0,0 -4.05122,1.0192168 -6.13071,-1.6540787 -2.07949,-2.673296 -0.08387,-4.1138682 -0.08387,-4.1138682 0,0 -1.3123,2.9214462 3.314972,3.6585445 2.922975,0.4656135 2.584621,0.7120924 2.584621,0.7120923 z"
       id="path3745"
       sodipodi:nodetypes="ccscscsc" />
  </g>
</svg>
